<?xml version="1.0" encoding="UTF-8" standalone="no"?>
<svg
   xmlns:dc="http://purl.org/dc/elements/1.1/"
   xmlns:cc="http://creativecommons.org/ns#"
   xmlns:rdf="http://www.w3.org/1999/02/22-rdf-syntax-ns#"
   xmlns:svg="http://www.w3.org/2000/svg"
   xmlns="http://www.w3.org/2000/svg"
   xmlns:sodipodi="http://sodipodi.sourceforge.net/DTD/sodipodi-0.dtd"
   xmlns:inkscape="http://www.inkscape.org/namespaces/inkscape"
   width="131.73404mm"
   height="131.7359mm"
   viewBox="0 0 131.73404 131.73591"
   version="1.1"
   id="svg1646"
   inkscape:version="1.0 (4035a4fb49, 2020-05-01)"
   sodipodi:docname="cpp-sqr.svg"
   inkscape:export-filename="C:\Users\Bartek\Desktop\personal\bartlomiejnowak94\pics\cpp-sqr.png"
   inkscape:export-xdpi="96"
   inkscape:export-ydpi="96">
  <defs
     id="defs1640">
    <clipPath
       clipPathUnits="userSpaceOnUse"
       id="clipPath1878">
      <path
         style="fill:none;stroke:#000000;stroke-width:0.26206px;stroke-linecap:butt;stroke-linejoin:miter;stroke-opacity:1"
         d="M -28.677941,388.28534 H 136.88302 V 225.74871 Z"
         id="path1880" />
    </clipPath>
    <clipPath
       id="clipPath1878-7"
       clipPathUnits="userSpaceOnUse">
      <path
         id="path1880-7"
         d="M -28.677941,388.28534 H 136.88302 V 225.74871 Z"
         style="fill:none;stroke:#000000;stroke-width:0.26206px;stroke-linecap:butt;stroke-linejoin:miter;stroke-opacity:1" />
    </clipPath>
    <clipPath
       id="clipPath1878-3"
       clipPathUnits="userSpaceOnUse">
      <path
         id="path1880-9"
         d="M -28.677941,388.28534 H 136.88302 V 225.74871 Z"
         style="fill:none;stroke:#000000;stroke-width:0.26206px;stroke-linecap:butt;stroke-linejoin:miter;stroke-opacity:1" />
    </clipPath>
    <clipPath
       clipPathUnits="userSpaceOnUse"
       id="clipPath1878-7-1">
      <path
         style="fill:none;stroke:#000000;stroke-width:0.26206px;stroke-linecap:butt;stroke-linejoin:miter;stroke-opacity:1"
         d="M -28.677941,388.28534 H 136.88302 V 225.74871 Z"
         id="path1880-7-1" />
    </clipPath>
  </defs>
  <sodipodi:namedview
     lock-margins="true"
     id="base"
     pagecolor="#ffffff"
     bordercolor="#666666"
     borderopacity="1.0"
     inkscape:pageopacity="0.0"
     inkscape:pageshadow="2"
     inkscape:zoom="0.35"
     inkscape:cx="339.37186"
     inkscape:cy="344.98135"
     inkscape:document-units="mm"
     inkscape:current-layer="layer1"
     inkscape:document-rotation="0"
     showgrid="false"
     fit-margin-top="6"
     fit-margin-left="6"
     fit-margin-right="6"
     fit-margin-bottom="6"
     inkscape:window-width="1920"
     inkscape:window-height="1017"
     inkscape:window-x="-8"
     inkscape:window-y="-8"
     inkscape:window-maximized="1"
     inkscape:snap-global="false" />
  <metadata
     id="metadata1643">
    <rdf:RDF>
      <cc:Work
         rdf:about="">
        <dc:format>image/svg+xml</dc:format>
        <dc:type
           rdf:resource="http://purl.org/dc/dcmitype/StillImage" />
        <dc:title></dc:title>
      </cc:Work>
    </rdf:RDF>
  </metadata>
  <g
     inkscape:label="Warstwa 1"
     inkscape:groupmode="layer"
     id="layer1"
     transform="translate(-39.132982,-82.632044)">
    <g
       transform="translate(53.247291,-162.38205)"
       id="g1905"
       style="fill:#659ad2;fill-opacity:1">
      <rect
         style="fill:#659ad2;fill-opacity:1;stroke:none;stroke-width:0.838062;stroke-linejoin:round;stroke-opacity:1"
         id="rect860-4-8"
         width="119.16193"
         height="119.16193"
         x="-8.1143093"
         y="251.58807"
         ry="16.570711"
         clip-path="url(#clipPath1878-3)" />
      <rect
         clip-path="url(#clipPath1878-7-1)"
         ry="16.570711"
         y="251.58807"
         x="-8.1143093"
         height="119.16193"
         width="119.16193"
         id="rect860-4-8-8"
         style="fill:#659ad2;fill-opacity:1;stroke:none;stroke-width:0.838062;stroke-linejoin:round;stroke-opacity:1"
         transform="rotate(179.67959,51.633248,311.00244)" />
    </g>
    <path
       style="fill:#ffffff;stroke-width:0.199344"
       d="m 102.24518,198.28048 c -0.38374,-0.14726 -5.541748,-3.06972 -11.462248,-6.49437 -5.9205,-3.42465 -14.35273,-8.2998 -18.73829,-10.83366 -4.69969,-2.71537 -8.34845,-4.95546 -8.88632,-5.45561 -1.04465,-0.97138 -1.80167,-2.26318 -2.26268,-3.86111 -0.28676,-0.99397 -0.31447,-3.43807 -0.26678,-23.53296 l 0.0532,-22.4238 0.73613,-1.48464 c 0.43687,-0.88109 1.1257,-1.86273 1.69442,-2.41468 0.88134,-0.85536 8.65119,-5.42522 35.40081,-20.82108 3.633038,-2.091008 4.631838,-2.469101 6.522568,-2.469101 1.94633,0 2.86819,0.36634 7.2196,2.869011 30.55995,17.5763 33.73259,19.45419 34.86761,20.63828 0.61717,0.64385 1.37966,1.69558 1.69442,2.33719 l 0.57229,1.16655 v 23.03451 23.0345 l -0.75067,1.51888 c -0.52057,1.0533 -1.07051,1.80569 -1.79409,2.45458 -0.68806,0.61701 -7.25551,4.52639 -19.28335,11.47868 -10.03196,5.79864 -18.6436,10.74448 -19.13697,10.99076 -0.75146,0.37512 -1.26913,0.45494 -3.1895,0.4918 -1.5373,0.0295 -2.52227,-0.0442 -2.99015,-0.22373 z m 8.37773,-20.65078 c 5.80311,-1.17711 11.08271,-3.96186 15.16462,-7.99866 2.12799,-2.10446 5.03666,-5.95242 4.72929,-6.25651 -0.0355,-0.0351 -2.88776,-1.69716 -6.33836,-3.69344 -5.58992,-3.23395 -6.29615,-3.59158 -6.47866,-3.28076 -0.47935,0.81632 -1.96638,2.51813 -3.02394,3.46071 -1.35043,1.20362 -3.5808,2.40314 -5.653,3.04025 -2.16104,0.66442 -5.84811,0.66699 -7.97374,0.006 -2.657458,-0.82693 -4.501208,-1.92551 -6.397188,-3.8117 -1.46577,-1.45819 -1.86157,-2.00517 -2.74602,-3.79484 -1.2111,-2.45066 -1.61307,-4.13856 -1.61788,-6.79359 -0.004,-2.40314 0.49873,-4.48463 1.63377,-6.75973 0.67715,-1.35729 1.20321,-2.05138 2.64404,-3.48856 0.98929,-0.98678 2.3135,-2.096 2.9427,-2.46494 4.795478,-2.81189 10.950948,-2.65765 15.631258,0.39169 1.36043,0.88635 3.84325,3.37584 4.35632,4.36801 l 0.3213,0.62132 0.63614,-0.37528 c 0.34988,-0.20641 3.10301,-1.79601 6.11809,-3.53245 3.01506,-1.73644 5.60678,-3.27118 5.75936,-3.41053 0.23538,-0.21499 0.21129,-0.36544 -0.15897,-0.993 -1.58353,-2.68387 -4.95071,-6.25462 -7.89284,-8.37003 -1.95707,-1.40713 -5.82387,-3.39702 -7.87407,-4.05206 -13.22478,-4.22532 -26.977428,0.73553 -34.522948,12.45309 -3.22034,5.00094 -4.90816,12.02276 -4.35657,18.12465 0.82717,9.15042 5.55552,17.10031 13.2305,22.24476 3.91404,2.62355 8.41507,4.2166 13.688408,4.84476 1.63259,0.19447 6.16855,-0.0711 8.17839,-0.47872 z m 20.72642,-25.81587 v -1.69441 h 1.59474 1.59475 v -1.59475 -1.59475 h -1.59475 -1.59474 v -1.59474 -1.59475 h -1.59475 -1.59475 v 1.59475 1.59474 h -1.69442 -1.69442 v 1.59475 1.59475 h 1.69442 1.69442 v 1.69441 1.69443 h 1.59475 1.59475 z m 12.35929,0 v -1.69441 h 1.59475 1.59475 v -1.59475 -1.59475 h -1.59475 -1.59475 v -1.59474 -1.59475 h -1.59475 -1.59475 v 1.59475 1.59474 h -1.69442 -1.69442 v 1.58669 1.58668 l 1.64459,0.0579 1.64458,0.0579 0.0579,1.64458 0.0579,1.64459 h 1.58669 1.58669 z"
       id="path2623" />
  </g>
</svg>
