<?xml version="1.0" encoding="UTF-8" standalone="no"?>
<svg
   xmlns:dc="http://purl.org/dc/elements/1.1/"
   xmlns:cc="http://creativecommons.org/ns#"
   xmlns:rdf="http://www.w3.org/1999/02/22-rdf-syntax-ns#"
   xmlns:svg="http://www.w3.org/2000/svg"
   xmlns="http://www.w3.org/2000/svg"
   xmlns:sodipodi="http://sodipodi.sourceforge.net/DTD/sodipodi-0.dtd"
   xmlns:inkscape="http://www.inkscape.org/namespaces/inkscape"
   width="131.16193mm"
   height="131.16193mm"
   viewBox="0 0 131.16193 131.16193"
   version="1.1"
   id="svg1646"
   inkscape:version="1.0 (4035a4fb49, 2020-05-01)"
   sodipodi:docname="css-sqr.svg"
   inkscape:export-filename="C:\Users\Bartek\Desktop\personal\bartlomiejnowak94\pics\css-sqr.png"
   inkscape:export-xdpi="96"
   inkscape:export-ydpi="96">
  <defs
     id="defs1640" />
  <sodipodi:namedview
     lock-margins="true"
     id="base"
     pagecolor="#ffffff"
     bordercolor="#666666"
     borderopacity="1.0"
     inkscape:pageopacity="0.0"
     inkscape:pageshadow="2"
     inkscape:zoom="0.7"
     inkscape:cx="226.84596"
     inkscape:cy="289.77492"
     inkscape:document-units="mm"
     inkscape:current-layer="layer1"
     inkscape:document-rotation="0"
     showgrid="false"
     fit-margin-top="6"
     fit-margin-left="6"
     fit-margin-right="6"
     fit-margin-bottom="6"
     inkscape:window-width="1920"
     inkscape:window-height="1017"
     inkscape:window-x="-8"
     inkscape:window-y="-8"
     inkscape:window-maximized="1" />
  <metadata
     id="metadata1643">
    <rdf:RDF>
      <cc:Work
         rdf:about="">
        <dc:format>image/svg+xml</dc:format>
        <dc:type
           rdf:resource="http://purl.org/dc/dcmitype/StillImage" />
        <dc:title></dc:title>
      </cc:Work>
    </rdf:RDF>
  </metadata>
  <g
     inkscape:label="Warstwa 1"
     inkscape:groupmode="layer"
     id="layer1"
     transform="translate(-39.419037,-82.919037)">
    <rect
       style="fill:#2965f1;fill-opacity:1;stroke:none;stroke-width:0.838062;stroke-linejoin:round;stroke-opacity:1"
       id="rect860"
       width="119.16193"
       height="119.16193"
       x="45.419037"
       y="88.919037"
       ry="16.570711" />
    <path
       style="fill:#ffffff;stroke-width:0.191032"
       d="M 90.88526,192.69681 C 83.3989,190.60613 77.24084,188.86262 77.2007,188.82235 77.1256,188.747 71.01935,120.43889 71.0188,119.66758 l -3e-4,-0.43043 H 105 138.9815 l -0.11037,1.00434 c -0.0607,0.55239 -1.45767,16.19866 -3.10437,34.76949 -1.6467,18.57084 -3.00853,33.78426 -3.02629,33.80761 -0.0865,0.11382 -27.6276,7.70361 -27.91342,7.69242 -0.18162,-0.007 -6.45542,-1.72351 -13.94179,-3.8142 z m 22.81464,-13.40765 c 4.59076,-1.27219 8.40365,-2.3698 8.47309,-2.43913 0.0694,-0.0693 0.94911,-9.42342 1.95483,-20.78687 1.00571,-11.36346 1.87976,-21.06974 1.94231,-21.56952 l 0.11374,-0.9087 h -21.19223 c -16.82604,0 -21.19246,0.0493 -21.19331,0.23913 -0.002,0.49375 0.60303,7.33522 0.68542,7.74781 l 0.086,0.43043 h 16.21751 16.21752 l -0.10721,0.9087 c -0.17213,1.45907 -0.66759,6.99023 -0.66831,7.46085 l -6.6e-4,0.43044 h -15.45154 c -12.23272,0 -15.45206,0.0498 -15.45405,0.23912 -0.005,0.4802 0.60123,7.33002 0.68575,7.74782 l 0.0871,0.43043 h 14.70653 14.70652 l -0.10962,0.81304 c -0.0603,0.44718 -0.29418,2.92217 -0.51975,5.49999 -0.22557,2.57782 -0.46498,4.7453 -0.53201,4.81662 -0.067,0.0713 -2.23643,0.69853 -4.82089,1.39381 l -4.69901,1.26414 -4.63784,-1.24949 c -2.55081,-0.68723 -4.69378,-1.31444 -4.76216,-1.39381 -0.0684,-0.0794 -0.22997,-1.47867 -0.3591,-3.10953 -0.12912,-1.63087 -0.27678,-3.11586 -0.32812,-3.3 -0.0852,-0.30551 -0.45076,-0.33478 -4.18182,-0.33478 -3.74211,0 -4.08848,0.0279 -4.08848,0.3296 0,0.67568 0.96332,11.27681 1.09893,12.09352 l 0.14101,0.84922 3.71981,1.0361 c 2.0459,0.56986 5.78002,1.61966 8.29805,2.3329 2.51803,0.71325 4.81381,1.30681 5.10174,1.31903 0.28792,0.0122 4.27956,-1.01868 8.87032,-2.29087 z M 99.25094,111.68064 v -2.0087 h 2.95678 c 2.47785,0 2.95677,-0.0457 2.95677,-0.28197 0,-0.23379 -0.49706,-0.291 -2.90908,-0.33478 l -2.90909,-0.0528 -0.0513,-4.25651 -0.0513,-4.25651 h 5.24954 5.24955 v 1.91304 1.91304 h -3.05216 c -2.58586,0 -3.05215,0.0439 -3.05215,0.28695 0,0.24311 0.46629,0.28696 3.05215,0.28696 h 3.05216 v 4.39999 4.39999 h -5.2459 -5.24589 z m 12.39938,0.003 v -2.01177 h 2.95678 c 2.50107,0 2.95678,-0.0442 2.95678,-0.28696 0,-0.24273 -0.45571,-0.28695 -2.95678,-0.28695 h -2.95678 v -4.30434 -4.30434 h 5.2528 5.25281 l -0.0546,1.86521 -0.0546,1.86522 -3.00447,0.0527 c -2.4725,0.0434 -3.00447,0.10177 -3.00447,0.32992 0,0.22816 0.53197,0.28657 3.00447,0.32992 l 3.00447,0.0527 v 4.30434 4.30434 l -5.1982,0.0509 -5.19821,0.0509 v -2.01176 z m -24.79876,-4.69003 v -6.50433 h 5.2459 5.24589 v 2.19999 2.2 h -2.95678 -2.95678 v 2.10434 2.10435 h 2.95678 2.95678 v 2.19999 2.2 h -5.24589 -5.2459 z"
       id="path1739" />
  </g>
</svg>
