<?xml version="1.0" encoding="UTF-8" standalone="no"?>
<svg
   xmlns:dc="http://purl.org/dc/elements/1.1/"
   xmlns:cc="http://creativecommons.org/ns#"
   xmlns:rdf="http://www.w3.org/1999/02/22-rdf-syntax-ns#"
   xmlns:svg="http://www.w3.org/2000/svg"
   xmlns="http://www.w3.org/2000/svg"
   xmlns:sodipodi="http://sodipodi.sourceforge.net/DTD/sodipodi-0.dtd"
   xmlns:inkscape="http://www.inkscape.org/namespaces/inkscape"
   sodipodi:docname="green.svg"
   inkscape:version="1.0 (4035a4fb49, 2020-05-01)"
   id="svg554"
   version="1.1"
   viewBox="0 0 161.64752 161.64752"
   height="161.64752mm"
   width="161.64752mm">
  <defs
     id="defs548" />
  <sodipodi:namedview
     inkscape:window-maximized="1"
     inkscape:window-y="-8"
     inkscape:window-x="1912"
     inkscape:window-height="1017"
     inkscape:window-width="1920"
     fit-margin-bottom="0"
     fit-margin-right="0"
     fit-margin-left="0"
     fit-margin-top="0"
     showgrid="false"
     inkscape:document-rotation="0"
     inkscape:current-layer="layer1"
     inkscape:document-units="mm"
     inkscape:cy="359.76135"
     inkscape:cx="320.66139"
     inkscape:zoom="0.35"
     inkscape:pageshadow="2"
     inkscape:pageopacity="0.0"
     borderopacity="1.0"
     bordercolor="#666666"
     pagecolor="#ffffff"
     id="base" />
  <metadata
     id="metadata551">
    <rdf:RDF>
      <cc:Work
         rdf:about="">
        <dc:format>image/svg+xml</dc:format>
        <dc:type
           rdf:resource="http://purl.org/dc/dcmitype/StillImage" />
        <dc:title></dc:title>
      </cc:Work>
    </rdf:RDF>
  </metadata>
  <g
     transform="translate(-20.991673,-52.97981)"
     id="layer1"
     inkscape:groupmode="layer"
     inkscape:label="Warstwa 1">
    <g
       transform="matrix(0.64129774,0,0,0.64129774,40.150068,116.8359)"
       id="g4930">
      <g
         transform="matrix(-0.28747297,-0.03917128,0.03917128,-0.28747297,82.790952,149.49412)"
         id="g28">
        <path
           id="path30"
           style="fill:#08a84d;fill-opacity:1;fill-rule:evenodd;stroke:none"
           d="m 0,0 c -2.921,-7.054 -11.039,-10.416 -18.095,-7.494 -7.054,2.922 -10.414,11.038 -7.492,18.092 2.921,7.055 11.037,10.417 18.091,7.496 C -0.44,15.171 2.922,7.054 0,0 M 34.491,90.007 15.006,42.967 40.71,53.609 47.362,37.552 2.713,19.059 -2.333,31.239 -14.506,26.192 -32.998,70.838 -16.94,77.489 -6.014,51.118 13.667,98.632 Z" />
      </g>
      <g
         transform="matrix(-0.28747297,-0.03917128,0.03917128,-0.28747297,109.52331,-96.577475)"
         id="g32">
        <path
           id="path34"
           style="fill:#08a84d;fill-opacity:1;fill-rule:evenodd;stroke:none"
           d="M 0,0 C 2.921,7.054 11.039,10.416 18.094,7.494 25.149,4.572 28.509,-3.545 25.587,-10.599 22.665,-17.653 14.55,-21.016 7.496,-18.094 0.44,-15.172 -2.923,-7.055 0,0 m -34.491,-90.008 19.485,47.04 -25.705,-10.642 -6.651,16.057 44.648,18.493 5.047,-12.179 12.172,5.046 18.493,-44.646 -16.058,-6.65 -10.927,26.37 -19.68,-47.514 z" />
      </g>
      <g
         transform="matrix(-0.28747297,-0.03917128,0.03917128,-0.28747297,129.27416,146.2281)"
         id="g36">
        <path
           id="path38"
           style="fill:#08a84d;fill-opacity:1;fill-rule:evenodd;stroke:none"
           d="m 0,0 c -5.399,-5.399 -14.185,-5.399 -19.585,0.001 -5.399,5.399 -5.398,14.184 0.001,19.583 5.399,5.399 14.184,5.4 19.583,0.002 C 5.399,14.186 5.399,5.398 0,0 M 66.31,69.958 30.307,33.955 58.127,33.95 V 16.571 H 9.8 L 9.799,29.755 -3.377,29.75 v 48.325 l 17.38,-0.001 0.002,-28.545 36.367,36.366 z" />
      </g>
      <g
         transform="matrix(-0.28747297,-0.03917128,0.03917128,-0.28747297,63.040437,-93.311562)"
         id="g40">
        <path
           id="path42"
           style="fill:#08a84d;fill-opacity:1;fill-rule:evenodd;stroke:none"
           d="m 0,0 c 5.399,5.399 14.186,5.399 19.585,-0.001 5.399,-5.399 5.398,-14.184 0,-19.583 C 14.186,-24.983 5.4,-24.984 0.002,-19.585 -5.398,-14.185 -5.398,-5.399 0,0 m -66.309,-69.958 36.002,36.003 -27.819,0.005 v 17.38 H -9.8 l 0.002,-13.185 13.176,0.005 v -48.324 h -17.38 l -0.003,28.546 -36.366,-36.367 z" />
      </g>
      <g
         transform="matrix(-0.28747297,-0.03917128,0.03917128,-0.28747297,171.76941,126.4358)"
         id="g44">
        <path
           id="path46"
           style="fill:#08a84d;fill-opacity:1;fill-rule:evenodd;stroke:none"
           d="m 0,0 c -7.054,-2.922 -15.171,0.441 -18.094,7.497 -2.922,7.053 0.441,15.169 7.495,18.091 C -3.545,28.51 4.572,25.149 7.494,18.095 10.416,11.04 7.055,2.923 0,0 M 88.033,39.257 40.993,19.771 66.694,9.122 60.044,-6.936 15.396,11.559 20.439,23.74 8.264,28.779 26.757,73.424 42.814,66.773 31.894,40.399 79.408,60.081 Z" />
      </g>
      <g
         transform="matrix(-0.28747297,-0.03917128,0.03917128,-0.28747297,20.544837,-73.519017)"
         id="g48">
        <path
           id="path50"
           style="fill:#08a84d;fill-opacity:1;fill-rule:evenodd;stroke:none"
           d="m 0,0 c 7.055,2.922 15.171,-0.44 18.094,-7.496 2.922,-7.054 -0.441,-15.17 -7.495,-18.091 -7.054,-2.922 -15.171,0.438 -18.093,7.492 C -10.417,-11.04 -7.054,-2.922 0,0 m -88.034,-39.257 47.04,19.485 -25.7,10.65 6.651,16.058 44.647,-18.495 -5.043,-12.18 12.175,-5.039 -18.493,-44.645 -16.057,6.652 10.921,26.372 -47.515,-19.682 z" />
      </g>
      <g
         transform="matrix(-0.28747297,-0.03917128,0.03917128,-0.28747297,202.65093,87.661067)"
         id="g52">
        <path
           id="path54"
           style="fill:#08a84d;fill-opacity:1;fill-rule:evenodd;stroke:none"
           d="m 0,0 c -7.635,0 -13.848,6.212 -13.848,13.849 0,7.636 6.213,13.846 13.848,13.846 7.635,0 13.848,-6.21 13.848,-13.846 C 13.848,6.212 7.635,0 0,0 M 96.355,2.579 H 45.439 L 65.107,-17.096 52.818,-29.385 18.646,4.786 27.968,14.11 18.647,23.425 52.818,57.594 65.107,45.305 44.926,25.118 h 51.429 z" />
      </g>
      <g
         transform="matrix(-0.28747297,-0.03917128,0.03917128,-0.28747297,-10.336483,-34.744693)"
         id="g56">
        <path
           id="path58"
           style="fill:#08a84d;fill-opacity:1;fill-rule:evenodd;stroke:none"
           d="M 0,0 C 7.636,0 13.849,-6.213 13.849,-13.85 13.848,-21.485 7.636,-27.696 0,-27.696 c -7.635,0 -13.848,6.211 -13.847,13.846 C -13.848,-6.213 -7.635,0 0,0 m -96.354,-2.58 h 50.915 l -19.668,19.675 12.29,12.29 34.171,-34.172 -9.322,-9.324 9.321,-9.315 -34.17,-34.169 -12.29,12.29 20.182,20.186 h -51.43 z" />
      </g>
      <g
         transform="matrix(-0.28747297,-0.03917128,0.03917128,-0.28747297,219.19291,39.824645)"
         id="g60">
        <path
           id="path62"
           style="fill:#08a84d;fill-opacity:1;fill-rule:evenodd;stroke:none"
           d="M 0,0 C -7.055,2.922 -10.416,11.04 -7.494,18.095 -4.572,25.149 3.544,28.509 10.599,25.587 17.652,22.666 21.016,14.55 18.094,7.497 15.171,0.44 7.054,-2.922 0,0 M 90.007,-34.491 42.968,-15.006 53.609,-40.71 37.553,-47.361 19.059,-2.713 31.239,2.333 26.192,14.506 70.838,32.998 77.489,16.94 51.118,6.014 98.633,-13.667 Z" />
      </g>
      <g
         transform="matrix(-0.28747297,-0.03917128,0.03917128,-0.28747297,-26.878903,13.091962)"
         id="g64">
        <path
           id="path66"
           style="fill:#08a84d;fill-opacity:1;fill-rule:evenodd;stroke:none"
           d="M 0,0 C 7.053,-2.922 10.415,-11.04 7.493,-18.095 4.571,-25.149 -3.545,-28.51 -10.6,-25.588 -17.653,-22.666 -21.017,-14.55 -18.095,-7.496 -15.172,-0.441 -7.055,2.922 0,0 m -90.009,34.49 47.041,-19.484 -10.642,25.704 16.056,6.651 18.494,-44.648 -12.18,-5.047 5.047,-12.172 -44.646,-18.493 -6.651,16.058 26.371,10.927 -47.514,19.681 z" />
      </g>
      <g
         transform="matrix(-0.28747297,-0.03917128,0.03917128,-0.28747297,215.92693,-6.6588245)"
         id="g68">
        <path
           id="path70"
           style="fill:#08a84d;fill-opacity:1;fill-rule:evenodd;stroke:none"
           d="M 0,0 C -5.399,5.399 -5.398,14.185 0.001,19.584 5.4,24.983 14.185,24.982 19.584,19.583 24.983,14.184 24.984,5.399 19.585,0 14.186,-5.399 5.399,-5.4 0,0 M 69.958,-66.31 33.955,-30.307 33.95,-58.127 H 16.57 V -9.801 L 29.754,-9.799 29.75,3.377 h 48.324 v -17.38 l -28.545,-0.003 36.366,-36.367 z" />
      </g>
      <g
         transform="matrix(-0.28747297,-0.03917128,0.03917128,-0.28747297,-23.612344,59.575247)"
         id="g72">
        <path
           id="path74"
           style="fill:#08a84d;fill-opacity:1;fill-rule:evenodd;stroke:none"
           d="m 0,0 c 5.4,-5.399 5.4,-14.185 0,-19.585 -5.399,-5.398 -14.185,-5.398 -19.583,0.001 C -24.982,-14.185 -24.983,-5.4 -19.584,0 -14.185,5.399 -5.397,5.399 0,0 m -69.957,66.31 36.003,-36.003 0.005,27.82 h 17.38 V 9.801 l -13.184,-0.002 0.003,-13.177 -48.323,0.001 v 17.38 l 28.545,0.003 -36.367,36.366 z" />
      </g>
      <g
         transform="matrix(-0.28747297,-0.03917128,0.03917128,-0.28747297,196.13459,-49.153811)"
         id="g76">
        <path
           id="path78"
           style="fill:#08a84d;fill-opacity:1;fill-rule:evenodd;stroke:none"
           d="M 0,0 C -2.922,7.054 0.441,15.172 7.496,18.094 14.55,21.016 22.666,17.653 25.587,10.599 28.51,3.545 25.149,-4.572 18.095,-7.493 11.04,-10.417 2.922,-7.054 0,0 m 39.257,-88.034 -19.485,47.041 -10.65,-25.701 -16.057,6.652 18.494,44.647 12.18,-5.044 5.04,12.175 44.645,-18.493 -6.652,-16.057 -26.373,10.921 19.681,-47.515 z" />
      </g>
      <g
         transform="matrix(-0.28747297,-0.03917128,0.03917128,-0.28747297,-3.8202062,102.07062)"
         id="g80">
        <path
           id="path82"
           style="fill:#08a84d;fill-opacity:1;fill-rule:evenodd;stroke:none"
           d="m 0,0 c 2.921,-7.054 -0.441,-15.171 -7.497,-18.094 -7.053,-2.921 -15.17,0.441 -18.091,7.496 -2.922,7.054 0.439,15.17 7.492,18.092 C -11.04,10.417 -2.922,7.055 0,0 m -39.257,88.034 19.485,-47.041 10.65,25.701 16.057,-6.65 -18.494,-44.648 -12.181,5.043 -5.039,-12.175 -44.645,18.494 6.652,16.056 26.373,-10.921 -19.681,47.516 z" />
      </g>
      <g
         transform="matrix(-0.28747297,-0.03917128,0.03917128,-0.28747297,157.35998,-80.03517)"
         id="g84">
        <path
           id="path86"
           style="fill:#08a84d;fill-opacity:1;fill-rule:evenodd;stroke:none"
           d="m 0,0 c 0,7.636 6.214,13.848 13.849,13.848 7.636,0 13.846,-6.212 13.846,-13.848 0,-7.635 -6.21,-13.848 -13.846,-13.848 C 6.213,-13.848 0,-7.635 0,0 m 2.579,-96.355 v 50.916 l -19.675,-19.668 -12.289,12.289 34.171,34.171 9.325,-9.321 9.314,9.321 34.17,-34.171 -12.29,-12.289 -20.187,20.182 v -51.43 z" />
      </g>
      <g
         transform="matrix(-0.28747297,-0.03917128,0.03917128,-0.28747297,34.954386,132.95212)"
         id="g88">
        <path
           id="path90"
           style="fill:#08a84d;fill-opacity:1;fill-rule:evenodd;stroke:none"
           d="m 0,0 c 0,-7.635 -6.213,-13.848 -13.85,-13.848 -7.635,0 -13.846,6.213 -13.845,13.848 -0.001,7.635 6.21,13.849 13.845,13.848 C -6.213,13.848 0,7.635 0,0 M -2.579,96.355 V 45.439 l 19.674,19.669 12.29,-12.289 -34.172,-34.172 -9.323,9.321 -9.316,-9.32 -34.169,34.171 12.289,12.289 20.187,-20.183 v 51.43 z" />
      </g>
      <g
         transform="matrix(-0.28747297,-0.03917128,0.03917128,-0.28747297,74.701374,112.21471)"
         id="g92">
        <path
           id="path94"
           style="fill:#08a84d;fill-opacity:1;fill-rule:evenodd;stroke:none"
           d="m 0,0 c -1.417,-5.288 -6.873,-8.438 -12.161,-7.021 -5.288,1.417 -8.438,6.873 -7.021,12.161 1.418,5.288 6.872,8.438 12.16,7.021 C -1.732,10.744 1.417,5.289 0,0 M 16.094,67.211 6.646,31.949 23.923,41.919 30.152,31.127 0.146,13.803 l -4.728,8.186 -8.181,-4.727 -17.324,30.007 10.792,6.23 10.235,-17.724 9.544,35.619 z" />
      </g>
      <g
         transform="matrix(-0.28747297,-0.03917128,0.03917128,-0.28747297,117.61294,-59.298208)"
         id="g96">
        <path
           id="path98"
           style="fill:#08a84d;fill-opacity:1;fill-rule:evenodd;stroke:none"
           d="M 0,0 C 1.417,5.287 6.872,8.438 12.161,7.02 17.45,5.604 20.598,0.148 19.181,-5.14 17.764,-10.427 12.31,-13.578 7.021,-12.161 1.733,-10.744 -1.417,-5.289 0,0 m -16.095,-67.211 9.449,35.262 -17.277,-9.97 -6.23,10.792 30.007,17.324 4.728,-8.186 8.181,4.727 L 30.086,-47.269 19.294,-53.5 9.059,-35.776 -0.485,-71.395 Z" />
      </g>
      <g
         transform="matrix(-0.28747297,-0.03917128,0.03917128,-0.28747297,108.53276,114.62123)"
         id="g100">
        <path
           id="path102"
           style="fill:#08a84d;fill-opacity:1;fill-rule:evenodd;stroke:none"
           d="m 0,0 c -3.333,-4.342 -9.579,-5.165 -13.922,-1.833 -4.343,3.333 -5.164,9.579 -1.832,13.923 3.333,4.343 9.577,5.165 13.921,1.833 C 2.51,10.589 3.333,4.345 0,0 M 40.59,55.936 18.366,26.974 38.144,29.574 39.771,17.219 5.417,12.697 4.182,22.069 -5.186,20.833 -9.707,55.185 2.648,56.811 5.321,36.519 27.769,65.774 Z" />
      </g>
      <g
         transform="matrix(-0.28747297,-0.03917128,0.03917128,-0.28747297,83.781649,-61.704568)"
         id="g104">
        <path
           id="path106"
           style="fill:#08a84d;fill-opacity:1;fill-rule:evenodd;stroke:none"
           d="M 0,0 C 3.333,4.343 9.58,5.166 13.922,1.832 18.266,-1.5 19.087,-7.746 15.755,-12.088 12.422,-16.432 6.177,-17.255 1.834,-13.922 -2.51,-10.589 -3.333,-4.343 0,0 m -40.589,-55.936 22.222,28.962 -19.776,-2.6 -1.626,12.355 34.353,4.523 1.235,-9.372 9.367,1.235 4.522,-34.351 -12.355,-1.626 -2.674,20.291 -22.448,-29.255 z" />
      </g>
      <g
         transform="matrix(-0.28747297,-0.03917128,0.03917128,-0.28747297,140.92857,104.55711)"
         id="g108">
        <path
           id="path110"
           style="fill:#08a84d;fill-opacity:1;fill-rule:evenodd;stroke:none"
           d="m 0,0 c -4.741,-2.737 -10.826,-1.106 -13.565,3.636 -2.736,4.74 -1.105,10.823 3.636,13.562 4.741,2.737 10.825,1.107 13.562,-3.633 C 6.372,8.822 4.741,2.737 0,0 M 58.906,36.145 27.291,17.892 46.557,12.726 43.332,0.689 9.863,9.657 l 2.446,9.132 -9.129,2.442 8.969,33.467 12.037,-3.225 -5.295,-19.77 31.935,18.438 z" />
      </g>
      <g
         transform="matrix(-0.28747297,-0.03917128,0.03917128,-0.28747297,51.385671,-51.640327)"
         id="g112">
        <path
           id="path114"
           style="fill:#08a84d;fill-opacity:1;fill-rule:evenodd;stroke:none"
           d="M 0,0 C 4.74,2.738 10.826,1.107 13.563,-3.635 16.3,-8.376 14.669,-14.459 9.929,-17.197 5.187,-19.934 -0.897,-18.305 -3.635,-13.564 -6.372,-8.822 -4.742,-2.736 0,0 m -58.906,-36.144 31.615,18.252 -19.267,5.167 3.225,12.037 33.47,-8.968 -2.445,-9.132 9.126,-2.442 -8.968,-33.468 -12.037,3.226 5.295,19.769 -31.935,-18.437 z" />
      </g>
      <g
         transform="matrix(-0.28747297,-0.03917128,0.03917128,-0.28747297,166.33956,80.594241)"
         id="g116">
        <path
           id="path118"
           style="fill:#08a84d;fill-opacity:1;fill-rule:evenodd;stroke:none"
           d="m 0,0 c -5.428,-0.714 -10.425,3.121 -11.14,8.55 -0.714,5.427 3.12,10.424 8.549,11.138 C 2.836,20.403 7.834,16.569 8.548,11.141 9.263,5.713 5.428,0.715 0,0 M 68.254,10.851 32.06,6.087 47.883,-6.059 40.297,-15.945 12.808,5.148 l 5.753,7.501 -7.497,5.749 21.093,27.488 9.885,-7.587 -12.457,-16.238 36.56,4.813 z" />
      </g>
      <g
         transform="matrix(-0.28747297,-0.03917128,0.03917128,-0.28747297,25.974976,-27.677417)"
         id="g120">
        <path
           id="path122"
           style="fill:#08a84d;fill-opacity:1;fill-rule:evenodd;stroke:none"
           d="m 0,0 c 5.428,0.713 10.426,-3.122 11.141,-8.549 0.714,-5.429 -3.121,-10.425 -8.549,-11.14 -5.427,-0.714 -10.425,3.12 -11.14,8.547 C -9.263,-5.713 -5.428,-0.715 0,0 m -68.254,-10.852 36.194,4.765 -15.822,12.146 7.585,9.886 27.49,-21.093 -5.754,-7.501 7.497,-5.749 -21.092,-27.488 -9.887,7.586 12.458,16.24 -36.56,-4.814 z" />
      </g>
      <g
         transform="matrix(-0.28747297,-0.03917128,0.03917128,-0.28747297,181.91346,47.914511)"
         id="g124">
        <path
           id="path126"
           style="fill:#08a84d;fill-opacity:1;fill-rule:evenodd;stroke:none"
           d="M 0,0 C -5.288,1.417 -8.438,6.873 -7.021,12.162 -5.604,17.45 -0.148,20.599 5.14,19.181 10.428,17.765 13.578,12.31 12.161,7.022 10.744,1.734 5.288,-1.417 0,0 m 67.212,-16.094 -35.263,9.448 9.97,-17.276 -10.791,-6.23 -17.325,30.007 8.186,4.728 -4.727,8.18 30.007,17.324 6.23,-10.792 -17.724,-10.236 35.62,-9.543 z" />
      </g>
      <g
         transform="matrix(-0.28747297,-0.03917128,0.03917128,-0.28747297,10.40091,5.0024097)"
         id="g128">
        <path
           id="path130"
           style="fill:#08a84d;fill-opacity:1;fill-rule:evenodd;stroke:none"
           d="m 0,0 c 5.288,-1.417 8.438,-6.873 7.021,-12.161 -1.417,-5.288 -6.873,-8.437 -12.161,-7.02 -5.288,1.417 -8.437,6.871 -7.021,12.159 C -10.744,-1.733 -5.288,1.417 0,0 m -67.212,16.095 35.263,-9.449 -9.971,17.277 10.793,6.23 17.324,-30.007 -8.186,-4.728 4.726,-8.181 -30.005,-17.324 -6.232,10.793 17.725,10.235 -35.62,9.544 z" />
      </g>
      <g
         transform="matrix(-0.28747297,-0.03917128,0.03917128,-0.28747297,184.32018,14.082714)"
         id="g132">
        <path
           id="path134"
           style="fill:#08a84d;fill-opacity:1;fill-rule:evenodd;stroke:none"
           d="m 0,0 c -4.343,3.333 -5.165,9.579 -1.832,13.922 3.333,4.344 9.577,5.164 13.921,1.831 C 16.433,12.421 17.255,6.177 13.923,1.834 10.59,-2.511 4.343,-3.333 0,0 m 55.936,-40.59 -28.962,22.224 2.6,-19.778 -12.354,-1.626 -4.524,34.354 9.373,1.235 -1.236,9.367 34.351,4.522 1.627,-12.355 -20.291,-2.674 29.255,-22.448 z" />
      </g>
      <g
         transform="matrix(-0.28747297,-0.03917128,0.03917128,-0.28747297,7.9945106,38.833987)"
         id="g136">
        <path
           id="path138"
           style="fill:#08a84d;fill-opacity:1;fill-rule:evenodd;stroke:none"
           d="m 0,0 c 4.344,-3.333 5.166,-9.579 1.833,-13.923 -3.333,-4.343 -9.578,-5.164 -13.922,-1.831 -4.344,3.332 -5.166,9.577 -1.833,13.92 C -10.589,2.51 -4.344,3.333 0,0 m -55.936,40.589 28.963,-22.223 -2.6,19.777 12.354,1.627 4.523,-34.353 -9.372,-1.236 1.236,-9.367 -34.353,-4.522 -1.626,12.355 20.292,2.673 -29.254,22.449 z" />
      </g>
      <g
         transform="matrix(-0.28747297,-0.03917128,0.03917128,-0.28747297,174.25576,-18.312997)"
         id="g140">
        <path
           id="path142"
           style="fill:#08a84d;fill-opacity:1;fill-rule:evenodd;stroke:none"
           d="M 0,0 C -2.737,4.742 -1.106,10.826 3.635,13.564 8.376,16.302 14.46,14.671 17.197,9.929 19.935,5.188 18.305,-0.896 13.564,-3.633 8.822,-6.371 2.737,-4.74 0,0 m 36.145,-58.905 -18.253,31.615 -5.166,-19.267 -12.037,3.226 8.968,33.47 9.132,-2.447 2.442,9.128 33.467,-8.969 -3.225,-12.037 -19.77,5.296 18.438,-31.935 z" />
      </g>
      <g
         transform="matrix(-0.28747297,-0.03917128,0.03917128,-0.28747297,18.05832,71.229906)"
         id="g144">
        <path
           id="path146"
           style="fill:#08a84d;fill-opacity:1;fill-rule:evenodd;stroke:none"
           d="m 0,0 c 2.736,-4.741 1.106,-10.826 -3.636,-13.564 -4.741,-2.737 -10.824,-1.107 -13.562,3.634 -2.737,4.742 -1.108,10.826 3.634,13.564 C -8.823,6.372 -2.738,4.741 0,0 m -36.146,58.906 18.253,-31.615 5.167,19.266 12.036,-3.225 -8.968,-33.47 -9.131,2.446 -2.443,-9.127 -33.467,8.968 3.225,12.037 19.77,-5.295 -18.438,31.934 z" />
      </g>
      <g
         transform="matrix(-0.28747297,-0.03917128,0.03917128,-0.28747297,150.29296,-43.724262)"
         id="g148">
        <path
           id="path150"
           style="fill:#08a84d;fill-opacity:1;fill-rule:evenodd;stroke:none"
           d="m 0,0 c -0.714,5.427 3.122,10.425 8.549,11.139 5.429,0.715 10.424,-3.12 11.14,-8.548 0.714,-5.427 -3.12,-10.425 -8.547,-11.14 C 5.713,-9.263 0.714,-5.428 0,0 m 10.851,-68.255 -4.764,36.193 -12.146,-15.821 -9.886,7.586 21.094,27.488 7.5,-5.753 5.749,7.498 27.488,-21.093 -7.587,-9.886 -16.238,12.457 4.813,-36.56 z" />
      </g>
      <g
         transform="matrix(-0.28747297,-0.03917128,0.03917128,-0.28747297,42.021662,96.64066)"
         id="g152">
        <path
           id="path154"
           style="fill:#08a84d;fill-opacity:1;fill-rule:evenodd;stroke:none"
           d="m 0,0 c 0.714,-5.428 -3.121,-10.427 -8.549,-11.14 -5.428,-0.714 -10.425,3.12 -11.139,8.548 -0.715,5.427 3.119,10.425 8.546,11.14 C -5.713,9.263 -0.715,5.427 0,0 M -10.852,68.254 -6.086,32.06 6.06,47.882 15.945,40.296 -5.148,12.807 l -7.501,5.754 -5.748,-7.498 -27.488,21.094 7.585,9.885 16.238,-12.458 -4.812,36.561 z" />
      </g>
      <g
         transform="matrix(-0.28747297,-0.03917128,0.03917128,-0.28747297,73.176419,83.487793)"
         id="g156">
        <path
           id="path158"
           style="fill:#08a84d;fill-opacity:1;fill-rule:evenodd;stroke:none"
           d="m 0,0 c -0.498,-3.785 -3.983,-6.459 -7.769,-5.961 -3.785,0.499 -6.459,3.983 -5.96,7.769 0.498,3.785 3.983,6.459 7.767,5.961 C -2.176,7.27 0.498,3.785 0,0 m 5.009,47.934 -3.322,-25.24 11.037,8.466 5.29,-6.894 -19.17,-14.71 -4.013,5.229 -5.226,-4.012 -14.709,19.169 6.895,5.29 8.689,-11.322 3.357,25.495 z" />
      </g>
      <g
         transform="matrix(-0.28747297,-0.03917128,0.03917128,-0.28747297,119.13785,-30.571003)"
         id="g160">
        <path
           id="path162"
           style="fill:#08a84d;fill-opacity:1;fill-rule:evenodd;stroke:none"
           d="M 0,0 C 0.499,3.785 3.983,6.459 7.77,5.96 11.554,5.462 14.228,1.978 13.729,-1.808 13.231,-5.593 9.747,-8.267 5.962,-7.769 2.176,-7.271 -0.498,-3.785 0,0 m -5.01,-47.934 3.323,25.24 -11.037,-8.467 -5.29,6.895 19.169,14.71 4.015,-5.23 5.226,4.013 14.708,-19.169 -6.895,-5.29 -8.69,11.322 -3.355,-25.495 z" />
      </g>
      <g
         transform="matrix(-0.28747297,-0.03917128,0.03917128,-0.28747297,97.531571,88.559002)"
         id="g164">
        <path
           id="path166"
           style="fill:#08a84d;fill-opacity:1;fill-rule:evenodd;stroke:none"
           d="m 0,0 c -1.909,-3.306 -6.153,-4.443 -9.46,-2.534 -3.306,1.909 -4.442,6.152 -2.533,9.458 1.909,3.306 6.152,4.444 9.458,2.535 C 0.771,7.55 1.909,3.307 0,0 M 22.972,42.368 10.242,20.321 23.68,23.918 25.929,15.525 2.587,9.271 0.881,15.639 -5.482,13.932 -11.735,37.27 -3.341,39.519 0.354,25.733 13.211,48.002 Z" />
      </g>
      <g
         transform="matrix(-0.28747297,-0.03917128,0.03917128,-0.28747297,94.782434,-35.642396)"
         id="g168">
        <path
           id="path170"
           style="fill:#08a84d;fill-opacity:1;fill-rule:evenodd;stroke:none"
           d="M 0,0 C 1.908,3.307 6.152,4.443 9.458,2.534 12.764,0.625 13.9,-3.618 11.992,-6.924 10.083,-10.229 5.841,-11.367 2.534,-9.458 -0.772,-7.549 -1.909,-3.306 0,0 m -22.972,-42.368 12.728,22.048 -13.436,-3.598 -2.249,8.394 23.339,6.253 1.707,-6.367 6.364,1.707 6.253,-23.339 -8.394,-2.248 -3.695,13.786 -12.857,-22.27 z" />
      </g>
      <g
         transform="matrix(-0.28747297,-0.03917128,0.03917128,-0.28747297,120.33122,83.68389)"
         id="g172">
        <path
           id="path174"
           style="fill:#08a84d;fill-opacity:1;fill-rule:evenodd;stroke:none"
           d="m 0,0 c -3.028,-2.324 -7.384,-1.75 -9.708,1.278 -2.324,3.029 -1.75,7.384 1.279,9.708 3.028,2.325 7.383,1.751 9.707,-1.278 C 3.603,6.68 3.029,2.324 0,0 M 37.438,30.352 17.241,14.854 31.03,13.036 29.896,4.42 5.94,7.574 6.8,14.11 l -6.532,0.859 3.153,23.954 8.617,-1.134 -1.862,-14.151 20.4,15.655 z" />
      </g>
      <g
         transform="matrix(-0.28747297,-0.03917128,0.03917128,-0.28747297,71.983211,-30.767373)"
         id="g176">
        <path
           id="path178"
           style="fill:#08a84d;fill-opacity:1;fill-rule:evenodd;stroke:none"
           d="m 0,0 c 3.028,2.325 7.383,1.751 9.708,-1.278 2.324,-3.03 1.75,-7.384 -1.279,-9.708 C 5.4,-13.31 1.046,-12.738 -1.278,-9.708 -3.603,-6.679 -3.029,-2.324 0,0 m -37.438,-30.352 20.198,15.498 -13.791,1.818 1.134,8.616 23.957,-3.154 -0.86,-6.536 6.533,-0.859 -3.155,-23.954 -8.615,1.134 1.861,14.151 -20.401,-15.654 z" />
      </g>
      <g
         transform="matrix(-0.28747297,-0.03917128,0.03917128,-0.28747297,139.92241,70.709211)"
         id="g180">
        <path
           id="path182"
           style="fill:#08a84d;fill-opacity:1;fill-rule:evenodd;stroke:none"
           d="m 0,0 c -3.688,-0.988 -7.492,1.209 -8.48,4.897 -0.988,3.687 1.208,7.491 4.896,8.479 C 0.104,14.364 3.908,12.168 4.897,8.481 5.884,4.792 3.688,0.988 0,0 M 46.203,13.715 21.612,7.126 33.657,0.169 29.312,-7.357 8.386,4.725 l 3.295,5.709 -5.706,3.293 12.082,20.924 7.526,-4.345 -7.136,-12.361 24.839,6.656 z" />
      </g>
      <g
         transform="matrix(-0.28747297,-0.03917128,0.03917128,-0.28747297,52.392158,-17.792673)"
         id="g184">
        <path
           id="path186"
           style="fill:#08a84d;fill-opacity:1;fill-rule:evenodd;stroke:none"
           d="m 0,0 c 3.688,0.988 7.492,-1.208 8.48,-4.897 0.99,-3.687 -1.208,-7.491 -4.896,-8.479 -3.687,-0.988 -7.491,1.208 -8.48,4.895 C -5.883,-4.792 -3.688,-0.988 0,0 m -46.202,-13.716 24.591,6.59 -12.045,6.957 4.345,7.526 20.925,-12.082 -3.296,-5.709 5.708,-3.293 -12.081,-20.924 -7.526,4.345 7.135,12.361 -24.839,-6.655 z" />
      </g>
      <g
         transform="matrix(-0.28747297,-0.03917128,0.03917128,-0.28747297,153.18642,49.439302)"
         id="g188">
        <path
           id="path190"
           style="fill:#08a84d;fill-opacity:1;fill-rule:evenodd;stroke:none"
           d="m 0,0 c -3.785,0.499 -6.459,3.984 -5.961,7.77 0.498,3.785 3.983,6.458 7.769,5.96 C 5.593,13.231 8.267,9.747 7.769,5.962 7.271,2.176 3.785,-0.498 0,0 m 47.934,-5.009 -25.24,3.322 8.465,-11.036 -6.894,-5.291 L 9.556,1.156 14.785,5.17 10.772,10.396 29.941,25.104 35.232,18.21 23.91,9.52 49.404,6.164 Z" />
      </g>
      <g
         transform="matrix(-0.28747297,-0.03917128,0.03917128,-0.28747297,39.127689,3.4776115)"
         id="g192">
        <path
           id="path194"
           style="fill:#08a84d;fill-opacity:1;fill-rule:evenodd;stroke:none"
           d="m 0,0 c 3.784,-0.498 6.459,-3.983 5.96,-7.769 -0.498,-3.785 -3.983,-6.459 -7.769,-5.96 -3.784,0.498 -6.458,3.982 -5.96,7.768 C -7.27,-2.176 -3.785,0.499 0,0 m -47.935,5.01 25.241,-3.323 -8.466,11.037 6.894,5.29 14.71,-19.17 -5.229,-4.013 4.012,-5.226 -19.169,-14.709 -5.291,6.895 11.322,8.689 -25.494,3.357 z" />
      </g>
      <g
         transform="matrix(-0.28747297,-0.03917128,0.03917128,-0.28747297,158.25798,25.083758)"
         id="g196">
        <path
           id="path198"
           style="fill:#08a84d;fill-opacity:1;fill-rule:evenodd;stroke:none"
           d="m 0,0 c -3.307,1.908 -4.443,6.152 -2.534,9.458 1.909,3.307 6.151,4.444 9.458,2.534 C 10.23,10.083 11.368,5.841 9.458,2.535 7.55,-0.772 3.306,-1.909 0,0 m 42.368,-22.972 -22.047,12.729 3.597,-13.437 -8.394,-2.249 -6.253,23.34 6.368,1.707 -1.707,6.363 23.338,6.253 2.249,-8.393 -13.786,-3.696 22.269,-12.857 z" />
      </g>
      <g
         transform="matrix(-0.28747297,-0.03917128,0.03917128,-0.28747297,34.056431,27.832904)"
         id="g200">
        <path
           id="path202"
           style="fill:#08a84d;fill-opacity:1;fill-rule:evenodd;stroke:none"
           d="m 0,0 c 3.307,-1.909 4.443,-6.153 2.535,-9.459 -1.91,-3.307 -6.153,-4.443 -9.459,-2.534 -3.306,1.909 -4.443,6.152 -2.534,9.457 C -7.549,0.771 -3.306,1.908 0,0 m -42.368,22.971 22.048,-12.728 -3.598,13.436 8.395,2.249 6.252,-23.34 -6.367,-1.707 1.707,-6.363 -23.339,-6.253 -2.249,8.394 13.787,3.695 -22.27,12.857 z" />
      </g>
      <g
         transform="matrix(-0.28747297,-0.03917128,0.03917128,-0.28747297,153.38279,2.284687)"
         id="g204">
        <path
           id="path206"
           style="fill:#08a84d;fill-opacity:1;fill-rule:evenodd;stroke:none"
           d="M 0,0 C -2.324,3.029 -1.75,7.384 1.279,9.709 4.307,12.033 8.663,11.459 10.986,8.43 13.31,5.401 12.739,1.047 9.708,-1.277 6.68,-3.602 2.324,-3.028 0,0 m 30.352,-37.436 -15.497,20.196 -1.818,-13.79 -8.616,1.134 3.154,23.957 6.536,-0.86 0.858,6.532 23.955,-3.154 -1.134,-8.616 -14.152,1.862 15.655,-20.401 z" />
      </g>
      <g
         transform="matrix(-0.28747297,-0.03917128,0.03917128,-0.28747297,38.931438,50.632242)"
         id="g208">
        <path
           id="path210"
           style="fill:#08a84d;fill-opacity:1;fill-rule:evenodd;stroke:none"
           d="m 0,0 c 2.323,-3.029 1.75,-7.384 -1.28,-9.708 -3.029,-2.325 -7.383,-1.751 -9.707,1.277 -2.325,3.03 -1.752,7.385 1.277,9.709 C -6.68,3.602 -2.325,3.029 0,0 m -30.353,37.437 15.498,-20.197 1.818,13.79 8.616,-1.134 -3.155,-23.957 -6.535,0.86 -0.858,-6.532 -23.955,3.154 1.135,8.616 14.149,-1.862 -15.653,20.401 z" />
      </g>
      <g
         transform="matrix(-0.28747297,-0.03917128,0.03917128,-0.28747297,140.4079,-17.307123)"
         id="g212">
        <path
           id="path214"
           style="fill:#08a84d;fill-opacity:1;fill-rule:evenodd;stroke:none"
           d="M 0,0 C -0.989,3.688 1.209,7.492 4.896,8.48 8.584,9.468 12.388,7.271 13.375,3.584 14.364,-0.103 12.168,-3.908 8.481,-4.896 4.792,-5.884 0.988,-3.688 0,0 m 13.715,-46.202 -6.59,24.59 -6.957,-12.045 -7.525,4.345 12.082,20.925 5.709,-3.295 3.293,5.707 20.924,-12.081 -4.345,-7.526 -12.361,7.135 6.656,-24.838 z" />
      </g>
      <g
         transform="matrix(-0.28747297,-0.03917128,0.03917128,-0.28747297,51.906098,70.223582)"
         id="g216">
        <path
           id="path218"
           style="fill:#08a84d;fill-opacity:1;fill-rule:evenodd;stroke:none"
           d="m 0,0 c 0.988,-3.687 -1.208,-7.492 -4.896,-8.48 -3.688,-0.988 -7.491,1.209 -8.479,4.897 -0.989,3.687 1.207,7.491 4.895,8.479 C -4.792,5.884 -0.988,3.688 0,0 m -13.715,46.202 6.589,-24.59 6.957,12.045 7.525,-4.345 -12.081,-20.926 -5.709,3.296 -3.293,-5.707 -20.924,12.081 4.344,7.526 12.362,-7.135 -6.656,24.839 z" />
      </g>
      <g
         transform="matrix(-0.28747297,-0.03917128,0.03917128,-0.28747297,74.21589,64.636192)"
         id="g220">
        <path
           id="path222"
           style="fill:#08a84d;fill-opacity:1;fill-rule:evenodd;stroke:none"
           d="m 0,0 c 0,-2.737 -2.227,-4.965 -4.965,-4.965 -2.737,10e-4 -4.964,2.228 -4.964,4.965 0,2.737 2.227,4.964 4.964,4.964 C -2.228,4.964 0,2.737 0,0 M -0.925,34.543 V 16.29 l 7.054,7.051 4.405,-4.406 -12.251,-12.25 -3.342,3.342 -3.339,-3.342 -12.25,12.25 4.406,4.406 7.237,-7.235 v 18.437 z" />
      </g>
      <g
         transform="matrix(-0.28747297,-0.03917128,0.03917128,-0.28747297,118.09839,-11.719694)"
         id="g224">
        <path
           id="path226"
           style="fill:#08a84d;fill-opacity:1;fill-rule:evenodd;stroke:none"
           d="M 0,0 C 0,2.737 2.228,4.965 4.965,4.964 7.703,4.964 9.929,2.738 9.929,0 9.929,-2.737 7.703,-4.964 4.965,-4.964 2.228,-4.964 0,-2.737 0,0 m 0.925,-34.543 v 18.253 l -7.054,-7.051 -4.406,4.405 12.251,12.251 3.343,-3.341 3.338,3.341 12.25,-12.251 -4.405,-4.405 -7.237,7.236 v -18.438 z" />
      </g>
      <g
         transform="matrix(-0.28747297,-0.03917128,0.03917128,-0.28747297,91.365341,70.566652)"
         id="g228">
        <path
           id="path230"
           style="fill:#08a84d;fill-opacity:1;fill-rule:evenodd;stroke:none"
           d="m 0,0 c -1.048,-2.528 -3.957,-3.734 -6.487,-2.687 -2.529,1.048 -3.734,3.958 -2.686,6.487 1.048,2.529 3.957,3.734 6.485,2.687 C -0.158,5.439 1.048,2.529 0,0 M 12.365,32.268 5.38,15.403 14.594,19.219 16.979,13.462 0.973,6.833 -0.837,11.199 -5.201,9.39 -11.83,25.396 -6.074,27.78 -2.156,18.326 4.899,35.36 Z" />
      </g>
      <g
         transform="matrix(-0.28747297,-0.03917128,0.03917128,-0.28747297,100.94913,-17.650274)"
         id="g232">
        <path
           id="path234"
           style="fill:#08a84d;fill-opacity:1;fill-rule:evenodd;stroke:none"
           d="M 0,0 C 1.048,2.529 3.958,3.733 6.488,2.686 9.016,1.638 10.222,-1.271 9.173,-3.8 8.125,-6.329 5.217,-7.534 2.688,-6.487 0.158,-5.44 -1.046,-2.53 0,0 m -12.364,-32.269 6.985,16.865 -9.214,-3.816 -2.386,5.757 16.007,6.63 1.809,-4.367 4.364,1.809 6.63,-16.005 -5.757,-2.385 -3.917,9.455 -7.056,-17.035 z" />
      </g>
      <g
         transform="matrix(-0.28747297,-0.03917128,0.03917128,-0.28747297,108.02953,69.395516)"
         id="g236">
        <path
           id="path238"
           style="fill:#08a84d;fill-opacity:1;fill-rule:evenodd;stroke:none"
           d="m 0,0 c -1.936,-1.936 -5.086,-1.936 -7.021,0 -1.936,1.936 -1.936,5.084 0,7.021 1.935,1.936 5.085,1.936 7.02,0 C 1.935,5.084 1.936,1.936 0,0 M 23.772,25.079 10.865,12.172 20.838,12.171 V 5.94 H 3.514 L 3.513,10.667 -1.211,10.665 V 27.989 H 5.021 V 17.755 l 13.038,13.038 z" />
      </g>
      <g
         transform="matrix(-0.28747297,-0.03917128,0.03917128,-0.28747297,84.284634,-16.479034)"
         id="g240">
        <path
           id="path242"
           style="fill:#08a84d;fill-opacity:1;fill-rule:evenodd;stroke:none"
           d="m 0,0 c 1.936,1.936 5.084,1.936 7.021,0 1.936,-1.936 1.936,-5.085 0,-7.021 C 5.084,-8.957 1.936,-8.957 0,-7.021 -1.936,-5.085 -1.936,-1.936 0,0 m -23.772,-25.08 12.907,12.907 -9.974,0.003 v 6.23 h 17.326 v -4.727 l 4.723,0.002 v -17.324 h -6.23 l -0.001,10.233 -13.037,-13.037 z" />
      </g>
      <g
         transform="matrix(-0.28747297,-0.03917128,0.03917128,-0.28747297,123.26415,62.300044)"
         id="g244">
        <path
           id="path246"
           style="fill:#08a84d;fill-opacity:1;fill-rule:evenodd;stroke:none"
           d="M 0,0 C -2.529,-1.048 -5.438,0.158 -6.486,2.688 -7.534,5.216 -6.329,8.126 -3.799,9.173 -1.271,10.221 1.639,9.016 2.687,6.487 3.734,3.958 2.529,1.047 0,0 M 31.56,14.073 14.696,7.088 23.91,3.271 21.526,-2.486 5.519,4.144 7.327,8.511 2.963,10.317 9.592,26.322 15.35,23.938 11.435,14.483 28.468,21.538 Z" />
      </g>
      <g
         transform="matrix(-0.28747297,-0.03917128,0.03917128,-0.28747297,69.049995,-9.3835656)"
         id="g248">
        <path
           id="path250"
           style="fill:#08a84d;fill-opacity:1;fill-rule:evenodd;stroke:none"
           d="M 0,0 C 2.528,1.047 5.438,-0.158 6.485,-2.688 7.533,-5.216 6.328,-8.125 3.799,-9.174 1.27,-10.221 -1.64,-9.016 -2.687,-6.486 -3.735,-3.958 -2.53,-1.048 0,0 m -31.561,-14.074 16.865,6.986 -9.215,3.818 2.386,5.756 16.005,-6.63 -1.808,-4.367 4.365,-1.806 -6.63,-16.005 -5.757,2.384 3.916,9.455 -17.034,-7.056 z" />
      </g>
      <g
         transform="matrix(-0.28747297,-0.03917128,0.03917128,-0.28747297,134.33489,48.399547)"
         id="g252">
        <path
           id="path254"
           style="fill:#08a84d;fill-opacity:1;fill-rule:evenodd;stroke:none"
           d="m 0,0 c -2.738,0 -4.965,2.228 -4.965,4.965 0,2.738 2.227,4.964 4.965,4.964 2.737,0 4.964,-2.226 4.964,-4.964 C 4.964,2.228 2.737,0 0,0 M 34.543,0.925 H 16.29 l 7.051,-7.053 -4.406,-4.406 -12.251,12.25 3.342,3.343 -3.341,3.338 12.25,12.251 4.406,-4.406 -7.235,-7.237 h 18.437 z" />
      </g>
      <g
         transform="matrix(-0.28747297,-0.03917128,0.03917128,-0.28747297,57.978934,4.5173276)"
         id="g256">
        <path
           id="path258"
           style="fill:#08a84d;fill-opacity:1;fill-rule:evenodd;stroke:none"
           d="m 0,0 c 2.737,0 4.965,-2.227 4.965,-4.965 0,-2.737 -2.228,-4.964 -4.965,-4.964 -2.737,0 -4.965,2.227 -4.965,4.964 C -4.965,-2.227 -2.737,0 0,0 m -34.544,-0.925 18.254,0.001 -7.051,7.053 4.406,4.406 12.25,-12.251 -3.341,-3.342 3.341,-3.339 -12.25,-12.251 -4.406,4.406 7.235,7.238 h -18.437 z" />
      </g>
      <g
         transform="matrix(-0.28747297,-0.03917128,0.03917128,-0.28747297,52.048725,21.666227)"
         id="g260">
        <path
           id="path262"
           style="fill:#08a84d;fill-opacity:1;fill-rule:evenodd;stroke:none"
           d="M 0,0 C 2.529,-1.048 3.734,-3.958 2.687,-6.488 1.64,-9.017 -1.271,-10.222 -3.8,-9.173 -6.329,-8.125 -7.534,-5.217 -6.487,-2.688 -5.439,-0.158 -2.529,1.047 0,0 m -32.268,12.364 16.864,-6.985 -3.816,9.215 5.758,2.385 6.629,-16.007 -4.366,-1.809 1.809,-4.364 -16.006,-6.63 -2.384,5.757 9.455,3.918 -17.035,7.054 z" />
      </g>
      <g
         transform="matrix(-0.28747297,-0.03917128,0.03917128,-0.28747297,140.26575,31.25018)"
         id="g264">
        <path
           id="path266"
           style="fill:#08a84d;fill-opacity:1;fill-rule:evenodd;stroke:none"
           d="M 0,0 C -2.528,1.048 -3.734,3.958 -2.686,6.487 -1.639,9.016 1.272,10.221 3.8,9.173 6.329,8.126 7.535,5.216 6.487,2.688 5.439,0.158 2.529,-1.047 0,0 M 32.268,-12.365 15.405,-5.379 19.22,-14.595 13.463,-16.979 6.834,-0.973 11.2,0.837 9.391,5.201 25.396,11.83 27.78,6.073 18.326,2.156 35.36,-4.899 Z" />
      </g>
      <g
         transform="matrix(-0.28747297,-0.03917128,0.03917128,-0.28747297,139.09449,14.585823)"
         id="g268">
        <path
           id="path270"
           style="fill:#08a84d;fill-opacity:1;fill-rule:evenodd;stroke:none"
           d="m 0,0 c -1.936,1.936 -1.936,5.085 0,7.021 1.936,1.935 5.085,1.935 7.021,0 C 8.956,5.085 8.957,1.936 7.021,0 5.086,-1.936 1.935,-1.936 0,0 m 25.08,-23.772 -12.907,12.907 -0.002,-9.974 H 5.94 v 17.326 h 4.727 L 10.666,1.211 H 27.989 V -5.021 H 17.756 l 13.037,-13.038 z" />
      </g>
      <g
         transform="matrix(-0.28747297,-0.03917128,0.03917128,-0.28747297,53.219662,38.330804)"
         id="g272">
        <path
           id="path274"
           style="fill:#08a84d;fill-opacity:1;fill-rule:evenodd;stroke:none"
           d="m 0,0 c 1.936,-1.936 1.936,-5.086 0,-7.021 -1.937,-1.936 -5.086,-1.936 -7.021,0 -1.936,1.936 -1.936,5.084 0,7.021 1.935,1.936 5.085,1.936 7.021,0 m -25.08,23.771 12.906,-12.906 0.003,9.973 H -5.94 V 3.513 h -4.727 l 10e-4,-4.724 H -27.989 V 5.02 l 10.233,0.001 -13.037,13.037 z" />
      </g>
      <g
         transform="matrix(-0.28747297,-0.03917128,0.03917128,-0.28747297,131.99912,-0.64850938)"
         id="g276">
        <path
           id="path278"
           style="fill:#08a84d;fill-opacity:1;fill-rule:evenodd;stroke:none"
           d="M 0,0 C -1.047,2.53 0.159,5.439 2.688,6.487 5.217,7.535 8.126,6.329 9.173,3.8 10.221,1.271 9.017,-1.639 6.488,-2.686 3.958,-3.734 1.048,-2.528 0,0 m 14.073,-31.56 -6.984,16.864 -3.818,-9.214 -5.756,2.385 6.629,16.006 4.367,-1.808 1.806,4.365 16.005,-6.63 -2.384,-5.757 -9.455,3.916 7.056,-17.034 z" />
      </g>
      <g
         transform="matrix(-0.28747297,-0.03917128,0.03917128,-0.28747297,60.315285,53.565171)"
         id="g280">
        <path
           id="path282"
           style="fill:#08a84d;fill-opacity:1;fill-rule:evenodd;stroke:none"
           d="m 0,0 c 1.048,-2.529 -0.158,-5.439 -2.688,-6.487 -2.528,-1.047 -5.437,0.158 -6.485,2.687 -1.048,2.529 0.157,5.439 2.687,6.487 C -3.958,3.735 -1.047,2.529 0,0 m -14.073,31.56 6.985,-16.864 3.818,9.214 5.756,-2.385 -6.63,-16.005 -4.367,1.808 -1.805,-4.365 -16.006,6.63 2.385,5.756 9.454,-3.915 -7.055,17.034 z" />
      </g>
      <g
         transform="matrix(-0.28747297,-0.03917128,0.03917128,-0.28747297,77.281441,50.929227)"
         id="g284">
        <path
           id="path286"
           style="fill:#08a84d;fill-opacity:1;fill-rule:evenodd;stroke:none"
           d="m 0,0 c 0.249,-1.893 -1.088,-3.635 -2.98,-3.885 -1.894,-0.249 -3.635,1.089 -3.884,2.981 -0.249,1.893 1.088,3.635 2.979,3.884 C -1.992,3.229 -0.249,1.892 0,0 m -3.783,23.798 1.66,-12.62 4.236,5.517 3.448,-2.645 -7.355,-9.585 -2.616,2.006 -2.005,-2.614 -9.584,7.355 2.645,3.447 5.662,-4.344 -1.678,12.747 z" />
      </g>
      <g
         transform="matrix(-0.28747297,-0.03917128,0.03917128,-0.28747297,115.03281,1.98753)"
         id="g288">
        <path
           id="path290"
           style="fill:#08a84d;fill-opacity:1;fill-rule:evenodd;stroke:none"
           d="M 0,0 C -0.249,1.893 1.088,3.635 2.98,3.884 4.874,4.134 6.615,2.796 6.865,0.904 7.113,-0.989 5.777,-2.732 3.885,-2.98 1.991,-3.229 0.249,-1.893 0,0 m 3.783,-23.798 -1.661,12.62 -4.235,-5.517 -3.447,2.645 7.355,9.585 2.615,-2.007 2.005,2.614 9.584,-7.354 -2.645,-3.447 -5.663,4.344 1.679,-12.748 z" />
      </g>
      <g
         transform="matrix(-0.28747297,-0.03917128,0.03917128,-0.28747297,88.676057,56.359174)"
         id="g292">
        <path
           id="path294"
           style="fill:#08a84d;fill-opacity:1;fill-rule:evenodd;stroke:none"
           d="m 0,0 c -0.494,-1.844 -2.396,-2.942 -4.24,-2.448 -1.844,0.494 -2.942,2.395 -2.448,4.24 0.494,1.843 2.396,2.942 4.239,2.448 C -0.604,3.746 0.494,1.843 0,0 M 5.612,23.435 2.317,11.139 8.341,14.616 10.514,10.853 0.051,4.812 -1.598,7.667 -4.45,6.019 l -6.04,10.462 3.763,2.172 3.568,-6.179 3.329,12.419 z" />
      </g>
      <g
         transform="matrix(-0.28747297,-0.03917128,0.03917128,-0.28747297,103.63813,-3.4428355)"
         id="g296">
        <path
           id="path298"
           style="fill:#08a84d;fill-opacity:1;fill-rule:evenodd;stroke:none"
           d="M 0,0 C 0.494,1.843 2.396,2.942 4.24,2.448 6.083,1.953 7.182,0.051 6.687,-1.792 6.194,-3.636 4.292,-4.734 2.448,-4.24 0.604,-3.747 -0.495,-1.844 0,0 m -5.612,-23.436 3.294,12.296 -6.023,-3.477 -2.173,3.763 10.463,6.042 1.649,-2.855 2.852,1.647 6.04,-10.461 -3.762,-2.173 -3.57,6.18 -3.326,-12.42 z" />
      </g>
      <g
         transform="matrix(-0.28747297,-0.03917128,0.03917128,-0.28747297,100.47199,57.198308)"
         id="g300">
        <path
           id="path302"
           style="fill:#08a84d;fill-opacity:1;fill-rule:evenodd;stroke:none"
           d="M 0,0 C -1.163,-1.515 -3.341,-1.801 -4.855,-0.639 -6.369,0.524 -6.656,2.7 -5.494,4.215 -4.331,5.729 -2.154,6.016 -0.64,4.854 0.875,3.692 1.161,1.515 0,0 M 14.152,19.503 6.403,9.405 13.299,10.311 13.866,6.004 1.888,4.427 1.457,7.695 -1.81,7.264 -3.386,19.242 0.922,19.809 1.854,12.733 9.682,22.934 Z" />
      </g>
      <g
         transform="matrix(-0.28747297,-0.03917128,0.03917128,-0.28747297,91.842008,-4.2818492)"
         id="g304">
        <path
           id="path306"
           style="fill:#08a84d;fill-opacity:1;fill-rule:evenodd;stroke:none"
           d="M 0,0 C 1.162,1.515 3.34,1.802 4.854,0.639 6.369,-0.523 6.655,-2.701 5.493,-4.215 4.331,-5.729 2.153,-6.016 0.64,-4.854 -0.875,-3.692 -1.162,-1.514 0,0 m -14.153,-19.503 7.749,10.098 -6.896,-0.906 -0.567,4.307 11.979,1.577 0.43,-3.267 3.266,0.43 1.577,-11.977 -4.308,-0.567 -0.931,7.076 -7.828,-10.202 z" />
      </g>
      <g
         transform="matrix(-0.28747297,-0.03917128,0.03917128,-0.28747297,111.76784,53.689232)"
         id="g308">
        <path
           id="path310"
           style="fill:#08a84d;fill-opacity:1;fill-rule:evenodd;stroke:none"
           d="M 0,0 C -1.652,-0.955 -3.774,-0.386 -4.729,1.268 -5.684,2.92 -5.114,5.042 -3.462,5.996 -1.809,6.95 0.312,6.382 1.267,4.729 2.222,3.076 1.653,0.954 0,0 M 20.539,12.603 9.516,6.239 16.233,4.437 15.109,0.24 3.439,3.367 4.292,6.551 1.109,7.402 4.236,19.072 8.433,17.948 6.587,11.054 17.722,17.482 Z" />
      </g>
      <g
         transform="matrix(-0.28747297,-0.03917128,0.03917128,-0.28747297,80.546468,-0.77273029)"
         id="g312">
        <path
           id="path314"
           style="fill:#08a84d;fill-opacity:1;fill-rule:evenodd;stroke:none"
           d="M 0,0 C 1.653,0.954 3.775,0.386 4.729,-1.268 5.684,-2.92 5.115,-5.042 3.462,-5.996 1.809,-6.951 -0.313,-6.382 -1.268,-4.729 -2.222,-3.076 -1.653,-0.954 0,0 m -20.539,-12.603 11.023,6.365 -6.717,1.801 1.124,4.197 11.671,-3.127 -0.854,-3.184 3.183,-0.852 -3.127,-11.669 -4.198,1.125 1.847,6.893 -11.135,-6.428 z" />
      </g>
      <g
         transform="matrix(-0.28747297,-0.03917128,0.03917128,-0.28747297,120.6279,45.33414)"
         id="g316">
        <path
           id="path318"
           style="fill:#08a84d;fill-opacity:1;fill-rule:evenodd;stroke:none"
           d="M 0,0 C -1.893,-0.25 -3.636,1.088 -3.885,2.98 -4.134,4.873 -2.797,6.615 -0.904,6.864 0.988,7.114 2.731,5.777 2.98,3.885 3.229,1.992 1.893,0.249 0,0 M 23.798,3.783 11.178,2.122 16.695,-2.114 14.05,-5.56 4.465,1.794 6.472,4.41 3.857,6.415 11.211,15.999 14.659,13.354 10.315,7.691 23.063,9.37 Z" />
      </g>
      <g
         transform="matrix(-0.28747297,-0.03917128,0.03917128,-0.28747297,71.686226,7.5826297)"
         id="g320">
        <path
           id="path322"
           style="fill:#08a84d;fill-opacity:1;fill-rule:evenodd;stroke:none"
           d="M 0,0 C 1.892,0.249 3.635,-1.088 3.884,-2.981 4.134,-4.873 2.796,-6.615 0.903,-6.864 -0.989,-7.114 -2.731,-5.777 -2.981,-3.885 -3.229,-1.992 -1.893,-0.249 0,0 m -23.799,-3.783 12.62,1.661 -5.517,4.235 2.645,3.448 9.585,-7.355 -2.006,-2.616 2.615,-2.005 -7.355,-9.584 -3.447,2.645 4.344,5.662 -12.748,-1.678 z" />
      </g>
      <g
         transform="matrix(-0.28747297,-0.03917128,0.03917128,-0.28747297,126.05829,33.93932)"
         id="g324">
        <path
           id="path326"
           style="fill:#08a84d;fill-opacity:1;fill-rule:evenodd;stroke:none"
           d="m 0,0 c -1.843,0.494 -2.941,2.396 -2.448,4.241 0.495,1.842 2.397,2.941 4.24,2.446 C 3.636,6.194 4.735,4.292 4.24,2.448 3.746,0.604 1.844,-0.495 0,0 M 23.436,-5.612 11.141,-2.317 14.616,-8.341 10.854,-10.514 4.813,-0.05 7.667,1.598 6.02,4.45 16.482,10.49 18.654,6.728 12.475,3.159 24.894,-0.169 Z" />
      </g>
      <g
         transform="matrix(-0.28747297,-0.03917128,0.03917128,-0.28747297,66.256158,18.977054)"
         id="g328">
        <path
           id="path330"
           style="fill:#08a84d;fill-opacity:1;fill-rule:evenodd;stroke:none"
           d="M 0,0 C 1.844,-0.494 2.942,-2.396 2.448,-4.24 1.954,-6.084 0.052,-7.182 -1.792,-6.688 -3.636,-6.194 -4.734,-4.292 -4.24,-2.449 -3.746,-0.604 -1.844,0.494 0,0 m -23.435,5.611 12.296,-3.294 -3.477,6.024 3.763,2.173 6.04,-10.463 -2.853,-1.649 1.647,-2.852 -10.462,-6.04 -2.172,3.762 6.179,3.569 -12.42,3.328 z" />
      </g>
      <g
         transform="matrix(-0.28747297,-0.03917128,0.03917128,-0.28747297,126.89716,22.143178)"
         id="g332">
        <path
           id="path334"
           style="fill:#08a84d;fill-opacity:1;fill-rule:evenodd;stroke:none"
           d="M 0,0 C -1.514,1.163 -1.801,3.34 -0.639,4.854 0.523,6.369 2.701,6.655 4.215,5.493 5.729,4.331 6.017,2.154 4.854,0.639 3.692,-0.875 1.514,-1.162 0,0 m 19.503,-14.153 -10.098,7.749 0.907,-6.896 -4.308,-0.567 -1.578,11.978 3.269,0.431 -0.431,3.266 11.977,1.577 0.568,-4.308 -7.076,-0.932 10.2,-7.827 z" />
      </g>
      <g
         transform="matrix(-0.28747297,-0.03917128,0.03917128,-0.28747297,65.416981,30.773301)"
         id="g336">
        <path
           id="path338"
           style="fill:#08a84d;fill-opacity:1;fill-rule:evenodd;stroke:none"
           d="m 0,0 c 1.515,-1.162 1.801,-3.34 0.638,-4.854 -1.161,-1.515 -3.34,-1.801 -4.853,-0.639 -1.514,1.162 -1.802,3.34 -0.639,4.853 C -3.692,0.875 -1.514,1.162 0,0 m -19.503,14.152 10.097,-7.748 -0.906,6.896 4.308,0.567 1.577,-11.978 -3.268,-0.431 0.431,-3.266 -11.977,-1.577 -0.568,4.307 7.076,0.933 -10.2,7.828 z" />
      </g>
      <g
         transform="matrix(-0.28747297,-0.03917128,0.03917128,-0.28747297,123.38808,10.84735)"
         id="g340">
        <path
           id="path342"
           style="fill:#08a84d;fill-opacity:1;fill-rule:evenodd;stroke:none"
           d="M 0,0 C -0.955,1.653 -0.386,3.774 1.267,4.729 2.92,5.683 5.042,5.115 5.996,3.462 6.951,1.809 6.383,-0.314 4.729,-1.268 3.076,-2.222 0.954,-1.654 0,0 m 12.602,-20.539 -6.364,11.023 -1.801,-6.717 -4.197,1.124 3.127,11.67 3.184,-0.853 0.851,3.183 11.67,-3.128 -1.124,-4.197 -6.895,1.846 6.429,-11.134 z" />
      </g>
      <g
         transform="matrix(-0.28747297,-0.03917128,0.03917128,-0.28747297,68.926077,42.069014)"
         id="g344">
        <path
           id="path346"
           style="fill:#08a84d;fill-opacity:1;fill-rule:evenodd;stroke:none"
           d="M 0,0 C 0.955,-1.653 0.386,-3.774 -1.268,-4.729 -2.92,-5.684 -5.042,-5.115 -5.996,-3.462 -6.951,-1.809 -6.383,0.312 -4.729,1.267 -3.076,2.222 -0.954,1.653 0,0 m -12.604,20.539 6.366,-11.024 1.801,6.718 4.196,-1.125 -3.126,-11.669 -3.184,0.853 -0.851,-3.183 -11.671,3.127 1.125,4.197 6.893,-1.846 -6.428,11.135 z" />
      </g>
      <g
         transform="matrix(-0.28747297,-0.03917128,0.03917128,-0.28747297,80.293162,42.148256)"
         id="g348">
        <path
           id="path350"
           style="fill:#08a84d;fill-opacity:1;fill-rule:evenodd;stroke:none"
           d="m 0,0 c 0.354,-1.322 -0.434,-2.686 -1.756,-3.041 -1.322,-0.354 -2.685,0.434 -3.039,1.756 -0.354,1.322 0.433,2.685 1.754,3.04 C -1.719,2.109 -0.354,1.322 0,0 m -4.917,16.563 2.362,-8.815 2.494,4.319 2.698,-1.558 -4.331,-7.503 -2.047,1.182 -1.18,-2.046 -7.502,4.332 1.558,2.697 4.432,-2.558 -2.386,8.905 z" />
      </g>
      <g
         transform="matrix(-0.28747297,-0.03917128,0.03917128,-0.28747297,112.02109,10.768677)"
         id="g352">
        <path
           id="path354"
           style="fill:#08a84d;fill-opacity:1;fill-rule:evenodd;stroke:none"
           d="M 0,0 C -0.354,1.322 0.433,2.687 1.755,3.041 3.077,3.395 4.44,2.607 4.796,1.285 5.15,-0.036 4.363,-1.4 3.04,-1.755 1.718,-2.109 0.354,-1.322 0,0 m 4.917,-16.563 -2.362,8.815 -2.494,-4.317 -2.698,1.556 4.331,7.503 2.047,-1.181 1.18,2.045 7.502,-4.331 -1.559,-2.698 -4.43,2.558 2.385,-8.905 z" />
      </g>
      <g
         transform="matrix(-0.28747297,-0.03917128,0.03917128,-0.28747297,87.918256,46.903432)"
         id="g356">
        <path
           id="path358"
           style="fill:#08a84d;fill-opacity:1;fill-rule:evenodd;stroke:none"
           d="m 0,0 c -0.179,-1.357 -1.429,-2.315 -2.786,-2.137 -1.357,0.179 -2.315,1.428 -2.136,2.785 0.178,1.357 1.427,2.316 2.784,2.137 C -0.78,2.606 0.179,1.357 0,0 M 1.795,17.185 0.604,8.136 4.561,11.171 6.457,8.7 -0.415,3.427 -1.854,5.301 -3.728,3.863 -9,10.735 l 2.471,1.896 3.115,-4.059 1.203,9.14 z" />
      </g>
      <g
         transform="matrix(-0.28747297,-0.03917128,0.03917128,-0.28747297,104.39575,6.0131747)"
         id="g360">
        <path
           id="path362"
           style="fill:#08a84d;fill-opacity:1;fill-rule:evenodd;stroke:none"
           d="M 0,0 C 0.179,1.357 1.429,2.316 2.785,2.137 4.143,1.958 5.101,0.709 4.922,-0.648 4.744,-2.004 3.495,-2.963 2.137,-2.785 0.78,-2.606 -0.178,-1.356 0,0 m -1.796,-17.184 1.192,9.048 -3.957,-3.034 -1.897,2.471 6.873,5.274 L 1.854,-5.3 3.728,-3.862 9,-10.734 6.528,-12.63 3.413,-8.571 2.209,-17.711 Z" />
      </g>
      <g
         transform="matrix(-0.28747297,-0.03917128,0.03917128,-0.28747297,96.649861,48.721432)"
         id="g364">
        <path
           id="path366"
           style="fill:#08a84d;fill-opacity:1;fill-rule:evenodd;stroke:none"
           d="m 0,0 c -0.685,-1.185 -2.206,-1.593 -3.391,-0.908 -1.185,0.684 -1.593,2.205 -0.908,3.39 0.684,1.186 2.204,1.594 3.39,0.909 C 0.277,2.707 0.685,1.186 0,0 M 8.235,15.19 3.672,7.285 8.489,8.575 9.295,5.566 0.928,3.324 0.316,5.606 -1.965,4.994 l -2.242,8.367 3.01,0.806 1.324,-4.942 4.609,7.984 z" />
      </g>
      <g
         transform="matrix(-0.28747297,-0.03917128,0.03917128,-0.28747297,95.664164,4.1950312)"
         id="g368">
        <path
           id="path370"
           style="fill:#08a84d;fill-opacity:1;fill-rule:evenodd;stroke:none"
           d="M 0,0 C 0.684,1.185 2.205,1.592 3.391,0.908 4.576,0.224 4.983,-1.297 4.299,-2.482 3.614,-3.667 2.094,-4.076 0.908,-3.391 -0.276,-2.707 -0.685,-1.185 0,0 m -8.236,-15.189 4.564,7.904 -4.817,-1.29 -0.807,3.009 8.368,2.242 0.611,-2.282 2.281,0.612 2.242,-8.367 -3.009,-0.806 -1.325,4.942 -4.609,-7.984 z" />
      </g>
      <g
         transform="matrix(-0.28747297,-0.03917128,0.03917128,-0.28747297,104.82335,46.973696)"
         id="g372">
        <path
           id="path374"
           style="fill:#08a84d;fill-opacity:1;fill-rule:evenodd;stroke:none"
           d="M 0,0 C -1.086,-0.833 -2.648,-0.627 -3.48,0.458 -4.314,1.544 -4.108,3.105 -3.022,3.939 -1.937,4.772 -0.375,4.566 0.458,3.48 1.291,2.395 1.085,0.833 0,0 M 13.421,10.881 6.18,5.325 11.124,4.673 10.718,1.585 2.129,2.715 2.437,5.059 0.096,5.367 1.227,13.954 4.315,13.548 3.647,8.474 l 7.314,5.612 z" />
      </g>
      <g
         transform="matrix(-0.28747297,-0.03917128,0.03917128,-0.28747297,87.49096,5.9428348)"
         id="g376">
        <path
           id="path378"
           style="fill:#08a84d;fill-opacity:1;fill-rule:evenodd;stroke:none"
           d="M 0,0 C 1.086,0.833 2.647,0.627 3.481,-0.458 4.314,-1.544 4.108,-3.105 3.023,-3.938 1.937,-4.772 0.375,-4.567 -0.458,-3.48 -1.291,-2.395 -1.086,-0.833 0,0 m -13.421,-10.881 7.24,5.556 -4.943,0.652 0.407,3.088 8.588,-1.13 -0.309,-2.343 2.343,-0.308 -1.132,-8.588 -3.088,0.407 0.668,5.072 -7.314,-5.612 z" />
      </g>
      <g
         transform="matrix(-0.28747297,-0.03917128,0.03917128,-0.28747297,111.84706,42.322319)"
         id="g380">
        <path
           id="path382"
           style="fill:#08a84d;fill-opacity:1;fill-rule:evenodd;stroke:none"
           d="m 0,0 c -1.322,-0.354 -2.686,0.433 -3.04,1.755 -0.354,1.322 0.433,2.686 1.755,3.04 C 0.038,5.149 1.401,4.363 1.755,3.041 2.11,1.718 1.322,0.354 0,0 M 16.564,4.917 7.749,2.554 12.067,0.061 10.509,-2.638 3.007,1.694 4.188,3.741 2.142,4.921 6.473,12.422 9.171,10.865 6.614,6.434 15.518,8.82 Z" />
      </g>
      <g
         transform="matrix(-0.28747297,-0.03917128,0.03917128,-0.28747297,80.46736,10.594227)"
         id="g384">
        <path
           id="path386"
           style="fill:#08a84d;fill-opacity:1;fill-rule:evenodd;stroke:none"
           d="M 0,0 C 1.322,0.354 2.687,-0.433 3.041,-1.756 3.395,-3.078 2.607,-4.441 1.285,-4.795 -0.037,-5.149 -1.401,-4.362 -1.754,-3.041 -2.109,-1.718 -1.322,-0.354 0,0 m -16.563,-4.917 8.815,2.362 -4.318,2.494 1.557,2.698 7.503,-4.33 -1.181,-2.048 2.045,-1.18 -4.331,-7.501 -2.697,1.557 2.557,4.432 -8.905,-2.386 z" />
      </g>
      <g
         transform="matrix(-0.28747297,-0.03917128,0.03917128,-0.28747297,116.60211,34.697062)"
         id="g388">
        <path
           id="path390"
           style="fill:#08a84d;fill-opacity:1;fill-rule:evenodd;stroke:none"
           d="M 0,0 C -1.356,0.179 -2.315,1.428 -2.137,2.785 -1.958,4.143 -0.708,5.101 0.648,4.922 2.005,4.743 2.964,3.495 2.785,2.137 2.607,0.781 1.357,-0.178 0,0 M 17.185,-1.796 8.136,-0.604 11.171,-4.562 8.699,-6.458 3.426,0.415 5.301,1.854 3.863,3.727 10.735,9 12.631,6.528 8.571,3.413 17.712,2.21 Z" />
      </g>
      <g
         transform="matrix(-0.28747297,-0.03917128,0.03917128,-0.28747297,75.712129,18.219724)"
         id="g392">
        <path
           id="path394"
           style="fill:#08a84d;fill-opacity:1;fill-rule:evenodd;stroke:none"
           d="M 0,0 C 1.357,-0.179 2.315,-1.429 2.137,-2.785 1.958,-4.142 0.709,-5.102 -0.648,-4.922 -2.005,-4.744 -2.964,-3.495 -2.785,-2.138 -2.606,-0.78 -1.356,0.179 0,0 m -17.184,1.796 9.048,-1.192 -3.035,3.958 2.472,1.896 5.273,-6.873 -1.874,-1.439 1.438,-1.873 -6.872,-5.273 -1.897,2.471 4.059,3.116 -9.14,1.203 z" />
      </g>
      <g
         transform="matrix(-0.28747297,-0.03917128,0.03917128,-0.28747297,73.894041,26.950906)"
         id="g396">
        <path
           id="path398"
           style="fill:#08a84d;fill-opacity:1;fill-rule:evenodd;stroke:none"
           d="m 0,0 c 1.185,-0.685 1.593,-2.206 0.909,-3.391 -0.685,-1.185 -2.205,-1.592 -3.391,-0.908 -1.185,0.684 -1.593,2.205 -0.909,3.39 C -2.707,0.277 -1.185,0.684 0,0 m -15.189,8.235 7.904,-4.564 -1.29,4.818 3.009,0.806 2.242,-8.367 -2.282,-0.612 0.612,-2.282 -8.367,-2.241 -0.806,3.009 4.941,1.325 -7.982,4.609 z" />
      </g>
      <g
         transform="matrix(-0.28747297,-0.03917128,0.03917128,-0.28747297,118.42039,25.965612)"
         id="g400">
        <path
           id="path402"
           style="fill:#08a84d;fill-opacity:1;fill-rule:evenodd;stroke:none"
           d="M 0,0 C -1.185,0.685 -1.592,2.206 -0.907,3.392 -0.223,4.577 1.297,4.984 2.483,4.3 3.668,3.616 4.076,2.095 3.392,0.909 2.707,-0.276 1.187,-0.684 0,0 m 15.19,-8.235 -7.905,4.564 1.29,-4.817 -3.008,-0.807 -2.243,8.368 2.282,0.612 -0.611,2.281 8.366,2.242 0.806,-3.01 -4.941,-1.324 7.984,-4.609 z" />
      </g>
      <g
         transform="matrix(-0.28747297,-0.03917128,0.03917128,-0.28747297,116.67265,17.792125)"
         id="g404">
        <path
           id="path406"
           style="fill:#08a84d;fill-opacity:1;fill-rule:evenodd;stroke:none"
           d="M 0,0 C -0.833,1.085 -0.627,2.647 0.458,3.48 1.545,4.314 3.105,4.108 3.939,3.022 4.772,1.937 4.567,0.375 3.48,-0.458 2.395,-1.291 0.834,-1.085 0,0 m 10.882,-13.421 -5.556,7.241 -0.652,-4.944 -3.088,0.407 1.13,8.588 2.343,-0.309 0.308,2.343 8.588,-1.132 -0.407,-3.088 -5.073,0.667 5.612,-7.313 z" />
      </g>
      <g
         transform="matrix(-0.28747297,-0.03917128,0.03917128,-0.28747297,75.641607,35.12478)"
         id="g408">
        <path
           id="path410"
           style="fill:#08a84d;fill-opacity:1;fill-rule:evenodd;stroke:none"
           d="m 0,0 c 0.833,-1.085 0.627,-2.647 -0.459,-3.48 -1.085,-0.833 -2.646,-0.628 -3.479,0.458 -0.834,1.085 -0.628,2.647 0.458,3.48 C -2.395,1.292 -0.833,1.086 0,0 m -10.881,13.421 5.556,-7.241 0.652,4.945 3.088,-0.407 -1.131,-8.589 -2.343,0.309 -0.308,-2.342 -8.587,1.131 0.407,3.088 5.072,-0.668 -5.611,7.314 z" />
      </g>
      <g
         transform="matrix(-0.28747297,-0.03917128,0.03917128,-0.28747297,83.659836,35.909811)"
         id="g412">
        <path
           id="path414"
           style="fill:#08a84d;fill-opacity:1;fill-rule:evenodd;stroke:none"
           d="m 0,0 c 0.364,-0.882 -0.056,-1.897 -0.937,-2.262 -0.882,-0.365 -1.896,0.055 -2.262,0.937 -0.364,0.882 0.055,1.896 0.936,2.261 C -1.38,1.301 -0.365,0.881 0,0 M -4.908,11.003 -2.472,5.124 -1.14,8.336 0.866,7.505 -1.445,1.924 -2.968,2.555 -3.598,1.033 -9.179,3.344 -8.347,5.351 -5.05,3.987 -7.51,9.925 Z" />
      </g>
      <g
         transform="matrix(-0.28747297,-0.03917128,0.03917128,-0.28747297,108.65415,17.006939)"
         id="g416">
        <path
           id="path418"
           style="fill:#08a84d;fill-opacity:1;fill-rule:evenodd;stroke:none"
           d="M 0,0 C -0.365,0.882 0.055,1.897 0.937,2.262 1.819,2.627 2.834,2.207 3.198,1.325 3.563,0.443 3.144,-0.572 2.262,-0.937 1.38,-1.301 0.366,-0.882 0,0 m 4.907,-11.004 -2.436,5.88 -1.331,-3.212 -2.007,0.831 2.311,5.581 1.523,-0.63 0.63,1.521 5.58,-2.311 -0.831,-2.008 -3.297,1.366 2.461,-5.94 z" />
      </g>
      <g
         transform="matrix(-0.28747297,-0.03917128,0.03917128,-0.28747297,88.506611,39.770303)"
         id="g420">
        <path
           id="path422"
           style="fill:#08a84d;fill-opacity:1;fill-rule:evenodd;stroke:none"
           d="m 0,0 c 0,-0.954 -0.777,-1.73 -1.731,-1.73 -0.955,0 -1.731,0.776 -1.731,1.73 0,0.955 0.776,1.731 1.73,1.731 C -0.777,1.731 0,0.955 0,0 M -0.323,12.044 -0.322,5.68 2.137,8.139 3.673,6.603 -0.598,2.331 -1.764,3.496 -2.929,2.331 -7.2,6.603 -5.663,8.139 -3.14,5.616 v 6.428 z" />
      </g>
      <g
         transform="matrix(-0.28747297,-0.03917128,0.03917128,-0.28747297,103.80745,13.14675)"
         id="g424">
        <path
           id="path426"
           style="fill:#08a84d;fill-opacity:1;fill-rule:evenodd;stroke:none"
           d="M 0,0 C 0,0.955 0.776,1.731 1.731,1.731 2.686,1.731 3.462,0.955 3.462,0 3.462,-0.955 2.686,-1.73 1.731,-1.73 0.776,-1.73 0,-0.954 0,0 m 0.322,-12.044 v 6.364 l -2.46,-2.458 -1.535,1.536 4.272,4.271 1.165,-1.165 1.163,1.165 4.272,-4.271 -1.536,-1.536 -2.523,2.523 v -6.429 z" />
      </g>
      <g
         transform="matrix(-0.28747297,-0.03917128,0.03917128,-0.28747297,94.486145,41.83781)"
         id="g428">
        <path
           id="path430"
           style="fill:#08a84d;fill-opacity:1;fill-rule:evenodd;stroke:none"
           d="m 0,0 c -0.365,-0.881 -1.38,-1.301 -2.263,-0.936 -0.881,0.365 -1.301,1.379 -0.936,2.261 0.366,0.882 1.38,1.302 2.262,0.937 C -0.056,1.896 0.365,0.882 0,0 M 4.311,11.251 1.875,5.371 5.088,6.702 5.919,4.695 0.339,2.383 l -0.631,1.522 -1.521,-0.63 -2.312,5.58 2.007,0.832 1.366,-3.297 2.46,5.94 z" />
      </g>
      <g
         transform="matrix(-0.28747297,-0.03917128,0.03917128,-0.28747297,97.827851,11.078649)"
         id="g432">
        <path
           id="path434"
           style="fill:#08a84d;fill-opacity:1;fill-rule:evenodd;stroke:none"
           d="M 0,0 C 0.365,0.881 1.38,1.302 2.261,0.937 3.143,0.571 3.563,-0.443 3.198,-1.325 2.833,-2.207 1.819,-2.627 0.937,-2.262 0.055,-1.897 -0.365,-0.882 0,0 m -4.311,-11.251 2.435,5.879 -3.213,-1.33 -0.831,2.008 5.581,2.312 0.63,-1.523 1.522,0.63 2.311,-5.58 -2.007,-0.832 -1.366,3.297 -2.46,-5.94 z" />
      </g>
      <g
         transform="matrix(-0.28747297,-0.03917128,0.03917128,-0.28747297,100.29674,41.429716)"
         id="g436">
        <path
           id="path438"
           style="fill:#08a84d;fill-opacity:1;fill-rule:evenodd;stroke:none"
           d="m 0,0 c -0.675,-0.675 -1.773,-0.675 -2.448,0 -0.675,0.675 -0.675,1.773 0,2.448 0.675,0.675 1.773,0.675 2.448,0 C 0.675,1.773 0.675,0.675 0,0 M 8.289,8.745 3.789,4.244 H 7.265 V 2.072 L 1.225,2.071 V 3.72 L -0.422,3.719 v 6.04 L 1.75,9.76 1.751,6.191 6.297,10.737 Z" />
      </g>
      <g
         transform="matrix(-0.28747297,-0.03917128,0.03917128,-0.28747297,92.017507,11.487069)"
         id="g440">
        <path
           id="path442"
           style="fill:#08a84d;fill-opacity:1;fill-rule:evenodd;stroke:none"
           d="m 0,0 c 0.676,0.675 1.773,0.675 2.449,0 0.675,-0.675 0.674,-1.774 0,-2.448 C 1.773,-3.124 0.676,-3.124 0,-2.448 -0.674,-1.773 -0.674,-0.675 0,0 m -8.289,-8.745 4.5,4.501 h -3.477 l 0.001,2.172 6.04,10e-4 V -3.72 L 0.423,-3.719 0.422,-9.759 -1.75,-9.76 v 3.568 l -4.546,-4.545 z" />
      </g>
      <g
         transform="matrix(-0.28747297,-0.03917128,0.03917128,-0.28747297,105.60867,38.955477)"
         id="g444">
        <path
           id="path446"
           style="fill:#08a84d;fill-opacity:1;fill-rule:evenodd;stroke:none"
           d="M 0,0 C -0.881,-0.365 -1.896,0.055 -2.262,0.937 -2.627,1.819 -2.207,2.834 -1.325,3.199 -0.443,3.564 0.572,3.144 0.937,2.262 1.302,1.38 0.882,0.366 0,0 M 11.004,4.908 5.125,2.472 8.337,1.141 7.506,-0.867 1.924,1.445 2.555,2.968 1.034,3.598 3.344,9.178 5.352,8.347 3.987,5.05 9.926,7.511 Z" />
      </g>
      <g
         transform="matrix(-0.28747297,-0.03917128,0.03917128,-0.28747297,86.705479,13.961149)"
         id="g448">
        <path
           id="path450"
           style="fill:#08a84d;fill-opacity:1;fill-rule:evenodd;stroke:none"
           d="M 0,0 C 0.882,0.365 1.896,-0.055 2.262,-0.937 2.627,-1.819 2.206,-2.833 1.325,-3.199 0.442,-3.563 -0.572,-3.144 -0.937,-2.261 -1.302,-1.379 -0.881,-0.365 0,0 m -11.004,-4.907 5.88,2.436 -3.213,1.331 0.832,2.007 5.58,-2.311 -0.63,-1.523 1.522,-0.63 -2.312,-5.581 -2.007,0.831 1.366,3.297 -5.94,-2.46 z" />
      </g>
      <g
         transform="matrix(-0.28747297,-0.03917128,0.03917128,-0.28747297,109.46885,34.108659)"
         id="g452">
        <path
           id="path454"
           style="fill:#08a84d;fill-opacity:1;fill-rule:evenodd;stroke:none"
           d="m 0,0 c -0.955,0 -1.731,0.776 -1.731,1.731 0,0.955 0.776,1.731 1.731,1.731 0.955,0 1.731,-0.776 1.731,-1.731 C 1.731,0.777 0.954,0 0,0 M 12.044,0.323 H 5.68 L 8.139,-2.137 6.603,-3.672 2.331,0.598 3.496,1.765 2.332,2.928 6.602,7.2 8.139,5.663 5.615,3.14 h 6.429 z" />
      </g>
      <g
         transform="matrix(-0.28747297,-0.03917128,0.03917128,-0.28747297,82.845303,18.807967)"
         id="g456">
        <path
           id="path458"
           style="fill:#08a84d;fill-opacity:1;fill-rule:evenodd;stroke:none"
           d="m 0,0 c 0.954,0 1.731,-0.776 1.731,-1.731 0,-0.954 -0.777,-1.73 -1.732,-1.73 -0.953,-0.001 -1.73,0.775 -1.73,1.73 C -1.731,-0.776 -0.954,0 0,0 m -12.045,-0.322 h 6.365 l -2.459,2.459 1.536,1.536 4.272,-4.271 -1.165,-1.166 1.165,-1.164 -4.272,-4.271 -1.536,1.536 2.523,2.523 h -6.429 z" />
      </g>
      <g
         transform="matrix(-0.28747297,-0.03917128,0.03917128,-0.28747297,111.53648,28.129288)"
         id="g460">
        <path
           id="path462"
           style="fill:#08a84d;fill-opacity:1;fill-rule:evenodd;stroke:none"
           d="M 0,0 C -0.883,0.365 -1.302,1.38 -0.937,2.262 -0.572,3.144 0.443,3.564 1.324,3.199 2.207,2.834 2.627,1.819 2.262,0.937 1.896,0.056 0.881,-0.365 0,0 m 11.251,-4.311 -5.88,2.436 1.33,-3.214 -2.007,-0.83 -2.312,5.581 1.523,0.63 -0.631,1.522 5.58,2.311 0.832,-2.007 -3.296,-1.366 5.94,-2.46 z" />
      </g>
      <g
         transform="matrix(-0.28747297,-0.03917128,0.03917128,-0.28747297,80.777489,24.787606)"
         id="g464">
        <path
           id="path466"
           style="fill:#08a84d;fill-opacity:1;fill-rule:evenodd;stroke:none"
           d="m 0,0 c 0.881,-0.366 1.302,-1.38 0.937,-2.262 -0.366,-0.881 -1.38,-1.302 -2.263,-0.937 -0.881,0.365 -1.301,1.381 -0.936,2.262 C -1.896,-0.056 -0.883,0.365 0,0 m -11.251,4.311 5.88,-2.436 -1.331,3.214 2.007,0.83 2.312,-5.58 -1.522,-0.631 0.63,-1.521 -5.58,-2.312 -0.832,2.007 3.296,1.366 -5.938,2.46 z" />
      </g>
      <g
         transform="matrix(-0.28747297,-0.03917128,0.03917128,-0.28747297,111.12829,22.318537)"
         id="g468">
        <path
           id="path470"
           style="fill:#08a84d;fill-opacity:1;fill-rule:evenodd;stroke:none"
           d="m 0,0 c -0.675,0.675 -0.676,1.773 0,2.448 0.675,0.676 1.772,0.675 2.447,0 C 3.123,1.773 3.123,0.675 2.447,0 1.773,-0.674 0.674,-0.674 0,0 M 8.745,-8.289 4.244,-3.788 4.243,-7.265 H 2.07 l 0.001,6.04 H 3.719 L 3.718,0.422 h 6.04 L 9.759,-1.75 H 6.191 l 4.545,-4.546 z" />
      </g>
      <g
         transform="matrix(-0.28747297,-0.03917128,0.03917128,-0.28747297,81.186024,30.597965)"
         id="g472">
        <path
           id="path474"
           style="fill:#08a84d;fill-opacity:1;fill-rule:evenodd;stroke:none"
           d="m 0,0 c 0.676,-0.675 0.676,-1.773 0,-2.449 -0.674,-0.675 -1.773,-0.674 -2.448,0 -0.674,0.676 -0.675,1.774 0,2.449 0.675,0.674 1.774,0.675 2.448,0 m -8.744,8.288 4.501,-4.499 v 3.476 h 2.172 v -6.04 h -1.647 v -1.648 h -6.04 L -9.759,1.75 h 3.569 l -4.546,4.546 z" />
      </g>
      <g
         transform="matrix(-0.28747297,-0.03917128,0.03917128,-0.28747297,86.394831,32.054476)"
         id="g476">
        <path
           id="path478"
           style="fill:#08a84d;fill-opacity:1;fill-rule:evenodd;stroke:none"
           d="M 0,0 C 0.341,-0.593 0.138,-1.354 -0.454,-1.696 -1.047,-2.038 -1.807,-1.834 -2.15,-1.242 -2.492,-0.649 -2.289,0.111 -1.696,0.454 -1.102,0.796 -0.342,0.592 0,0 m -4.518,7.363 2.282,-3.952 0.645,2.408 1.505,-0.403 -1.122,-4.184 -1.141,0.306 -0.306,-1.141 -4.182,1.122 0.403,1.503 2.471,-0.661 -2.305,3.992 z" />
      </g>
      <g
         transform="matrix(-0.28747297,-0.03917128,0.03917128,-0.28747297,105.91936,20.861863)"
         id="g480">
        <path
           id="path482"
           style="fill:#08a84d;fill-opacity:1;fill-rule:evenodd;stroke:none"
           d="M 0,0 C -0.343,0.592 -0.139,1.354 0.454,1.695 1.047,2.038 1.808,1.833 2.149,1.241 2.492,0.648 2.288,-0.112 1.695,-0.454 1.103,-0.796 0.342,-0.593 0,0 m 4.519,-7.363 -2.284,3.951 -0.645,-2.407 -1.504,0.402 1.121,4.184 1.141,-0.305 0.305,1.14 4.184,-1.121 -0.403,-1.504 -2.472,0.662 2.306,-3.992 z" />
      </g>
      <g
         transform="matrix(-0.28747297,-0.03917128,0.03917128,-0.28747297,89.390033,35.231303)"
         id="g484">
        <path
           id="path486"
           style="fill:#08a84d;fill-opacity:1;fill-rule:evenodd;stroke:none"
           d="m 0,0 c 0.089,-0.678 -0.391,-1.303 -1.069,-1.392 -0.678,-0.089 -1.304,0.39 -1.392,1.068 -0.09,0.678 0.389,1.303 1.067,1.392 C -0.715,1.158 -0.09,0.678 0,0 M -1.356,8.533 -0.762,4.008 0.757,5.986 1.993,5.038 -0.644,1.602 -1.582,2.321 -2.3,1.383 -5.736,4.02 l 0.948,1.236 2.029,-1.558 -0.6,4.57 z" />
      </g>
      <g
         transform="matrix(-0.28747297,-0.03917128,0.03917128,-0.28747297,102.92413,17.685208)"
         id="g488">
        <path
           id="path490"
           style="fill:#08a84d;fill-opacity:1;fill-rule:evenodd;stroke:none"
           d="M 0,0 C -0.089,0.678 0.39,1.303 1.069,1.392 1.747,1.481 2.372,1.002 2.46,0.323 2.55,-0.355 2.071,-0.98 1.393,-1.069 0.714,-1.159 0.09,-0.679 0,0 M 1.356,-8.532 0.761,-4.008 -0.757,-5.986 -1.993,-5.037 0.644,-1.601 1.581,-2.32 2.3,-1.383 5.736,-4.02 4.788,-5.256 2.758,-3.698 3.359,-8.269 Z" />
      </g>
      <g
         transform="matrix(-0.28747297,-0.03917128,0.03917128,-0.28747297,93.475169,37.178064)"
         id="g492">
        <path
           id="path494"
           style="fill:#08a84d;fill-opacity:1;fill-rule:evenodd;stroke:none"
           d="m 0,0 c -0.176,-0.661 -0.859,-1.054 -1.521,-0.877 -0.66,0.177 -1.054,0.859 -0.876,1.52 0.176,0.661 0.859,1.055 1.52,0.878 C -0.217,1.343 0.178,0.662 0,0 M 2.012,8.402 0.831,3.994 2.99,5.24 3.77,3.891 0.018,1.726 -0.572,2.749 -1.595,2.158 -3.76,5.909 -2.411,6.687 -1.132,4.472 0.062,8.925 Z" />
      </g>
      <g
         transform="matrix(-0.28747297,-0.03917128,0.03917128,-0.28747297,98.8392,15.738885)"
         id="g496">
        <path
           id="path498"
           style="fill:#08a84d;fill-opacity:1;fill-rule:evenodd;stroke:none"
           d="M 0,0 C 0.178,0.661 0.86,1.055 1.521,0.877 2.182,0.7 2.576,0.019 2.398,-0.643 2.221,-1.304 1.54,-1.698 0.878,-1.52 0.217,-1.343 -0.176,-0.661 0,0 m -2.011,-8.402 1.181,4.408 -2.159,-1.245 -0.779,1.348 3.751,2.165 0.591,-1.022 1.022,0.59 2.166,-3.751 -1.349,-0.778 -1.281,2.215 -1.191,-4.452 z" />
      </g>
      <g
         transform="matrix(-0.28747297,-0.03917128,0.03917128,-0.28747297,97.704282,37.478528)"
         id="g500">
        <path
           id="path502"
           style="fill:#08a84d;fill-opacity:1;fill-rule:evenodd;stroke:none"
           d="m 0,0 c -0.416,-0.543 -1.196,-0.646 -1.739,-0.229 -0.543,0.416 -0.646,1.197 -0.23,1.74 0.417,0.542 1.198,0.645 1.74,0.229 C 0.314,1.323 0.417,0.542 0,0 M 5.075,6.992 2.297,3.372 4.769,3.697 4.972,2.152 0.679,1.587 0.523,2.758 -0.647,2.603 -1.213,6.898 0.332,7.101 0.666,4.564 3.472,8.221 Z" />
      </g>
      <g
         transform="matrix(-0.28747297,-0.03917128,0.03917128,-0.28747297,94.610145,15.437989)"
         id="g504">
        <path
           id="path506"
           style="fill:#08a84d;fill-opacity:1;fill-rule:evenodd;stroke:none"
           d="M 0,0 C 0.416,0.543 1.197,0.646 1.74,0.229 2.284,-0.187 2.386,-0.968 1.969,-1.511 1.553,-2.053 0.772,-2.157 0.229,-1.74 -0.314,-1.323 -0.417,-0.542 0,0 m -5.074,-6.992 2.778,3.62 -2.472,-0.325 -0.203,1.545 4.295,0.566 0.153,-1.172 1.171,0.154 0.566,-4.293 -1.545,-0.205 -0.334,2.537 -2.805,-3.657 z" />
      </g>
      <g
         transform="matrix(-0.28747297,-0.03917128,0.03917128,-0.28747297,101.75361,36.220402)"
         id="g508">
        <path
           id="path510"
           style="fill:#08a84d;fill-opacity:1;fill-rule:evenodd;stroke:none"
           d="M 0,0 C -0.593,-0.343 -1.353,-0.139 -1.696,0.454 -2.038,1.046 -1.833,1.807 -1.241,2.149 -0.649,2.492 0.112,2.288 0.454,1.695 0.796,1.102 0.592,0.341 0,0 M 7.363,4.518 3.412,2.236 5.819,1.59 5.417,0.086 1.233,1.207 1.538,2.348 0.398,2.653 1.519,6.837 3.023,6.433 2.361,3.962 6.353,6.267 Z" />
      </g>
      <g
         transform="matrix(-0.28747297,-0.03917128,0.03917128,-0.28747297,90.560575,16.695966)"
         id="g512">
        <path
           id="path514"
           style="fill:#08a84d;fill-opacity:1;fill-rule:evenodd;stroke:none"
           d="M 0,0 C 0.592,0.342 1.354,0.139 1.695,-0.454 2.038,-1.046 1.833,-1.808 1.241,-2.15 0.648,-2.492 -0.112,-2.288 -0.454,-1.695 -0.797,-1.103 -0.593,-0.342 0,0 m -7.364,-4.518 3.952,2.281 -2.408,0.646 0.403,1.505 4.184,-1.122 -0.306,-1.141 1.141,-0.305 -1.121,-4.183 -1.504,0.403 0.662,2.472 -3.993,-2.306 z" />
      </g>
      <g
         transform="matrix(-0.28747297,-0.03917128,0.03917128,-0.28747297,104.92987,33.225093)"
         id="g516">
        <path
           id="path518"
           style="fill:#08a84d;fill-opacity:1;fill-rule:evenodd;stroke:none"
           d="M 0,0 C -0.679,-0.089 -1.303,0.39 -1.393,1.068 -1.481,1.746 -1.002,2.372 -0.324,2.461 0.354,2.55 0.978,2.071 1.068,1.393 1.158,0.713 0.678,0.089 0,0 M 8.532,1.356 4.008,0.761 5.984,-0.758 5.037,-1.994 1.6,0.644 2.32,1.581 1.383,2.299 4.02,5.736 5.255,4.788 3.698,2.757 8.268,3.359 Z" />
      </g>
      <g
         transform="matrix(-0.28747297,-0.03917128,0.03917128,-0.28747297,87.384322,19.691246)"
         id="g520">
        <path
           id="path522"
           style="fill:#08a84d;fill-opacity:1;fill-rule:evenodd;stroke:none"
           d="M 0,0 C 0.678,0.089 1.303,-0.391 1.393,-1.069 1.482,-1.747 1.002,-2.372 0.324,-2.461 -0.354,-2.551 -0.979,-2.071 -1.069,-1.393 -1.158,-0.714 -0.678,-0.09 0,0 m -8.532,-1.357 4.525,0.596 -1.979,1.518 0.949,1.236 3.436,-2.637 -0.719,-0.938 0.938,-0.718 -2.638,-3.436 -1.235,0.948 1.557,2.03 -4.57,-0.601 z" />
      </g>
      <g
         transform="matrix(-0.28747297,-0.03917128,0.03917128,-0.28747297,106.87649,29.140086)"
         id="g524">
        <path
           id="path526"
           style="fill:#08a84d;fill-opacity:1;fill-rule:evenodd;stroke:none"
           d="m 0,0 c -0.662,0.177 -1.056,0.859 -0.878,1.52 0.177,0.661 0.859,1.054 1.52,0.877 C 1.303,2.22 1.696,1.539 1.52,0.877 1.343,0.216 0.66,-0.178 0,0 M 8.401,-2.012 3.993,-0.831 5.239,-2.99 3.89,-3.769 1.725,-0.018 2.748,0.572 2.157,1.595 5.908,3.76 6.687,2.412 4.471,1.132 8.924,-0.062 Z" />
      </g>
      <g
         transform="matrix(-0.28747297,-0.03917128,0.03917128,-0.28747297,85.437552,23.776233)"
         id="g528">
        <path
           id="path530"
           style="fill:#08a84d;fill-opacity:1;fill-rule:evenodd;stroke:none"
           d="M 0,0 C 0.661,-0.177 1.055,-0.86 0.877,-1.521 0.7,-2.182 0.019,-2.575 -0.643,-2.398 c -0.66,0.177 -1.054,0.859 -0.878,1.52 C -1.343,-0.217 -0.661,0.177 0,0 m -8.402,2.012 4.408,-1.181 -1.245,2.159 1.348,0.779 2.165,-3.751 -1.023,-0.591 0.591,-1.023 -3.75,-2.165 -0.779,1.349 2.215,1.279 -4.452,1.194 z" />
      </g>
      <g
         transform="matrix(-0.28747297,-0.03917128,0.03917128,-0.28747297,85.136676,28.005145)"
         id="g532">
        <path
           id="path534"
           style="fill:#08a84d;fill-opacity:1;fill-rule:evenodd;stroke:none"
           d="m 0,0 c 0.542,-0.417 0.646,-1.198 0.229,-1.74 -0.417,-0.543 -1.198,-0.646 -1.74,-0.23 -0.543,0.417 -0.646,1.198 -0.23,1.741 C -1.324,0.314 -0.543,0.417 0,0 m -6.993,5.073 3.621,-2.777 -0.325,2.472 1.545,0.203 0.565,-4.294 -1.172,-0.155 0.154,-1.17 -4.293,-0.565 -0.204,1.543 2.537,0.335 -3.657,2.806 z" />
      </g>
      <g
         transform="matrix(-0.28747297,-0.03917128,0.03917128,-0.28747297,104.84176,25.427169)"
         id="g536">
        <path
           id="path538"
           style="fill:#08a84d;fill-opacity:1;fill-rule:evenodd;stroke:none"
           d="m 0,0 c 0.542,-0.416 0.646,-1.197 0.229,-1.74 -0.416,-0.543 -1.198,-0.645 -1.74,-0.229 -0.543,0.417 -0.646,1.197 -0.229,1.74 C -1.325,0.314 -0.542,0.417 0,0 m -6.993,5.074 3.622,-2.778 -0.326,2.473 1.545,0.202 0.565,-4.294 -1.172,-0.154 0.155,-1.171 -4.294,-0.565 -0.204,1.544 2.537,0.335 -3.656,2.805 z" />
      </g>
    </g>
  </g>
</svg>
