<?xml version="1.0" encoding="UTF-8" standalone="no"?>
<svg
   xmlns:dc="http://purl.org/dc/elements/1.1/"
   xmlns:cc="http://creativecommons.org/ns#"
   xmlns:rdf="http://www.w3.org/1999/02/22-rdf-syntax-ns#"
   xmlns:svg="http://www.w3.org/2000/svg"
   xmlns="http://www.w3.org/2000/svg"
   xmlns:sodipodi="http://sodipodi.sourceforge.net/DTD/sodipodi-0.dtd"
   xmlns:inkscape="http://www.inkscape.org/namespaces/inkscape"
   width="131.73404mm"
   height="131.7359mm"
   viewBox="0 0 131.73404 131.73591"
   version="1.1"
   id="svg1646"
   inkscape:version="1.0 (4035a4fb49, 2020-05-01)"
   sodipodi:docname="jul-sqr.svg"
   inkscape:export-filename="C:\Users\Bartek\Desktop\personal\bartlomiejnowak94\pics\jul-sqr.png"
   inkscape:export-xdpi="96"
   inkscape:export-ydpi="96">
  <defs
     id="defs1640">
    <clipPath
       clipPathUnits="userSpaceOnUse"
       id="clipPath1878">
      <path
         style="fill:none;stroke:#000000;stroke-width:0.26206px;stroke-linecap:butt;stroke-linejoin:miter;stroke-opacity:1"
         d="M -28.677941,388.28534 H 136.88302 V 225.74871 Z"
         id="path1880" />
    </clipPath>
    <clipPath
       id="clipPath1878-7"
       clipPathUnits="userSpaceOnUse">
      <path
         id="path1880-7"
         d="M -28.677941,388.28534 H 136.88302 V 225.74871 Z"
         style="fill:none;stroke:#000000;stroke-width:0.26206px;stroke-linecap:butt;stroke-linejoin:miter;stroke-opacity:1" />
    </clipPath>
    <clipPath
       id="clipPath1878-3"
       clipPathUnits="userSpaceOnUse">
      <path
         id="path1880-9"
         d="M -28.677941,388.28534 H 136.88302 V 225.74871 Z"
         style="fill:none;stroke:#000000;stroke-width:0.26206px;stroke-linecap:butt;stroke-linejoin:miter;stroke-opacity:1" />
    </clipPath>
    <clipPath
       clipPathUnits="userSpaceOnUse"
       id="clipPath1878-7-1">
      <path
         style="fill:none;stroke:#000000;stroke-width:0.26206px;stroke-linecap:butt;stroke-linejoin:miter;stroke-opacity:1"
         d="M -28.677941,388.28534 H 136.88302 V 225.74871 Z"
         id="path1880-7-1" />
    </clipPath>
  </defs>
  <sodipodi:namedview
     lock-margins="true"
     id="base"
     pagecolor="#ffffff"
     bordercolor="#666666"
     borderopacity="1.0"
     inkscape:pageopacity="0.0"
     inkscape:pageshadow="2"
     inkscape:zoom="0.35"
     inkscape:cx="-159.88197"
     inkscape:cy="143.2374"
     inkscape:document-units="mm"
     inkscape:current-layer="layer1"
     inkscape:document-rotation="0"
     showgrid="false"
     fit-margin-top="6"
     fit-margin-left="6"
     fit-margin-right="6"
     fit-margin-bottom="6"
     inkscape:window-width="1920"
     inkscape:window-height="1017"
     inkscape:window-x="-8"
     inkscape:window-y="-8"
     inkscape:window-maximized="1"
     inkscape:snap-global="false" />
  <metadata
     id="metadata1643">
    <rdf:RDF>
      <cc:Work
         rdf:about="">
        <dc:format>image/svg+xml</dc:format>
        <dc:type
           rdf:resource="http://purl.org/dc/dcmitype/StillImage" />
        <dc:title></dc:title>
      </cc:Work>
    </rdf:RDF>
  </metadata>
  <g
     inkscape:label="Warstwa 1"
     inkscape:groupmode="layer"
     id="layer1"
     transform="translate(-39.132982,-82.632044)">
    <g
       transform="translate(53.247291,-162.38205)"
       id="g1905"
       style="fill:#333333;fill-opacity:1">
      <rect
         style="fill:#333333;fill-opacity:1;stroke:none;stroke-width:0.838062;stroke-linejoin:round;stroke-opacity:1"
         id="rect860-4-8"
         width="119.16193"
         height="119.16193"
         x="-8.1143093"
         y="251.58807"
         ry="16.570711"
         clip-path="url(#clipPath1878-3)" />
      <rect
         clip-path="url(#clipPath1878-7-1)"
         ry="16.570711"
         y="251.58807"
         x="-8.1143093"
         height="119.16193"
         width="119.16193"
         id="rect860-4-8-8"
         style="fill:#333333;fill-opacity:1;stroke:none;stroke-width:0.838062;stroke-linejoin:round;stroke-opacity:1"
         transform="rotate(179.67959,51.633248,311.00244)" />
    </g>
    <path
       style="fill:#ffffff;stroke-width:0.172734"
       d="m 60.444438,180.30301 c -1.606901,-0.59916 -2.107724,-0.88127 -2.748513,-1.5482 -0.950678,-0.98947 -1.123083,-2.06101 -0.517111,-3.21399 0.708163,-1.34742 1.775897,-1.89753 3.68307,-1.89753 0.940436,0 1.389951,0.0675 1.439447,0.21593 0.03961,0.11875 0.172838,0.21592 0.296107,0.21592 0.123275,0 0.835807,0.66225 1.583397,1.47166 0.92049,0.9966 1.465185,1.45661 1.687401,1.42505 0.57714,-0.0819 1.026915,-0.9168 1.165524,-2.16336 0.07127,-0.64085 0.133561,-8.05424 0.138443,-16.47419 0.0098,-16.87195 -0.07892,-15.62015 1.120423,-15.81478 0.343295,-0.0557 0.665741,-0.16854 0.716543,-0.25073 0.05081,-0.0822 0.26267,-0.14907 0.470821,-0.1486 0.208157,5.1e-4 0.728245,-0.11062 1.155766,-0.24686 0.427514,-0.13622 1.243684,-0.37706 1.813708,-0.53519 0.570023,-0.15812 1.41135,-0.40669 1.869621,-0.55238 0.646476,-0.20552 0.928765,-0.22135 1.259553,-0.0707 l 0.426326,0.19425 -0.06753,14.81236 c -0.06557,14.38175 -0.184423,17.79633 -0.635138,18.24705 -0.09651,0.0965 -0.175458,0.36167 -0.175458,0.58927 0,0.2276 -0.110495,0.62015 -0.245553,0.87231 -0.135052,0.25217 -0.293564,0.57508 -0.352243,0.71759 -0.454713,1.10428 -2.396499,3.10921 -3.01129,3.10921 -0.105087,0 -0.191063,0.0725 -0.191063,0.16109 0,0.0886 -0.174894,0.21009 -0.388651,0.26996 -0.213757,0.0599 -0.544112,0.17308 -0.734118,0.25157 -1.328059,0.54857 -2.601245,0.69853 -5.740803,0.67616 -2.56729,-0.0183 -3.403023,-0.0833 -4.01868,-0.31293 z M 86.96438,169.56407 c -0.66214,-0.0878 -1.280093,-0.23574 -1.373236,-0.32887 -0.09314,-0.0931 -0.338616,-0.16935 -0.545492,-0.16935 -0.206875,0 -0.472901,-0.1166 -0.591169,-0.2591 -0.118269,-0.14251 -0.351464,-0.25911 -0.518201,-0.25911 -0.166743,0 -0.399938,-0.11659 -0.518207,-0.25909 -0.118268,-0.14251 -0.283247,-0.25911 -0.366613,-0.25911 -0.08338,0 -0.29828,-0.14669 -0.477567,-0.32597 -0.179287,-0.17929 -0.433041,-0.39305 -0.563897,-0.47502 -0.488031,-0.30572 -1.713832,-1.86594 -2.070147,-2.6349 -0.573866,-1.23848 -0.624396,-1.40569 -0.824786,-2.72944 -0.250993,-1.65805 -0.259285,-19.80716 -0.0093,-20.27434 0.168971,-0.31574 0.401442,-0.33411 4.225901,-0.33411 3.824465,0 4.056937,0.0184 4.225914,0.33411 0.117296,0.21918 0.17881,3.74357 0.17881,10.24524 0,9.40009 0.01702,9.94618 0.329668,10.59132 0.320224,0.66069 1.073476,1.45749 1.377834,1.45749 0.08264,0 0.247032,0.1166 0.365307,0.25911 0.31416,0.37853 2.288342,0.35006 2.993027,-0.0432 0.297933,-0.16626 0.645832,-0.39945 0.773111,-0.51821 0.127279,-0.11875 0.293373,-0.21592 0.369089,-0.21592 0.07571,0 0.497679,-0.36001 0.937701,-0.80003 l 0.800031,-0.80003 v -9.98172 c 0,-5.48995 0.04716,-10.10468 0.104846,-10.25496 0.09154,-0.23854 0.626289,-0.27322 4.213506,-0.27322 3.58721,0 4.12196,0.0346 4.2135,0.27322 0.0576,0.15028 0.10485,6.35316 0.10485,13.78419 0,10.2782 -0.0496,13.56055 -0.20729,13.71824 -0.30621,0.30622 -7.970256,0.2933 -8.225185,-0.0139 -0.100947,-0.12163 -0.20763,-0.63302 -0.237069,-1.13643 l -0.05353,-0.91529 -0.690934,0.49891 c -0.380018,0.27438 -0.807532,0.55312 -0.950041,0.61939 -0.142502,0.0663 -0.570023,0.31094 -0.950034,0.54368 -0.380018,0.23274 -0.815027,0.42655 -0.966682,0.43067 -0.151661,0.005 -0.501448,0.11623 -0.777307,0.24915 -0.673817,0.32466 -2.816797,0.45263 -4.296457,0.25657 z m 48.96487,0.004 c -0.61753,-0.0797 -1.27824,-0.21476 -1.46825,-0.30009 -1.54511,-0.69388 -2.03886,-0.982 -2.73886,-1.59817 -1.04387,-0.91884 -1.91478,-2.52039 -2.1882,-4.02393 -0.42108,-2.31555 0.3143,-4.54935 2.1208,-6.44214 0.91409,-0.95777 3.03487,-2.47479 3.45972,-2.47479 0.13985,0 0.35104,-0.1166 0.46931,-0.2591 0.11828,-0.14251 0.29516,-0.25909 0.39308,-0.25909 0.0979,0 0.67159,-0.2332 1.27482,-0.51822 0.60322,-0.28501 1.20858,-0.5182 1.34522,-0.5182 0.13665,0 0.29648,-0.0777 0.35521,-0.17273 0.0588,-0.095 0.22644,-0.17274 0.37273,-0.17274 0.1463,0 0.51092,-0.1038 0.81029,-0.23067 0.87044,-0.3689 1.71974,-0.6614 2.18529,-0.75262 0.2375,-0.0466 0.67678,-0.19412 0.97615,-0.32796 0.29937,-0.13384 0.71563,-0.24335 0.92503,-0.24335 0.3764,0 0.37964,-0.0232 0.28393,-2.02963 -0.1238,-2.59478 -0.24754,-3.2884 -0.69455,-3.89302 -0.73485,-0.99394 -1.5021,-1.24513 -3.61512,-1.18359 -0.68745,0.02 -0.92526,0.12002 -1.39241,0.58553 -0.62056,0.61838 -1.14685,2.19033 -1.14685,3.42541 0,0.91813 -0.8453,2.40437 -1.36748,2.40437 -0.0871,0 -0.18535,0.081 -0.21837,0.18009 -0.0842,0.25258 -2.12688,0.51478 -3.07004,0.39407 -1.82896,-0.23409 -3.29336,-1.90337 -3.2877,-3.74766 0.003,-0.86464 0.76109,-2.437 1.57905,-3.27361 0.50822,-0.51983 2.74714,-2.01687 3.01634,-2.01687 0.0552,0 0.34535,-0.10464 0.64471,-0.23254 0.98065,-0.41898 1.91166,-0.69523 2.78986,-0.82785 0.47501,-0.0717 1.25232,-0.20764 1.72734,-0.30203 1.07187,-0.21296 3.64347,-0.21549 4.9661,-0.005 2.32759,0.37064 2.83866,0.47282 3.41151,0.68203 0.95421,0.34852 1.80849,0.75993 1.87127,0.90118 0.0317,0.0712 0.15271,0.12956 0.26899,0.12956 0.53887,0 2.69628,2.39157 2.69628,2.98893 0,0.13196 0.11717,0.4748 0.26037,0.76186 0.22539,0.4518 0.25439,2.02759 0.21591,11.72927 l -0.0444,11.20736 -4.03766,0.0464 c -2.83331,0.0325 -4.10849,-0.0124 -4.27516,-0.1507 -0.13064,-0.10841 -0.23752,-0.49852 -0.23752,-0.8669 0,-0.79786 -0.17261,-0.83002 -1.01154,-0.18844 -0.3462,0.26474 -0.94036,0.62597 -1.32037,0.80272 -0.38002,0.17675 -0.82626,0.38787 -0.99165,0.46917 -0.85419,0.41983 -3.32079,0.56075 -5.31314,0.30355 z m 5.42108,-5.02308 c 0.39104,-0.11139 0.83369,-0.30572 0.98368,-0.43184 0.14998,-0.12611 0.33007,-0.2293 0.40017,-0.2293 0.17062,0 1.34447,-0.86383 1.61585,-1.1891 0.15716,-0.18835 0.21592,-1.21358 0.21592,-3.76683 0,-4.04709 0.0845,-3.89589 -1.65814,-2.96596 -1.74179,0.92948 -3.41455,2.2803 -4.09707,3.30856 -0.55243,0.83228 -0.63595,1.09177 -0.63595,1.97597 0,1.42185 0.66085,2.74981 1.64098,3.29749 0.4437,0.24793 0.66725,0.24808 1.53456,9.3e-4 z m -33.91614,4.35951 c -0.12013,-0.22447 -0.17881,-6.53224 -0.17881,-19.22141 0,-20.83237 -0.0723,-19.51104 1.07981,-19.73861 0.30864,-0.061 0.75549,-0.17275 0.993,-0.24843 0.43361,-0.13815 1.56696,-0.46108 3.41268,-0.97238 0.54563,-0.15116 1.36195,-0.39395 1.81405,-0.53956 0.45211,-0.1456 0.93792,-0.22025 1.07959,-0.16589 0.22626,0.0868 0.25758,2.5732 0.25758,20.45233 0,15.60019 -0.0484,20.40191 -0.20728,20.56078 -0.14908,0.14908 -1.31143,0.20728 -4.13954,0.20728 -3.71093,0 -3.94233,-0.0188 -4.11108,-0.33411 z m 11.7744,0.12683 c -0.30781,-0.30781 -0.29936,-25.9341 0.008,-26.17459 0.11875,-0.0927 0.52683,-0.25077 0.90685,-0.35122 0.38002,-0.10044 1.11845,-0.31084 1.64098,-0.46755 0.52251,-0.15671 1.26095,-0.34364 1.64097,-0.4154 0.38001,-0.0718 0.86071,-0.22253 1.06823,-0.33504 0.20751,-0.11252 0.56479,-0.20457 0.79395,-0.20457 0.22916,0 0.66543,-0.12411 0.9695,-0.2758 0.32177,-0.16052 0.72994,-0.23133 0.97657,-0.16944 l 0.42374,0.10635 v 14.03999 c 0,10.68968 -0.0494,14.08946 -0.20729,14.24727 -0.29405,0.29405 -7.92809,0.29405 -8.22214,0 z m -48.75211,-29.3083 c -1.596195,-0.33528 -3.367115,-1.67762 -4.035096,-3.05856 -0.180155,-0.37243 -0.393843,-0.81212 -0.47487,-0.97709 -0.245194,-0.49922 -0.162894,-2.92268 0.127669,-3.75931 0.549596,-1.58249 1.880836,-2.90684 3.530938,-3.51265 1.026977,-0.37704 2.900912,-0.37017 4.030295,0.0148 1.23392,0.42058 3.014099,2.20076 3.434683,3.43468 0.374027,1.09733 0.389325,2.99438 0.03243,4.01933 -0.530484,1.52339 -1.831352,2.87301 -3.401499,3.52897 -0.788409,0.32938 -2.412961,0.48452 -3.244528,0.30985 z m 51.61247,-0.19004 c -0.45038,-0.18868 -1.13645,-0.55321 -1.52459,-0.81008 -0.77262,-0.51129 -2.06126,-2.17872 -2.06126,-2.66715 0,-0.16893 -0.0777,-0.35519 -0.17273,-0.41391 -0.095,-0.0588 -0.17274,-0.74084 -0.17274,-1.51584 0,-1.58007 0.2899,-2.56082 1.09594,-3.70764 0.53646,-0.76329 2.08065,-1.94498 2.54161,-1.94498 0.14643,0 0.35563,-0.0894 0.46489,-0.19865 0.11782,-0.11783 0.78194,-0.19857 1.63233,-0.19846 1.20488,1.7e-4 1.59367,0.076 2.43601,0.4746 2.33316,1.1043 3.67638,3.24535 3.5454,5.65125 -0.11064,2.03267 -1.36975,4.05639 -3.0308,4.87132 -0.35929,0.17627 -0.8087,0.40308 -0.99871,0.50403 -0.19001,0.10095 -0.92845,0.20942 -1.64097,0.24105 -0.9989,0.0444 -1.48299,-0.0211 -2.11438,-0.28554 z m 13.45557,-0.11193 c -1.52509,-0.55087 -2.92957,-1.98198 -3.47102,-3.53684 -0.34761,-0.99824 -0.34136,-2.89536 0.0131,-3.97908 0.40593,-1.24106 1.76459,-2.67101 3.12473,-3.28868 0.88771,-0.40313 1.31052,-0.48816 2.41828,-0.48635 1.15041,0.002 1.49078,0.0773 2.37889,0.52711 1.63847,0.82984 2.34488,1.62434 3.06175,3.44358 1.02541,2.60231 -0.40443,5.88048 -3.10114,7.10986 -0.90819,0.41404 -1.28495,0.4873 -2.41828,0.47031 -0.73836,-0.0111 -1.6412,-0.12803 -2.0063,-0.25991 z m -7.29246,-11.80702 c -1.2453,-0.594 -2.26269,-1.64096 -2.89644,-2.98058 -0.65127,-1.37668 -0.65838,-3.33482 -0.017,-4.68938 0.61698,-1.30309 1.69534,-2.409 2.95746,-3.03307 0.9279,-0.4588 1.25591,-0.52901 2.47116,-0.52901 1.20299,0 1.54591,0.0718 2.42369,0.50729 1.39299,0.69113 2.27456,1.55367 2.9126,2.8497 0.46034,0.93507 0.53666,1.28036 0.53666,2.42761 0,1.28004 -0.42193,3.02484 -0.73147,3.02484 -0.0727,0 -0.13219,0.10009 -0.13219,0.22241 0,0.28055 -1.5804,1.8504 -1.86283,1.8504 -0.11549,0 -0.20999,0.0715 -0.20999,0.15901 0,0.0875 -0.23229,0.21003 -0.51621,0.27239 -0.28393,0.0624 -0.56057,0.18513 -0.61477,0.27282 -0.0542,0.0877 -0.81296,0.15619 -1.68614,0.1522 -1.38545,-0.006 -1.72089,-0.0709 -2.63451,-0.50663 z"
       id="path2017" />
  </g>
</svg>
