<?xml version="1.0" encoding="UTF-8" standalone="no"?>
<svg
   xmlns:dc="http://purl.org/dc/elements/1.1/"
   xmlns:cc="http://creativecommons.org/ns#"
   xmlns:rdf="http://www.w3.org/1999/02/22-rdf-syntax-ns#"
   xmlns:svg="http://www.w3.org/2000/svg"
   xmlns="http://www.w3.org/2000/svg"
   xmlns:sodipodi="http://sodipodi.sourceforge.net/DTD/sodipodi-0.dtd"
   xmlns:inkscape="http://www.inkscape.org/namespaces/inkscape"
   sodipodi:docname="kaggle-sqr.svg"
   inkscape:version="1.0 (4035a4fb49, 2020-05-01)"
   id="svg1646"
   version="1.1"
   viewBox="0 0 131.16193 131.16193"
   height="131.16193mm"
   width="131.16193mm"
   inkscape:export-filename="C:\Users\Bartek\Desktop\personal\bartlomiejnowak94\pics\html-sqr.png"
   inkscape:export-xdpi="96"
   inkscape:export-ydpi="96">
  <defs
     id="defs1640">
    <clipPath
       id="clipPath34"
       clipPathUnits="userSpaceOnUse">
      <rect
         y="-17.574305"
         x="-102.76836"
         height="59.333828"
         width="77.508163"
         id="rect36"
         style="fill:#ffffff;stroke:#ffffff;stroke-width:1.6;stroke-linejoin:round" />
    </clipPath>
    <clipPath
       id="clipPath56"
       clipPathUnits="userSpaceOnUse">
      <rect
         y="-60.337433"
         x="25.521023"
         height="86.595329"
         width="54.522984"
         id="rect58"
         style="fill:#ffffff;stroke:#ffffff;stroke-width:1.6;stroke-linejoin:round" />
    </clipPath>
  </defs>
  <sodipodi:namedview
     inkscape:snap-global="false"
     inkscape:window-maximized="1"
     inkscape:window-y="-8"
     inkscape:window-x="1912"
     inkscape:window-height="1017"
     inkscape:window-width="1920"
     fit-margin-bottom="6"
     fit-margin-right="6"
     fit-margin-left="6"
     fit-margin-top="6"
     showgrid="false"
     inkscape:document-rotation="0"
     inkscape:current-layer="layer1"
     inkscape:document-units="mm"
     inkscape:cy="154.76551"
     inkscape:cx="450.558"
     inkscape:zoom="0.49497474"
     inkscape:pageshadow="2"
     inkscape:pageopacity="0.0"
     borderopacity="1.0"
     bordercolor="#666666"
     pagecolor="#ffffff"
     id="base"
     lock-margins="true" />
  <metadata
     id="metadata1643">
    <rdf:RDF>
      <cc:Work
         rdf:about="">
        <dc:format>image/svg+xml</dc:format>
        <dc:type
           rdf:resource="http://purl.org/dc/dcmitype/StillImage" />
        <dc:title></dc:title>
      </cc:Work>
    </rdf:RDF>
  </metadata>
  <g
     transform="translate(-39.419037,-82.919037)"
     id="layer1"
     inkscape:groupmode="layer"
     inkscape:label="Warstwa 1">
    <rect
       ry="16.570711"
       y="88.919037"
       x="45.419037"
       height="119.16193"
       width="119.16193"
       id="rect860"
       style="fill:#37bae8;fill-opacity:1;stroke:none;stroke-width:0.838062;stroke-linejoin:round;stroke-opacity:1" />
    <path
       transform="translate(46.008486,164.33101)"
       clip-path="url(#clipPath56)"
       id="path52"
       d="m 140.35986,36.273845 c -2.82197,-0.418081 -6.21254,-1.691393 -8.6083,-3.232806 -2.29007,-1.473416 -5.57512,-4.400999 -5.57512,-4.968452 0,-0.229105 1.25014,-1.659361 2.77808,-3.178345 3.07364,-3.055613 3.12936,-3.065798 5.1511,-0.941705 5.92658,6.226623 16.83148,5.230947 19.96506,-1.822912 0.69143,-1.556452 0.85128,-2.601881 0.96522,-6.312623 l 0.13657,-4.447248 -2.76815,1.355323 c -4.14747,2.030653 -8.82997,2.568568 -13.58541,1.560664 -6.76776,-1.434408 -11.8044,-6.283607 -14.3096,-13.77704799 -0.86644,-2.59166501 -0.94496,-3.29774901 -0.96111,-8.64305571 -0.0156,-5.1460093 0.0782,-6.1275743 0.80856,-8.4666673 2.4084,-7.713076 6.99577,-12.570997 13.50755,-14.304166 2.51414,-0.669163 8.08813,-0.651865 10.7276,0.03329 1.71306,0.444678 3.68464,1.250478 6.24773,2.553495 0.14552,0.07398 0.26458,-0.243846 0.26458,-0.706279 0,-1.469957 0.59463,-1.687453 4.61347,-1.687453 2.80535,0 3.87184,0.126558 4.17831,0.495834 0.30724,0.370206 0.38389,6.827997 0.30251,25.488193 l -0.10899,24.992363 -0.82295,2.469444 c -1.29878,3.897267 -2.78626,6.366525 -5.18948,8.614608 -2.41145,2.255796 -4.81574,3.556082 -8.08815,4.374216 -2.86655,0.716668 -6.93912,0.94985 -9.62908,0.551328 z M 148.59829,5.09013 c 2.20225,-0.623052 4.43678,-2.090329 5.61458,-3.686751 l 0.89135,-1.20815099 V -8.2204197 c 0,-9.1084903 -0.0571,-9.4308403 -1.99698,-11.2710823 -0.5509,-0.522607 -1.95413,-1.395732 -3.1183,-1.940278 -1.89772,-0.887672 -2.49981,-0.990084 -5.82083,-0.990084 -3.34356,0 -3.88,0.09276 -5.5103,0.952796 -0.99337,0.524037 -2.24906,1.476537 -2.79042,2.116667 -3.99717,4.726475 -4.41597,15.369079 -0.81628,20.743458 2.72538,4.069034 7.56685,5.390998 13.54718,3.699073 z m 39.50732,31.197008 c -2.69256,-0.406157 -4.10388,-0.861417 -6.7168,-2.166677 -3.07449,-1.535839 -7.58737,-5.16733 -7.58737,-6.105518 0,-0.435067 5.39757,-5.810416 5.83443,-5.810416 0.14906,0 1.11504,0.798244 2.14662,1.773876 3.50572,3.315564 7.73376,4.667268 12.11426,3.872929 3.96345,-0.718711 6.306,-2.460054 7.83366,-5.823194 0.66641,-1.46709 0.82393,-2.525314 0.93615,-6.289037 l 0.13492,-4.525151 -1.41948,0.896073 c -5.02835,3.174263 -13.44228,3.483727 -19.3458,0.711546 -3.02455,-1.420266 -6.72987,-5.248381 -8.33257,-8.60871 -2.08801,-4.37782399 -2.52487,-6.534213 -2.53716,-12.5236107 -0.0126,-6.1429303 0.42489,-8.2404983 2.67706,-12.8350173 2.45653,-5.011421 6.48232,-8.385125 11.64578,-9.759427 2.27039,-0.604286 7.66119,-0.665787 10.25518,-0.116998 1.45437,0.307689 5.11502,1.782503 6.64589,2.677515 0.10467,0.0612 0.3428,-0.406756 0.52916,-1.039901 l 0.33885,-1.151173 3.52777,-0.103133 c 1.94028,-0.05672 3.88497,-0.01401 4.32153,0.09492 l 0.79375,0.198049 -0.006,24.246751 c -0.007,25.803437 -0.0461,26.501387 -1.76355,31.127362 -1.2921,3.480195 -4.87343,7.52057 -8.14596,9.190091 -3.36625,1.717336 -9.8268,2.680282 -13.8802,2.068855 z m 8.74218,-31.380266 c 2.32538,-0.883574 4.31927,-2.306616 5.17741,-3.695114 0.65334,-1.05711299 0.70402,-1.76114099 0.70402,-9.7790637 v -8.6399453 l -1.39057,-1.579773 c -0.87878,-0.99834 -2.20963,-1.957957 -3.61598,-2.607307 -2.01053,-0.928323 -2.58304,-1.027533 -5.92956,-1.027533 -3.34356,0 -3.88,0.09276 -5.5103,0.952796 -0.99337,0.524037 -2.24906,1.476537 -2.79042,2.116667 -4.43863,5.248477 -4.27792,17.322 0.29412,22.096869 1.27512,1.331679 3.13427,2.378731 5.0907,2.867011 1.81648,0.453355 5.86496,0.09546 7.97058,-0.704607 z M 94.779223,14.57558 c -3.79537,-0.734762 -6.93212,-2.457852 -9.33053,-5.125459 -2.08192,-2.315595 -3.09452,-5.024057 -3.14506,-8.412262 -0.0546,-3.661752 0.76594,-5.85531 3.15599,-8.4368497 3.49673,-3.7768923 8.52864,-5.6897663 18.281037,-6.9495183 l 4.87348,-0.629521 -0.20809,-1.518186 c -0.28285,-2.063652 -1.39077,-4.121683 -2.77566,-5.155993 -1.84447,-1.377545 -3.57104,-1.765063 -6.930407,-1.55548 -2.75749,0.172034 -3.32905,0.345668 -6.55758,1.992113 -1.94524,0.992009 -3.72202,1.801103 -3.9484,1.797988 -0.44207,-0.0061 -4.35089,-5.386881 -4.35089,-5.989345 0,-1.182195 6.58765,-4.643235 10.49052,-5.511541 3.63377,-0.808438 9.971447,-0.539923 13.066967,0.553622 4.55731,1.609942 7.77182,4.911367 9.3661,9.61934 0.7063,2.085748 0.75282,3.027891 0.86553,17.531408 0.0655,8.429964 0.0261,15.697627 -0.0875,16.150368 -0.20411,0.813234 -0.2586,0.821969 -4.5187,0.724182 l -4.3121,-0.09897 -0.11293,-0.983626 -0.11293,-0.983625 -1.12179,0.684561 c -2.66953,1.629044 -9.550577,2.88465 -12.587067,2.296799 z m 10.825797,-9.845136 2.75614,-1.399529 0.098,-5.050173 0.098,-5.050173 -1.68551,0.225531 c -7.724717,1.0336 -11.351107,1.993664 -13.382187,3.542842 -3.30436,2.52035701 -2.85623,6.602317 0.93979,8.560551 1.40273,0.723618 1.97698,0.803286 5.00212,0.693974 3.164137,-0.114338 3.621767,-0.227234 6.173607,-1.523023 z m 148.05223,9.704621 C 242.81049,12.476947 235.22157,3.775221 234.57794,-7.4419307 c -0.40562,-7.0693853 1.83379,-13.2153993 6.54643,-17.9664793 4.25509,-4.289804 8.54306,-6.009287 14.98568,-6.009287 7.49158,0 13.37706,2.966999 17.31344,8.728084 2.11193,3.090922 3.30701,6.575088 3.80994,11.107545 0.4828,4.3511373 0.24451,6.103726 -0.87054,6.402628 -0.43178,0.115743 -7.81277,0.212612 -16.4022,0.215261 l -15.61713,0.0048 0.21642,0.970139 c 0.11903,0.533576 0.62116,1.826436 1.11585,2.873022 1.98028,4.189568 6.04581,6.705784 11.31984,7.006001 3.78757,0.215604 6.25626,-0.275883 9.35237,-1.861943 1.3164,-0.67436 2.59511,-1.226108 2.84159,-1.226108 0.64259,0 5.50626,5.106364 5.50626,5.781023 0,1.242702 -5.41098,4.276418 -9.50884,5.331213 -2.70708,0.69681 -8.98476,0.980525 -11.5298,0.521081 z m 13.98308,-28.503807 c 0,-2.789439 -2.99906,-6.813113 -6.27852,-8.423549 -1.72432,-0.846755 -2.44019,-0.987906 -5.01037,-0.987906 -2.56032,0 -3.28863,0.142425 -4.98282,0.974431 -3.14318,1.543591 -5.74926,4.709271 -6.82127,8.285986 l -0.2379,0.79375 h 11.66544 c 11.05005,0 11.66544,-0.03391 11.66544,-0.642712 z M 42.450513,13.502673 c -0.12935,-0.129349 -0.23518,-15.099475 -0.23518,-33.266944 0,-25.220998 0.1001,-33.131863 0.42333,-33.455094 0.53098,-0.530976 7.09463,-0.578287 8.06653,-0.05814 0.66236,0.354484 0.68236,0.953659 0.68236,20.438509 v 20.073317 l 8.8762,-8.973232 8.8762,-8.97323 h 5.01533 c 7.61458,0 7.81578,-0.617445 -3.33832,10.244413 l -9.32194,9.077695 7.19579,8.947972 c 3.95769,4.921388 8.27164,10.268219 9.58655,11.881846 3.53796,4.341703 3.54106,4.337318 -2.978,4.21907 l -5.36875,-0.09738 -7.24306,-9.246056 c -3.98368,-5.08532999 -7.40777,-9.252518 -7.60909,-9.260417 -0.20133,-0.0079 -1.11414,0.745155 -2.02848,1.673451 l -1.66243,1.687813 v 7.102778 c 0,3.906531 -0.0964,7.35389 -0.21413,7.660799 -0.17842,0.464944 -0.90415,0.558021 -4.35093,0.558021 -2.27523,0 -4.24263,-0.105834 -4.37198,-0.235187 z m 177.457527,0.0103 c -0.13502,-0.135016 -0.24549,-15.135942 -0.24549,-33.33539 0,-32.353965 0.0152,-33.098026 0.68237,-33.455093 0.98454,-0.526912 7.15732,-0.46767 7.89629,0.07578 0.55806,0.41041 0.59329,2.739256 0.50839,33.602085 l -0.0912,33.161112 -4.25242,0.0985 c -2.33884,0.05417 -4.3629,-0.01196 -4.49792,-0.146992 z"
       style="fill:#ffffff;fill-opacity:1;stroke-width:0.352778" />
  </g>
</svg>
