<?xml version="1.0" encoding="UTF-8" standalone="no"?>
<svg
   xmlns:dc="http://purl.org/dc/elements/1.1/"
   xmlns:cc="http://creativecommons.org/ns#"
   xmlns:rdf="http://www.w3.org/1999/02/22-rdf-syntax-ns#"
   xmlns:svg="http://www.w3.org/2000/svg"
   xmlns="http://www.w3.org/2000/svg"
   xmlns:sodipodi="http://sodipodi.sourceforge.net/DTD/sodipodi-0.dtd"
   xmlns:inkscape="http://www.inkscape.org/namespaces/inkscape"
   inkscape:version="1.0 (4035a4fb49, 2020-05-01)"
   sodipodi:docname="KFT logo.svg"
   xml:space="preserve"
   enable-background="new 0 0 267 60"
   viewBox="0 0 231.74706 54.053177"
   height="54.053177"
   width="231.74706"
   y="0px"
   x="0px"
   id="Warstwa_1"
   version="1.1"><metadata
   id="metadata27"><rdf:RDF><cc:Work
       rdf:about=""><dc:format>image/svg+xml</dc:format><dc:type
         rdf:resource="http://purl.org/dc/dcmitype/StillImage" /><dc:title /></cc:Work></rdf:RDF></metadata><defs
   id="defs25"><g
   id="g8207">
      <symbol
   id="symbol3087"
   overflow="visible">
        <path
   id="path2044"
   d=""
   style="stroke:none" />
      </symbol>
      <symbol
   id="symbol1267"
   overflow="visible">
        <path
   id="path4797"
   d="m 5.796875,-6.78125 h -5.46875 v 0.3125 H 0.5625 c 0.765625,0 0.796875,0.109375 0.796875,0.46875 v 5.21875 c 0,0.359375 -0.03125,0.46875 -0.796875,0.46875 H 0.328125 V 0 c 0.34375,-0.03125 1.125,-0.03125 1.515625,-0.03125 0.40625,0 1.3125,0 1.671875,0.03125 V -0.3125 H 3.1875 C 2.25,-0.3125 2.25,-0.4375 2.25,-0.78125 v -2.453125 h 0.84375 c 0.96875,0 1.0625,0.3125 1.0625,1.15625 h 0.25 V -4.71875 h -0.25 c 0,0.84375 -0.09375,1.171875 -1.0625,1.171875 H 2.25 v -2.53125 c 0,-0.328125 0.015625,-0.390625 0.484375,-0.390625 h 1.1875 c 1.5,0 1.75,0.5625 1.90625,1.9375 h 0.25 z m 0,0"
   style="stroke:none" />
      </symbol>
      <symbol
   id="symbol8076"
   overflow="visible">
        <path
   id="path6447"
   d="m 3.3125,-0.75 c 0.046875,0.390625 0.3125,0.8125 0.78125,0.8125 0.21875,0 0.828125,-0.140625 0.828125,-0.953125 v -0.5625 h -0.25 v 0.5625 c 0,0.578125 -0.25,0.640625 -0.359375,0.640625 -0.328125,0 -0.375,-0.453125 -0.375,-0.5 v -1.984375 c 0,-0.421875 0,-0.8125 -0.359375,-1.1875 C 3.1875,-4.3125 2.6875,-4.46875 2.21875,-4.46875 c -0.828125,0 -1.515625,0.46875 -1.515625,1.125 0,0.296875 0.203125,0.46875 0.46875,0.46875 0.28125,0 0.453125,-0.203125 0.453125,-0.453125 0,-0.125 -0.046875,-0.453125 -0.515625,-0.453125 C 1.390625,-4.140625 1.875,-4.25 2.1875,-4.25 c 0.5,0 1.0625,0.390625 1.0625,1.28125 v 0.359375 c -0.515625,0.03125 -1.203125,0.0625 -1.828125,0.359375 -0.75,0.34375 -1,0.859375 -1,1.296875 0,0.8125 0.96875,1.0625 1.59375,1.0625 0.65625,0 1.109375,-0.40625 1.296875,-0.859375 z M 3.25,-2.390625 v 1 c 0,0.9375 -0.71875,1.28125 -1.171875,1.28125 -0.484375,0 -0.890625,-0.34375 -0.890625,-0.84375 0,-0.546875 0.421875,-1.375 2.0625,-1.4375 z m 0,0"
   style="stroke:none" />
      </symbol>
      <symbol
   id="symbol742"
   overflow="visible">
        <path
   id="path4077"
   d="m 1.171875,-2.171875 c 0,-1.625 0.8125,-2.046875 1.34375,-2.046875 0.09375,0 0.71875,0.015625 1.0625,0.375 -0.40625,0.03125 -0.46875,0.328125 -0.46875,0.453125 0,0.265625 0.1875,0.453125 0.453125,0.453125 0.265625,0 0.46875,-0.15625 0.46875,-0.46875 0,-0.671875 -0.765625,-1.0625 -1.53125,-1.0625 -1.25,0 -2.15625,1.078125 -2.15625,2.3125 0,1.28125 0.984375,2.265625 2.140625,2.265625 1.328125,0 1.65625,-1.203125 1.65625,-1.296875 0,-0.09375 -0.109375,-0.09375 -0.140625,-0.09375 -0.078125,0 -0.109375,0.03125 -0.125,0.09375 -0.28125,0.921875 -0.9375,1.046875 -1.296875,1.046875 -0.53125,0 -1.40625,-0.421875 -1.40625,-2.03125 z m 0,0"
   style="stroke:none" />
      </symbol>
      <symbol
   id="symbol4625"
   overflow="visible">
        <path
   id="path2045"
   d="M 3.890625,-0.78125 V 0.109375 L 5.328125,0 V -0.3125 C 4.640625,-0.3125 4.5625,-0.375 4.5625,-0.875 v -3.53125 l -1.46875,0.109375 v 0.3125 c 0.6875,0 0.78125,0.0625 0.78125,0.5625 v 1.765625 c 0,0.875 -0.484375,1.546875 -1.21875,1.546875 -0.828125,0 -0.875,-0.46875 -0.875,-0.984375 v -3.3125 L 0.3125,-4.296875 v 0.3125 c 0.78125,0 0.78125,0.03125 0.78125,0.90625 v 1.5 c 0,0.78125 0,1.6875 1.515625,1.6875 0.5625,0 1,-0.28125 1.28125,-0.890625 z m 0,0"
   style="stroke:none" />
      </symbol>
      <symbol
   id="symbol6693"
   overflow="visible">
        <path
   id="path8050"
   d="M 1.765625,-6.921875 0.328125,-6.8125 V -6.5 c 0.703125,0 0.78125,0.0625 0.78125,0.5625 V -0.75 c 0,0.4375 -0.109375,0.4375 -0.78125,0.4375 V 0 C 0.65625,-0.015625 1.1875,-0.03125 1.4375,-0.03125 c 0.25,0 0.734375,0.015625 1.109375,0.03125 v -0.3125 c -0.671875,0 -0.78125,0 -0.78125,-0.4375 z m 0,0"
   style="stroke:none" />
      </symbol>
      <symbol
   id="symbol8162"
   overflow="visible">
        <path
   id="path8548"
   d="m 1.71875,-3.984375 h 1.4375 v -0.3125 H 1.71875 V -6.125 h -0.25 c 0,0.8125 -0.296875,1.875 -1.28125,1.921875 v 0.21875 h 0.84375 v 2.75 c 0,1.21875 0.9375,1.34375 1.296875,1.34375 0.703125,0 0.984375,-0.703125 0.984375,-1.34375 v -0.5625 h -0.25 V -1.25 c 0,0.734375 -0.296875,1.109375 -0.671875,1.109375 -0.671875,0 -0.671875,-0.90625 -0.671875,-1.078125 z m 0,0"
   style="stroke:none" />
      </symbol>
      <symbol
   id="symbol7505"
   overflow="visible">
        <path
   id="path3441"
   d="m 4.140625,-3.34375 c 0.25,-0.640625 0.765625,-0.640625 0.921875,-0.640625 v -0.3125 c -0.234375,0.015625 -0.515625,0.03125 -0.75,0.03125 -0.171875,0 -0.640625,-0.015625 -0.859375,-0.03125 v 0.3125 c 0.3125,0 0.46875,0.171875 0.46875,0.421875 0,0.109375 -0.015625,0.125 -0.0625,0.25 L 2.84375,-0.875 1.75,-3.546875 C 1.703125,-3.65625 1.6875,-3.6875 1.6875,-3.734375 c 0,-0.25 0.359375,-0.25 0.5625,-0.25 v -0.3125 c -0.265625,0.015625 -0.921875,0.03125 -1.09375,0.03125 -0.265625,0 -0.671875,-0.015625 -0.96875,-0.03125 v 0.3125 c 0.484375,0 0.671875,0 0.8125,0.34375 L 2.5,0 C 2.4375,0.125 2.296875,0.453125 2.25,0.59375 2.03125,1.140625 1.75,1.828125 1.109375,1.828125 c -0.046875,0 -0.28125,0 -0.46875,-0.1875 0.3125,-0.03125 0.390625,-0.25 0.390625,-0.421875 0,-0.25 -0.1875,-0.40625 -0.421875,-0.40625 -0.203125,0 -0.421875,0.125 -0.421875,0.421875 0,0.453125 0.421875,0.8125 0.921875,0.8125 0.625,0 1.03125,-0.578125 1.265625,-1.140625 z m 0,0"
   style="stroke:none" />
      </symbol>
      <symbol
   id="symbol2093"
   overflow="visible">
        <path
   id="path2202"
   d="M 4.6875,-2.140625 C 4.6875,-3.40625 3.703125,-4.46875 2.5,-4.46875 c -1.25,0 -2.21875,1.09375 -2.21875,2.328125 0,1.296875 1.03125,2.25 2.203125,2.25 1.203125,0 2.203125,-0.984375 2.203125,-2.25 z m -2.1875,2 c -0.4375,0 -0.875,-0.203125 -1.140625,-0.671875 -0.25,-0.4375 -0.25,-1.046875 -0.25,-1.40625 0,-0.390625 0,-0.921875 0.234375,-1.359375 C 1.609375,-4.03125 2.078125,-4.25 2.484375,-4.25 c 0.4375,0 0.859375,0.21875 1.125,0.65625 0.265625,0.421875 0.265625,1 0.265625,1.375 0,0.359375 0,0.90625 -0.21875,1.34375 C 3.421875,-0.421875 2.984375,-0.140625 2.5,-0.140625 Z m 0,0"
   style="stroke:none" />
      </symbol>
      <symbol
   id="symbol316"
   overflow="visible">
        <path
   id="path1323"
   d="m 1.75,-4.296875 v -1.15625 c 0,-0.875 0.46875,-1.359375 0.90625,-1.359375 0.03125,0 0.1875,0 0.328125,0.078125 C 2.875,-6.703125 2.6875,-6.5625 2.6875,-6.3125 c 0,0.21875 0.15625,0.421875 0.4375,0.421875 0.28125,0 0.4375,-0.203125 0.4375,-0.4375 0,-0.375 -0.375,-0.703125 -0.90625,-0.703125 -0.6875,0 -1.546875,0.53125 -1.546875,1.59375 v 1.140625 h -0.78125 v 0.3125 h 0.78125 V -0.75 C 1.109375,-0.3125 1,-0.3125 0.34375,-0.3125 V 0 c 0.390625,-0.015625 0.859375,-0.03125 1.125,-0.03125 0.40625,0 0.875,0 1.265625,0.03125 V -0.3125 H 2.53125 c -0.734375,0 -0.75,-0.109375 -0.75,-0.46875 v -3.203125 h 1.125 v -0.3125 z m 0,0"
   style="stroke:none" />
      </symbol>
    </g><g
   id="g1380">
      <symbol
   id="symbol536"
   overflow="visible">
        <path
   id="path7573"
   d=""
   style="stroke:none" />
      </symbol>
      <symbol
   id="symbol8795"
   overflow="visible">
        <path
   id="path8481"
   d="m 5.796875,-6.78125 h -5.46875 v 0.3125 H 0.5625 c 0.765625,0 0.796875,0.109375 0.796875,0.46875 v 5.21875 c 0,0.359375 -0.03125,0.46875 -0.796875,0.46875 H 0.328125 V 0 c 0.34375,-0.03125 1.125,-0.03125 1.515625,-0.03125 0.40625,0 1.3125,0 1.671875,0.03125 V -0.3125 H 3.1875 C 2.25,-0.3125 2.25,-0.4375 2.25,-0.78125 v -2.453125 h 0.84375 c 0.96875,0 1.0625,0.3125 1.0625,1.15625 h 0.25 V -4.71875 h -0.25 c 0,0.84375 -0.09375,1.171875 -1.0625,1.171875 H 2.25 v -2.53125 c 0,-0.328125 0.015625,-0.390625 0.484375,-0.390625 h 1.1875 c 1.5,0 1.75,0.5625 1.90625,1.9375 h 0.25 z m 0,0"
   style="stroke:none" />
      </symbol>
      <symbol
   id="symbol4685"
   overflow="visible">
        <path
   id="path4758"
   d="M 3.890625,-0.78125 V 0.109375 L 5.328125,0 V -0.3125 C 4.640625,-0.3125 4.5625,-0.375 4.5625,-0.875 v -3.53125 l -1.46875,0.109375 v 0.3125 c 0.6875,0 0.78125,0.0625 0.78125,0.5625 v 1.765625 c 0,0.875 -0.484375,1.546875 -1.21875,1.546875 -0.828125,0 -0.875,-0.46875 -0.875,-0.984375 v -3.3125 L 0.3125,-4.296875 v 0.3125 c 0.78125,0 0.78125,0.03125 0.78125,0.90625 v 1.5 c 0,0.78125 0,1.6875 1.515625,1.6875 0.5625,0 1,-0.28125 1.28125,-0.890625 z m 0,0"
   style="stroke:none" />
      </symbol>
      <symbol
   id="symbol2332"
   overflow="visible">
        <path
   id="path3515"
   d="M 1.09375,-3.421875 V -0.75 c 0,0.4375 -0.109375,0.4375 -0.78125,0.4375 V 0 c 0.359375,-0.015625 0.859375,-0.03125 1.140625,-0.03125 0.25,0 0.765625,0.015625 1.109375,0.03125 v -0.3125 c -0.671875,0 -0.78125,0 -0.78125,-0.4375 V -2.59375 C 1.78125,-3.625 2.5,-4.1875 3.125,-4.1875 c 0.640625,0 0.75,0.53125 0.75,1.109375 V -0.75 c 0,0.4375 -0.109375,0.4375 -0.78125,0.4375 V 0 c 0.34375,-0.015625 0.859375,-0.03125 1.125,-0.03125 0.25,0 0.78125,0.015625 1.109375,0.03125 v -0.3125 c -0.515625,0 -0.765625,0 -0.765625,-0.296875 v -1.90625 c 0,-0.859375 0,-1.15625 -0.3125,-1.515625 -0.140625,-0.171875 -0.46875,-0.375 -1.046875,-0.375 C 2.46875,-4.40625 2,-3.984375 1.71875,-3.359375 V -4.40625 L 0.3125,-4.296875 v 0.3125 c 0.703125,0 0.78125,0.0625 0.78125,0.5625 z m 0,0"
   style="stroke:none" />
      </symbol>
      <symbol
   id="symbol3176"
   overflow="visible">
        <path
   id="path2976"
   d="m 3.78125,-0.546875 v 0.65625 L 5.25,0 v -0.3125 c -0.6875,0 -0.78125,-0.0625 -0.78125,-0.5625 V -6.921875 L 3.046875,-6.8125 V -6.5 c 0.6875,0 0.765625,0.0625 0.765625,0.5625 v 2.15625 c -0.28125,-0.359375 -0.71875,-0.625 -1.25,-0.625 -1.171875,0 -2.21875,0.984375 -2.21875,2.265625 0,1.265625 0.96875,2.25 2.109375,2.25 0.640625,0 1.078125,-0.34375 1.328125,-0.65625 z m 0,-2.671875 v 2.046875 c 0,0.171875 0,0.1875 -0.109375,0.359375 C 3.375,-0.328125 2.9375,-0.109375 2.5,-0.109375 2.046875,-0.109375 1.6875,-0.375 1.453125,-0.75 1.203125,-1.15625 1.171875,-1.71875 1.171875,-2.140625 1.171875,-2.5 1.1875,-3.09375 1.46875,-3.546875 1.6875,-3.859375 2.0625,-4.1875 2.609375,-4.1875 c 0.34375,0 0.765625,0.15625 1.0625,0.59375 0.109375,0.171875 0.109375,0.1875 0.109375,0.375 z m 0,0"
   style="stroke:none" />
      </symbol>
      <symbol
   id="symbol9321"
   overflow="visible">
        <path
   id="path5239"
   d="m 3.3125,-0.75 c 0.046875,0.390625 0.3125,0.8125 0.78125,0.8125 0.21875,0 0.828125,-0.140625 0.828125,-0.953125 v -0.5625 h -0.25 v 0.5625 c 0,0.578125 -0.25,0.640625 -0.359375,0.640625 -0.328125,0 -0.375,-0.453125 -0.375,-0.5 v -1.984375 c 0,-0.421875 0,-0.8125 -0.359375,-1.1875 C 3.1875,-4.3125 2.6875,-4.46875 2.21875,-4.46875 c -0.828125,0 -1.515625,0.46875 -1.515625,1.125 0,0.296875 0.203125,0.46875 0.46875,0.46875 0.28125,0 0.453125,-0.203125 0.453125,-0.453125 0,-0.125 -0.046875,-0.453125 -0.515625,-0.453125 C 1.390625,-4.140625 1.875,-4.25 2.1875,-4.25 c 0.5,0 1.0625,0.390625 1.0625,1.28125 v 0.359375 c -0.515625,0.03125 -1.203125,0.0625 -1.828125,0.359375 -0.75,0.34375 -1,0.859375 -1,1.296875 0,0.8125 0.96875,1.0625 1.59375,1.0625 0.65625,0 1.109375,-0.40625 1.296875,-0.859375 z M 3.25,-2.390625 v 1 c 0,0.9375 -0.71875,1.28125 -1.171875,1.28125 -0.484375,0 -0.890625,-0.34375 -0.890625,-0.84375 0,-0.546875 0.421875,-1.375 2.0625,-1.4375 z m 0,0"
   style="stroke:none" />
      </symbol>
      <symbol
   id="symbol8356"
   overflow="visible">
        <path
   id="path2925"
   d="M 1.09375,-3.421875 V -0.75 c 0,0.4375 -0.109375,0.4375 -0.78125,0.4375 V 0 c 0.359375,-0.015625 0.859375,-0.03125 1.140625,-0.03125 0.25,0 0.765625,0.015625 1.109375,0.03125 v -0.3125 c -0.671875,0 -0.78125,0 -0.78125,-0.4375 V -2.59375 C 1.78125,-3.625 2.5,-4.1875 3.125,-4.1875 c 0.640625,0 0.75,0.53125 0.75,1.109375 V -0.75 c 0,0.4375 -0.109375,0.4375 -0.78125,0.4375 V 0 c 0.34375,-0.015625 0.859375,-0.03125 1.125,-0.03125 0.25,0 0.78125,0.015625 1.109375,0.03125 v -0.3125 c -0.65625,0 -0.765625,0 -0.765625,-0.4375 v -1.84375 c 0,-1.03125 0.703125,-1.59375 1.34375,-1.59375 0.625,0 0.734375,0.53125 0.734375,1.109375 V -0.75 c 0,0.4375 -0.109375,0.4375 -0.78125,0.4375 V 0 c 0.34375,-0.015625 0.859375,-0.03125 1.125,-0.03125 0.265625,0 0.78125,0.015625 1.125,0.03125 v -0.3125 c -0.515625,0 -0.765625,0 -0.78125,-0.296875 v -1.90625 c 0,-0.859375 0,-1.15625 -0.3125,-1.515625 -0.140625,-0.171875 -0.46875,-0.375 -1.046875,-0.375 -0.828125,0 -1.28125,0.59375 -1.4375,0.984375 C 4.390625,-4.296875 3.65625,-4.40625 3.203125,-4.40625 2.46875,-4.40625 2,-3.984375 1.71875,-3.359375 V -4.40625 L 0.3125,-4.296875 v 0.3125 c 0.703125,0 0.78125,0.0625 0.78125,0.5625 z m 0,0"
   style="stroke:none" />
      </symbol>
      <symbol
   id="symbol1466"
   overflow="visible">
        <path
   id="path3878"
   d="M 1.109375,-2.515625 C 1.171875,-4 2.015625,-4.25 2.359375,-4.25 c 1.015625,0 1.125,1.34375 1.125,1.734375 z m 0,0.21875 h 2.78125 c 0.21875,0 0.25,0 0.25,-0.21875 0,-0.984375 -0.546875,-1.953125 -1.78125,-1.953125 -1.15625,0 -2.078125,1.03125 -2.078125,2.28125 0,1.328125 1.046875,2.296875 2.1875,2.296875 C 3.6875,0.109375 4.140625,-1 4.140625,-1.1875 4.140625,-1.28125 4.0625,-1.3125 4,-1.3125 c -0.078125,0 -0.109375,0.0625 -0.125,0.140625 -0.34375,1.03125 -1.25,1.03125 -1.34375,1.03125 -0.5,0 -0.890625,-0.296875 -1.125,-0.671875 -0.296875,-0.46875 -0.296875,-1.125 -0.296875,-1.484375 z m 0,0"
   style="stroke:none" />
      </symbol>
      <symbol
   id="symbol1707"
   overflow="visible">
        <path
   id="path648"
   d="m 1.71875,-3.984375 h 1.4375 v -0.3125 H 1.71875 V -6.125 h -0.25 c 0,0.8125 -0.296875,1.875 -1.28125,1.921875 v 0.21875 h 0.84375 v 2.75 c 0,1.21875 0.9375,1.34375 1.296875,1.34375 0.703125,0 0.984375,-0.703125 0.984375,-1.34375 v -0.5625 h -0.25 V -1.25 c 0,0.734375 -0.296875,1.109375 -0.671875,1.109375 -0.671875,0 -0.671875,-0.90625 -0.671875,-1.078125 z m 0,0"
   style="stroke:none" />
      </symbol>
      <symbol
   id="symbol5315"
   overflow="visible">
        <path
   id="path6599"
   d="M 1.765625,-6.921875 0.328125,-6.8125 V -6.5 c 0.703125,0 0.78125,0.0625 0.78125,0.5625 V -0.75 c 0,0.4375 -0.109375,0.4375 -0.78125,0.4375 V 0 C 0.65625,-0.015625 1.1875,-0.03125 1.4375,-0.03125 c 0.25,0 0.734375,0.015625 1.109375,0.03125 v -0.3125 c -0.671875,0 -0.78125,0 -0.78125,-0.4375 z m 0,0"
   style="stroke:none" />
      </symbol>
    </g><g
   id="g1543">
      <symbol
   id="symbol1038"
   overflow="visible">
        <path
   id="path7250"
   d=""
   style="stroke:none" />
      </symbol>
      <symbol
   id="symbol7575"
   overflow="visible">
        <path
   id="path8780"
   d="m 2.265625,-3.15625 h 1.6875 c 1.1875,0 2.265625,-0.796875 2.265625,-1.796875 C 6.21875,-5.9375 5.234375,-6.8125 3.875,-6.8125 H 0.34375 V -6.5 h 0.25 c 0.765625,0 0.78125,0.109375 0.78125,0.46875 v 5.25 c 0,0.359375 -0.015625,0.46875 -0.78125,0.46875 h -0.25 V 0 c 0.359375,-0.03125 1.09375,-0.03125 1.46875,-0.03125 0.375,0 1.125,0 1.484375,0.03125 v -0.3125 h -0.25 c -0.765625,0 -0.78125,-0.109375 -0.78125,-0.46875 z m -0.03125,-0.25 v -2.6875 C 2.234375,-6.4375 2.25,-6.5 2.71875,-6.5 h 0.890625 c 1.578125,0 1.578125,1.0625 1.578125,1.546875 0,0.46875 0,1.546875 -1.578125,1.546875 z m 0,0"
   style="stroke:none" />
      </symbol>
      <symbol
   id="symbol6511"
   overflow="visible">
        <path
   id="path2304"
   d="M 1.671875,-3.3125 V -4.40625 L 0.28125,-4.296875 v 0.3125 c 0.703125,0 0.78125,0.0625 0.78125,0.5625 V -0.75 c 0,0.4375 -0.109375,0.4375 -0.78125,0.4375 V 0 c 0.390625,-0.015625 0.859375,-0.03125 1.140625,-0.03125 0.390625,0 0.859375,0 1.265625,0.03125 V -0.3125 H 2.46875 c -0.734375,0 -0.75,-0.109375 -0.75,-0.46875 V -2.3125 c 0,-0.984375 0.421875,-1.875 1.171875,-1.875 0.0625,0 0.09375,0 0.109375,0.015625 -0.03125,0 -0.234375,0.125 -0.234375,0.390625 0,0.265625 0.21875,0.421875 0.4375,0.421875 0.171875,0 0.421875,-0.125 0.421875,-0.4375 0,-0.3125 -0.3125,-0.609375 -0.734375,-0.609375 -0.734375,0 -1.09375,0.671875 -1.21875,1.09375 z m 0,0"
   style="stroke:none" />
      </symbol>
      <symbol
   id="symbol1322"
   overflow="visible">
        <path
   id="path3081"
   d="M 4.6875,-2.140625 C 4.6875,-3.40625 3.703125,-4.46875 2.5,-4.46875 c -1.25,0 -2.21875,1.09375 -2.21875,2.328125 0,1.296875 1.03125,2.25 2.203125,2.25 1.203125,0 2.203125,-0.984375 2.203125,-2.25 z m -2.1875,2 c -0.4375,0 -0.875,-0.203125 -1.140625,-0.671875 -0.25,-0.4375 -0.25,-1.046875 -0.25,-1.40625 0,-0.390625 0,-0.921875 0.234375,-1.359375 C 1.609375,-4.03125 2.078125,-4.25 2.484375,-4.25 c 0.4375,0 0.859375,0.21875 1.125,0.65625 0.265625,0.421875 0.265625,1 0.265625,1.375 0,0.359375 0,0.90625 -0.21875,1.34375 C 3.421875,-0.421875 2.984375,-0.140625 2.5,-0.140625 Z m 0,0"
   style="stroke:none" />
      </symbol>
      <symbol
   id="symbol8544"
   overflow="visible">
        <path
   id="path7787"
   d="m 1.71875,-3.765625 v -3.15625 L 0.28125,-6.8125 V -6.5 c 0.703125,0 0.78125,0.0625 0.78125,0.5625 V 0 h 0.25 c 0,-0.015625 0.078125,-0.15625 0.359375,-0.625 0.140625,0.234375 0.5625,0.734375 1.296875,0.734375 1.1875,0 2.21875,-0.984375 2.21875,-2.265625 0,-1.265625 -0.96875,-2.25 -2.109375,-2.25 -0.78125,0 -1.203125,0.46875 -1.359375,0.640625 z m 0.03125,2.625 V -3.1875 c 0,-0.1875 0,-0.203125 0.109375,-0.359375 C 2.25,-4.109375 2.796875,-4.1875 3.03125,-4.1875 c 0.453125,0 0.8125,0.265625 1.046875,0.640625 0.265625,0.40625 0.28125,0.96875 0.28125,1.390625 0,0.359375 -0.015625,0.953125 -0.296875,1.40625 -0.21875,0.3125 -0.59375,0.640625 -1.125,0.640625 -0.453125,0 -0.8125,-0.234375 -1.046875,-0.609375 C 1.75,-0.921875 1.75,-0.953125 1.75,-1.140625 Z m 0,0"
   style="stroke:none" />
      </symbol>
      <symbol
   id="symbol6416"
   overflow="visible">
        <path
   id="path3575"
   d="M 1.765625,-6.921875 0.328125,-6.8125 V -6.5 c 0.703125,0 0.78125,0.0625 0.78125,0.5625 V -0.75 c 0,0.4375 -0.109375,0.4375 -0.78125,0.4375 V 0 C 0.65625,-0.015625 1.1875,-0.03125 1.4375,-0.03125 c 0.25,0 0.734375,0.015625 1.109375,0.03125 v -0.3125 c -0.671875,0 -0.78125,0 -0.78125,-0.4375 z m 0,0"
   style="stroke:none" />
      </symbol>
      <symbol
   id="symbol3369"
   overflow="visible">
        <path
   id="path8759"
   d="M 1.109375,-2.515625 C 1.171875,-4 2.015625,-4.25 2.359375,-4.25 c 1.015625,0 1.125,1.34375 1.125,1.734375 z m 0,0.21875 h 2.78125 c 0.21875,0 0.25,0 0.25,-0.21875 0,-0.984375 -0.546875,-1.953125 -1.78125,-1.953125 -1.15625,0 -2.078125,1.03125 -2.078125,2.28125 0,1.328125 1.046875,2.296875 2.1875,2.296875 C 3.6875,0.109375 4.140625,-1 4.140625,-1.1875 4.140625,-1.28125 4.0625,-1.3125 4,-1.3125 c -0.078125,0 -0.109375,0.0625 -0.125,0.140625 -0.34375,1.03125 -1.25,1.03125 -1.34375,1.03125 -0.5,0 -0.890625,-0.296875 -1.125,-0.671875 -0.296875,-0.46875 -0.296875,-1.125 -0.296875,-1.484375 z m 0,0"
   style="stroke:none" />
      </symbol>
      <symbol
   id="symbol5940"
   overflow="visible">
        <path
   id="path3059"
   d="M 1.09375,-3.421875 V -0.75 c 0,0.4375 -0.109375,0.4375 -0.78125,0.4375 V 0 c 0.359375,-0.015625 0.859375,-0.03125 1.140625,-0.03125 0.25,0 0.765625,0.015625 1.109375,0.03125 v -0.3125 c -0.671875,0 -0.78125,0 -0.78125,-0.4375 V -2.59375 C 1.78125,-3.625 2.5,-4.1875 3.125,-4.1875 c 0.640625,0 0.75,0.53125 0.75,1.109375 V -0.75 c 0,0.4375 -0.109375,0.4375 -0.78125,0.4375 V 0 c 0.34375,-0.015625 0.859375,-0.03125 1.125,-0.03125 0.25,0 0.78125,0.015625 1.109375,0.03125 v -0.3125 c -0.65625,0 -0.765625,0 -0.765625,-0.4375 v -1.84375 c 0,-1.03125 0.703125,-1.59375 1.34375,-1.59375 0.625,0 0.734375,0.53125 0.734375,1.109375 V -0.75 c 0,0.4375 -0.109375,0.4375 -0.78125,0.4375 V 0 c 0.34375,-0.015625 0.859375,-0.03125 1.125,-0.03125 0.265625,0 0.78125,0.015625 1.125,0.03125 v -0.3125 c -0.515625,0 -0.765625,0 -0.78125,-0.296875 v -1.90625 c 0,-0.859375 0,-1.15625 -0.3125,-1.515625 -0.140625,-0.171875 -0.46875,-0.375 -1.046875,-0.375 -0.828125,0 -1.28125,0.59375 -1.4375,0.984375 C 4.390625,-4.296875 3.65625,-4.40625 3.203125,-4.40625 2.46875,-4.40625 2,-3.984375 1.71875,-3.359375 V -4.40625 L 0.3125,-4.296875 v 0.3125 c 0.703125,0 0.78125,0.0625 0.78125,0.5625 z m 0,0"
   style="stroke:none" />
      </symbol>
      <symbol
   id="symbol3989"
   overflow="visible">
        <path
   id="path8103"
   d="m 2.078125,-1.9375 c 0.21875,0.046875 1.03125,0.203125 1.03125,0.921875 0,0.5 -0.34375,0.90625 -1.125,0.90625 -0.84375,0 -1.203125,-0.5625 -1.390625,-1.421875 C 0.5625,-1.65625 0.5625,-1.6875 0.453125,-1.6875 c -0.125,0 -0.125,0.0625 -0.125,0.234375 V -0.125 c 0,0.171875 0,0.234375 0.109375,0.234375 0.046875,0 0.0625,-0.015625 0.25,-0.203125 0.015625,-0.015625 0.015625,-0.03125 0.203125,-0.21875 0.4375,0.40625 0.890625,0.421875 1.09375,0.421875 1.140625,0 1.609375,-0.671875 1.609375,-1.390625 0,-0.515625 -0.296875,-0.828125 -0.421875,-0.9375 C 2.84375,-2.546875 2.453125,-2.625 2.03125,-2.703125 1.46875,-2.8125 0.8125,-2.9375 0.8125,-3.515625 c 0,-0.359375 0.25,-0.765625 1.109375,-0.765625 1.09375,0 1.15625,0.90625 1.171875,1.203125 0,0.09375 0.09375,0.09375 0.109375,0.09375 0.140625,0 0.140625,-0.046875 0.140625,-0.234375 v -1.015625 c 0,-0.15625 0,-0.234375 -0.109375,-0.234375 -0.046875,0 -0.078125,0 -0.203125,0.125 -0.03125,0.03125 -0.125,0.125 -0.171875,0.15625 -0.375,-0.28125 -0.78125,-0.28125 -0.9375,-0.28125 -1.21875,0 -1.59375,0.671875 -1.59375,1.234375 0,0.34375 0.15625,0.625 0.421875,0.84375 0.328125,0.25 0.609375,0.3125 1.328125,0.453125 z m 0,0"
   style="stroke:none" />
      </symbol>
      <symbol
   id="symbol6025"
   overflow="visible">
        <path
   id="path6345"
   d="m 1.75,-4.296875 v -1.15625 c 0,-0.875 0.46875,-1.359375 0.90625,-1.359375 0.03125,0 0.1875,0 0.328125,0.078125 C 2.875,-6.703125 2.6875,-6.5625 2.6875,-6.3125 c 0,0.21875 0.15625,0.421875 0.4375,0.421875 0.28125,0 0.4375,-0.203125 0.4375,-0.4375 0,-0.375 -0.375,-0.703125 -0.90625,-0.703125 -0.6875,0 -1.546875,0.53125 -1.546875,1.59375 v 1.140625 h -0.78125 v 0.3125 h 0.78125 V -0.75 C 1.109375,-0.3125 1,-0.3125 0.34375,-0.3125 V 0 c 0.390625,-0.015625 0.859375,-0.03125 1.125,-0.03125 0.40625,0 0.875,0 1.265625,0.03125 V -0.3125 H 2.53125 c -0.734375,0 -0.75,-0.109375 -0.75,-0.46875 v -3.203125 h 1.125 v -0.3125 z m 0,0"
   style="stroke:none" />
      </symbol>
    </g><g
   id="g4396">
      <symbol
   id="symbol141"
   overflow="visible">
        <path
   id="path1462"
   d=""
   style="stroke:none" />
      </symbol>
      <symbol
   id="symbol29"
   overflow="visible">
        <path
   id="path2170"
   d="m 6.640625,-6.75 h -6.09375 l -0.1875,2.25 h 0.25 C 0.75,-6.109375 0.890625,-6.4375 2.40625,-6.4375 c 0.171875,0 0.4375,0 0.53125,0.015625 0.21875,0.046875 0.21875,0.15625 0.21875,0.375 v 5.265625 c 0,0.328125 0,0.46875 -1.046875,0.46875 H 1.703125 V 0 C 2.109375,-0.03125 3.125,-0.03125 3.59375,-0.03125 c 0.453125,0 1.484375,0 1.890625,0.03125 v -0.3125 h -0.40625 c -1.046875,0 -1.046875,-0.140625 -1.046875,-0.46875 v -5.265625 c 0,-0.1875 0,-0.328125 0.1875,-0.375 0.109375,-0.015625 0.375,-0.015625 0.5625,-0.015625 1.515625,0 1.65625,0.328125 1.796875,1.9375 h 0.25 z m 0,0"
   style="stroke:none" />
      </symbol>
      <symbol
   id="symbol9698"
   overflow="visible">
        <path
   id="path3370"
   d="M 1.109375,-2.515625 C 1.171875,-4 2.015625,-4.25 2.359375,-4.25 c 1.015625,0 1.125,1.34375 1.125,1.734375 z m 0,0.21875 h 2.78125 c 0.21875,0 0.25,0 0.25,-0.21875 0,-0.984375 -0.546875,-1.953125 -1.78125,-1.953125 -1.15625,0 -2.078125,1.03125 -2.078125,2.28125 0,1.328125 1.046875,2.296875 2.1875,2.296875 C 3.6875,0.109375 4.140625,-1 4.140625,-1.1875 4.140625,-1.28125 4.0625,-1.3125 4,-1.3125 c -0.078125,0 -0.109375,0.0625 -0.125,0.140625 -0.34375,1.03125 -1.25,1.03125 -1.34375,1.03125 -0.5,0 -0.890625,-0.296875 -1.125,-0.671875 -0.296875,-0.46875 -0.296875,-1.125 -0.296875,-1.484375 z m 0,0"
   style="stroke:none" />
      </symbol>
      <symbol
   id="symbol6725"
   overflow="visible">
        <path
   id="path3138"
   d="m 1.171875,-2.171875 c 0,-1.625 0.8125,-2.046875 1.34375,-2.046875 0.09375,0 0.71875,0.015625 1.0625,0.375 -0.40625,0.03125 -0.46875,0.328125 -0.46875,0.453125 0,0.265625 0.1875,0.453125 0.453125,0.453125 0.265625,0 0.46875,-0.15625 0.46875,-0.46875 0,-0.671875 -0.765625,-1.0625 -1.53125,-1.0625 -1.25,0 -2.15625,1.078125 -2.15625,2.3125 0,1.28125 0.984375,2.265625 2.140625,2.265625 1.328125,0 1.65625,-1.203125 1.65625,-1.296875 0,-0.09375 -0.109375,-0.09375 -0.140625,-0.09375 -0.078125,0 -0.109375,0.03125 -0.125,0.09375 -0.28125,0.921875 -0.9375,1.046875 -1.296875,1.046875 -0.53125,0 -1.40625,-0.421875 -1.40625,-2.03125 z m 0,0"
   style="stroke:none" />
      </symbol>
      <symbol
   id="symbol6592"
   overflow="visible">
        <path
   id="path3611"
   d="m 1.09375,-0.75 c 0,0.4375 -0.109375,0.4375 -0.78125,0.4375 V 0 c 0.359375,-0.015625 0.859375,-0.03125 1.140625,-0.03125 0.25,0 0.765625,0.015625 1.109375,0.03125 v -0.3125 c -0.671875,0 -0.78125,0 -0.78125,-0.4375 V -2.59375 C 1.78125,-3.625 2.5,-4.1875 3.125,-4.1875 c 0.640625,0 0.75,0.53125 0.75,1.109375 V -0.75 c 0,0.4375 -0.109375,0.4375 -0.78125,0.4375 V 0 c 0.34375,-0.015625 0.859375,-0.03125 1.125,-0.03125 0.25,0 0.78125,0.015625 1.109375,0.03125 v -0.3125 c -0.515625,0 -0.765625,0 -0.765625,-0.296875 v -1.90625 c 0,-0.859375 0,-1.15625 -0.3125,-1.515625 -0.140625,-0.171875 -0.46875,-0.375 -1.046875,-0.375 -0.84375,0 -1.28125,0.59375 -1.453125,0.984375 v -3.5 L 0.3125,-6.8125 V -6.5 c 0.703125,0 0.78125,0.0625 0.78125,0.5625 z m 0,0"
   style="stroke:none" />
      </symbol>
      <symbol
   id="symbol1015"
   overflow="visible">
        <path
   id="path6838"
   d="M 1.09375,-3.421875 V -0.75 c 0,0.4375 -0.109375,0.4375 -0.78125,0.4375 V 0 c 0.359375,-0.015625 0.859375,-0.03125 1.140625,-0.03125 0.25,0 0.765625,0.015625 1.109375,0.03125 v -0.3125 c -0.671875,0 -0.78125,0 -0.78125,-0.4375 V -2.59375 C 1.78125,-3.625 2.5,-4.1875 3.125,-4.1875 c 0.640625,0 0.75,0.53125 0.75,1.109375 V -0.75 c 0,0.4375 -0.109375,0.4375 -0.78125,0.4375 V 0 c 0.34375,-0.015625 0.859375,-0.03125 1.125,-0.03125 0.25,0 0.78125,0.015625 1.109375,0.03125 v -0.3125 c -0.515625,0 -0.765625,0 -0.765625,-0.296875 v -1.90625 c 0,-0.859375 0,-1.15625 -0.3125,-1.515625 -0.140625,-0.171875 -0.46875,-0.375 -1.046875,-0.375 C 2.46875,-4.40625 2,-3.984375 1.71875,-3.359375 V -4.40625 L 0.3125,-4.296875 v 0.3125 c 0.703125,0 0.78125,0.0625 0.78125,0.5625 z m 0,0"
   style="stroke:none" />
      </symbol>
      <symbol
   id="symbol8472"
   overflow="visible">
        <path
   id="path4877"
   d="M 4.6875,-2.140625 C 4.6875,-3.40625 3.703125,-4.46875 2.5,-4.46875 c -1.25,0 -2.21875,1.09375 -2.21875,2.328125 0,1.296875 1.03125,2.25 2.203125,2.25 1.203125,0 2.203125,-0.984375 2.203125,-2.25 z m -2.1875,2 c -0.4375,0 -0.875,-0.203125 -1.140625,-0.671875 -0.25,-0.4375 -0.25,-1.046875 -0.25,-1.40625 0,-0.390625 0,-0.921875 0.234375,-1.359375 C 1.609375,-4.03125 2.078125,-4.25 2.484375,-4.25 c 0.4375,0 0.859375,0.21875 1.125,0.65625 0.265625,0.421875 0.265625,1 0.265625,1.375 0,0.359375 0,0.90625 -0.21875,1.34375 C 3.421875,-0.421875 2.984375,-0.140625 2.5,-0.140625 Z m 0,0"
   style="stroke:none" />
      </symbol>
      <symbol
   id="symbol8123"
   overflow="visible">
        <path
   id="path716"
   d="M 1.765625,-6.921875 0.328125,-6.8125 V -6.5 c 0.703125,0 0.78125,0.0625 0.78125,0.5625 V -0.75 c 0,0.4375 -0.109375,0.4375 -0.78125,0.4375 V 0 C 0.65625,-0.015625 1.1875,-0.03125 1.4375,-0.03125 c 0.25,0 0.734375,0.015625 1.109375,0.03125 v -0.3125 c -0.671875,0 -0.78125,0 -0.78125,-0.4375 z m 0,0"
   style="stroke:none" />
      </symbol>
      <symbol
   id="symbol6160"
   overflow="visible">
        <path
   id="path2569"
   d="m 2.21875,-1.71875 c -0.875,0 -0.875,-1 -0.875,-1.21875 0,-0.265625 0.015625,-0.59375 0.15625,-0.84375 0.078125,-0.109375 0.3125,-0.390625 0.71875,-0.390625 0.859375,0 0.859375,0.984375 0.859375,1.21875 0,0.265625 0,0.59375 -0.15625,0.84375 C 2.84375,-2 2.609375,-1.71875 2.21875,-1.71875 Z M 1.0625,-1.328125 c 0,-0.03125 0,-0.265625 0.15625,-0.46875 0.390625,0.28125 0.8125,0.3125 1,0.3125 0.921875,0 1.609375,-0.6875 1.609375,-1.453125 0,-0.375 -0.15625,-0.734375 -0.40625,-0.96875 C 3.78125,-4.25 4.140625,-4.296875 4.3125,-4.296875 c 0.03125,0 0.078125,0 0.109375,0.015625 C 4.3125,-4.25 4.25,-4.140625 4.25,-4.015625 c 0,0.171875 0.140625,0.28125 0.296875,0.28125 0.09375,0 0.28125,-0.0625 0.28125,-0.296875 0,-0.171875 -0.109375,-0.484375 -0.5,-0.484375 -0.203125,0 -0.640625,0.0625 -1.0625,0.46875 C 2.84375,-4.375 2.4375,-4.40625 2.21875,-4.40625 c -0.9375,0 -1.625,0.6875 -1.625,1.453125 0,0.4375 0.21875,0.8125 0.46875,1.03125 -0.125,0.140625 -0.3125,0.46875 -0.3125,0.828125 0,0.3125 0.140625,0.6875 0.453125,0.890625 -0.609375,0.15625 -0.921875,0.59375 -0.921875,0.984375 0,0.71875 0.984375,1.265625 2.203125,1.265625 1.171875,0 2.203125,-0.5 2.203125,-1.28125 0,-0.34375 -0.125,-0.859375 -0.640625,-1.140625 -0.53125,-0.265625 -1.109375,-0.265625 -1.71875,-0.265625 -0.25,0 -0.671875,0 -0.75,-0.015625 C 1.265625,-0.703125 1.0625,-1 1.0625,-1.328125 Z M 2.5,1.828125 c -1.015625,0 -1.703125,-0.515625 -1.703125,-1.046875 0,-0.453125 0.375,-0.828125 0.8125,-0.84375 h 0.59375 c 0.859375,0 1.96875,0 1.96875,0.84375 0,0.546875 -0.703125,1.046875 -1.671875,1.046875 z m 0,0"
   style="stroke:none" />
      </symbol>
      <symbol
   id="symbol5114"
   overflow="visible">
        <path
   id="path8136"
   d="m 4.140625,-3.34375 c 0.25,-0.640625 0.765625,-0.640625 0.921875,-0.640625 v -0.3125 c -0.234375,0.015625 -0.515625,0.03125 -0.75,0.03125 -0.171875,0 -0.640625,-0.015625 -0.859375,-0.03125 v 0.3125 c 0.3125,0 0.46875,0.171875 0.46875,0.421875 0,0.109375 -0.015625,0.125 -0.0625,0.25 L 2.84375,-0.875 1.75,-3.546875 C 1.703125,-3.65625 1.6875,-3.6875 1.6875,-3.734375 c 0,-0.25 0.359375,-0.25 0.5625,-0.25 v -0.3125 c -0.265625,0.015625 -0.921875,0.03125 -1.09375,0.03125 -0.265625,0 -0.671875,-0.015625 -0.96875,-0.03125 v 0.3125 c 0.484375,0 0.671875,0 0.8125,0.34375 L 2.5,0 C 2.4375,0.125 2.296875,0.453125 2.25,0.59375 2.03125,1.140625 1.75,1.828125 1.109375,1.828125 c -0.046875,0 -0.28125,0 -0.46875,-0.1875 0.3125,-0.03125 0.390625,-0.25 0.390625,-0.421875 0,-0.25 -0.1875,-0.40625 -0.421875,-0.40625 -0.203125,0 -0.421875,0.125 -0.421875,0.421875 0,0.453125 0.421875,0.8125 0.921875,0.8125 0.625,0 1.03125,-0.578125 1.265625,-1.140625 z m 0,0"
   style="stroke:none" />
      </symbol>
    </g><g
   id="g4555">
      <symbol
   overflow="visible"
   id="symbol2024">
        <path
   style="stroke:none"
   d=""
   id="path9793" />
      </symbol>
      <symbol
   overflow="visible"
   id="symbol3386">
        <path
   style="stroke:none"
   d="M 0.34375,-6.8125 V -6.5 h 0.25 c 0.765625,0 0.78125,0.109375 0.78125,0.46875 v 5.25 c 0,0.359375 -0.015625,0.46875 -0.78125,0.46875 h -0.25 V 0 H 4 C 5.671875,0 7.046875,-1.46875 7.046875,-3.34375 7.046875,-5.25 5.703125,-6.8125 4,-6.8125 Z m 2.375,6.5 C 2.25,-0.3125 2.234375,-0.375 2.234375,-0.703125 V -6.09375 C 2.234375,-6.4375 2.25,-6.5 2.71875,-6.5 h 1 c 0.625,0 1.3125,0.21875 1.8125,0.921875 0.4375,0.59375 0.515625,1.453125 0.515625,2.234375 0,1.09375 -0.1875,1.703125 -0.546875,2.1875 -0.203125,0.265625 -0.765625,0.84375 -1.765625,0.84375 z m 0,0"
   id="path5525" />
      </symbol>
      <symbol
   overflow="visible"
   id="symbol5258">
        <path
   style="stroke:none"
   d="M 1.109375,-2.515625 C 1.171875,-4 2.015625,-4.25 2.359375,-4.25 c 1.015625,0 1.125,1.34375 1.125,1.734375 z m 0,0.21875 h 2.78125 c 0.21875,0 0.25,0 0.25,-0.21875 0,-0.984375 -0.546875,-1.953125 -1.78125,-1.953125 -1.15625,0 -2.078125,1.03125 -2.078125,2.28125 0,1.328125 1.046875,2.296875 2.1875,2.296875 C 3.6875,0.109375 4.140625,-1 4.140625,-1.1875 4.140625,-1.28125 4.0625,-1.3125 4,-1.3125 c -0.078125,0 -0.109375,0.0625 -0.125,0.140625 -0.34375,1.03125 -1.25,1.03125 -1.34375,1.03125 -0.5,0 -0.890625,-0.296875 -1.125,-0.671875 -0.296875,-0.46875 -0.296875,-1.125 -0.296875,-1.484375 z m 0,0"
   id="path2708" />
      </symbol>
      <symbol
   overflow="visible"
   id="symbol9824">
        <path
   style="stroke:none"
   d="m 1.71875,-3.75 v -0.65625 l -1.4375,0.109375 v 0.3125 c 0.703125,0 0.78125,0.0625 0.78125,0.5 v 4.65625 C 1.0625,1.625 0.953125,1.625 0.28125,1.625 V 1.9375 C 0.625,1.921875 1.140625,1.90625 1.390625,1.90625 c 0.28125,0 0.78125,0.015625 1.125,0.03125 V 1.625 C 1.859375,1.625 1.75,1.625 1.75,1.171875 V -0.59375 c 0.046875,0.171875 0.46875,0.703125 1.21875,0.703125 1.1875,0 2.21875,-0.984375 2.21875,-2.265625 0,-1.265625 -0.953125,-2.25 -2.078125,-2.25 -0.78125,0 -1.203125,0.4375 -1.390625,0.65625 z M 1.75,-1.140625 v -2.21875 C 2.03125,-3.875 2.515625,-4.15625 3.03125,-4.15625 c 0.734375,0 1.328125,0.875 1.328125,2 0,1.203125 -0.6875,2.046875 -1.421875,2.046875 -0.40625,0 -0.78125,-0.203125 -1.046875,-0.609375 C 1.75,-0.921875 1.75,-0.9375 1.75,-1.140625 Z m 0,0"
   id="path8118" />
      </symbol>
      <symbol
   overflow="visible"
   id="symbol9841">
        <path
   style="stroke:none"
   d="m 3.3125,-0.75 c 0.046875,0.390625 0.3125,0.8125 0.78125,0.8125 0.21875,0 0.828125,-0.140625 0.828125,-0.953125 v -0.5625 h -0.25 v 0.5625 c 0,0.578125 -0.25,0.640625 -0.359375,0.640625 -0.328125,0 -0.375,-0.453125 -0.375,-0.5 v -1.984375 c 0,-0.421875 0,-0.8125 -0.359375,-1.1875 C 3.1875,-4.3125 2.6875,-4.46875 2.21875,-4.46875 c -0.828125,0 -1.515625,0.46875 -1.515625,1.125 0,0.296875 0.203125,0.46875 0.46875,0.46875 0.28125,0 0.453125,-0.203125 0.453125,-0.453125 0,-0.125 -0.046875,-0.453125 -0.515625,-0.453125 C 1.390625,-4.140625 1.875,-4.25 2.1875,-4.25 c 0.5,0 1.0625,0.390625 1.0625,1.28125 v 0.359375 c -0.515625,0.03125 -1.203125,0.0625 -1.828125,0.359375 -0.75,0.34375 -1,0.859375 -1,1.296875 0,0.8125 0.96875,1.0625 1.59375,1.0625 0.65625,0 1.109375,-0.40625 1.296875,-0.859375 z M 3.25,-2.390625 v 1 c 0,0.9375 -0.71875,1.28125 -1.171875,1.28125 -0.484375,0 -0.890625,-0.34375 -0.890625,-0.84375 0,-0.546875 0.421875,-1.375 2.0625,-1.4375 z m 0,0"
   id="path9203" />
      </symbol>
      <symbol
   overflow="visible"
   id="symbol526">
        <path
   style="stroke:none"
   d="M 1.671875,-3.3125 V -4.40625 L 0.28125,-4.296875 v 0.3125 c 0.703125,0 0.78125,0.0625 0.78125,0.5625 V -0.75 c 0,0.4375 -0.109375,0.4375 -0.78125,0.4375 V 0 c 0.390625,-0.015625 0.859375,-0.03125 1.140625,-0.03125 0.390625,0 0.859375,0 1.265625,0.03125 V -0.3125 H 2.46875 c -0.734375,0 -0.75,-0.109375 -0.75,-0.46875 V -2.3125 c 0,-0.984375 0.421875,-1.875 1.171875,-1.875 0.0625,0 0.09375,0 0.109375,0.015625 -0.03125,0 -0.234375,0.125 -0.234375,0.390625 0,0.265625 0.21875,0.421875 0.4375,0.421875 0.171875,0 0.421875,-0.125 0.421875,-0.4375 0,-0.3125 -0.3125,-0.609375 -0.734375,-0.609375 -0.734375,0 -1.09375,0.671875 -1.21875,1.09375 z m 0,0"
   id="path5876" />
      </symbol>
      <symbol
   overflow="visible"
   id="symbol3771">
        <path
   style="stroke:none"
   d="m 1.71875,-3.984375 h 1.4375 v -0.3125 H 1.71875 V -6.125 h -0.25 c 0,0.8125 -0.296875,1.875 -1.28125,1.921875 v 0.21875 h 0.84375 v 2.75 c 0,1.21875 0.9375,1.34375 1.296875,1.34375 0.703125,0 0.984375,-0.703125 0.984375,-1.34375 v -0.5625 h -0.25 V -1.25 c 0,0.734375 -0.296875,1.109375 -0.671875,1.109375 -0.671875,0 -0.671875,-0.90625 -0.671875,-1.078125 z m 0,0"
   id="path7404" />
      </symbol>
      <symbol
   overflow="visible"
   id="symbol8637">
        <path
   style="stroke:none"
   d="M 1.09375,-3.421875 V -0.75 c 0,0.4375 -0.109375,0.4375 -0.78125,0.4375 V 0 c 0.359375,-0.015625 0.859375,-0.03125 1.140625,-0.03125 0.25,0 0.765625,0.015625 1.109375,0.03125 v -0.3125 c -0.671875,0 -0.78125,0 -0.78125,-0.4375 V -2.59375 C 1.78125,-3.625 2.5,-4.1875 3.125,-4.1875 c 0.640625,0 0.75,0.53125 0.75,1.109375 V -0.75 c 0,0.4375 -0.109375,0.4375 -0.78125,0.4375 V 0 c 0.34375,-0.015625 0.859375,-0.03125 1.125,-0.03125 0.25,0 0.78125,0.015625 1.109375,0.03125 v -0.3125 c -0.65625,0 -0.765625,0 -0.765625,-0.4375 v -1.84375 c 0,-1.03125 0.703125,-1.59375 1.34375,-1.59375 0.625,0 0.734375,0.53125 0.734375,1.109375 V -0.75 c 0,0.4375 -0.109375,0.4375 -0.78125,0.4375 V 0 c 0.34375,-0.015625 0.859375,-0.03125 1.125,-0.03125 0.265625,0 0.78125,0.015625 1.125,0.03125 v -0.3125 c -0.515625,0 -0.765625,0 -0.78125,-0.296875 v -1.90625 c 0,-0.859375 0,-1.15625 -0.3125,-1.515625 -0.140625,-0.171875 -0.46875,-0.375 -1.046875,-0.375 -0.828125,0 -1.28125,0.59375 -1.4375,0.984375 C 4.390625,-4.296875 3.65625,-4.40625 3.203125,-4.40625 2.46875,-4.40625 2,-3.984375 1.71875,-3.359375 V -4.40625 L 0.3125,-4.296875 v 0.3125 c 0.703125,0 0.78125,0.0625 0.78125,0.5625 z m 0,0"
   id="path9344" />
      </symbol>
      <symbol
   overflow="visible"
   id="symbol1853">
        <path
   style="stroke:none"
   d="M 1.09375,-3.421875 V -0.75 c 0,0.4375 -0.109375,0.4375 -0.78125,0.4375 V 0 c 0.359375,-0.015625 0.859375,-0.03125 1.140625,-0.03125 0.25,0 0.765625,0.015625 1.109375,0.03125 v -0.3125 c -0.671875,0 -0.78125,0 -0.78125,-0.4375 V -2.59375 C 1.78125,-3.625 2.5,-4.1875 3.125,-4.1875 c 0.640625,0 0.75,0.53125 0.75,1.109375 V -0.75 c 0,0.4375 -0.109375,0.4375 -0.78125,0.4375 V 0 c 0.34375,-0.015625 0.859375,-0.03125 1.125,-0.03125 0.25,0 0.78125,0.015625 1.109375,0.03125 v -0.3125 c -0.515625,0 -0.765625,0 -0.765625,-0.296875 v -1.90625 c 0,-0.859375 0,-1.15625 -0.3125,-1.515625 -0.140625,-0.171875 -0.46875,-0.375 -1.046875,-0.375 C 2.46875,-4.40625 2,-3.984375 1.71875,-3.359375 V -4.40625 L 0.3125,-4.296875 v 0.3125 c 0.703125,0 0.78125,0.0625 0.78125,0.5625 z m 0,0"
   id="path5585" />
      </symbol>
      <symbol
   overflow="visible"
   id="symbol7958">
        <path
   style="stroke:none"
   d="M 4.6875,-2.140625 C 4.6875,-3.40625 3.703125,-4.46875 2.5,-4.46875 c -1.25,0 -2.21875,1.09375 -2.21875,2.328125 0,1.296875 1.03125,2.25 2.203125,2.25 1.203125,0 2.203125,-0.984375 2.203125,-2.25 z m -2.1875,2 c -0.4375,0 -0.875,-0.203125 -1.140625,-0.671875 -0.25,-0.4375 -0.25,-1.046875 -0.25,-1.40625 0,-0.390625 0,-0.921875 0.234375,-1.359375 C 1.609375,-4.03125 2.078125,-4.25 2.484375,-4.25 c 0.4375,0 0.859375,0.21875 1.125,0.65625 0.265625,0.421875 0.265625,1 0.265625,1.375 0,0.359375 0,0.90625 -0.21875,1.34375 C 3.421875,-0.421875 2.984375,-0.140625 2.5,-0.140625 Z m 0,0"
   id="path1619" />
      </symbol>
      <symbol
   overflow="visible"
   id="symbol5579">
        <path
   style="stroke:none"
   d="m 1.75,-4.296875 v -1.15625 c 0,-0.875 0.46875,-1.359375 0.90625,-1.359375 0.03125,0 0.1875,0 0.328125,0.078125 C 2.875,-6.703125 2.6875,-6.5625 2.6875,-6.3125 c 0,0.21875 0.15625,0.421875 0.4375,0.421875 0.28125,0 0.4375,-0.203125 0.4375,-0.4375 0,-0.375 -0.375,-0.703125 -0.90625,-0.703125 -0.6875,0 -1.546875,0.53125 -1.546875,1.59375 v 1.140625 h -0.78125 v 0.3125 h 0.78125 V -0.75 C 1.109375,-0.3125 1,-0.3125 0.34375,-0.3125 V 0 c 0.390625,-0.015625 0.859375,-0.03125 1.125,-0.03125 0.40625,0 0.875,0 1.265625,0.03125 V -0.3125 H 2.53125 c -0.734375,0 -0.75,-0.109375 -0.75,-0.46875 v -3.203125 h 1.125 v -0.3125 z m 0,0"
   id="path4599" />
      </symbol>
    </g>
  <g
   id="g5671">
      <symbol
   overflow="visible"
   id="symbol8088">
        <path
   style="stroke:none"
   d=""
   id="path8036" />
      </symbol>
      <symbol
   overflow="visible"
   id="symbol965">
        <path
   style="stroke:none"
   d="m 6.640625,-6.75 h -6.09375 l -0.1875,2.25 h 0.25 C 0.75,-6.109375 0.890625,-6.4375 2.40625,-6.4375 c 0.171875,0 0.4375,0 0.53125,0.015625 0.21875,0.046875 0.21875,0.15625 0.21875,0.375 v 5.265625 c 0,0.328125 0,0.46875 -1.046875,0.46875 H 1.703125 V 0 C 2.109375,-0.03125 3.125,-0.03125 3.59375,-0.03125 c 0.453125,0 1.484375,0 1.890625,0.03125 v -0.3125 h -0.40625 c -1.046875,0 -1.046875,-0.140625 -1.046875,-0.46875 v -5.265625 c 0,-0.1875 0,-0.328125 0.1875,-0.375 0.109375,-0.015625 0.375,-0.015625 0.5625,-0.015625 1.515625,0 1.65625,0.328125 1.796875,1.9375 h 0.25 z m 0,0"
   id="path6434" />
      </symbol>
      <symbol
   overflow="visible"
   id="symbol6613">
        <path
   style="stroke:none"
   d="m 1.09375,-0.75 c 0,0.4375 -0.109375,0.4375 -0.78125,0.4375 V 0 c 0.359375,-0.015625 0.859375,-0.03125 1.140625,-0.03125 0.25,0 0.765625,0.015625 1.109375,0.03125 v -0.3125 c -0.671875,0 -0.78125,0 -0.78125,-0.4375 V -2.59375 C 1.78125,-3.625 2.5,-4.1875 3.125,-4.1875 c 0.640625,0 0.75,0.53125 0.75,1.109375 V -0.75 c 0,0.4375 -0.109375,0.4375 -0.78125,0.4375 V 0 c 0.34375,-0.015625 0.859375,-0.03125 1.125,-0.03125 0.25,0 0.78125,0.015625 1.109375,0.03125 v -0.3125 c -0.515625,0 -0.765625,0 -0.765625,-0.296875 v -1.90625 c 0,-0.859375 0,-1.15625 -0.3125,-1.515625 -0.140625,-0.171875 -0.46875,-0.375 -1.046875,-0.375 -0.84375,0 -1.28125,0.59375 -1.453125,0.984375 v -3.5 L 0.3125,-6.8125 V -6.5 c 0.703125,0 0.78125,0.0625 0.78125,0.5625 z m 0,0"
   id="path4372" />
      </symbol>
      <symbol
   overflow="visible"
   id="symbol2665">
        <path
   style="stroke:none"
   d="M 1.109375,-2.515625 C 1.171875,-4 2.015625,-4.25 2.359375,-4.25 c 1.015625,0 1.125,1.34375 1.125,1.734375 z m 0,0.21875 h 2.78125 c 0.21875,0 0.25,0 0.25,-0.21875 0,-0.984375 -0.546875,-1.953125 -1.78125,-1.953125 -1.15625,0 -2.078125,1.03125 -2.078125,2.28125 0,1.328125 1.046875,2.296875 2.1875,2.296875 C 3.6875,0.109375 4.140625,-1 4.140625,-1.1875 4.140625,-1.28125 4.0625,-1.3125 4,-1.3125 c -0.078125,0 -0.109375,0.0625 -0.125,0.140625 -0.34375,1.03125 -1.25,1.03125 -1.34375,1.03125 -0.5,0 -0.890625,-0.296875 -1.125,-0.671875 -0.296875,-0.46875 -0.296875,-1.125 -0.296875,-1.484375 z m 0,0"
   id="path3769" />
      </symbol>
      <symbol
   overflow="visible"
   id="symbol8762">
        <path
   style="stroke:none"
   d="M 4.6875,-2.140625 C 4.6875,-3.40625 3.703125,-4.46875 2.5,-4.46875 c -1.25,0 -2.21875,1.09375 -2.21875,2.328125 0,1.296875 1.03125,2.25 2.203125,2.25 1.203125,0 2.203125,-0.984375 2.203125,-2.25 z m -2.1875,2 c -0.4375,0 -0.875,-0.203125 -1.140625,-0.671875 -0.25,-0.4375 -0.25,-1.046875 -0.25,-1.40625 0,-0.390625 0,-0.921875 0.234375,-1.359375 C 1.609375,-4.03125 2.078125,-4.25 2.484375,-4.25 c 0.4375,0 0.859375,0.21875 1.125,0.65625 0.265625,0.421875 0.265625,1 0.265625,1.375 0,0.359375 0,0.90625 -0.21875,1.34375 C 3.421875,-0.421875 2.984375,-0.140625 2.5,-0.140625 Z m 0,0"
   id="path9010" />
      </symbol>
      <symbol
   overflow="visible"
   id="symbol6244">
        <path
   style="stroke:none"
   d="M 1.671875,-3.3125 V -4.40625 L 0.28125,-4.296875 v 0.3125 c 0.703125,0 0.78125,0.0625 0.78125,0.5625 V -0.75 c 0,0.4375 -0.109375,0.4375 -0.78125,0.4375 V 0 c 0.390625,-0.015625 0.859375,-0.03125 1.140625,-0.03125 0.390625,0 0.859375,0 1.265625,0.03125 V -0.3125 H 2.46875 c -0.734375,0 -0.75,-0.109375 -0.75,-0.46875 V -2.3125 c 0,-0.984375 0.421875,-1.875 1.171875,-1.875 0.0625,0 0.09375,0 0.109375,0.015625 -0.03125,0 -0.234375,0.125 -0.234375,0.390625 0,0.265625 0.21875,0.421875 0.4375,0.421875 0.171875,0 0.421875,-0.125 0.421875,-0.4375 0,-0.3125 -0.3125,-0.609375 -0.734375,-0.609375 -0.734375,0 -1.09375,0.671875 -1.21875,1.09375 z m 0,0"
   id="path61" />
      </symbol>
      <symbol
   overflow="visible"
   id="symbol4631">
        <path
   style="stroke:none"
   d="m 1.71875,-3.984375 h 1.4375 v -0.3125 H 1.71875 V -6.125 h -0.25 c 0,0.8125 -0.296875,1.875 -1.28125,1.921875 v 0.21875 h 0.84375 v 2.75 c 0,1.21875 0.9375,1.34375 1.296875,1.34375 0.703125,0 0.984375,-0.703125 0.984375,-1.34375 v -0.5625 h -0.25 V -1.25 c 0,0.734375 -0.296875,1.109375 -0.671875,1.109375 -0.671875,0 -0.671875,-0.90625 -0.671875,-1.078125 z m 0,0"
   id="path257" />
      </symbol>
      <symbol
   overflow="visible"
   id="symbol4674">
        <path
   style="stroke:none"
   d="M 1.765625,-4.40625 0.375,-4.296875 v 0.3125 c 0.640625,0 0.734375,0.0625 0.734375,0.546875 V -0.75 c 0,0.4375 -0.109375,0.4375 -0.78125,0.4375 V 0 C 0.640625,-0.015625 1.1875,-0.03125 1.421875,-0.03125 1.78125,-0.03125 2.125,-0.015625 2.46875,0 v -0.3125 c -0.671875,0 -0.703125,-0.046875 -0.703125,-0.4375 z m 0.03125,-1.734375 c 0,-0.3125 -0.234375,-0.53125 -0.515625,-0.53125 -0.3125,0 -0.53125,0.265625 -0.53125,0.53125 0,0.265625 0.21875,0.53125 0.53125,0.53125 0.28125,0 0.515625,-0.21875 0.515625,-0.53125 z m 0,0"
   id="path5521" />
      </symbol>
      <symbol
   overflow="visible"
   id="symbol1334">
        <path
   style="stroke:none"
   d="m 1.171875,-2.171875 c 0,-1.625 0.8125,-2.046875 1.34375,-2.046875 0.09375,0 0.71875,0.015625 1.0625,0.375 -0.40625,0.03125 -0.46875,0.328125 -0.46875,0.453125 0,0.265625 0.1875,0.453125 0.453125,0.453125 0.265625,0 0.46875,-0.15625 0.46875,-0.46875 0,-0.671875 -0.765625,-1.0625 -1.53125,-1.0625 -1.25,0 -2.15625,1.078125 -2.15625,2.3125 0,1.28125 0.984375,2.265625 2.140625,2.265625 1.328125,0 1.65625,-1.203125 1.65625,-1.296875 0,-0.09375 -0.109375,-0.09375 -0.140625,-0.09375 -0.078125,0 -0.109375,0.03125 -0.125,0.09375 -0.28125,0.921875 -0.9375,1.046875 -1.296875,1.046875 -0.53125,0 -1.40625,-0.421875 -1.40625,-2.03125 z m 0,0"
   id="path4605" />
      </symbol>
      <symbol
   overflow="visible"
   id="symbol4355">
        <path
   style="stroke:none"
   d="m 3.3125,-0.75 c 0.046875,0.390625 0.3125,0.8125 0.78125,0.8125 0.21875,0 0.828125,-0.140625 0.828125,-0.953125 v -0.5625 h -0.25 v 0.5625 c 0,0.578125 -0.25,0.640625 -0.359375,0.640625 -0.328125,0 -0.375,-0.453125 -0.375,-0.5 v -1.984375 c 0,-0.421875 0,-0.8125 -0.359375,-1.1875 C 3.1875,-4.3125 2.6875,-4.46875 2.21875,-4.46875 c -0.828125,0 -1.515625,0.46875 -1.515625,1.125 0,0.296875 0.203125,0.46875 0.46875,0.46875 0.28125,0 0.453125,-0.203125 0.453125,-0.453125 0,-0.125 -0.046875,-0.453125 -0.515625,-0.453125 C 1.390625,-4.140625 1.875,-4.25 2.1875,-4.25 c 0.5,0 1.0625,0.390625 1.0625,1.28125 v 0.359375 c -0.515625,0.03125 -1.203125,0.0625 -1.828125,0.359375 -0.75,0.34375 -1,0.859375 -1,1.296875 0,0.8125 0.96875,1.0625 1.59375,1.0625 0.65625,0 1.109375,-0.40625 1.296875,-0.859375 z M 3.25,-2.390625 v 1 c 0,0.9375 -0.71875,1.28125 -1.171875,1.28125 -0.484375,0 -0.890625,-0.34375 -0.890625,-0.84375 0,-0.546875 0.421875,-1.375 2.0625,-1.4375 z m 0,0"
   id="path162" />
      </symbol>
      <symbol
   overflow="visible"
   id="symbol1309">
        <path
   style="stroke:none"
   d="M 1.765625,-6.921875 0.328125,-6.8125 V -6.5 c 0.703125,0 0.78125,0.0625 0.78125,0.5625 V -0.75 c 0,0.4375 -0.109375,0.4375 -0.78125,0.4375 V 0 C 0.65625,-0.015625 1.1875,-0.03125 1.4375,-0.03125 c 0.25,0 0.734375,0.015625 1.109375,0.03125 v -0.3125 c -0.671875,0 -0.78125,0 -0.78125,-0.4375 z m 0,0"
   id="path2859" />
      </symbol>
      <symbol
   overflow="visible"
   id="symbol7001">
        <path
   style="stroke:none"
   d="m 2.265625,-3.15625 h 1.6875 c 1.1875,0 2.265625,-0.796875 2.265625,-1.796875 C 6.21875,-5.9375 5.234375,-6.8125 3.875,-6.8125 H 0.34375 V -6.5 h 0.25 c 0.765625,0 0.78125,0.109375 0.78125,0.46875 v 5.25 c 0,0.359375 -0.015625,0.46875 -0.78125,0.46875 h -0.25 V 0 c 0.359375,-0.03125 1.09375,-0.03125 1.46875,-0.03125 0.375,0 1.125,0 1.484375,0.03125 v -0.3125 h -0.25 c -0.765625,0 -0.78125,-0.109375 -0.78125,-0.46875 z m -0.03125,-0.25 v -2.6875 C 2.234375,-6.4375 2.25,-6.5 2.71875,-6.5 h 0.890625 c 1.578125,0 1.578125,1.0625 1.578125,1.546875 0,0.46875 0,1.546875 -1.578125,1.546875 z m 0,0"
   id="path9160" />
      </symbol>
      <symbol
   overflow="visible"
   id="symbol1582">
        <path
   style="stroke:none"
   d="m 4.140625,-3.34375 c 0.25,-0.640625 0.765625,-0.640625 0.921875,-0.640625 v -0.3125 c -0.234375,0.015625 -0.515625,0.03125 -0.75,0.03125 -0.171875,0 -0.640625,-0.015625 -0.859375,-0.03125 v 0.3125 c 0.3125,0 0.46875,0.171875 0.46875,0.421875 0,0.109375 -0.015625,0.125 -0.0625,0.25 L 2.84375,-0.875 1.75,-3.546875 C 1.703125,-3.65625 1.6875,-3.6875 1.6875,-3.734375 c 0,-0.25 0.359375,-0.25 0.5625,-0.25 v -0.3125 c -0.265625,0.015625 -0.921875,0.03125 -1.09375,0.03125 -0.265625,0 -0.671875,-0.015625 -0.96875,-0.03125 v 0.3125 c 0.484375,0 0.671875,0 0.8125,0.34375 L 2.5,0 C 2.4375,0.125 2.296875,0.453125 2.25,0.59375 2.03125,1.140625 1.75,1.828125 1.109375,1.828125 c -0.046875,0 -0.28125,0 -0.46875,-0.1875 0.3125,-0.03125 0.390625,-0.25 0.390625,-0.421875 0,-0.25 -0.1875,-0.40625 -0.421875,-0.40625 -0.203125,0 -0.421875,0.125 -0.421875,0.421875 0,0.453125 0.421875,0.8125 0.921875,0.8125 0.625,0 1.03125,-0.578125 1.265625,-1.140625 z m 0,0"
   id="path2718" />
      </symbol>
      <symbol
   overflow="visible"
   id="symbol8609">
        <path
   style="stroke:none"
   d="m 2.078125,-1.9375 c 0.21875,0.046875 1.03125,0.203125 1.03125,0.921875 0,0.5 -0.34375,0.90625 -1.125,0.90625 -0.84375,0 -1.203125,-0.5625 -1.390625,-1.421875 C 0.5625,-1.65625 0.5625,-1.6875 0.453125,-1.6875 c -0.125,0 -0.125,0.0625 -0.125,0.234375 V -0.125 c 0,0.171875 0,0.234375 0.109375,0.234375 0.046875,0 0.0625,-0.015625 0.25,-0.203125 0.015625,-0.015625 0.015625,-0.03125 0.203125,-0.21875 0.4375,0.40625 0.890625,0.421875 1.09375,0.421875 1.140625,0 1.609375,-0.671875 1.609375,-1.390625 0,-0.515625 -0.296875,-0.828125 -0.421875,-0.9375 C 2.84375,-2.546875 2.453125,-2.625 2.03125,-2.703125 1.46875,-2.8125 0.8125,-2.9375 0.8125,-3.515625 c 0,-0.359375 0.25,-0.765625 1.109375,-0.765625 1.09375,0 1.15625,0.90625 1.171875,1.203125 0,0.09375 0.09375,0.09375 0.109375,0.09375 0.140625,0 0.140625,-0.046875 0.140625,-0.234375 v -1.015625 c 0,-0.15625 0,-0.234375 -0.109375,-0.234375 -0.046875,0 -0.078125,0 -0.203125,0.125 -0.03125,0.03125 -0.125,0.125 -0.171875,0.15625 -0.375,-0.28125 -0.78125,-0.28125 -0.9375,-0.28125 -1.21875,0 -1.59375,0.671875 -1.59375,1.234375 0,0.34375 0.15625,0.625 0.421875,0.84375 0.328125,0.25 0.609375,0.3125 1.328125,0.453125 z m 0,0"
   id="path6053" />
      </symbol>
    </g>
  </defs><sodipodi:namedview
   fit-margin-bottom="0"
   fit-margin-right="0"
   fit-margin-left="0"
   fit-margin-top="0"
   inkscape:current-layer="Warstwa_1"
   inkscape:window-maximized="1"
   inkscape:window-y="-8"
   inkscape:window-x="1432"
   inkscape:cy="26.553634"
   inkscape:cx="124.08729"
   inkscape:zoom="2.6816479"
   showgrid="false"
   id="namedview23"
   inkscape:window-height="1017"
   inkscape:window-width="1920"
   inkscape:pageshadow="2"
   inkscape:pageopacity="0"
   guidetolerance="10"
   gridtolerance="10"
   objecttolerance="10"
   borderopacity="1"
   bordercolor="#666666"
   pagecolor="#ffffff"
   inkscape:document-rotation="0" />
                        
                    <path
   id="path10"
   d="M 41.896605,31.368749 C 39.741821,37.093663 34.759047,41.43162 28.65157,42.67934 c -0.998985,0.248734 -1.99662,0.370397 -3.084826,0.355527 -0.177089,0.004 -0.355526,0.0081 -0.532615,0.0081 -0.254138,0 -0.506927,-0.0054 -0.757012,-0.01622 l 3.148366,-3.238948 -5.561348,-6.298081 h 6.088554 c 2.738768,0 3.209197,1.635689 3.484963,2.563031 h 0.527206 L 31.687737,32.365032 H 17.354501 l 7.444414,8.447458 -2.033124,2.085841 C 16.048649,42.054803 10.481899,37.508666 8.1716542,31.367395 10.848242,30.680677 12.863785,28.343397 13.06791,25.504597 h 5.442385 c 0.241978,3.39169 3.069961,6.068273 6.525189,6.068273 3.451169,0 6.280507,-2.676583 6.522479,-6.068273 h 5.443741 c 0.201415,2.840153 2.216964,5.177432 4.894901,5.86415 m 0,-12.670511 c -2.676588,0.686719 -4.693486,3.023997 -4.894901,5.861447 h -5.443741 c -0.231161,-3.236232 -2.815817,-5.819541 -6.0507,-6.052052 v -5.442385 c 2.8388,-0.202772 5.176081,-2.216969 5.862801,-4.8935522 4.846236,1.824943 8.701595,5.6776002 10.526541,10.5265422 M 24.559647,18.508983 c -3.236233,0.231159 -5.819546,2.815819 -6.050701,6.052052 H 13.06656 C 12.862436,21.723586 10.848242,19.384955 8.1703052,18.699588 9.9952502,13.850647 13.84926,9.9966368 18.698201,8.1730458 c 0.685365,2.6752312 3.023995,4.6907802 5.861446,4.8935512 z m 25.507294,6.525185 c 0,-3.612036 -2.92936,-6.541408 -6.541409,-6.541408 -0.223048,0 -0.446097,0.01219 -0.663737,0.03379 -1.915516,-5.242317 -6.079086,-9.4045402 -11.321406,-11.3214052 0.023,-0.218994 0.03245,-0.439338 0.03245,-0.6650899 C 31.572839,2.9280198 28.644818,0 25.034135,0 c -3.613387,0 -6.541409,2.9293708 -6.541409,6.5400549 0,0.2257519 0.01218,0.4460959 0.03382,0.6650899 C 13.285581,9.1206588 9.1206562,13.282881 7.2064952,18.52655 6.9875002,18.50357 6.7658062,18.49276 6.5414032,18.49276 2.929371,18.49276 0,21.422132 0,25.034168 c 0,3.612035 2.929371,6.541407 6.5414032,6.541407 0.224403,0 0.446097,-0.01083 0.665092,-0.03379 2.312943,6.337284 7.9107888,11.09295 14.7293188,12.213601 l -4.91383,5.043602 h 15.137563 l 1.024671,-5.0044 h -0.552899 c -0.828659,2.368371 -1.85468,2.709026 -3.626902,2.709026 h -8.108156 l 2.496789,-2.567086 c 0.498821,0.04326 1.004399,0.06759 1.51403,0.07164 1.415347,0.01487 2.660363,-0.104088 3.990541,-0.393377 6.471111,-1.338291 11.736414,-5.974998 13.964194,-12.073011 0.21764,0.02434 0.440689,0.03379 0.663737,0.03379 3.612049,0 6.541409,-2.929371 6.541409,-6.541406"
   fill="#089c9c"
   style="fill:#ffffff;stroke:none;stroke-width:1.35181" /><g
   style="font-style:normal;font-weight:normal;font-size:19.9713px;line-height:1.25;font-family:sans-serif;fill:#ffffff;fill-opacity:1;stroke:none;stroke-width:0.499283"
   id="text177"
   aria-label="Department of
Theoretical Physics"><path
     id="path146"
     style="font-style:normal;font-variant:normal;font-weight:normal;font-stretch:normal;font-size:19.9713px;font-family:Aleo;-inkscape-font-specification:'Aleo, Normal';font-variant-ligatures:normal;font-variant-caps:normal;font-variant-numeric:normal;font-variant-east-asian:normal;fill:#ffffff;stroke-width:0.499283"
     d="m 68.80302,16.169744 q 0,2.116958 -0.878737,3.734633 -0.878737,1.617675 -2.476441,2.516384 -1.597704,0.898708 -3.694691,0.898708 h -6.6105 v -0.838794 q 0,-0.319541 0.319541,-0.379455 l 1.118393,-0.219684 V 10.477923 L 55.462192,10.238268 Q 55.142651,10.178354 55.142651,9.8588132 V 9.0200186 h 6.6105 q 2.13693,0 3.734634,0.9186798 1.597704,0.8987086 2.456469,2.5163836 0.858766,1.617675 0.858766,3.714662 z m -1.99713,0 q 0,-2.556326 -1.318105,-4.074145 -1.318106,-1.517819 -3.734634,-1.517819 h -3.215379 v 11.183928 h 3.215379 q 2.396556,0 3.714662,-1.497847 1.338077,-1.497848 1.338077,-4.094117 z" /><path
     id="path148"
     style="font-style:normal;font-variant:normal;font-weight:normal;font-stretch:normal;font-size:19.9713px;font-family:Aleo;-inkscape-font-specification:'Aleo, Normal';font-variant-ligatures:normal;font-variant-caps:normal;font-variant-numeric:normal;font-variant-east-asian:normal;fill:#ffffff;stroke-width:0.499283"
     d="m 74.925785,13.054221 q 0.878737,0 1.657617,0.29957 0.798852,0.299569 1.318106,0.858766 0.599139,0.639081 0.878737,1.417962 0.319541,0.898708 0.319541,1.917245 0,0.45934 -0.07988,0.559196 -0.09986,0.139799 -0.359483,0.139799 h -6.710357 q 0,0.958623 0.239655,1.677589 0.199713,0.619111 0.679025,1.158336 0.439368,0.499282 0.998565,0.718967 0.599139,0.239655 1.278163,0.239655 0.718967,0 1.158335,-0.139799 0.419398,-0.139799 0.838795,-0.339512 0.439368,-0.219684 0.599139,-0.319541 0.259627,-0.15977 0.399426,-0.15977 0.219684,0 0.339512,0.179742 l 0.499282,0.659052 q -0.279598,0.359484 -0.798852,0.679025 -0.599139,0.379454 -0.978593,0.499282 -0.599139,0.199713 -1.07845,0.279598 -0.599139,0.09986 -1.098422,0.09986 -1.038508,0 -1.937216,-0.359484 -0.858766,-0.339512 -1.53779,-1.058478 -0.639082,-0.659053 -0.998565,-1.697561 -0.359484,-1.018536 -0.359484,-2.316671 0,-1.038507 0.339513,-1.957187 0.339512,-0.938651 0.938651,-1.597704 0.61911,-0.679024 1.497847,-1.058479 0.878737,-0.379455 1.957188,-0.379455 z m 0.03994,1.298135 q -1.298134,0 -2.017101,0.738938 -0.738938,0.778881 -0.91868,2.077015 h 5.492108 q 0,-0.61911 -0.179742,-1.118393 -0.219684,-0.61911 -0.479311,-0.898708 -0.339512,-0.359484 -0.818824,-0.579168 -0.45934,-0.199713 -1.098421,-0.199713 z" /><path
     id="path150"
     style="font-style:normal;font-variant:normal;font-weight:normal;font-stretch:normal;font-size:19.9713px;font-family:Aleo;-inkscape-font-specification:'Aleo, Normal';font-variant-ligatures:normal;font-variant-caps:normal;font-variant-numeric:normal;font-variant-east-asian:normal;fill:#ffffff;stroke-width:0.499283"
     d="m 83.057847,14.771753 q 1.457905,-1.757474 3.395121,-1.757474 1.777446,0 2.795982,1.318105 1.038508,1.397991 1.038508,3.874433 0,2.276728 -1.158335,3.734633 -1.21825,1.517819 -3.075581,1.517819 -1.857331,0 -2.91581,-1.178307 v 2.995695 l 0.539226,0.119828 0.579167,0.119827 q 0.319541,0.05991 0.319541,0.379455 v 0.858766 h -4.673284 v -0.858766 q 0,-0.319541 0.319541,-0.379455 l 1.118392,-0.219684 V 14.671896 q -0.918679,-0.179741 -1.118392,-0.239655 -0.319541,-0.05991 -0.319541,-0.379455 v -0.838794 h 2.516384 q 0.359483,0 0.479311,0.359483 l 0.139799,1.198278 z m 0.07989,6.111218 q 0.898709,1.198278 2.316671,1.198278 1.477877,0 2.236786,-0.998565 0.758909,-0.998565 0.758909,-2.875867 0,-1.857331 -0.659053,-2.795982 -0.659052,-0.958623 -1.937216,-0.958623 -1.577732,0 -2.716097,1.53779 z" /><path
     id="path152"
     style="font-style:normal;font-variant:normal;font-weight:normal;font-stretch:normal;font-size:19.9713px;font-family:Aleo;-inkscape-font-specification:'Aleo, Normal';font-variant-ligatures:normal;font-variant-caps:normal;font-variant-numeric:normal;font-variant-east-asian:normal;fill:#ffffff;stroke-width:0.499283"
     d="m 100.55614,22.041306 q 0.1398,0.01997 0.21969,0.139799 0.0799,0.09986 0.0799,0.239656 v 0.858766 h -2.077014 q -0.179741,0 -0.419397,-0.07989 -0.139799,-0.03994 -0.199713,-0.319541 l -0.199713,-0.958623 -0.798852,0.659053 q -0.339512,0.279599 -0.798852,0.479312 -0.439369,0.199713 -0.878737,0.299569 -0.399426,0.09986 -1.078451,0.09986 -0.559196,0 -1.07845,-0.179742 -0.61911,-0.219684 -0.898708,-0.479311 -0.359484,-0.319541 -0.599139,-0.838795 -0.219685,-0.45934 -0.219685,-1.198278 0,-0.639082 0.319541,-1.158335 0.359484,-0.579168 1.07845,-0.998565 0.798852,-0.45934 1.917245,-0.718967 1.158336,-0.259627 2.91581,-0.259627 v -0.778881 q 0,-1.178306 -0.519254,-1.797417 -0.519254,-0.61911 -1.497847,-0.61911 -0.639082,0 -1.098422,0.179742 -0.519254,0.199713 -0.758909,0.359483 -0.119828,0.07989 -0.279598,0.179742 -0.139799,0.07988 -0.29957,0.179741 -0.219684,0.159771 -0.45934,0.159771 -0.219684,0 -0.319541,-0.07988 -0.119827,-0.09986 -0.199713,-0.239656 l -0.31954,-0.559196 q 0.77888,-0.75891 1.797417,-1.198278 0.918679,-0.399426 2.1569,-0.399426 0.898709,0 1.517819,0.279598 0.679024,0.299569 1.098421,0.758909 0.439369,0.45934 0.679025,1.198278 0.219684,0.659053 0.219684,1.557762 v 5.052739 q 0.958623,0.199713 0.998563,0.219684 z m -2.756037,-3.275293 q -1.298135,0 -2.077016,0.139799 -0.758909,0.139799 -1.397991,0.419397 -0.559196,0.259627 -0.798852,0.599139 -0.239655,0.359484 -0.239655,0.75891 0,0.319541 0.139799,0.679024 0.119828,0.29957 0.359483,0.479311 0.239656,0.179742 0.519254,0.259627 0.339512,0.09986 0.659053,0.09986 0.399426,0 0.838794,-0.09986 0.399426,-0.09986 0.738939,-0.259627 0.299569,-0.139799 0.659053,-0.439368 0.199713,-0.159771 0.599139,-0.559197 z" /><path
     id="path154"
     style="font-style:normal;font-variant:normal;font-weight:normal;font-stretch:normal;font-size:19.9713px;font-family:Aleo;-inkscape-font-specification:'Aleo, Normal';font-variant-ligatures:normal;font-variant-caps:normal;font-variant-numeric:normal;font-variant-east-asian:normal;fill:#ffffff;stroke-width:0.499283"
     d="m 105.2029,15.271036 q 1.11839,-2.256757 3.07558,-2.256757 0.77888,0 1.37802,0.359483 l -0.21968,1.338077 q -0.0599,0.259627 -0.25963,0.259627 -0.1398,0 -0.47931,-0.09986 -0.33951,-0.09986 -0.81883,-0.09986 -1.75747,0 -2.59626,2.116958 v 4.992825 l 1.13836,0.219684 q 0.29957,0.05991 0.29957,0.379455 v 0.838794 h -4.65331 v -0.838794 q 0,-0.319541 0.29957,-0.379455 l 1.13836,-0.219684 v -7.20964 q -0.95862,-0.179741 -1.13836,-0.239655 -0.29957,-0.05991 -0.29957,-0.379455 v -0.838794 h 2.45647 q 0.27959,0 0.37945,0.09986 0.0999,0.09986 0.15977,0.379455 l 0.11983,1.577733 z" /><path
     id="path156"
     style="font-style:normal;font-variant:normal;font-weight:normal;font-stretch:normal;font-size:19.9713px;font-family:Aleo;-inkscape-font-specification:'Aleo, Normal';font-variant-ligatures:normal;font-variant-caps:normal;font-variant-numeric:normal;font-variant-east-asian:normal;fill:#ffffff;stroke-width:0.499283"
     d="m 114.34258,23.47924 q -1.15834,0 -1.83736,-0.679024 -0.63908,-0.639082 -0.63908,-1.917245 v -6.191103 h -1.21825 q -0.17974,0 -0.2796,-0.07988 -0.0999,-0.07989 -0.0999,-0.29957 v -0.698995 l 1.65761,-0.219685 0.39943,-3.135494 q 0,-0.15977 0.11983,-0.239655 0.0998,-0.079886 0.27959,-0.079886 h 0.89871 v 3.4750066 h 2.89584 v 1.298134 h -2.89584 v 6.071275 q 0,0.659053 0.29957,0.958623 0.29957,0.299569 0.81883,0.299569 0.21968,0 0.49928,-0.07988 0.17974,-0.05991 0.35948,-0.15977 0.0599,-0.03994 0.11983,-0.07989 0.0599,-0.03994 0.11983,-0.07989 0.15977,-0.07989 0.19971,-0.07989 0.1398,0 0.23966,0.15977 l 0.51925,0.838795 q -0.53922,0.45934 -1.11839,0.679024 -0.65906,0.239656 -1.33808,0.239656 z" /><path
     id="path158"
     style="font-style:normal;font-variant:normal;font-weight:normal;font-stretch:normal;font-size:19.9713px;font-family:Aleo;-inkscape-font-specification:'Aleo, Normal';font-variant-ligatures:normal;font-variant-caps:normal;font-variant-numeric:normal;font-variant-east-asian:normal;fill:#ffffff;stroke-width:0.499283"
     d="m 121.03858,14.631954 q 1.27816,-1.577733 2.8559,-1.577733 1.0385,0 1.67758,0.579168 0.61911,0.559196 0.91868,1.53779 0.43937,-1.07845 1.31811,-1.597704 0.91868,-0.519254 1.75747,-0.519254 0.87874,0 1.55777,0.259627 0.63908,0.239656 1.07845,0.738938 0.87873,0.998565 0.87873,2.835925 v 4.992825 q 0.99857,0.179742 1.15834,0.239655 0.29957,0.05991 0.29957,0.359484 v 0.878737 h -3.21538 v -6.45073 q 0,-1.218249 -0.51925,-1.797417 -0.5592,-0.61911 -1.51782,-0.61911 -0.91868,0 -1.51782,0.599139 -0.65906,0.659053 -0.65906,1.797417 v 4.992825 q 0.0799,0.01997 0.33952,0.07989 0.25962,0.05991 0.79885,0.15977 0.29957,0.05991 0.29957,0.359484 v 0.858766 h -3.21538 v -6.45073 q 0,-2.396556 -1.91725,-2.396556 -1.23822,0 -2.25675,1.318106 v 6.071275 l 0.53922,0.09986 0.59914,0.119828 q 0.29957,0.05991 0.29957,0.379455 v 0.838794 h -4.65331 v -0.838794 q 0,-0.319541 0.2796,-0.379455 l 1.15833,-0.219684 v -7.20964 q -0.99856,-0.179741 -1.15833,-0.239655 -0.2796,-0.05991 -0.2796,-0.379455 v -0.838794 h 2.47644 q 0.35948,0 0.47931,0.359483 l 0.1398,1.038508 z" /><path
     id="path160"
     style="font-style:normal;font-variant:normal;font-weight:normal;font-stretch:normal;font-size:19.9713px;font-family:Aleo;-inkscape-font-specification:'Aleo, Normal';font-variant-ligatures:normal;font-variant-caps:normal;font-variant-numeric:normal;font-variant-east-asian:normal;fill:#ffffff;stroke-width:0.499283"
     d="m 140.18357,13.054221 q 0.87874,0 1.65762,0.29957 0.79885,0.299569 1.3181,0.858766 0.59914,0.639081 0.87874,1.417962 0.31954,0.898708 0.31954,1.917245 0,0.45934 -0.0799,0.559196 -0.0999,0.139799 -0.35949,0.139799 h -6.71035 q 0,0.958623 0.23965,1.677589 0.19971,0.619111 0.67903,1.158336 0.43936,0.499282 0.99856,0.718967 0.59914,0.239655 1.27816,0.239655 0.71897,0 1.15834,-0.139799 0.4194,-0.139799 0.83879,-0.339512 0.43937,-0.219684 0.59914,-0.319541 0.25963,-0.15977 0.39943,-0.15977 0.21968,0 0.33951,0.179742 l 0.49928,0.659052 q -0.27959,0.359484 -0.79885,0.679025 -0.59914,0.379454 -0.97859,0.499282 -0.59914,0.199713 -1.07845,0.279598 -0.59914,0.09986 -1.09842,0.09986 -1.03851,0 -1.93722,-0.359484 -0.85877,-0.339512 -1.53779,-1.058478 -0.63908,-0.659053 -0.99857,-1.697561 -0.35948,-1.018536 -0.35948,-2.316671 0,-1.038507 0.33951,-1.957187 0.33952,-0.938651 0.93865,-1.597704 0.61911,-0.679024 1.49785,-1.058479 0.87874,-0.379455 1.95719,-0.379455 z m 0.0399,1.298135 q -1.29813,0 -2.0171,0.738938 -0.73894,0.778881 -0.91868,2.077015 h 5.49211 q 0,-0.61911 -0.17974,-1.118393 -0.21969,-0.61911 -0.47931,-0.898708 -0.33952,-0.359484 -0.81883,-0.579168 -0.45934,-0.199713 -1.09842,-0.199713 z" /><path
     id="path163"
     style="font-style:normal;font-variant:normal;font-weight:normal;font-stretch:normal;font-size:19.9713px;font-family:Aleo;-inkscape-font-specification:'Aleo, Normal';font-variant-ligatures:normal;font-variant-caps:normal;font-variant-numeric:normal;font-variant-east-asian:normal;fill:#ffffff;stroke-width:0.499283"
     d="m 148.67511,14.651925 q 1.49785,-1.617675 3.35518,-1.617675 1.63765,0 2.51638,1.058479 0.85877,1.038507 0.85877,2.776011 v 4.972853 q 0.95862,0.179742 1.13836,0.239656 0.31955,0.05991 0.31955,0.379455 v 0.858765 H 153.628 v -6.430758 q 0,-2.436499 -2.11696,-2.436499 -1.49785,0 -2.75604,1.417963 v 5.99139 q 0.0799,0 1.15833,0.239655 0.29957,0.05991 0.29957,0.379455 v 0.838794 h -4.65331 v -0.838794 q 0,-0.319541 0.2796,-0.379455 l 1.15833,-0.219684 v -7.20964 q -0.99856,-0.179741 -1.15833,-0.239655 -0.2796,-0.05991 -0.2796,-0.379455 v -0.838794 h 2.47644 q 0.35948,0 0.47931,0.359483 l 0.15977,1.098421 z" /><path
     id="path165"
     style="font-style:normal;font-variant:normal;font-weight:normal;font-stretch:normal;font-size:19.9713px;font-family:Aleo;-inkscape-font-specification:'Aleo, Normal';font-variant-ligatures:normal;font-variant-caps:normal;font-variant-numeric:normal;font-variant-east-asian:normal;fill:#ffffff;stroke-width:0.499283"
     d="m 161.6964,23.47924 q -1.15833,0 -1.83736,-0.679024 -0.63908,-0.639082 -0.63908,-1.917245 v -6.191103 h -1.21825 q -0.17974,0 -0.2796,-0.07988 -0.0998,-0.07989 -0.0998,-0.29957 v -0.698995 l 1.65761,-0.219685 0.39943,-3.135494 q 0,-0.15977 0.11983,-0.239655 0.0999,-0.079886 0.2796,-0.079886 h 0.8987 v 3.4750066 h 2.89584 v 1.298134 h -2.89584 v 6.071275 q 0,0.659053 0.29957,0.958623 0.29957,0.299569 0.81883,0.299569 0.21968,0 0.49928,-0.07988 0.17974,-0.05991 0.35948,-0.15977 0.0599,-0.03994 0.11983,-0.07989 0.0599,-0.03994 0.11983,-0.07989 0.15977,-0.07989 0.19971,-0.07989 0.1398,0 0.23966,0.15977 l 0.51925,0.838795 q -0.53922,0.45934 -1.11839,0.679024 -0.65905,0.239656 -1.33808,0.239656 z" /><path
     id="path167"
     style="font-style:normal;font-variant:normal;font-weight:normal;font-stretch:normal;font-size:19.9713px;font-family:Aleo;-inkscape-font-specification:'Aleo, Normal';font-variant-ligatures:normal;font-variant-caps:normal;font-variant-numeric:normal;font-variant-east-asian:normal;fill:#ffffff;stroke-width:0.499283"
     d="m 174.18097,13.054221 q 1.09842,0 1.99713,0.359484 0.87873,0.359483 1.53779,1.038507 0.61911,0.639082 0.95862,1.637647 0.33951,0.978594 0.33951,2.1569 0,1.178307 -0.33951,2.156901 -0.33951,0.998565 -0.95862,1.637646 -0.65906,0.679024 -1.53779,1.038508 -0.89871,0.359483 -1.99713,0.359483 -1.09843,0 -1.99713,-0.359483 -0.87874,-0.359484 -1.53779,-1.038508 -0.59914,-0.61911 -0.9786,-1.637646 -0.31954,-0.858766 -0.31954,-2.156901 0,-1.298134 0.31954,-2.1569 0.37946,-1.018536 0.9786,-1.637647 0.65905,-0.679024 1.53779,-1.038507 0.8987,-0.359484 1.99713,-0.359484 z m 0,9.027028 q 1.53779,0 2.23678,-0.998565 0.73894,-1.038508 0.73894,-2.815953 0,-1.777446 -0.73894,-2.815954 -0.69899,-0.998565 -2.23678,-0.998565 -0.77888,0 -1.31811,0.239656 -0.51925,0.239655 -0.91868,0.758909 -0.37945,0.519254 -0.5592,1.198278 -0.19971,0.798852 -0.19971,1.637647 0,0.798852 0.19971,1.597704 0.17975,0.679024 0.5592,1.198278 0.33951,0.45934 0.91868,0.718967 0.63908,0.279598 1.31811,0.279598 z" /><path
     id="path169"
     style="font-style:normal;font-variant:normal;font-weight:normal;font-stretch:normal;font-size:19.9713px;font-family:Aleo;-inkscape-font-specification:'Aleo, Normal';font-variant-ligatures:normal;font-variant-caps:normal;font-variant-numeric:normal;font-variant-east-asian:normal;fill:#ffffff;stroke-width:0.499283"
     d="m 185.39173,10.178354 q -2.03707,0 -2.03707,2.296699 v 0.938652 h 2.91581 v 1.278163 h -2.87587 v 7.169697 q 0.95862,0.139799 1.33808,0.219684 0.29956,0.05991 0.29956,0.379455 v 0.858765 h -4.95288 v -0.858765 q 0,-0.319541 0.29957,-0.379455 l 1.23822,-0.219684 V 14.73181 l -1.11839,-0.139799 q -0.47931,-0.119828 -0.47931,-0.45934 v -0.718966 h 1.5977 v -0.978594 q 0,-1.757475 0.93865,-2.6961256 0.91868,-0.9386511 2.53636,-0.9386511 0.59914,0 1.25819,0.199713 l -0.0399,0.8987085 q 0,0.1797412 -0.17974,0.2396552 -0.11983,0.03994 -0.45934,0.03994 z" /><path
     id="path171"
     style="font-style:normal;font-variant:normal;font-weight:normal;font-stretch:normal;font-size:19.9713px;font-family:Aleo;-inkscape-font-specification:'Aleo, Normal';font-variant-ligatures:normal;font-variant-caps:normal;font-variant-numeric:normal;font-variant-east-asian:normal;fill:#ffffff;stroke-width:0.499283"
     d="m 66.686063,38.042998 h -0.978594 q -0.319541,0 -0.379455,-0.199713 -0.09986,-0.339512 -0.199713,-1.318105 h -3.355178 v 11.22387 l 0.239655,0.03994 q 0.91868,0.179742 0.998565,0.199713 0.199713,0.05991 0.199713,0.359483 v 0.838795 h -4.833054 v -0.838795 q 0,-0.15977 0.07988,-0.259627 0.09986,-0.119827 0.259627,-0.139799 l 1.098421,-0.219684 V 36.505208 h -3.375149 q -0.119828,1.118393 -0.179742,1.338077 -0.05991,0.199713 -0.399426,0.199713 h -0.958623 v -3.155465 h 11.783068 z" /><path
     id="path173"
     style="font-style:normal;font-variant:normal;font-weight:normal;font-stretch:normal;font-size:19.9713px;font-family:Aleo;-inkscape-font-specification:'Aleo, Normal';font-variant-ligatures:normal;font-variant-caps:normal;font-variant-numeric:normal;font-variant-east-asian:normal;fill:#ffffff;stroke-width:0.499283"
     d="m 70.938077,40.439554 q 1.457905,-1.517818 3.235351,-1.517818 1.617675,0 2.516384,1.038507 0.878737,1.038508 0.878737,2.795982 v 4.972854 q 0.958622,0.179742 1.138364,0.239656 0.29957,0.05991 0.29957,0.379454 v 0.838795 h -3.21538 v -6.430759 q 0,-2.416527 -2.136929,-2.416527 -1.457905,0 -2.716097,1.417962 v 5.99139 l 0.239656,0.03994 0.878737,0.179742 q 0.319541,0.05991 0.319541,0.379454 v 0.838795 h -4.673284 v -0.838795 q 0,-0.319541 0.319541,-0.379454 L 69.14066,47.74905 V 35.946012 q -1.138364,-0.179742 -1.318105,-0.239656 -0.319541,-0.05991 -0.319541,-0.379454 v -0.838795 h 3.435063 z" /><path
     id="path175"
     style="font-style:normal;font-variant:normal;font-weight:normal;font-stretch:normal;font-size:19.9713px;font-family:Aleo;-inkscape-font-specification:'Aleo, Normal';font-variant-ligatures:normal;font-variant-caps:normal;font-variant-numeric:normal;font-variant-east-asian:normal;fill:#ffffff;stroke-width:0.499283"
     d="m 84.638388,38.921736 q 0.878737,0 1.657618,0.299569 0.798852,0.29957 1.318106,0.858766 0.599139,0.639082 0.878737,1.417962 0.319541,0.898709 0.319541,1.917245 0,0.45934 -0.07988,0.559197 -0.09986,0.139799 -0.359484,0.139799 h -6.710357 q 0,0.958622 0.239656,1.677589 0.199713,0.61911 0.679024,1.158335 0.439369,0.499283 0.998565,0.718967 0.599139,0.239656 1.278163,0.239656 0.718967,0 1.158336,-0.139799 0.419397,-0.1398 0.838794,-0.339513 0.439369,-0.219684 0.599139,-0.31954 0.259627,-0.159771 0.399426,-0.159771 0.219685,0 0.339513,0.179742 l 0.499282,0.659053 q -0.279598,0.359483 -0.798852,0.679024 -0.599139,0.379455 -0.978594,0.499283 -0.599139,0.199713 -1.07845,0.279598 -0.599139,0.09986 -1.098421,0.09986 -1.038508,0 -1.937216,-0.359483 -0.858766,-0.339512 -1.537791,-1.058479 -0.639081,-0.659053 -0.998565,-1.697561 -0.359483,-1.018536 -0.359483,-2.31667 0,-1.038508 0.339512,-1.957188 0.339512,-0.938651 0.938651,-1.597704 0.619111,-0.679024 1.497848,-1.058479 0.878737,-0.379454 1.957187,-0.379454 z m 0.03994,1.298134 q -1.298135,0 -2.017102,0.738938 -0.738938,0.778881 -0.918679,2.077015 h 5.492107 q 0,-0.61911 -0.179742,-1.118392 -0.219684,-0.619111 -0.479311,-0.898709 -0.339512,-0.359483 -0.818823,-0.579168 -0.45934,-0.199713 -1.098422,-0.199713 z" /><path
     id="path177"
     style="font-style:normal;font-variant:normal;font-weight:normal;font-stretch:normal;font-size:19.9713px;font-family:Aleo;-inkscape-font-specification:'Aleo, Normal';font-variant-ligatures:normal;font-variant-caps:normal;font-variant-numeric:normal;font-variant-east-asian:normal;fill:#ffffff;stroke-width:0.499283"
     d="m 95.114895,38.921736 q 1.098422,0 1.99713,0.359483 0.878738,0.359483 1.53779,1.038508 0.619111,0.639081 0.958623,1.637646 0.339512,0.978594 0.339512,2.156901 0,1.178306 -0.339512,2.1569 -0.339512,0.998565 -0.958623,1.637647 -0.659052,0.679024 -1.53779,1.038507 -0.898708,0.359484 -1.99713,0.359484 -1.098421,0 -1.99713,-0.359484 -0.878737,-0.359483 -1.53779,-1.038507 -0.599139,-0.619111 -0.978594,-1.637647 -0.31954,-0.858766 -0.31954,-2.1569 0,-1.298135 0.31954,-2.156901 0.379455,-1.018536 0.978594,-1.637646 0.659053,-0.679025 1.53779,-1.038508 0.898709,-0.359483 1.99713,-0.359483 z m 0,9.027027 q 1.53779,0 2.236786,-0.998565 0.738938,-1.038507 0.738938,-2.815953 0,-1.777446 -0.738938,-2.815953 -0.698996,-0.998565 -2.236786,-0.998565 -0.77888,0 -1.318105,0.239655 -0.519254,0.239656 -0.91868,0.75891 -0.379455,0.519253 -0.559197,1.198278 -0.199713,0.798852 -0.199713,1.637646 0,0.798852 0.199713,1.597704 0.179742,0.679024 0.559197,1.198278 0.339512,0.45934 0.91868,0.718967 0.639081,0.279598 1.318105,0.279598 z" /><path
     id="path179"
     style="font-style:normal;font-variant:normal;font-weight:normal;font-stretch:normal;font-size:19.9713px;font-family:Aleo;-inkscape-font-specification:'Aleo, Normal';font-variant-ligatures:normal;font-variant-caps:normal;font-variant-numeric:normal;font-variant-east-asian:normal;fill:#ffffff;stroke-width:0.499283"
     d="m 104.18873,41.13855 q 1.1184,-2.256757 3.07558,-2.256757 0.77888,0 1.37802,0.359483 l -0.21968,1.338078 q -0.0599,0.259626 -0.25963,0.259626 -0.1398,0 -0.47931,-0.09986 -0.33951,-0.09986 -0.81882,-0.09986 -1.75748,0 -2.59627,2.116958 v 4.992825 l 1.13836,0.219685 q 0.29957,0.05991 0.29957,0.379454 v 0.838795 h -4.65331 v -0.838795 q 0,-0.319541 0.29957,-0.379454 l 1.13836,-0.219685 v -7.209639 q -0.95862,-0.179742 -1.13836,-0.239656 -0.29957,-0.05991 -0.29957,-0.379454 v -0.838795 h 2.45647 q 0.2796,0 0.37945,0.09986 0.0999,0.09986 0.15977,0.379454 l 0.11983,1.577733 z" /><path
     id="path181"
     style="font-style:normal;font-variant:normal;font-weight:normal;font-stretch:normal;font-size:19.9713px;font-family:Aleo;-inkscape-font-specification:'Aleo, Normal';font-variant-ligatures:normal;font-variant-caps:normal;font-variant-numeric:normal;font-variant-east-asian:normal;fill:#ffffff;stroke-width:0.499283"
     d="m 113.77621,38.921736 q 0.87873,0 1.65761,0.299569 0.79886,0.29957 1.31811,0.858766 0.59914,0.639082 0.87874,1.417962 0.31954,0.898709 0.31954,1.917245 0,0.45934 -0.0799,0.559197 -0.0999,0.139799 -0.35948,0.139799 h -6.71036 q 0,0.958622 0.23966,1.677589 0.19971,0.61911 0.67902,1.158335 0.43937,0.499283 0.99857,0.718967 0.59914,0.239656 1.27816,0.239656 0.71897,0 1.15834,-0.139799 0.41939,-0.1398 0.83879,-0.339513 0.43937,-0.219684 0.59914,-0.31954 0.25963,-0.159771 0.39942,-0.159771 0.21969,0 0.33952,0.179742 l 0.49928,0.659053 q -0.2796,0.359483 -0.79885,0.679024 -0.59914,0.379455 -0.9786,0.499283 -0.59914,0.199713 -1.07845,0.279598 -0.59914,0.09986 -1.09842,0.09986 -1.03851,0 -1.93721,-0.359483 -0.85877,-0.339512 -1.53779,-1.058479 -0.63909,-0.659053 -0.99857,-1.697561 -0.35948,-1.018536 -0.35948,-2.31667 0,-1.038508 0.33951,-1.957188 0.33951,-0.938651 0.93865,-1.597704 0.61911,-0.679024 1.49785,-1.058479 0.87874,-0.379454 1.95719,-0.379454 z m 0.0399,1.298134 q -1.29814,0 -2.0171,0.738938 -0.73894,0.778881 -0.91868,2.077015 h 5.4921 q 0,-0.61911 -0.17974,-1.118392 -0.21968,-0.619111 -0.47931,-0.898709 -0.33951,-0.359483 -0.81882,-0.579168 -0.45934,-0.199713 -1.09842,-0.199713 z" /><path
     id="path183"
     style="font-style:normal;font-variant:normal;font-weight:normal;font-stretch:normal;font-size:19.9713px;font-family:Aleo;-inkscape-font-specification:'Aleo, Normal';font-variant-ligatures:normal;font-variant-caps:normal;font-variant-numeric:normal;font-variant-east-asian:normal;fill:#ffffff;stroke-width:0.499283"
     d="m 122.80697,49.346754 q -1.15833,0 -1.83736,-0.679024 -0.63908,-0.639082 -0.63908,-1.917245 v -6.191103 h -1.21825 q -0.17974,0 -0.27959,-0.07988 -0.0999,-0.07989 -0.0999,-0.299569 v -0.698996 l 1.65762,-0.219684 0.39942,-3.135494 q 0,-0.159771 0.11983,-0.239656 0.0999,-0.07988 0.2796,-0.07988 h 0.89871 v 3.475006 h 2.89584 v 1.298135 h -2.89584 v 6.071275 q 0,0.659053 0.29957,0.958622 0.29957,0.29957 0.81882,0.29957 0.21968,0 0.49928,-0.07989 0.17974,-0.05991 0.35949,-0.15977 0.0599,-0.03994 0.11982,-0.07988 0.0599,-0.03994 0.11983,-0.07989 0.15977,-0.07989 0.19971,-0.07989 0.1398,0 0.23966,0.159771 l 0.51925,0.838794 q -0.53922,0.45934 -1.11839,0.679025 -0.65905,0.239655 -1.33808,0.239655 z" /><path
     id="path185"
     style="font-style:normal;font-variant:normal;font-weight:normal;font-stretch:normal;font-size:19.9713px;font-family:Aleo;-inkscape-font-specification:'Aleo, Normal';font-variant-ligatures:normal;font-variant-caps:normal;font-variant-numeric:normal;font-variant-east-asian:normal;fill:#ffffff;stroke-width:0.499283"
     d="m 127.80542,36.784807 q -0.15977,-0.159771 -0.2796,-0.399426 -0.0998,-0.199713 -0.0998,-0.479312 0,-0.299569 0.0998,-0.499282 0.1398,-0.279598 0.2796,-0.419398 0.15977,-0.15977 0.39943,-0.279598 0.19971,-0.09986 0.47931,-0.09986 0.2796,0 0.47931,0.09986 0.23965,0.119828 0.39942,0.279598 0.1398,0.1398 0.2796,0.419398 0.11983,0.239655 0.11983,0.499282 0,0.239656 -0.11983,0.479312 -0.11982,0.239655 -0.2796,0.399426 -0.15977,0.15977 -0.39942,0.279598 -0.19971,0.09986 -0.47931,0.09986 -0.2796,0 -0.47931,-0.09986 -0.23966,-0.119828 -0.39943,-0.279598 z m 2.89584,11.163956 q 0.1398,0.01997 0.21968,0.139799 0.0799,0.09986 0.0799,0.239656 v 0.858766 h -4.65331 v -0.858766 q 0,-0.139799 0.0799,-0.239656 0.0799,-0.119827 0.21968,-0.139799 l 1.15834,-0.219684 V 40.51944 l -1.15834,-0.219685 q -0.13979,-0.01997 -0.21968,-0.119827 -0.0799,-0.119828 -0.0799,-0.259627 v -0.838795 h 3.21537 v 8.647573 z" /><path
     id="path187"
     style="font-style:normal;font-variant:normal;font-weight:normal;font-stretch:normal;font-size:19.9713px;font-family:Aleo;-inkscape-font-specification:'Aleo, Normal';font-variant-ligatures:normal;font-variant-caps:normal;font-variant-numeric:normal;font-variant-east-asian:normal;fill:#ffffff;stroke-width:0.499283"
     d="m 140.12896,47.769022 q -1.2582,1.557761 -3.75461,1.557761 -1.91724,0 -3.15546,-1.37802 -1.29814,-1.457905 -1.29814,-3.834489 0,-2.316671 1.21825,-3.734633 1.27816,-1.457905 3.55489,-1.457905 1.13837,0 2.9957,0.718966 v 2.636212 h -0.79885 q -0.2796,0 -0.33952,-0.279598 -0.02,-0.05991 -0.0799,-0.75891 l -0.0599,-0.659052 q -0.21968,-0.07989 -0.43936,-0.119828 -0.19972,-0.03994 -0.2796,-0.05991 -0.53923,-0.07988 -1.1184,-0.07988 -0.51925,0 -1.09842,0.259627 -0.53922,0.239655 -0.93865,0.738938 -0.75891,0.998565 -0.75891,2.795982 0,1.797417 0.79885,2.835924 0.77889,0.998565 2.13693,0.998565 1.2582,0 2.21682,-0.838794 0.15977,-0.159771 0.39942,-0.159771 0.21969,0 0.31954,0.159771 z" /><path
     id="path189"
     style="font-style:normal;font-variant:normal;font-weight:normal;font-stretch:normal;font-size:19.9713px;font-family:Aleo;-inkscape-font-specification:'Aleo, Normal';font-variant-ligatures:normal;font-variant-caps:normal;font-variant-numeric:normal;font-variant-east-asian:normal;fill:#ffffff;stroke-width:0.499283"
     d="m 149.97731,47.908821 q 0.1398,0.01997 0.21968,0.139799 0.0799,0.09986 0.0799,0.239655 v 0.858766 h -2.07702 q -0.17974,0 -0.4194,-0.07989 -0.13979,-0.03994 -0.19971,-0.319541 l -0.19971,-0.958622 -0.79885,0.659053 q -0.33952,0.279598 -0.79886,0.479311 -0.43936,0.199713 -0.87873,0.299569 -0.39943,0.09986 -1.07845,0.09986 -0.5592,0 -1.07845,-0.179742 -0.61911,-0.219684 -0.89871,-0.479311 -0.35949,-0.319541 -0.59914,-0.838795 -0.21969,-0.459339 -0.21969,-1.198278 0,-0.639081 0.31955,-1.158335 0.35948,-0.579168 1.07845,-0.998565 0.79885,-0.45934 1.91724,-0.718967 1.15834,-0.259627 2.91581,-0.259627 v -0.77888 q 0,-1.178307 -0.51925,-1.797417 -0.51926,-0.619111 -1.49785,-0.619111 -0.63908,0 -1.09842,0.179742 -0.51926,0.199713 -0.75891,0.359483 -0.11983,0.07989 -0.2796,0.179742 -0.1398,0.07989 -0.29957,0.179742 -0.21968,0.15977 -0.45934,0.15977 -0.21968,0 -0.31954,-0.07989 -0.11983,-0.09986 -0.19971,-0.239656 l -0.31954,-0.559196 q 0.77888,-0.758909 1.79741,-1.198278 0.91868,-0.399426 2.1569,-0.399426 0.89871,0 1.51782,0.279598 0.67903,0.29957 1.09842,0.75891 0.43937,0.45934 0.67903,1.198278 0.21968,0.659053 0.21968,1.557761 v 5.052739 q 0.95862,0.199713 0.99857,0.219684 z m -2.75604,-3.275294 q -1.29814,0 -2.07702,0.1398 -0.75891,0.139799 -1.39799,0.419397 -0.55919,0.259627 -0.79885,0.599139 -0.23966,0.359483 -0.23966,0.758909 0,0.319541 0.1398,0.679024 0.11983,0.29957 0.35949,0.479312 0.23965,0.179741 0.51925,0.259627 0.33951,0.09986 0.65905,0.09986 0.39943,0 0.8388,-0.09986 0.39942,-0.09986 0.73894,-0.259627 0.29957,-0.139799 0.65905,-0.439369 0.19971,-0.15977 0.59914,-0.559196 z" /><path
     id="path191"
     style="font-style:normal;font-variant:normal;font-weight:normal;font-stretch:normal;font-size:19.9713px;font-family:Aleo;-inkscape-font-specification:'Aleo, Normal';font-variant-ligatures:normal;font-variant-caps:normal;font-variant-numeric:normal;font-variant-east-asian:normal;fill:#ffffff;stroke-width:0.499283"
     d="m 155.80238,47.948763 q 0.31954,0.05991 0.31954,0.379455 v 0.858766 h -4.67329 v -0.858766 q 0,-0.319541 0.31954,-0.379455 l 1.1184,-0.219684 V 35.926041 q -0.91868,-0.179742 -1.1184,-0.239656 -0.31954,-0.05991 -0.31954,-0.359483 v -0.858766 h 3.23535 v 13.240972 q 0.91868,0.179741 1.1184,0.239655 z" /><path
     id="path193"
     style="font-style:normal;font-variant:normal;font-weight:normal;font-stretch:normal;font-size:19.9713px;font-family:Aleo;-inkscape-font-specification:'Aleo, Normal';font-variant-ligatures:normal;font-variant-caps:normal;font-variant-numeric:normal;font-variant-east-asian:normal;fill:#ffffff;stroke-width:0.499283"
     d="m 169.3011,35.167131 q 2.95575,0.958623 2.95575,4.154031 0,2.057044 -1.35805,3.23535 -1.4579,1.278163 -3.95431,1.278163 h -2.03708 v 3.894404 q 0.15977,0.05991 1.15834,0.239656 0.2796,0.05991 0.2796,0.379454 v 0.838795 h -4.79311 v -0.838795 q 0,-0.319541 0.29956,-0.379454 l 1.13837,-0.219685 V 36.345438 q -0.95862,-0.179742 -1.13837,-0.239656 -0.29956,-0.05991 -0.29956,-0.379454 v -0.838795 h 5.39225 q 1.33807,0 2.35661,0.299569 z m 1.01854,4.114088 q 0,-1.338077 -0.8388,-2.116958 -0.81882,-0.758909 -2.53635,-0.758909 h -2.03708 v 5.871562 h 2.03708 q 1.61767,0 2.49641,-0.798852 0.89871,-0.818823 0.89871,-2.176872 z" /><path
     id="path195"
     style="font-style:normal;font-variant:normal;font-weight:normal;font-stretch:normal;font-size:19.9713px;font-family:Aleo;-inkscape-font-specification:'Aleo, Normal';font-variant-ligatures:normal;font-variant-caps:normal;font-variant-numeric:normal;font-variant-east-asian:normal;fill:#ffffff;stroke-width:0.499283"
     d="m 176.60654,40.439554 q 1.45791,-1.517818 3.23535,-1.517818 1.61768,0 2.51638,1.038507 0.87874,1.038508 0.87874,2.795982 v 4.972854 q 0.95862,0.179742 1.13837,0.239656 0.29957,0.05991 0.29957,0.379454 v 0.838795 h -3.21538 v -6.430759 q 0,-2.416527 -2.13693,-2.416527 -1.45791,0 -2.7161,1.417962 v 5.99139 l 0.23966,0.03994 0.87873,0.179742 q 0.31954,0.05991 0.31954,0.379454 v 0.838795 h -4.67328 v -0.838795 q 0,-0.319541 0.31954,-0.379454 l 1.11839,-0.219685 V 35.946012 q -1.13836,-0.179742 -1.3181,-0.239656 -0.31954,-0.05991 -0.31954,-0.379454 v -0.838795 h 3.43506 z" /><path
     id="path197"
     style="font-style:normal;font-variant:normal;font-weight:normal;font-stretch:normal;font-size:19.9713px;font-family:Aleo;-inkscape-font-specification:'Aleo, Normal';font-variant-ligatures:normal;font-variant-caps:normal;font-variant-numeric:normal;font-variant-east-asian:normal;fill:#ffffff;stroke-width:0.499283"
     d="m 196.36564,39.920301 q 0,0.299569 -0.29957,0.359483 -0.0799,0 -0.23966,0.03994 -0.13979,0.03994 -0.29956,0.07988 l -0.49929,0.09986 -5.01279,11.66324 q -0.0799,0.199713 -0.25963,0.31954 -0.15977,0.119828 -0.37945,0.119828 h -1.31811 l 1.83736,-4.014231 -3.55489,-8.108348 q -0.59914,-0.09986 -0.89871,-0.199713 -0.29957,-0.05991 -0.29957,-0.359483 v -0.858766 h 4.53348 v 0.858766 q 0,0.299569 -0.29956,0.359483 -0.19972,0.05991 -1.1184,0.239656 l 2.25676,5.272423 q 0.0999,0.219684 0.15977,0.519254 0.0799,0.299569 0.0999,0.399426 0.1398,-0.479312 0.31954,-0.91868 l 2.17687,-5.272423 q 0,0 -1.09842,-0.219685 -0.2796,-0.05991 -0.2796,-0.379454 v -0.838795 h 3.7546 l 0.71897,-0.01997 z" /><path
     id="path199"
     style="font-style:normal;font-variant:normal;font-weight:normal;font-stretch:normal;font-size:19.9713px;font-family:Aleo;-inkscape-font-specification:'Aleo, Normal';font-variant-ligatures:normal;font-variant-caps:normal;font-variant-numeric:normal;font-variant-east-asian:normal;fill:#ffffff;stroke-width:0.499283"
     d="m 201.17748,38.921736 q 1.0385,0 2.63621,0.539225 v 2.596269 h -0.77888 q -0.2796,0 -0.33951,-0.279598 l -0.11983,-1.318106 q -0.93865,-0.219685 -1.55776,-0.219685 h -0.02 q -0.81882,0 -1.37802,0.439369 -0.53922,0.419397 -0.53922,0.91868 0,0.519254 0.23966,0.758909 0.39942,0.45934 1.15833,0.698996 l 0.59914,0.179741 q 0.15977,0.03994 0.63908,0.199713 l 0.95862,0.359484 q 0.39943,0.139799 0.8388,0.519254 0.81882,0.639081 0.81882,1.757474 0,1.457905 -0.97859,2.316671 -1.05848,0.938651 -2.67616,0.938651 -1.65761,0 -3.27529,-0.539225 v -2.636212 h 0.71897 q 0.23965,0 0.29957,0.239656 l 0.11982,1.278163 q 0.79886,0.399426 2.05705,0.399426 0.95862,0 1.55776,-0.499282 0.51925,-0.45934 0.51925,-1.018537 0,-0.579167 -0.23965,-0.838794 -0.2796,-0.319541 -0.59914,-0.479312 -0.43937,-0.219684 -0.8388,-0.31954 -1.47787,-0.479312 -1.85733,-0.639082 -0.47931,-0.219684 -0.8987,-0.559196 -0.8388,-0.698996 -0.8388,-1.877303 0,-1.198278 0.95862,-2.037072 0.99857,-0.878737 2.81596,-0.878737 z" /><path
     id="path201"
     style="font-style:normal;font-variant:normal;font-weight:normal;font-stretch:normal;font-size:19.9713px;font-family:Aleo;-inkscape-font-specification:'Aleo, Normal';font-variant-ligatures:normal;font-variant-caps:normal;font-variant-numeric:normal;font-variant-east-asian:normal;fill:#ffffff;stroke-width:0.499283"
     d="m 206.83248,36.784807 q -0.15977,-0.159771 -0.2796,-0.399426 -0.0998,-0.199713 -0.0998,-0.479312 0,-0.299569 0.0998,-0.499282 0.1398,-0.279598 0.2796,-0.419398 0.15977,-0.15977 0.39943,-0.279598 0.19971,-0.09986 0.47931,-0.09986 0.2796,0 0.47931,0.09986 0.23966,0.119828 0.39943,0.279598 0.1398,0.1398 0.27959,0.419398 0.11983,0.239655 0.11983,0.499282 0,0.239656 -0.11983,0.479312 -0.11982,0.239655 -0.27959,0.399426 -0.15977,0.15977 -0.39943,0.279598 -0.19971,0.09986 -0.47931,0.09986 -0.2796,0 -0.47931,-0.09986 -0.23966,-0.119828 -0.39943,-0.279598 z m 2.89584,11.163956 q 0.1398,0.01997 0.21968,0.139799 0.0799,0.09986 0.0799,0.239656 v 0.858766 h -4.65331 v -0.858766 q 0,-0.139799 0.0799,-0.239656 0.0799,-0.119827 0.21969,-0.139799 l 1.15833,-0.219684 V 40.51944 l -1.15833,-0.219685 q -0.1398,-0.01997 -0.21969,-0.119827 -0.0799,-0.119828 -0.0799,-0.259627 v -0.838795 h 3.21538 v 8.647573 z" /><path
     id="path203"
     style="font-style:normal;font-variant:normal;font-weight:normal;font-stretch:normal;font-size:19.9713px;font-family:Aleo;-inkscape-font-specification:'Aleo, Normal';font-variant-ligatures:normal;font-variant-caps:normal;font-variant-numeric:normal;font-variant-east-asian:normal;fill:#ffffff;stroke-width:0.499283"
     d="m 219.15602,47.769022 q -1.25819,1.557761 -3.75461,1.557761 -1.91724,0 -3.15546,-1.37802 -1.29814,-1.457905 -1.29814,-3.834489 0,-2.316671 1.21825,-3.734633 1.27817,-1.457905 3.55489,-1.457905 1.13837,0 2.9957,0.718966 v 2.636212 h -0.79885 q -0.2796,0 -0.33952,-0.279598 -0.02,-0.05991 -0.0799,-0.75891 l -0.0599,-0.659052 q -0.21969,-0.07989 -0.43937,-0.119828 -0.19972,-0.03994 -0.2796,-0.05991 -0.53923,-0.07988 -1.11839,-0.07988 -0.51926,0 -1.09843,0.259627 -0.53922,0.239655 -0.93865,0.738938 -0.75891,0.998565 -0.75891,2.795982 0,1.797417 0.79886,2.835924 0.77888,0.998565 2.13693,0.998565 1.25819,0 2.21681,-0.838794 0.15977,-0.159771 0.39943,-0.159771 0.21968,0 0.31954,0.159771 z" /><path
     id="path205"
     style="font-style:normal;font-variant:normal;font-weight:normal;font-stretch:normal;font-size:19.9713px;font-family:Aleo;-inkscape-font-specification:'Aleo, Normal';font-variant-ligatures:normal;font-variant-caps:normal;font-variant-numeric:normal;font-variant-east-asian:normal;fill:#ffffff;stroke-width:0.499283"
     d="m 224.19129,38.921736 q 1.0385,0 2.63621,0.539225 v 2.596269 h -0.77888 q -0.2796,0 -0.33952,-0.279598 l -0.11982,-1.318106 q -0.93865,-0.219685 -1.55776,-0.219685 h -0.02 q -0.81882,0 -1.37802,0.439369 -0.53922,0.419397 -0.53922,0.91868 0,0.519254 0.23965,0.758909 0.39943,0.45934 1.15834,0.698996 l 0.59914,0.179741 q 0.15977,0.03994 0.63908,0.199713 l 0.95862,0.359484 q 0.39943,0.139799 0.8388,0.519254 0.81882,0.639081 0.81882,1.757474 0,1.457905 -0.97859,2.316671 -1.05848,0.938651 -2.67616,0.938651 -1.65761,0 -3.27529,-0.539225 v -2.636212 h 0.71897 q 0.23965,0 0.29957,0.239656 l 0.11982,1.278163 q 0.79886,0.399426 2.05705,0.399426 0.95862,0 1.55776,-0.499282 0.51925,-0.45934 0.51925,-1.018537 0,-0.579167 -0.23965,-0.838794 -0.2796,-0.319541 -0.59914,-0.479312 -0.43937,-0.219684 -0.8388,-0.31954 -1.47787,-0.479312 -1.85733,-0.639082 -0.47931,-0.219684 -0.89871,-0.559196 -0.83879,-0.698996 -0.83879,-1.877303 0,-1.198278 0.95862,-2.037072 0.99857,-0.878737 2.81596,-0.878737 z" /></g></svg>
