<?xml version="1.0" encoding="UTF-8" standalone="no"?>
<svg
   xmlns:dc="http://purl.org/dc/elements/1.1/"
   xmlns:cc="http://creativecommons.org/ns#"
   xmlns:rdf="http://www.w3.org/1999/02/22-rdf-syntax-ns#"
   xmlns:svg="http://www.w3.org/2000/svg"
   xmlns="http://www.w3.org/2000/svg"
   xmlns:sodipodi="http://sodipodi.sourceforge.net/DTD/sodipodi-0.dtd"
   xmlns:inkscape="http://www.inkscape.org/namespaces/inkscape"
   width="131.16193mm"
   height="131.16193mm"
   viewBox="0 0 131.16193 131.16193"
   version="1.1"
   id="svg1646"
   inkscape:version="1.0 (4035a4fb49, 2020-05-01)"
   sodipodi:docname="php-sqr.svg"
   inkscape:export-filename="C:\Users\Bartek\Desktop\personal\bartlomiejnowak94\pics\php-sqr.png"
   inkscape:export-xdpi="96"
   inkscape:export-ydpi="96">
  <defs
     id="defs1640" />
  <sodipodi:namedview
     lock-margins="true"
     id="base"
     pagecolor="#ffffff"
     bordercolor="#666666"
     borderopacity="1.0"
     inkscape:pageopacity="0.0"
     inkscape:pageshadow="2"
     inkscape:zoom="0.7"
     inkscape:cx="407.25062"
     inkscape:cy="278.29934"
     inkscape:document-units="mm"
     inkscape:current-layer="layer1"
     inkscape:document-rotation="0"
     showgrid="false"
     fit-margin-top="6"
     fit-margin-left="6"
     fit-margin-right="6"
     fit-margin-bottom="6"
     inkscape:window-width="1920"
     inkscape:window-height="1017"
     inkscape:window-x="-8"
     inkscape:window-y="-8"
     inkscape:window-maximized="1" />
  <metadata
     id="metadata1643">
    <rdf:RDF>
      <cc:Work
         rdf:about="">
        <dc:format>image/svg+xml</dc:format>
        <dc:type
           rdf:resource="http://purl.org/dc/dcmitype/StillImage" />
        <dc:title></dc:title>
      </cc:Work>
    </rdf:RDF>
  </metadata>
  <g
     inkscape:label="Warstwa 1"
     inkscape:groupmode="layer"
     id="layer1"
     transform="translate(-39.419037,-82.919037)">
    <rect
       style="fill:#777bb3;fill-opacity:1;stroke:none;stroke-width:0.838062;stroke-linejoin:round;stroke-opacity:1"
       id="rect860"
       width="119.16193"
       height="119.16193"
       x="45.419037"
       y="88.919037"
       ry="16.570711" />
    <path
       style="fill:#ffffff;stroke-width:0.162733"
       d="m 63.423347,168.05381 c 0.04484,-0.15663 1.415219,-7.16842 3.045294,-15.58175 1.630071,-8.41332 3.044617,-15.35076 3.143432,-15.41652 0.263614,-0.17543 12.763278,-0.14264 14.623908,0.0383 2.975786,0.28947 4.986621,1.04177 6.512758,2.43657 1.637166,1.49629 2.388645,3.53122 2.392875,6.47979 0.0079,5.62349 -2.960876,10.39494 -7.870342,12.64856 -2.090191,0.95947 -5.20545,1.36276 -10.618284,1.37461 -1.899276,0.005 -2.669049,0.0619 -2.78573,0.20916 -0.08868,0.11192 -0.433507,1.6314 -0.766283,3.37673 -0.33278,1.74531 -0.678022,3.52115 -0.767213,3.94629 l -0.162162,0.77298 h -3.414886 c -3.174844,0 -3.40916,-0.02 -3.333367,-0.28479 z m 15.973531,-13.22092 c 0.718148,-0.0776 1.724821,-0.29774 2.237046,-0.48938 1.261799,-0.4721 2.575703,-1.69442 3.206134,-2.98264 0.702905,-1.43632 1.182308,-3.90104 1.115834,-5.73672 -0.04842,-1.33653 -0.09843,-1.53659 -0.52407,-2.09419 -0.258798,-0.33907 -0.778391,-0.75267 -1.154641,-0.91911 -0.891356,-0.39428 -3.113991,-0.63219 -6.342654,-0.6789 l -2.59763,-0.0375 -1.258324,6.42798 c -0.692077,3.53538 -1.262358,6.52888 -1.267291,6.65222 -0.0075,0.18607 0.440975,0.20509 2.635449,0.11169 1.454431,-0.0619 3.231998,-0.1759 3.950147,-0.25342 z m 37.505872,13.30559 c -8.6e-4,-0.41606 5.86987,-30.48663 6.02114,-30.84133 l 0.15615,-0.36616 6.55353,0.005 c 3.60443,0.002 7.2492,0.0734 8.09949,0.15778 2.98294,0.29634 4.96844,1.0666 6.48971,2.51766 1.74281,1.66235 2.37079,3.34912 2.36486,6.35209 -0.008,4.17809 -1.49925,7.62757 -4.50849,10.43046 -1.46976,1.36898 -2.88084,2.22321 -4.54369,2.75064 -1.95454,0.61993 -2.97817,0.73131 -7.75081,0.84331 -3.85254,0.0904 -4.46318,0.13911 -4.55041,0.36302 -0.0555,0.14222 -0.4347,1.9795 -0.84287,4.08284 l -0.74212,3.82424 -3.37305,0.044 c -2.6416,0.0345 -3.37313,-8.6e-4 -3.37344,-0.16273 z m 16.02967,-13.31849 c 2.46517,-0.25869 4.0886,-1.23769 5.20154,-3.13681 0.66016,-1.12648 1.2417,-3.65681 1.27731,-5.55773 0.0274,-1.46634 -0.0102,-1.69876 -0.37635,-2.34928 -0.75928,-1.34736 -2.06413,-1.67778 -7.50289,-1.89984 l -2.70225,-0.11034 -0.0934,0.38966 c -0.0514,0.2143 -0.61426,3.09917 -1.25077,6.41079 -0.63653,3.31163 -1.19893,6.15903 -1.24978,6.32756 -0.0889,0.29448 0.0113,0.30199 2.56979,0.19304 1.46423,-0.0624 3.32132,-0.18254 4.12686,-0.26707 z m -24.12198,4.52757 c 0.0475,-0.38039 0.64931,-3.62083 1.33741,-7.20096 0.68811,-3.58015 1.28967,-6.87603 1.33679,-7.32421 0.12797,-1.21711 -0.23876,-1.96231 -1.16799,-2.37334 -0.64059,-0.28337 -1.2235,-0.34002 -4.37429,-0.42508 -2.51161,-0.0678 -3.66852,-0.0442 -3.74305,0.0764 -0.0593,0.0959 -0.87556,4.10991 -1.81385,8.91982 -0.938294,4.80991 -1.732484,8.77178 -1.764874,8.80416 -0.0324,0.0324 -1.55378,0.039 -3.38091,0.0148 l -3.32205,-0.0441 3.020489,-15.54107 3.020501,-15.54106 3.369754,-0.044 c 1.85336,-0.0242 3.36916,0.0125 3.36845,0.0814 -5.8e-4,0.0689 -0.35265,1.92663 -0.78206,4.12821 l -0.78076,4.00285 3.99605,0.0988 c 5.62033,0.13896 7.40325,0.42405 9.12861,1.45963 1.02496,0.6152 1.86199,1.6432 2.12275,2.60705 0.43956,1.62476 0.34484,2.35267 -1.65616,12.72707 -1.07497,5.57325 -1.19001,6.03058 -1.55199,6.16949 -0.13725,0.0526 -1.64445,0.0957 -3.34934,0.0957 h -3.09978 z"
       id="path1785" />
  </g>
</svg>
