<?xml version="1.0" encoding="UTF-8" standalone="no"?>
<svg
   xmlns:dc="http://purl.org/dc/elements/1.1/"
   xmlns:cc="http://creativecommons.org/ns#"
   xmlns:rdf="http://www.w3.org/1999/02/22-rdf-syntax-ns#"
   xmlns:svg="http://www.w3.org/2000/svg"
   xmlns="http://www.w3.org/2000/svg"
   xmlns:sodipodi="http://sodipodi.sourceforge.net/DTD/sodipodi-0.dtd"
   xmlns:inkscape="http://www.inkscape.org/namespaces/inkscape"
   width="131.73404mm"
   height="131.7359mm"
   viewBox="0 0 131.73404 131.7359"
   version="1.1"
   id="svg1646"
   inkscape:version="1.0 (4035a4fb49, 2020-05-01)"
   sodipodi:docname="pyt-sqr.svg"
   inkscape:export-filename="C:\Users\Bartek\Desktop\personal\bartlomiejnowak94\pics\pyt-sqr.png"
   inkscape:export-xdpi="96"
   inkscape:export-ydpi="96">
  <defs
     id="defs1640">
    <clipPath
       clipPathUnits="userSpaceOnUse"
       id="clipPath1878">
      <path
         style="fill:none;stroke:#000000;stroke-width:0.26206px;stroke-linecap:butt;stroke-linejoin:miter;stroke-opacity:1"
         d="M -28.677941,388.28534 H 136.88302 V 225.74871 Z"
         id="path1880" />
    </clipPath>
    <clipPath
       id="clipPath1878-7"
       clipPathUnits="userSpaceOnUse">
      <path
         id="path1880-7"
         d="M -28.677941,388.28534 H 136.88302 V 225.74871 Z"
         style="fill:none;stroke:#000000;stroke-width:0.26206px;stroke-linecap:butt;stroke-linejoin:miter;stroke-opacity:1" />
    </clipPath>
    <clipPath
       id="clipPath1878-3"
       clipPathUnits="userSpaceOnUse">
      <path
         id="path1880-9"
         d="M -28.677941,388.28534 H 136.88302 V 225.74871 Z"
         style="fill:none;stroke:#000000;stroke-width:0.26206px;stroke-linecap:butt;stroke-linejoin:miter;stroke-opacity:1" />
    </clipPath>
    <clipPath
       clipPathUnits="userSpaceOnUse"
       id="clipPath1878-7-1">
      <path
         style="fill:none;stroke:#000000;stroke-width:0.26206px;stroke-linecap:butt;stroke-linejoin:miter;stroke-opacity:1"
         d="M -28.677941,388.28534 H 136.88302 V 225.74871 Z"
         id="path1880-7-1" />
    </clipPath>
  </defs>
  <sodipodi:namedview
     lock-margins="true"
     id="base"
     pagecolor="#ffffff"
     bordercolor="#666666"
     borderopacity="1.0"
     inkscape:pageopacity="0.0"
     inkscape:pageshadow="2"
     inkscape:zoom="0.7"
     inkscape:cx="316.7591"
     inkscape:cy="244.34785"
     inkscape:document-units="mm"
     inkscape:current-layer="layer1"
     inkscape:document-rotation="0"
     showgrid="false"
     fit-margin-top="6"
     fit-margin-left="6"
     fit-margin-right="6"
     fit-margin-bottom="6"
     inkscape:window-width="1920"
     inkscape:window-height="1017"
     inkscape:window-x="1912"
     inkscape:window-y="-8"
     inkscape:window-maximized="1" />
  <metadata
     id="metadata1643">
    <rdf:RDF>
      <cc:Work
         rdf:about="">
        <dc:format>image/svg+xml</dc:format>
        <dc:type
           rdf:resource="http://purl.org/dc/dcmitype/StillImage" />
        <dc:title></dc:title>
      </cc:Work>
    </rdf:RDF>
  </metadata>
  <g
     inkscape:label="Warstwa 1"
     inkscape:groupmode="layer"
     id="layer1"
     transform="translate(-39.132982,-82.632044)">
    <g
       transform="translate(53.247291,-162.38205)"
       id="g1905">
      <rect
         style="fill:#fed142;fill-opacity:1;stroke:none;stroke-width:0.838062;stroke-linejoin:round;stroke-opacity:1"
         id="rect860-4-8"
         width="119.16193"
         height="119.16193"
         x="-8.1143093"
         y="251.58807"
         ry="16.570711"
         clip-path="url(#clipPath1878-3)" />
      <rect
         clip-path="url(#clipPath1878-7-1)"
         ry="16.570711"
         y="251.58807"
         x="-8.1143093"
         height="119.16193"
         width="119.16193"
         id="rect860-4-8-8"
         style="fill:#3571a3;fill-opacity:1;stroke:none;stroke-width:0.838062;stroke-linejoin:round;stroke-opacity:1"
         transform="rotate(179.67959,51.633248,311.00244)" />
    </g>
    <path
       id="path1817"
       d="m 101.0532,189.64843 c -8.057869,-0.71375 -13.200509,-3.16091 -15.199349,-7.2327 l -0.61958,-1.26215 v -11.52762 -11.52762 l 0.471871,-1.34629 c 1.15646,-3.29942 3.428061,-5.33343 7.2693,-6.50899 1.142101,-0.34952 1.555089,-0.36401 13.547058,-0.47523 13.71559,-0.1272 13.08399,-0.075 15.63193,-1.29201 2.34822,-1.12162 4.21456,-3.50652 5.24417,-6.70125 0.35907,-1.11418 0.38358,-1.51313 0.45223,-7.36253 l 0.0726,-6.18453 h 4.35734 c 4.20657,0 4.39499,0.0142 5.44603,0.40979 4.11396,1.54849 6.8151,5.354 8.20432,11.55866 0.37244,1.66344 0.39107,2.0564 0.38986,8.22592 -0.001,6.05639 -0.025,6.57884 -0.36541,8.00924 -1.42143,5.97314 -4.30342,9.72593 -8.73767,11.37776 -0.98772,0.36795 -1.07299,0.37042 -16.55932,0.4801 -8.56157,0.0606 -15.58542,0.12121 -15.60856,0.13461 -0.0231,0.0134 -0.0421,0.6302 -0.0421,1.37066 v 1.34629 l 3.66022,1.7e-4 c 2.01313,1.3e-4 6.56064,0.0503 10.10558,0.11161 l 6.44535,0.11138 -0.0505,5.48391 -0.0505,5.48397 -0.46636,0.94964 c -0.64985,1.32331 -2.53569,3.08167 -4.16151,3.88023 -2.33864,1.14867 -5.20813,1.90931 -8.7509,2.31968 -2.16071,0.25029 -8.60953,0.35124 -10.68618,0.1673 z m 16.99836,-6.53684 c 2.75352,-1.25089 2.80902,-5.0827 0.0936,-6.45967 -1.0734,-0.54431 -1.98982,-0.58976 -2.95587,-0.14661 -1.31843,0.60481 -2.2625,1.98016 -2.26653,3.30198 -0.004,1.35511 1.06839,2.91716 2.3557,3.43092 0.67094,0.26777 2.0429,0.20513 2.77314,-0.12662 z M 73.390902,168.68732 c -1.397881,-0.37597 -3.18495,-1.39772 -4.34867,-2.48632 -2.54511,-2.38084 -4.14174,-5.96233 -5.03757,-11.3001 -0.4319,-2.5735 -0.43492,-10.1296 -0.005,-12.62147 1.19108,-6.90422 4.10643,-11.20403 8.82494,-13.01576 l 1.13451,-0.43561 12.537342,-0.11135 c 6.895528,-0.0612 13.919386,-0.12063 15.608566,-0.13199 l 3.07122,-0.0206 v -1.34629 -1.34629 l -6.521108,-0.0256 c -3.586599,-0.0141 -6.596819,-0.0432 -6.689378,-0.0647 -0.0926,-0.0215 -1.66683,-0.0478 -3.49839,-0.0585 l -3.330101,-0.0194 0.0485,-5.59552 c 0.048,-5.53936 0.0526,-5.60397 0.458449,-6.43696 0.22547,-0.46278 0.908021,-1.34248 1.51678,-1.9549 1.977371,-1.9892 5.387321,-3.33576 10.472362,-4.13544 2.719796,-0.42772 11.309996,-0.43178 14.106036,-0.007 6.77917,1.03072 10.95654,3.30875 12.72342,6.93845 l 0.65535,1.34629 v 11.61176 11.61176 l -0.44509,1.21715 c -0.97088,2.65504 -2.48996,4.38945 -4.86435,5.55387 -2.67215,1.31045 -2.00018,1.25075 -15.72636,1.39703 -7.735606,0.0824 -12.576857,0.19837 -13.073276,0.31306 -4.129302,0.95399 -6.809952,3.54183 -8.066641,7.78736 -0.33792,1.14158 -0.370789,1.69328 -0.442031,7.41783 l -0.077,6.18453 -4.063889,-0.0111 c -2.985831,-0.008 -4.3039,-0.0756 -4.968632,-0.25442 z m 22.101839,-48.41553 c 1.049512,-0.59445 1.661081,-1.60344 1.74198,-2.87401 0.0762,-1.19702 -0.245309,-2.03434 -1.088499,-2.83461 -2.25416,-2.13943 -5.930209,-0.49605 -5.943811,2.65719 -0.005,1.17581 0.550521,2.19011 1.58156,2.88734 0.712861,0.48205 0.941281,0.5466 1.925701,0.54416 0.84319,-0.002 1.280181,-0.0952 1.783069,-0.38007 z"
       style="fill:#ffffff;stroke-width:0.168286" />
  </g>
</svg>
