<?xml version="1.0" encoding="UTF-8" standalone="no"?>
<svg
   xmlns:dc="http://purl.org/dc/elements/1.1/"
   xmlns:cc="http://creativecommons.org/ns#"
   xmlns:rdf="http://www.w3.org/1999/02/22-rdf-syntax-ns#"
   xmlns:svg="http://www.w3.org/2000/svg"
   xmlns="http://www.w3.org/2000/svg"
   xmlns:sodipodi="http://sodipodi.sourceforge.net/DTD/sodipodi-0.dtd"
   xmlns:inkscape="http://www.inkscape.org/namespaces/inkscape"
   width="131.16193mm"
   height="131.16193mm"
   viewBox="0 0 131.16193 131.16193"
   version="1.1"
   id="svg1646"
   inkscape:version="1.0 (4035a4fb49, 2020-05-01)"
   sodipodi:docname="sla-sqr.svg"
   inkscape:export-filename="C:\Users\Bartek\Desktop\personal\bartlomiejnowak94\pics\sla-sqr.png"
   inkscape:export-xdpi="96"
   inkscape:export-ydpi="96">
  <defs
     id="defs1640">
    <clipPath
       clipPathUnits="userSpaceOnUse"
       id="clipPath1878">
      <path
         style="fill:none;stroke:#000000;stroke-width:0.26206px;stroke-linecap:butt;stroke-linejoin:miter;stroke-opacity:1"
         d="M -28.677941,388.28534 H 136.88302 V 225.74871 Z"
         id="path1880" />
    </clipPath>
    <clipPath
       id="clipPath1878-7"
       clipPathUnits="userSpaceOnUse">
      <path
         id="path1880-7"
         d="M -28.677941,388.28534 H 136.88302 V 225.74871 Z"
         style="fill:none;stroke:#000000;stroke-width:0.26206px;stroke-linecap:butt;stroke-linejoin:miter;stroke-opacity:1" />
    </clipPath>
    <clipPath
       id="clipPath1878-3"
       clipPathUnits="userSpaceOnUse">
      <path
         id="path1880-9"
         d="M -28.677941,388.28534 H 136.88302 V 225.74871 Z"
         style="fill:none;stroke:#000000;stroke-width:0.26206px;stroke-linecap:butt;stroke-linejoin:miter;stroke-opacity:1" />
    </clipPath>
    <clipPath
       clipPathUnits="userSpaceOnUse"
       id="clipPath1878-7-1">
      <path
         style="fill:none;stroke:#000000;stroke-width:0.26206px;stroke-linecap:butt;stroke-linejoin:miter;stroke-opacity:1"
         d="M -28.677941,388.28534 H 136.88302 V 225.74871 Z"
         id="path1880-7-1" />
    </clipPath>
    <clipPath
       clipPathUnits="userSpaceOnUse"
       id="clipPath1190">
      <rect
         ry="0"
         y="-202.40479"
         x="29.095415"
         height="59.581001"
         width="59.581001"
         id="rect1192"
         style="fill:#000000;fill-opacity:1;stroke:none;stroke-width:0.54424;stroke-linejoin:round" />
    </clipPath>
    <clipPath
       clipPathUnits="userSpaceOnUse"
       id="clipPath1194">
      <rect
         ry="0"
         y="-178.06308"
         x="205.5336"
         height="59.581001"
         width="59.581001"
         id="rect1196"
         style="fill:#000000;fill-opacity:1;stroke:none;stroke-width:0.54424;stroke-linejoin:round" />
    </clipPath>
    <clipPath
       clipPathUnits="userSpaceOnUse"
       id="clipPath1198">
      <rect
         style="fill:#000000;fill-opacity:1;stroke:none;stroke-width:0.54424;stroke-linejoin:round"
         id="rect1200"
         width="59.581001"
         height="59.581001"
         x="-265.39526"
         y="-198.66302"
         ry="0" />
    </clipPath>
    <clipPath
       clipPathUnits="userSpaceOnUse"
       id="clipPath1202">
      <rect
         ry="0"
         y="-73.580864"
         x="-374.19415"
         height="59.581001"
         width="59.581001"
         id="rect1204"
         style="fill:#000000;fill-opacity:1;stroke:none;stroke-width:0.54424;stroke-linejoin:round" />
    </clipPath>
  </defs>
  <sodipodi:namedview
     lock-margins="true"
     id="base"
     pagecolor="#ffffff"
     bordercolor="#666666"
     borderopacity="1.0"
     inkscape:pageopacity="0.0"
     inkscape:pageshadow="2"
     inkscape:zoom="0.49497475"
     inkscape:cx="206.56003"
     inkscape:cy="142.59866"
     inkscape:document-units="mm"
     inkscape:current-layer="layer1"
     inkscape:document-rotation="0"
     showgrid="false"
     fit-margin-top="6"
     fit-margin-left="6"
     fit-margin-right="6"
     fit-margin-bottom="6"
     inkscape:window-width="1920"
     inkscape:window-height="1017"
     inkscape:window-x="-8"
     inkscape:window-y="-8"
     inkscape:window-maximized="1"
     inkscape:snap-global="false" />
  <metadata
     id="metadata1643">
    <rdf:RDF>
      <cc:Work
         rdf:about="">
        <dc:format>image/svg+xml</dc:format>
        <dc:type
           rdf:resource="http://purl.org/dc/dcmitype/StillImage" />
        <dc:title></dc:title>
      </cc:Work>
    </rdf:RDF>
  </metadata>
  <g
     inkscape:label="Warstwa 1"
     inkscape:groupmode="layer"
     id="layer1"
     transform="translate(-39.419037,-82.919037)">
    <rect
       style="fill:#3f0f3f;fill-opacity:1;stroke:none;stroke-width:0.838063;stroke-linejoin:round;stroke-opacity:1"
       id="rect860"
       width="119.16193"
       height="119.16193"
       x="45.419037"
       y="88.919037"
       ry="16.570711" />
    <path
       style="fill:#ffffff;stroke-width:0.19632"
       d="m 90.957003,193.138 c -3.62259,-0.99912 -6.42153,-3.94056 -7.05669,-7.41596 -0.13414,-0.73397 -0.183,-5.73637 -0.14094,-14.4295 0.0637,-13.16056 0.0691,-13.31767 0.49413,-14.36766 1.12113,-2.7695 3.30236,-4.82588 6.09671,-5.74774 1.32051,-0.43563 4.240648,-0.47665 5.554035,-0.078 2.276711,0.69103 4.549932,2.52228 5.672562,4.56966 1.18397,2.15926 1.17912,2.09184 1.17912,16.37527 0,11.09136 -0.0452,13.22365 -0.30095,14.20561 -1.08869,4.17979 -5.028526,7.20383 -9.318732,7.15265 -0.701838,-0.008 -1.682505,-0.12732 -2.179245,-0.26432 z m 24.180307,0.0614 c -1.5457,-0.2564 -3.84327,-1.429 -4.93078,-2.51651 -1.12005,-1.12005 -1.74027,-2.07808 -2.35719,-3.64107 -0.44436,-1.12579 -0.46812,-1.43205 -0.53705,-6.92027 l -0.0721,-5.74236 h 5.19123 c 2.85518,0 5.6671,0.0888 6.24871,0.19736 3.23898,0.60449 6.25873,3.396 7.21954,6.67384 1.56568,5.34145 -2.06833,11.02025 -7.65055,11.95536 -1.44875,0.2427 -1.61244,0.24237 -3.1118,-0.006 z M 67.614673,169.58426 c -4.68162,-1.03779 -7.75957,-5.25343 -7.394,-10.127 0.28711,-3.82769 2.84504,-7.05085 6.57117,-8.28011 0.94278,-0.31102 1.80005,-0.35633 6.7429,-0.35633 h 5.6628 v 5.32138 c 0,4.21371 -0.0646,5.57247 -0.3106,6.52764 -1.26718,4.92121 -6.30993,8.01443 -11.27227,6.91442 z m 46.329277,-0.28418 c -5.58387,-1.78739 -8.23705,-8.15698 -5.58098,-13.39849 0.66362,-1.30959 2.81488,-3.45831 4.07867,-4.07384 2.05826,-1.0025 2.05461,-1.00226 16.13034,-1.00226 14.08123,0 14.0983,7e-4 16.11314,1.00377 0.51276,0.25518 1.37557,0.86151 1.91736,1.3474 3.25173,2.91622 4.1325,7.55408 2.17004,11.42679 -0.6619,1.30621 -2.42169,3.15056 -3.69613,3.87373 -2.13906,1.2138 -1.82371,1.19137 -16.58913,1.17978 -12.3038,-0.01 -13.55439,-0.0403 -14.54331,-0.35688 z M 67.218613,145.81674 c -3.04607,-0.83692 -5.70669,-3.39835 -6.59542,-6.34953 -0.43608,-1.4481 -0.44221,-4.10857 -0.0127,-5.50874 0.90429,-2.94786 3.25319,-5.32881 6.20225,-6.28687 1.22636,-0.39841 1.61037,-0.4091 14.62583,-0.40702 10.733285,0.001 13.540434,0.0549 14.24984,0.27036 1.741763,0.52883 2.866055,1.19833 4.146783,2.46931 1.549514,1.53774 2.371644,3.14147 2.740894,5.34664 0.47869,2.85881 -0.52338,5.76867 -2.761954,8.02021 -1.308861,1.31644 -2.473377,1.9971 -4.223882,2.46886 -1.363269,0.36738 -27.026421,0.3464 -28.371631,-0.0232 z m 46.629387,-0.0666 c -3.00984,-1.11971 -4.88277,-2.90191 -6.03755,-5.74507 -0.4272,-1.05182 -0.43175,-1.18543 -0.49293,-14.49013 -0.0426,-9.26342 0.006,-13.75236 0.155,-14.47259 0.34792,-1.67593 1.31306,-3.38595 2.66345,-4.71906 5.00744,-4.94337 13.57902,-2.86343 15.71967,3.81447 0.33564,1.04708 0.3605,2.07212 0.3605,14.867 0,11.06715 -0.0516,13.87615 -0.26505,14.42951 -1.08721,2.81849 -2.67322,4.64296 -5.06295,5.82419 -1.46726,0.72525 -1.60461,0.75441 -3.79049,0.80468 -1.82154,0.0419 -2.4613,-0.0198 -3.24965,-0.313 z m 17.02003,-5.47097 c 0.0487,-4.40093 0.13099,-5.99703 0.33194,-6.44002 0.98128,-2.16322 1.41994,-2.87104 2.37816,-3.83739 1.99245,-2.00935 3.81079,-2.73932 6.8236,-2.73932 1.74147,0 2.23471,0.0759 3.35154,0.51588 2.71224,1.06844 4.69173,3.1218 5.65351,5.86451 0.43321,1.23539 0.49609,4.77116 0.103,5.79144 -1.11384,2.89101 -2.70735,4.7223 -5.09886,5.8597 l -1.50759,0.71701 -6.05004,0.0597 -6.05003,0.0596 z M 90.971283,122.28358 c -3.08091,-0.77507 -5.49198,-2.97966 -6.64013,-6.0715 -0.50804,-1.36807 -0.58112,-4.4112 -0.14077,-5.8621 0.74785,-2.46414 2.27191,-4.30625 4.65985,-5.6323 1.70802,-0.94848 4.819795,-1.31763 6.740019,-0.79956 2.546452,0.68703 4.998128,2.69431 6.067488,4.96772 1.00146,2.12901 1.12517,3.14065 1.05894,8.65877 l -0.0589,4.90799 -5.398802,0.0273 c -3.478244,0.0176 -5.715005,-0.0523 -6.287685,-0.19632 z"
       id="path1012" />
  </g>
</svg>
