<?xml version="1.0" encoding="UTF-8" standalone="no"?>
<svg
   xmlns:dc="http://purl.org/dc/elements/1.1/"
   xmlns:cc="http://creativecommons.org/ns#"
   xmlns:rdf="http://www.w3.org/1999/02/22-rdf-syntax-ns#"
   xmlns:svg="http://www.w3.org/2000/svg"
   xmlns="http://www.w3.org/2000/svg"
   xmlns:sodipodi="http://sodipodi.sourceforge.net/DTD/sodipodi-0.dtd"
   xmlns:inkscape="http://www.inkscape.org/namespaces/inkscape"
   width="131.73404mm"
   height="131.7359mm"
   viewBox="0 0 131.73404 131.73591"
   version="1.1"
   id="svg1646"
   inkscape:version="1.0 (4035a4fb49, 2020-05-01)"
   sodipodi:docname="tex-sqr.svg"
   inkscape:export-filename="C:\Users\Bartek\Desktop\personal\bartlomiejnowak94\pics\tex-sqr.png"
   inkscape:export-xdpi="96"
   inkscape:export-ydpi="96">
  <defs
     id="defs1640">
    <clipPath
       clipPathUnits="userSpaceOnUse"
       id="clipPath1878">
      <path
         style="fill:none;stroke:#000000;stroke-width:0.26206px;stroke-linecap:butt;stroke-linejoin:miter;stroke-opacity:1"
         d="M -28.677941,388.28534 H 136.88302 V 225.74871 Z"
         id="path1880" />
    </clipPath>
    <clipPath
       id="clipPath1878-7"
       clipPathUnits="userSpaceOnUse">
      <path
         id="path1880-7"
         d="M -28.677941,388.28534 H 136.88302 V 225.74871 Z"
         style="fill:none;stroke:#000000;stroke-width:0.26206px;stroke-linecap:butt;stroke-linejoin:miter;stroke-opacity:1" />
    </clipPath>
    <clipPath
       id="clipPath1878-3"
       clipPathUnits="userSpaceOnUse">
      <path
         id="path1880-9"
         d="M -28.677941,388.28534 H 136.88302 V 225.74871 Z"
         style="fill:none;stroke:#000000;stroke-width:0.26206px;stroke-linecap:butt;stroke-linejoin:miter;stroke-opacity:1" />
    </clipPath>
    <clipPath
       clipPathUnits="userSpaceOnUse"
       id="clipPath1878-7-1">
      <path
         style="fill:none;stroke:#000000;stroke-width:0.26206px;stroke-linecap:butt;stroke-linejoin:miter;stroke-opacity:1"
         d="M -28.677941,388.28534 H 136.88302 V 225.74871 Z"
         id="path1880-7-1" />
    </clipPath>
  </defs>
  <sodipodi:namedview
     lock-margins="true"
     id="base"
     pagecolor="#ffffff"
     bordercolor="#666666"
     borderopacity="1.0"
     inkscape:pageopacity="0.0"
     inkscape:pageshadow="2"
     inkscape:zoom="0.35"
     inkscape:cx="-159.88197"
     inkscape:cy="143.2374"
     inkscape:document-units="mm"
     inkscape:current-layer="layer1"
     inkscape:document-rotation="0"
     showgrid="false"
     fit-margin-top="6"
     fit-margin-left="6"
     fit-margin-right="6"
     fit-margin-bottom="6"
     inkscape:window-width="1920"
     inkscape:window-height="1017"
     inkscape:window-x="-8"
     inkscape:window-y="-8"
     inkscape:window-maximized="1"
     inkscape:snap-global="false" />
  <metadata
     id="metadata1643">
    <rdf:RDF>
      <cc:Work
         rdf:about="">
        <dc:format>image/svg+xml</dc:format>
        <dc:type
           rdf:resource="http://purl.org/dc/dcmitype/StillImage" />
        <dc:title></dc:title>
      </cc:Work>
    </rdf:RDF>
  </metadata>
  <g
     inkscape:label="Warstwa 1"
     inkscape:groupmode="layer"
     id="layer1"
     transform="translate(-39.132982,-82.632044)">
    <g
       transform="translate(53.247291,-162.38205)"
       id="g1905"
       style="fill:#333333;fill-opacity:1">
      <rect
         style="fill:#333333;fill-opacity:1;stroke:none;stroke-width:0.838062;stroke-linejoin:round;stroke-opacity:1"
         id="rect860-4-8"
         width="119.16193"
         height="119.16193"
         x="-8.1143093"
         y="251.58807"
         ry="16.570711"
         clip-path="url(#clipPath1878-3)" />
      <rect
         clip-path="url(#clipPath1878-7-1)"
         ry="16.570711"
         y="251.58807"
         x="-8.1143093"
         height="119.16193"
         width="119.16193"
         id="rect860-4-8-8"
         style="fill:#333333;fill-opacity:1;stroke:none;stroke-width:0.838062;stroke-linejoin:round;stroke-opacity:1"
         transform="rotate(179.67959,51.633248,311.00244)" />
    </g>
    <path
       style="fill:#ffffff;stroke-width:0.178502"
       d="m 73.156433,199.60874 c 0,-0.0466 0.277846,-0.44863 0.617433,-0.89352 0.705829,-0.92468 0.998451,-2.00015 0.610987,-2.24555 -0.370182,-0.23446 -1.245228,-0.19353 -2.226437,0.10413 -0.481939,0.1462 -0.910896,0.26669 -0.953237,0.26776 -0.04234,0.001 0.438979,-0.31005 1.069599,-0.69137 0.630621,-0.3813 1.304125,-0.9043 1.496678,-1.1622 0.325419,-0.43586 0.329324,-0.48969 0.05541,-0.76361 -0.381382,-0.38138 -2.067358,-0.37226 -3.14728,0.017 -0.429592,0.15486 -0.824715,0.28157 -0.878051,0.28157 -0.05334,0 0.478881,-0.59388 1.182705,-1.31974 0.703824,-0.72586 1.27968,-1.4055 1.27968,-1.51032 0,-0.35644 -0.755604,-0.89603 -1.941146,-1.38619 -0.650451,-0.26893 -1.249203,-0.54511 -1.330562,-0.61373 -0.08136,-0.0686 0.44076,-0.29898 1.160263,-0.51189 6.118288,-1.81054 10.163075,-3.3202 13.857437,-5.17213 l 2.128299,-1.06689 0.304786,-1.21576 c 0.167633,-0.66867 0.533648,-1.76118 0.813366,-2.4278 l 0.508579,-1.21204 -3.196952,3.06087 c -2.432634,2.32908 -3.223476,2.99174 -3.307901,2.77174 -0.186655,-0.48642 0.103835,-1.83855 0.504395,-2.34777 l 0.378859,-0.48165 -0.392039,0.20982 c -0.653155,0.34956 -2.416915,2.18655 -3.05587,3.18274 -0.330591,0.51543 -0.65783,0.93714 -0.727199,0.93714 -0.186296,0 -0.349255,-0.97969 -0.349255,-2.09966 v -0.98403 l -1.383391,1.39463 c -0.760864,0.76704 -2.100957,1.9927 -2.977986,2.72368 -1.532526,1.27733 -1.600477,1.31316 -1.745725,0.92051 -0.180596,-0.48819 0.09008,-2.62347 0.468452,-3.69553 0.147265,-0.41725 0.239364,-0.75863 0.204665,-0.75863 -0.0347,0 -0.578768,0.31328 -1.209042,0.69619 -1.466797,0.89111 -5.151388,2.74156 -5.254212,2.63873 -0.147297,-0.14729 0.33972,-1.81562 0.846865,-2.90103 0.278407,-0.59585 0.820157,-1.44004 1.203891,-1.87599 l 0.697695,-0.79262 -2.342557,1.19984 c -1.288407,0.65991 -2.409184,1.20289 -2.490617,1.20661 -0.403835,0.0185 0.572363,-2.80199 1.4026,-4.05241 l 0.630347,-0.94937 -1.031695,0.52023 c -1.408903,0.71045 -3.285854,1.4904 -3.374148,1.40211 -0.159368,-0.15937 0.667618,-2.41128 1.184926,-3.2266 0.303077,-0.47767 0.521423,-0.89811 0.485214,-0.93432 -0.03621,-0.0362 -0.734395,0.21612 -1.551524,0.56074 -0.817129,0.34463 -1.514693,0.59758 -1.550142,0.56214 -0.142546,-0.14255 0.472307,-1.79055 1.08158,-2.89899 0.513922,-0.93497 0.582225,-1.15871 0.331166,-1.0848 -1.205787,0.355 -2.602764,0.65174 -2.6843,0.57021 -0.182063,-0.18207 1.05323,-2.36611 1.859709,-3.28804 0.856788,-0.97943 0.850169,-1.02074 -0.117641,-0.73409 -1.028548,0.30464 -3.081173,0.7195 -3.161666,0.63901 -0.118646,-0.11865 0.647405,-1.54289 1.344656,-2.5 0.349805,-0.48017 1.084712,-1.20311 1.633127,-1.60651 l 0.997117,-0.73349 -2.480835,0.0585 -2.480837,0.0585 0.361458,-0.50476 c 0.876397,-1.22384 2.54744,-2.60988 3.800327,-3.15217 0.566532,-0.24521 0.414639,-0.25757 -2.020315,-0.16446 -1.821288,0.0696 -2.632904,0.0415 -2.632904,-0.0912 0,-0.36061 1.87256,-2.24581 2.876892,-2.89632 l 1.002622,-0.6494 -1.448877,0.0686 c -0.796882,0.0377 -1.880908,0.003 -2.408946,-0.0779 l -0.960069,-0.14644 0.857314,-0.95336 c 0.471523,-0.52434 1.263948,-1.22719 1.760945,-1.56189 l 0.903631,-0.60854 -1.24713,-0.0211 c -0.685923,-0.0116 -1.476133,-0.0719 -1.756024,-0.13387 l -0.508893,-0.11276 0.741191,-0.84107 c 0.407655,-0.46259 1.138693,-1.09864 1.62453,-1.41345 0.485836,-0.31481 0.883339,-0.59177 0.883339,-0.61545 0,-0.0237 -0.582362,-0.13979 -1.294139,-0.25802 -0.711777,-0.11824 -1.402055,-0.27346 -1.533953,-0.34495 -0.498889,-0.27038 1.94011,-1.97784 3.691211,-2.58408 0.588164,-0.20363 0.547077,-0.22125 -1.421933,-0.60974 -1.115179,-0.22003 -2.09346,-0.46592 -2.173959,-0.54641 -0.151405,-0.15141 0.748953,-0.92216 1.840263,-1.57536 0.883855,-0.52904 2.7233,-1.11708 3.519783,-1.12525 0.586874,-0.006 0.406973,-0.11331 -1.377759,-0.82175 -1.129025,-0.44815 -2.116393,-0.87414 -2.194152,-0.94664 -0.220806,-0.20587 1.992841,-1.21745 3.365948,-1.53816 0.699794,-0.16344 1.680763,-0.25796 2.256506,-0.2174 l 1.018527,0.0717 -1.107777,-0.6057 c -0.609278,-0.33314 -1.666971,-0.93405 -2.35043,-1.33537 l -1.242651,-0.72967 0.707145,-0.29915 c 1.342572,-0.56795 2.573506,-0.76011 4.292954,-0.67017 l 1.666922,0.0872 -1.809449,-1.35817 c -2.14744,-1.61188 -2.283018,-1.72244 -2.283018,-1.86185 0,-0.21567 1.543233,-0.51466 2.790563,-0.54065 0.795607,-0.0166 1.24182,-0.0943 1.178491,-0.20519 -0.05606,-0.0982 -0.319031,-0.45964 -0.584391,-0.80326 -0.26536,-0.34362 -0.819436,-1.17699 -1.23128,-1.85194 l -0.748807,-1.22718 0.475624,0.11937 c 1.963548,0.49282 7.6778,3.11121 11.143641,5.10624 10.275789,5.91502 18.700388,13.88834 22.605808,21.39489 0.76286,1.46628 1.40825,2.00907 2.79845,2.35359 1.042079,0.25825 2.180419,0.14788 3.098439,-0.30041 0.61552,-0.30057 0.81317,-0.58695 1.84944,-2.67966 0.63814,-1.28872 1.50996,-2.79294 1.93736,-3.34271 1.17355,-1.50953 3.06932,-3.21604 4.39846,-3.95934 1.90818,-1.06712 3.10786,-1.37169 5.10833,-1.29693 1.5661,0.0586 1.83748,0.12427 3.11061,0.75349 0.99353,0.49103 1.75138,1.04593 2.63425,1.92878 l 1.23943,1.23944 -0.6868,0.70335 c -0.74149,0.75935 -2.44816,1.40824 -3.70386,1.40824 -0.6256,0 -0.65013,-0.0239 -0.65013,-0.63287 0,-0.43393 -0.13773,-0.77059 -0.43815,-1.07101 -0.93912,-0.93912 -2.77489,-0.3102 -2.77489,0.95065 0,0.94055 -1.26892,1.62893 -3.02561,1.64138 -0.47898,0.003 -0.56823,0.052 -0.40163,0.21857 0.37833,0.37832 0.23104,0.82251 -0.4671,1.40864 l -0.6813,0.57198 0.3243,0.6361 c 0.17836,0.34986 0.32429,0.82377 0.32429,1.05313 0,0.47707 -0.65563,1.15108 -1.43288,1.47302 -0.37003,0.15327 -0.53063,0.34351 -0.53063,0.62853 0,0.38776 -0.89575,1.33297 -1.26322,1.33297 -0.25494,0 -0.19507,0.68554 0.11739,1.34399 0.30882,0.65078 1.09877,1.03995 1.7693,0.87166 0.35039,-0.0879 0.41886,-0.0147 0.52747,0.56427 0.18517,0.987 0.96316,1.68264 1.88185,1.68264 0.61409,0 0.83974,0.10604 1.32865,0.62445 0.32391,0.34344 0.84064,0.67479 1.14828,0.73631 0.30764,0.0615 0.55934,0.22432 0.55934,0.36175 0,0.13744 -0.60659,2.67774 -1.34798,5.64513 -1.45736,5.83306 -1.68178,6.38978 -3.31348,8.21994 -0.45302,0.50811 -1.45709,1.37665 -2.23127,1.93008 -3.09499,2.21246 -6.31577,3.60417 -14.73827,6.36844 -2.998212,0.98401 -6.165399,2.08435 -7.038189,2.4452 -3.990001,1.6496 -8.920668,4.33407 -11.98463,6.52493 -0.809952,0.57915 -1.472641,1.01491 -1.472641,0.96836 z m 2.822627,-20.05512 c 0.558341,-0.37798 1.256143,-0.81091 1.550671,-0.96207 0.779356,-0.39998 2.758139,-1.02628 3.242517,-1.02628 0.229225,0 0.416773,-0.0893 0.416773,-0.19837 0,-0.46013 -3.192541,0.53183 -4.750465,1.47603 -1.204476,0.72999 -2.519424,1.86881 -3.197436,2.76917 -0.440095,0.58441 -0.352549,0.53457 0.604041,-0.34388 0.615304,-0.56505 1.575559,-1.33662 2.133899,-1.7146 z m 4.030956,0.53403 c 0.48057,-0.30105 1.264371,-0.67709 1.741777,-0.83566 0.477408,-0.15857 0.823552,-0.36025 0.76921,-0.44818 -0.279232,-0.4518 -3.531551,1.39391 -4.217978,2.39374 l -0.386194,0.56252 0.609709,-0.56253 c 0.335341,-0.30939 1.002904,-0.80884 1.483476,-1.10989 z m -6.013522,-2.88321 c 0.750683,-0.31251 2.128254,-0.76184 3.061271,-0.99853 1.797299,-0.45592 2.147643,-0.60416 1.427844,-0.60416 -1.569785,0 -6.11697,1.84835 -7.4712,3.0369 -0.551256,0.48382 -0.492876,0.46514 0.496225,-0.15884 0.61654,-0.38894 1.735177,-0.96286 2.48586,-1.27537 z m -2.700972,-1.75866 c 1.170765,-0.3818 2.771271,-0.83514 3.55668,-1.00742 2.239275,-0.49116 2.878804,-0.6778 2.569205,-0.74978 -0.402645,-0.0936 -3.832556,0.70312 -5.960743,1.38463 -1.917298,0.61396 -3.831078,1.50419 -4.5518,2.11734 -0.255577,0.21743 0.131487,0.0741 0.905869,-0.33546 0.743668,-0.39331 2.310023,-1.0275 3.480789,-1.40931 z m -4.297407,-1.47867 c 2.189535,-0.81717 4.807499,-1.40085 6.8277,-1.52225 1.023392,-0.0615 1.829645,-0.18835 1.829645,-0.28788 0,-0.23017 -2.609332,-0.0349 -4.437939,0.33199 -1.955218,0.39237 -4.756361,1.2783 -5.955178,1.88346 -1.155305,0.5832 -1.390559,0.85195 -0.361626,0.41312 0.368161,-0.15702 1.31199,-0.52532 2.097398,-0.81844 z m -0.402574,-2.90329 c 1.759353,-0.36186 4.261705,-0.6261 6.203888,-0.65509 1.401494,-0.0209 1.455975,-0.0348 0.714008,-0.18227 -1.013103,-0.20131 -4.723238,0.0991 -6.783075,0.5492 -1.673139,0.36561 -3.313733,0.93611 -3.84847,1.33825 -0.190479,0.14325 0.256118,0.0296 0.992438,-0.25265 0.736322,-0.2822 1.960866,-0.64105 2.721211,-0.79744 z m 0.03724,-3.13765 c 0.709493,0 1.918558,0.16076 2.686812,0.35724 1.503008,0.38441 1.934191,0.35765 0.938796,-0.0583 -1.593165,-0.66566 -4.130298,-0.84801 -5.759302,-0.41393 -0.817318,0.21779 -2.052772,0.75704 -2.052772,0.89599 0,0.0319 0.651707,-0.13087 1.448239,-0.36158 0.925267,-0.26799 1.914066,-0.41947 2.738227,-0.41947 z m 4.381628,-1.69276 c 0,-0.18572 -1.777114,-0.97295 -2.787244,-1.2347 -1.461314,-0.37867 -3.387773,-0.51815 -4.352835,-0.31515 -0.728212,0.15317 -0.644162,0.17079 0.899633,0.18851 1.810204,0.0208 3.147881,0.29569 4.785244,0.98337 1.009741,0.42408 1.455202,0.53978 1.455202,0.37797 z m -8.080933,-1.27112 c -0.05931,-0.0593 -0.213272,-0.0657 -0.342128,-0.0141 -0.142397,0.057 -0.1001,0.0993 0.107844,0.10784 0.188171,0.008 0.293599,-0.0344 0.234284,-0.0937 z m 9.488916,-0.99537 c -1.565241,-1.3185 -4.739131,-2.37438 -7.635778,-2.54025 l -1.53704,-0.088 1.249513,0.17397 c 3.219899,0.44831 6.288377,1.56067 7.764836,2.81485 0.343616,0.29188 0.655906,0.44478 0.693974,0.33977 0.03807,-0.10501 -0.202906,-0.42016 -0.535505,-0.70033 z m 3.054566,-1.03918 c 0,-0.0984 -0.502036,-0.54896 -1.115637,-1.00128 -2.995413,-2.20814 -7.916183,-3.8862 -11.962524,-4.07941 -1.832705,-0.0875 -1.949215,-0.11875 2.368043,0.63486 2.505674,0.43737 4.093128,0.89533 5.800081,1.67321 1.368522,0.62366 4.012844,2.24793 4.380152,2.69052 0.2493,0.30038 0.529885,0.34386 0.529885,0.0821 z m 2.003578,-1.61611 c -2.090717,-1.9272 -6.23791,-4.22327 -9.643126,-5.33887 -2.140089,-0.70112 -5.091467,-1.26648 -6.483408,-1.24197 -0.5229,0.009 -0.01318,0.14895 1.538568,0.42177 2.571777,0.45216 3.267373,0.62033 5.355059,1.29465 2.722844,0.87947 6.034003,2.74451 8.741655,4.92381 0.684514,0.55095 1.286959,0.95828 1.338765,0.90519 0.05181,-0.0531 -0.329575,-0.48715 -0.847513,-0.96458 z m 1.463352,-1.941 c -4.063321,-3.8773 -12.653478,-7.70849 -17.82892,-7.95165 l -1.613936,-0.0758 1.338765,0.15904 c 5.852526,0.69523 12.997453,3.93468 17.850197,8.09312 0.73632,0.63097 1.378927,1.10979 1.428015,1.06404 0.04909,-0.0457 -0.479267,-0.62567 -1.174121,-1.28872 z m 1.905979,-1.94273 c -0.104266,-0.19482 -0.693137,-0.75373 -1.308601,-1.24201 -3.865881,-3.06706 -9.779182,-5.99444 -14.534885,-7.19551 -2.830382,-0.71482 -3.325923,-0.63882 -0.665786,0.10211 3.055747,0.85113 5.310302,1.71058 8.191081,3.12253 2.941177,1.44154 5.82115,3.28383 7.318581,4.68163 1.100123,1.02692 1.330373,1.14929 0.99961,0.53125 z m 0.288121,-3.6983 c -2.989808,-2.78597 -9.32484,-6.45291 -13.84477,-8.01386 -2.47513,-0.85478 -2.722562,-0.79713 -0.384354,0.0896 5.130998,1.94573 10.559919,5.16138 14.256179,8.44418 1.409212,1.25158 1.385523,0.7964 -0.02705,-0.51987 z m 1.546926,-2.87889 c -4.229308,-3.68214 -9.820664,-7.02052 -14.153404,-8.45043 -1.996178,-0.65879 -3.414469,-1.02995 -3.229164,-0.84506 0.04909,0.049 1.652328,0.70867 3.562754,1.46598 4.235502,1.67899 6.410426,2.75553 8.701484,4.30705 1.929773,1.30685 4.537953,3.34315 5.225417,4.07966 0.273424,0.29294 0.470024,0.39239 0.514132,0.26006 0.03928,-0.11783 -0.240271,-0.4856 -0.621219,-0.81726 z m -20.822449,-2.4891 c -0.05932,-0.0593 -0.213273,-0.0656 -0.342129,-0.0141 -0.142397,0.057 -0.1001,0.0993 0.107844,0.10784 0.188171,0.008 0.293599,-0.0345 0.234285,-0.0937 z m 21.436323,-0.41567 c -0.74089,-1.19479 -6.488279,-5.17916 -10.231606,-7.09306 -2.430729,-1.24278 -5.599406,-2.64095 -5.717524,-2.52283 -0.0322,0.0322 2.044329,1.12188 4.614509,2.42151 4.958903,2.50751 7.835674,4.34772 10.206615,6.52899 0.687232,0.63225 1.275161,1.12606 1.306508,1.09736 0.03134,-0.0287 -0.04898,-0.22309 -0.178502,-0.43197 z m 0.03225,-3.3979 c 0,-0.39295 -5.741418,-4.53128 -9.549855,-6.8834 -1.833282,-1.13225 -5.26533,-2.94139 -5.574702,-2.9386 -0.07555,6.7e-4 0.730786,0.4838 1.791856,1.07361 4.252614,2.36385 9.659019,5.98428 11.959698,8.00889 1.015292,0.89347 1.373003,1.08613 1.373003,0.7395 z m 31.274982,22.27489 c -0.42517,-0.20614 -0.88312,-0.5977 -1.02902,-0.87985 -0.24459,-0.47298 -0.31769,-0.50088 -1.04933,-0.4006 -0.68292,0.0936 -0.84621,0.048 -1.24071,-0.3465 -0.24987,-0.24986 -0.54229,-0.80376 -0.64984,-1.23088 -0.19431,-0.77167 -0.20007,-0.77617 -0.90759,-0.70869 -0.81538,0.0778 -1.27922,-0.23692 -1.56728,-1.06326 -0.16819,-0.48247 -0.13535,-0.55178 0.43583,-0.9198 0.33975,-0.2189 0.70899,-0.63899 0.82054,-0.93352 0.1164,-0.30734 0.5495,-0.76367 1.01647,-1.07101 0.96657,-0.63614 1.15356,-1.16075 0.79346,-2.22602 l -0.2593,-0.7671 0.65382,-0.63506 c 0.46083,-0.4476 0.63168,-0.75084 0.57882,-1.02735 -0.0683,-0.35744 0.0102,-0.39937 0.88377,-0.47181 0.6026,-0.05 1.15277,-0.22294 1.481,-0.46561 l 0.52225,-0.38612 0.44587,0.44588 c 0.57353,0.57353 1.71725,0.61877 2.24713,0.0889 0.21084,-0.21083 0.59501,-0.357 0.93832,-0.357 0.31971,0 0.83393,-0.0725 1.14269,-0.161 0.54555,-0.15647 0.56983,-0.13889 0.86094,0.62336 0.18759,0.49119 0.62923,1.07276 1.18158,1.55594 l 0.88203,0.77158 -0.25031,0.70945 c -0.4412,1.25048 -1.5582,3.32938 -2.6366,4.90711 -1.09573,1.60307 -4.18736,5.3447 -4.40349,5.32931 -0.0687,-0.005 -0.46969,-0.17604 -0.89105,-0.38033 z m 7.67625,-11.32811 c -0.79734,-0.6669 -1.55352,-1.89833 -1.40438,-2.28699 0.0475,-0.12378 0.33195,-0.27418 0.63209,-0.33421 0.30576,-0.0611 0.86094,-0.43396 1.26261,-0.84785 l 0.71688,-0.7387 10.84625,1.81792 c 5.96543,0.99985 11.04706,1.87922 11.2925,1.95416 0.24544,0.075 -2.36515,0.0987 -5.80132,0.0527 -6.40387,-0.0856 -10.51869,0.0873 -14.26131,0.59924 -1.0903,0.14915 -2.10286,0.30555 -2.25012,0.34755 -0.14726,0.042 -0.6122,-0.21172 -1.0332,-0.56384 z"
       id="path1999" />
    <path
       style="fill:#ffffff;stroke-width:0.141521"
       d="m 104.28196,135.53357 v -0.61711 l 1.59212,-0.0754 c 0.87566,-0.0415 1.70533,-0.12155 1.8437,-0.17791 0.59494,-0.24231 0.59567,-0.25531 0.64181,-11.39087 0.0243,-5.87667 0.003,-11.08197 -0.0464,-11.56733 -0.14639,-1.42421 -0.27946,-1.51429 -2.32014,-1.57063 l -1.71107,-0.0472 v -0.69575 -0.69575 h 1.48597 1.48598 l -5.4e-4,-0.38919 c -10e-4,-0.61281 -0.3926,-2.85835 -0.64802,-3.71493 -0.12765,-0.4281 -0.3838,-1.07795 -0.56921,-1.4441 -0.65746,-1.29834 -2.08853,-1.77411 -5.71674,-1.90053 -1.961548,-0.0683 -2.380368,-0.0469 -2.618127,0.13421 -0.27821,0.21189 -0.28378,0.40745 -0.32582,11.44259 -0.0298,7.82651 0.004,11.38792 0.11199,11.75828 0.26203,0.89945 0.601459,1.01829 3.073347,1.07596 l 2.16447,0.0505 v 0.69248 0.69249 h -7.571377 -7.571385 v -0.69361 -0.6936 l 2.447695,-0.0494 c 2.7835,-0.0562 3.08821,-0.15376 3.35579,-1.07485 0.10732,-0.36939 0.14144,-3.95208 0.112,-11.75827 -0.0412,-10.92449 -0.0497,-11.23242 -0.31707,-11.42786 -0.19995,-0.14618 -0.71988,-0.20055 -1.91053,-0.19976 -2.900772,0.002 -4.967647,0.35734 -5.957712,1.02455 -0.903926,0.60916 -1.607314,2.58686 -1.988312,5.5905 l -0.166054,1.30907 h -0.476806 c -0.582371,0 -0.567859,0.34982 -0.193767,-4.6702 0.153709,-2.06268 0.280274,-3.92546 0.281258,-4.13951 l 0.0018,-0.389188 h 12.524623 12.524617 l 0.001,0.459948 c 5.3e-4,0.25297 0.12691,2.17944 0.2804,4.28103 0.15349,2.10159 0.28026,3.86883 0.28171,3.92721 0.002,0.0584 4.10908,0.10614 9.12806,0.10614 h 9.12543 l 0.0716,0.31843 c 0.0675,0.29994 1.20752,8.59988 1.20752,8.7912 0,0.0491 -0.22001,0.0893 -0.48891,0.0893 -0.45546,0 -0.49475,-0.0363 -0.57417,-0.5307 -0.22308,-1.38852 -0.6375,-3.15473 -0.90991,-3.87794 -0.6319,-1.67755 -1.41682,-2.46374 -2.97891,-2.98374 -0.85363,-0.28416 -1.2606,-0.31052 -5.54584,-0.35919 -4.52513,-0.0514 -4.63092,-0.0462 -4.91787,0.24073 -0.28626,0.28627 -0.29325,0.42018 -0.29325,5.61507 v 5.32182 l 2.79504,-0.0551 c 2.49828,-0.0493 2.86701,-0.0878 3.47279,-0.36306 0.86161,-0.3915 1.19812,-1.09198 1.41964,-2.95508 l 0.15771,-1.3265 h 0.46457 0.46457 v 5.3778 5.37781 h -0.46676 -0.46673 l -0.16278,-1.28961 c -0.22244,-1.76221 -0.59966,-2.4949 -1.52191,-2.95602 -0.66888,-0.33444 -0.85697,-0.35634 -3.43643,-0.40007 l -2.72881,-0.0463 0.0399,5.87706 c 0.0312,4.59639 0.0801,5.91712 0.22419,6.06092 0.25292,0.25232 8.95898,0.26356 10.01883,0.0129 2.26357,-0.53528 3.26415,-1.26677 4.05564,-2.96495 0.49227,-1.05617 1.10663,-2.95542 1.31457,-4.06385 l 0.0963,-0.51319 h -1.14791 -1.14792 v -0.68832 -0.68833 l 1.30907,-0.0733 c 3.00556,-0.1683 3.50812,-0.6254 7.95276,-7.23337 l 3.31801,-4.933 -3.94828,-5.91297 c -4.55926,-6.82829 -4.18341,-6.45127 -6.60295,-6.62374 l -1.39155,-0.0992 -0.0435,-0.60146 -0.0435,-0.601469 h 5.73974 5.73975 v 0.604469 0.60447 l -0.8845,0.16715 c -1.00252,0.18947 -1.74591,0.80159 -1.55293,1.27873 0.0948,0.23424 3.0329,4.60278 4.80908,7.1503 l 0.76802,1.10155 0.52194,-0.74775 c 0.28706,-0.41126 1.39565,-2.03383 2.46352,-3.60573 1.72765,-2.54307 1.94159,-2.92305 1.94159,-3.44854 0,-0.82872 -0.77982,-1.61925 -1.73923,-1.76313 l -0.66664,-0.1 v -0.62081 -0.620772 h 4.88248 4.88249 v 0.636842 0.63685 l -0.60147,0.001 c -1.8994,0.003 -3.44483,0.56465 -4.5765,1.66211 -0.68015,0.65958 -6.33517,8.71009 -6.32961,9.01085 0.005,0.28377 8.68657,12.60194 9.29933,13.19509 0.7159,0.69297 1.33402,0.89525 2.73895,0.89633 l 1.02603,7.5e-4 v 0.7076 0.70761 h -5.66085 -5.66085 v -0.70763 -0.7076 h 0.49246 c 0.64328,0 1.60113,-0.38856 1.77952,-0.72188 0.16439,-0.30718 0.44778,0.17749 -3.44637,-5.89424 -1.56003,-2.4324 -2.87894,-4.42254 -2.93091,-4.42254 -0.052,0 -1.41034,1.97405 -3.0186,4.38678 -1.89484,2.84266 -2.92411,4.51393 -2.92411,4.74799 0,0.89666 0.80141,1.7388 1.78815,1.87901 l 0.68847,0.0978 0.0431,0.67113 0.0431,0.67113 -3.43964,8e-5 -3.43965,8e-5 -0.6165,4.13942 c -0.33909,2.27668 -0.64955,4.31455 -0.68992,4.5286 l -0.0734,0.38918 H 115.9397 104.28189 Z"
       id="path2001" />
  </g>
</svg>
