<?xml version="1.0" encoding="UTF-8" standalone="no"?>
<svg
   xmlns:dc="http://purl.org/dc/elements/1.1/"
   xmlns:cc="http://creativecommons.org/ns#"
   xmlns:rdf="http://www.w3.org/1999/02/22-rdf-syntax-ns#"
   xmlns:svg="http://www.w3.org/2000/svg"
   xmlns="http://www.w3.org/2000/svg"
   xmlns:sodipodi="http://sodipodi.sourceforge.net/DTD/sodipodi-0.dtd"
   xmlns:inkscape="http://www.inkscape.org/namespaces/inkscape"
   inkscape:version="1.0 (4035a4fb49, 2020-05-01)"
   sodipodi:docname="WPPT logo.svg"
   id="svg12"
   xml:space="preserve"
   version="1.1"
   viewBox="0 0 37 37"
   height="80px"
   width="80px"><metadata
     id="metadata18"><rdf:RDF><cc:Work
         rdf:about=""><dc:format>image/svg+xml</dc:format><dc:type
           rdf:resource="http://purl.org/dc/dcmitype/StillImage" /><dc:title></dc:title></cc:Work></rdf:RDF></metadata><defs
     id="defs16" /><sodipodi:namedview
     inkscape:current-layer="svg12"
     inkscape:window-maximized="1"
     inkscape:window-y="-8"
     inkscape:window-x="1432"
     inkscape:cy="40"
     inkscape:cx="40"
     inkscape:zoom="8.35"
     showgrid="false"
     id="namedview14"
     inkscape:window-height="1017"
     inkscape:window-width="1920"
     inkscape:pageshadow="2"
     inkscape:pageopacity="0"
     guidetolerance="10"
     gridtolerance="10"
     objecttolerance="10"
     borderopacity="1"
     bordercolor="#666666"
     pagecolor="#ffffff" /><path
     id="path10"
     d="M30.958,23.265c-1.594,4.235 -5.28,7.444 -9.798,8.367c-0.739,0.184 -1.477,0.274 -2.282,0.263c-0.131,0.003 -0.263,0.006 -0.394,0.006c-0.188,0 -0.375,-0.004 -0.56,-0.012l2.329,-2.396l-4.114,-4.659l4.504,0c2.026,0 2.374,1.21 2.578,1.896l0.39,0l-0.205,-2.728l-10.603,0l5.507,6.249l-1.504,1.543c-4.969,-0.624 -9.087,-3.987 -10.796,-8.53c1.98,-0.508 3.471,-2.237 3.622,-4.337l4.026,0c0.179,2.509 2.271,4.489 4.827,4.489c2.553,0 4.646,-1.98 4.825,-4.489l4.027,0c0.149,2.101 1.64,3.83 3.621,4.338M30.958,13.892c-1.98,0.508 -3.472,2.237 -3.621,4.336l-4.027,0c-0.171,-2.394 -2.083,-4.305 -4.476,-4.477l0,-4.026c2.1,-0.15 3.829,-1.64 4.337,-3.62c3.585,1.35 6.437,4.2 7.787,7.787M18.133,13.752c-2.394,0.171 -4.305,2.083 -4.476,4.477l-4.026,0c-0.151,-2.099 -1.641,-3.829 -3.622,-4.336c1.35,-3.587 4.201,-6.438 7.788,-7.787c0.507,1.979 2.237,3.47 4.336,3.62l0,4.026ZM37.002,18.579c0,-2.672 -2.167,-4.839 -4.839,-4.839c-0.165,0 -0.33,0.009 -0.491,0.025c-1.417,-3.878 -4.497,-6.957 -8.375,-8.375c0.017,-0.162 0.024,-0.325 0.024,-0.492c0,-2.672 -2.166,-4.838 -4.837,-4.838c-2.673,0 -4.839,2.167 -4.839,4.838c0,0.167 0.009,0.33 0.025,0.492c-3.877,1.417 -6.958,4.496 -8.374,8.375c-0.162,-0.017 -0.326,-0.025 -0.492,-0.025c-2.672,0 -4.839,2.167 -4.839,4.839c0,2.672 2.167,4.839 4.839,4.839c0.166,0 0.33,-0.008 0.492,-0.025c1.711,4.688 5.852,8.206 10.896,9.035l-3.635,3.731l11.198,0l0.758,-3.702l-0.409,0c-0.613,1.752 -1.372,2.004 -2.683,2.004l-5.998,0l1.847,-1.899c0.369,0.032 0.743,0.05 1.12,0.053c1.047,0.011 1.968,-0.077 2.952,-0.291c4.787,-0.99 8.682,-4.42 10.33,-8.931c0.161,0.018 0.326,0.025 0.491,0.025c2.672,0 4.839,-2.167 4.839,-4.839" fill="#089c9c"/></svg>
