<?xml version="1.0" encoding="UTF-8" standalone="no"?>
<svg
   xmlns:dc="http://purl.org/dc/elements/1.1/"
   xmlns:cc="http://creativecommons.org/ns#"
   xmlns:rdf="http://www.w3.org/1999/02/22-rdf-syntax-ns#"
   xmlns:svg="http://www.w3.org/2000/svg"
   xmlns="http://www.w3.org/2000/svg"
   xmlns:sodipodi="http://sodipodi.sourceforge.net/DTD/sodipodi-0.dtd"
   xmlns:inkscape="http://www.inkscape.org/namespaces/inkscape"
   sodipodi:docname="dcamp-sqr.svg"
   inkscape:version="1.0 (4035a4fb49, 2020-05-01)"
   id="svg1646"
   version="1.1"
   viewBox="0 0 131.16193 131.16193"
   height="131.16193mm"
   width="131.16193mm"
   inkscape:export-filename="C:\Users\Bartek\Desktop\personal\bartlomiejnowak94\pics\html-sqr.png"
   inkscape:export-xdpi="96"
   inkscape:export-ydpi="96">
  <defs
     id="defs1640" />
  <sodipodi:namedview
     inkscape:snap-global="false"
     inkscape:window-maximized="1"
     inkscape:window-y="-8"
     inkscape:window-x="-8"
     inkscape:window-height="1017"
     inkscape:window-width="1920"
     fit-margin-bottom="6"
     fit-margin-right="6"
     fit-margin-left="6"
     fit-margin-top="6"
     showgrid="false"
     inkscape:document-rotation="0"
     inkscape:current-layer="layer1"
     inkscape:document-units="mm"
     inkscape:cy="239.78282"
     inkscape:cx="-236.72183"
     inkscape:zoom="0.49497474"
     inkscape:pageshadow="2"
     inkscape:pageopacity="0.0"
     borderopacity="1.0"
     bordercolor="#666666"
     pagecolor="#ffffff"
     id="base"
     lock-margins="true" />
  <metadata
     id="metadata1643">
    <rdf:RDF>
      <cc:Work
         rdf:about="">
        <dc:format>image/svg+xml</dc:format>
        <dc:type
           rdf:resource="http://purl.org/dc/dcmitype/StillImage" />
        <dc:title />
      </cc:Work>
    </rdf:RDF>
  </metadata>
  <g
     transform="translate(-39.419037,-82.919037)"
     id="layer1"
     inkscape:groupmode="layer"
     inkscape:label="Warstwa 1">
    <rect
       ry="16.570711"
       y="88.919037"
       x="45.419037"
       height="119.16193"
       width="119.16193"
       id="rect860"
       style="fill:#03ef62;fill-opacity:1;stroke:none;stroke-width:0.838062;stroke-linejoin:round;stroke-opacity:1" />
    <path
       id="path23"
       d="m 116.66155,183.24025 c -9.58483,-5.41479 -14.19628,-8.19656 -14.50144,-8.74769 -0.34575,-0.62444 -0.45007,-2.80198 -0.45906,-9.58153 -0.008,-6.09013 -0.12063,-8.77343 -0.36805,-8.77343 -0.36078,0 -4.427257,2.23878 -16.042495,8.83208 -5.833319,3.31125 -6.542696,3.63044 -8.068965,3.63076 -2.021402,3.3e-4 -3.628629,-0.94402 -4.475704,-2.63002 -0.532426,-1.05972 -0.573489,-3.12656 -0.573963,-28.88906 l -5.09e-4,-27.74768 0.737952,-1.08427 c 1.222191,-1.79578 2.376302,-2.45666 4.287772,-2.45534 1.615431,8.8e-4 2.395889,0.3991 16.080304,8.19948 10.796798,6.15437 14.496798,8.41908 14.841038,9.08393 0.36255,0.70023 0.45855,2.92277 0.45855,10.61556 0,9.10587 0.0368,9.72015 0.57396,9.57782 0.31568,-0.0837 5.42005,-2.89814 11.34306,-6.25442 l 10.7691,-6.10231 3.29861,1.87043 c 1.81425,1.02875 3.2578,2.01805 3.2079,2.19844 -0.0498,0.18038 -6.60173,4.01849 -14.55967,8.52915 l -14.46896,8.20117 v 9.48271 9.48271 l 14.40362,8.1334 c 7.92199,4.47337 14.52543,8.25519 14.6743,8.40406 0.28976,0.28978 -5.981,4.03251 -6.68395,3.98936 -0.23069,-0.0141 -6.74372,-3.59855 -14.4734,-7.96531 z m -25.959399,-29.35517 10.823289,-6.15255 v -10.46625 -10.46622 l -10.987279,-6.30271 c -6.043004,-3.46647 -11.097973,-6.31131 -11.233263,-6.32184 -0.135293,-0.01 -0.245985,10.31217 -0.245985,22.93934 0,18.15767 0.08573,22.95476 0.409974,22.94065 0.225485,-0.01 5.280453,-2.7865 11.233264,-6.17042 z"
       style="fill:#05192d;stroke-width:0.327978;fill-opacity:1" />
  </g>
</svg>
