<?xml version="1.0" encoding="UTF-8" standalone="no"?>
<svg
   xmlns:dc="http://purl.org/dc/elements/1.1/"
   xmlns:cc="http://creativecommons.org/ns#"
   xmlns:rdf="http://www.w3.org/1999/02/22-rdf-syntax-ns#"
   xmlns:svg="http://www.w3.org/2000/svg"
   xmlns="http://www.w3.org/2000/svg"
   xmlns:sodipodi="http://sodipodi.sourceforge.net/DTD/sodipodi-0.dtd"
   xmlns:inkscape="http://www.inkscape.org/namespaces/inkscape"
   inkscape:version="1.0 (4035a4fb49, 2020-05-01)"
   inkscape:export-ydpi="96"
   inkscape:export-xdpi="96"
   inkscape:export-filename="C:\Users\Bartek\Desktop\personal\bartlomiejnowak94\pics\git-sqr.png"
   sodipodi:docname="git-sqr.svg"
   id="svg8"
   version="1.1"
   viewBox="0 0 131.16193 131.16193"
   height="131.16193mm"
   width="131.16193mm">
  <defs
     id="defs2" />
  <sodipodi:namedview
     inkscape:window-maximized="1"
     inkscape:window-y="-8"
     inkscape:window-x="-8"
     inkscape:window-height="1017"
     inkscape:window-width="1920"
     fit-margin-bottom="6"
     fit-margin-right="6"
     fit-margin-left="6"
     fit-margin-top="6"
     showgrid="false"
     inkscape:document-rotation="0"
     inkscape:current-layer="layer1"
     inkscape:document-units="mm"
     inkscape:cy="289.00487"
     inkscape:cx="549.98508"
     inkscape:zoom="0.35"
     inkscape:pageshadow="2"
     inkscape:pageopacity="0.0"
     borderopacity="1.0"
     bordercolor="#666666"
     pagecolor="#ffffff"
     id="base"
     lock-margins="true" />
  <metadata
     id="metadata5">
    <rdf:RDF>
      <cc:Work
         rdf:about="">
        <dc:format>image/svg+xml</dc:format>
        <dc:type
           rdf:resource="http://purl.org/dc/dcmitype/StillImage" />
        <dc:title></dc:title>
      </cc:Work>
    </rdf:RDF>
  </metadata>
  <g
     transform="translate(-39.419037,-82.919037)"
     id="layer1"
     inkscape:groupmode="layer"
     inkscape:label="Warstwa 1">
    <rect
       ry="16.570711"
       y="88.919037"
       x="45.419037"
       height="119.16193"
       width="119.16193"
       id="rect860"
       style="fill:#333333;stroke:none;stroke-width:0.838063;stroke-linejoin:round;stroke-opacity:1" />
    <path
       id="path23"
       d="m 92.400729,187.76637 c -0.76542,-0.14932 -4.04124,-1.5125 -5.88583,-2.44929 -9.67596,-4.91407 -17.31933,-14.23743 -20.30965,-24.77368 -1.03658,-3.65231 -1.43407,-6.72287 -1.4378,-11.10665 -0.003,-3.59786 0.14892,-5.20166 0.78888,-8.32494 2.97969,-14.54231 14.26566,-26.56193 28.63967,-30.50141 8.214471,-2.25134 17.610991,-1.79515 25.349531,1.23068 9.42421,3.68493 17.00664,10.59676 21.54243,19.63719 2.07257,4.13091 3.32673,8.27243 3.95935,13.07471 0.24838,1.8855 0.2467,7.7899 -0.003,9.76755 -0.7881,6.24707 -2.85329,11.94065 -6.16219,16.98873 -4.7772,7.28814 -11.25684,12.60325 -19.14821,15.70689 -2.43481,0.9576 -3.30648,1.01389 -4.0587,0.26208 l -0.51,-0.50971 -0.0954,-7.12599 c -0.10217,-7.62713 -0.14159,-8.02643 -0.97776,-9.90409 -0.20705,-0.46495 -0.6663,-1.21002 -1.02055,-1.65572 l -0.64409,-0.81036 1.29015,-0.18058 c 4.12433,-0.57725 7.33721,-1.70765 10.10939,-3.5568 3.37127,-2.24876 5.44855,-5.73867 6.4693,-10.86864 0.3359,-1.68812 0.48092,-6.42702 0.24316,-7.94584 -0.40536,-2.58944 -1.68646,-5.46065 -3.29221,-7.37855 l -0.63262,-0.75558 0.38728,-1.33371 c 0.68756,-2.36791 0.50427,-5.68844 -0.46289,-8.38538 -0.30692,-0.85583 -0.40581,-0.97979 -0.87898,-1.10177 -1.46396,-0.3774 -5.61865,1.14527 -9.22071,3.37934 -0.89731,0.55653 -1.37761,0.76263 -1.66189,0.71315 -0.21991,-0.0383 -1.1186,-0.22109 -1.99709,-0.40624 -5.02505,-1.05908 -10.52784,-1.05908 -15.552891,0 -0.87849,0.18515 -1.78141,0.36857 -2.00649,0.40762 -0.29499,0.0512 -0.72122,-0.12901 -1.52695,-0.64547 -3.21225,-2.059 -7.76038,-3.72376 -9.43216,-3.45247 -0.50769,0.0824 -0.54406,0.13651 -0.92006,1.36923 -0.60975,1.99903 -0.7642,3.02099 -0.75212,4.97655 0.009,1.45201 0.0896,2.07557 0.40594,3.14058 l 0.39475,1.32887 -0.60641,0.71917 c -1.59117,1.88705 -2.9116,4.84391 -3.31561,7.42466 -0.2381,1.52099 -0.0925,6.2609 0.24401,7.94421 0.80711,4.03717 2.37264,7.24875 4.55506,9.34443 1.6404,1.57518 4.28579,3.10397 6.87286,3.97188 1.1244,0.37721 4.13183,1.01494 5.54851,1.17656 l 0.90104,0.10279 -0.61352,0.77616 c -0.797,1.00829 -1.37292,2.24202 -1.67873,3.59623 -0.23941,1.0601 -0.26215,1.09366 -0.90174,1.33053 -1.41044,0.52237 -2.14791,0.63811 -4.12204,0.6469 -2.0224,0.009 -2.06137,0.003 -3.11422,-0.52587 -1.36344,-0.68417 -2.54253,-1.82189 -3.62189,-3.49483 -1.56343,-2.42323 -3.93856,-4.13044 -6.04058,-4.3419 -1.20934,-0.12167 -2.11095,0.13872 -2.11095,0.60964 0,0.35873 1.26578,1.64008 2.38104,2.41031 0.38006,0.26248 1.06685,0.97142 1.52621,1.57541 0.74916,0.98506 1.12668,1.68006 2.50928,4.61945 0.75796,1.61141 2.66278,3.09485 4.7689,3.71395 0.47656,0.14009 1.85899,0.33423 3.07206,0.43141 1.80197,0.14438 2.48665,0.13524 3.74159,-0.0499 l 1.53603,-0.22662 0.0388,2.76413 c 0.0781,5.55692 0.0434,5.8547 -0.74065,6.36844 -0.41461,0.27166 -1.25801,0.41196 -1.81883,0.30256 z"
       style="fill:#ffffff;stroke-width:0.157541" />
  </g>
</svg>
