<?xml version="1.0" encoding="UTF-8" standalone="no"?>
<svg
   xmlns:dc="http://purl.org/dc/elements/1.1/"
   xmlns:cc="http://creativecommons.org/ns#"
   xmlns:rdf="http://www.w3.org/1999/02/22-rdf-syntax-ns#"
   xmlns:svg="http://www.w3.org/2000/svg"
   xmlns="http://www.w3.org/2000/svg"
   xmlns:sodipodi="http://sodipodi.sourceforge.net/DTD/sodipodi-0.dtd"
   xmlns:inkscape="http://www.inkscape.org/namespaces/inkscape"
   inkscape:export-ydpi="96"
   inkscape:export-xdpi="96"
   inkscape:export-filename="C:\Users\Bartek\Desktop\personal\bartlomiejnowak94\pics\html-sqr.png"
   width="131.16193mm"
   height="131.16193mm"
   viewBox="0 0 131.16193 131.16193"
   version="1.1"
   id="svg1646"
   inkscape:version="1.0 (4035a4fb49, 2020-05-01)"
   sodipodi:docname="html-sqr.svg">
  <defs
     id="defs1640" />
  <sodipodi:namedview
     lock-margins="true"
     id="base"
     pagecolor="#ffffff"
     bordercolor="#666666"
     borderopacity="1.0"
     inkscape:pageopacity="0.0"
     inkscape:pageshadow="2"
     inkscape:zoom="0.49497474"
     inkscape:cx="-235.59506"
     inkscape:cy="238.66882"
     inkscape:document-units="mm"
     inkscape:current-layer="layer1"
     inkscape:document-rotation="0"
     showgrid="false"
     fit-margin-top="6"
     fit-margin-left="6"
     fit-margin-right="6"
     fit-margin-bottom="6"
     inkscape:window-width="1920"
     inkscape:window-height="1017"
     inkscape:window-x="-8"
     inkscape:window-y="-8"
     inkscape:window-maximized="1" />
  <metadata
     id="metadata1643">
    <rdf:RDF>
      <cc:Work
         rdf:about="">
        <dc:format>image/svg+xml</dc:format>
        <dc:type
           rdf:resource="http://purl.org/dc/dcmitype/StillImage" />
        <dc:title></dc:title>
      </cc:Work>
    </rdf:RDF>
  </metadata>
  <g
     inkscape:label="Warstwa 1"
     inkscape:groupmode="layer"
     id="layer1"
     transform="translate(-39.419037,-82.919037)">
    <rect
       style="fill:#f16529;fill-opacity:1;stroke:none;stroke-width:0.838062;stroke-linejoin:round;stroke-opacity:1"
       id="rect860"
       width="119.16193"
       height="119.16193"
       x="45.419037"
       y="88.919037"
       ry="16.570711" />
    <path
       style="fill:#ffffff;stroke-width:0.381813"
       d="m 91.063667,192.81947 c -7.5599,-2.10705 -13.80954,-3.89138 -13.88812,-3.96516 -0.16786,-0.15765 -6.13941,-66.58913 -6.14991,-68.41572 l -0.007,-1.24089 h 33.981353 33.98137 v 1.09602 c 0,1.26802 -5.60572,64.75351 -5.92365,67.08601 l -0.21203,1.55565 -13.44558,3.71555 c -7.39506,2.04356 -13.70329,3.77947 -14.01829,3.85755 -0.31499,0.0781 -6.758096,-1.58197 -14.317993,-3.68901 z m 22.725073,-13.63472 c 4.42935,-1.23666 8.16848,-2.3636 8.30918,-2.5043 0.25154,-0.25155 2.30958,-21.56313 2.35246,-24.36047 l 0.0219,-1.43181 H 109.04145 93.6106 l -0.252335,-2.95905 c -0.138824,-1.62747 -0.282309,-3.64631 -0.318934,-4.48629 l -0.06667,-1.52725 16.322519,-0.0996 16.3225,-0.0996 v -1.08373 c 0,-0.59605 0.11111,-2.39827 0.24693,-4.00493 l 0.24693,-2.9212 H 105.0558 c -16.581813,0 -21.059013,0.10145 -21.071173,0.47725 -0.009,0.26251 0.46111,6.01834 1.04355,12.79075 l 1.05897,12.31347 h 14.844183 14.8442 l -0.21478,1.24089 c -0.11818,0.6825 -0.33228,2.87314 -0.47589,4.86812 -0.14359,1.99498 -0.3936,3.98262 -0.55554,4.417 -0.2345,0.62902 -1.23435,1.03969 -4.91199,2.01753 l -4.61756,1.22775 -4.61755,-1.22775 c -5.078087,-1.35021 -5.309584,-1.54651 -5.309584,-4.50259 0,-0.80007 -0.107365,-1.9916 -0.238641,-2.64784 l -0.238627,-1.19317 h -3.961301 -3.96131 l 0.0255,1.62271 c 0.0431,2.73948 0.93801,11.30432 1.20952,11.57582 0.39149,0.39151 15.612553,4.65562 16.791533,4.7041 0.56977,0.0234 4.65995,-0.96922 9.0893,-2.20589 z M 77.127497,107.17059 v -6.68172 h 2.29088 2.29087 v 2.09996 2.09997 h 1.90908 1.90907 v -2.09997 -2.09996 h 2.29087 2.29088 v 6.68172 6.68172 h -2.29088 -2.29087 v -2.09997 -2.09996 h -1.90907 -1.90908 v 2.09996 2.09997 h -2.29087 -2.29088 z m 18.327023,2.29087 v -4.39083 h -1.909056 -1.909071 v -2.29088 -2.29088 h 6.109006 6.109021 v 2.29088 2.29088 h -1.90907 -1.90907 v 4.39083 4.39085 H 97.745399 95.45452 Z m 9.92715,-2.29087 v -6.68172 h 2.39258 2.39257 l 1.26011,2.10676 c 0.69306,1.15873 1.41402,2.01165 1.60211,1.8954 0.18811,-0.11631 0.82097,-1.06414 1.40634,-2.10638 l 1.06434,-1.89502 2.38632,-3.7e-4 2.38634,-3.9e-4 v 6.68172 6.68172 h -2.27482 -2.27482 l -0.11155,-2.95905 -0.11155,-2.95904 -1.23736,2.00451 c -0.68055,1.10249 -1.30695,2.00453 -1.392,2.00453 -0.085,0 -0.73095,-0.89973 -1.43533,-1.99939 l -1.2807,-1.99939 -0.11154,2.95392 -0.11155,2.95391 h -2.27482 -2.27482 z m 16.79976,0 v -6.68172 h 2.29088 2.29088 v 4.39084 4.39085 h 3.05451 3.05451 v 2.29088 2.29087 h -5.34539 -5.34539 z"
       id="path1709" />
  </g>
</svg>
