<?xml version="1.0" encoding="UTF-8" standalone="no"?>
<svg
   xmlns:dc="http://purl.org/dc/elements/1.1/"
   xmlns:cc="http://creativecommons.org/ns#"
   xmlns:rdf="http://www.w3.org/1999/02/22-rdf-syntax-ns#"
   xmlns:svg="http://www.w3.org/2000/svg"
   xmlns="http://www.w3.org/2000/svg"
   xmlns:sodipodi="http://sodipodi.sourceforge.net/DTD/sodipodi-0.dtd"
   xmlns:inkscape="http://www.inkscape.org/namespaces/inkscape"
   width="131.16193mm"
   height="131.16193mm"
   viewBox="0 0 131.16193 131.16193"
   version="1.1"
   id="svg1646"
   inkscape:version="1.0 (4035a4fb49, 2020-05-01)"
   sodipodi:docname="js-sqr.svg"
   inkscape:export-filename="C:\Users\Bartek\Desktop\personal\bartlomiejnowak94\pics\js-sqr.png"
   inkscape:export-xdpi="96"
   inkscape:export-ydpi="96">
  <defs
     id="defs1640" />
  <sodipodi:namedview
     lock-margins="true"
     id="base"
     pagecolor="#ffffff"
     bordercolor="#666666"
     borderopacity="1.0"
     inkscape:pageopacity="0.0"
     inkscape:pageshadow="2"
     inkscape:zoom="0.7"
     inkscape:cx="87.102656"
     inkscape:cy="276.79424"
     inkscape:document-units="mm"
     inkscape:current-layer="layer1"
     inkscape:document-rotation="0"
     showgrid="false"
     fit-margin-top="6"
     fit-margin-left="6"
     fit-margin-right="6"
     fit-margin-bottom="6"
     inkscape:window-width="1920"
     inkscape:window-height="1017"
     inkscape:window-x="-8"
     inkscape:window-y="-8"
     inkscape:window-maximized="1" />
  <metadata
     id="metadata1643">
    <rdf:RDF>
      <cc:Work
         rdf:about="">
        <dc:format>image/svg+xml</dc:format>
        <dc:type
           rdf:resource="http://purl.org/dc/dcmitype/StillImage" />
        <dc:title></dc:title>
      </cc:Work>
    </rdf:RDF>
  </metadata>
  <g
     inkscape:label="Warstwa 1"
     inkscape:groupmode="layer"
     id="layer1"
     transform="translate(-39.419037,-82.919037)">
    <rect
       style="fill:#f5de19;fill-opacity:1;stroke:none;stroke-width:0.838062;stroke-linejoin:round;stroke-opacity:1"
       id="rect860"
       width="119.16193"
       height="119.16193"
       x="45.419037"
       y="88.919037"
       ry="16.570711" />
    <path
       style="fill:#000000;stroke-width:0.264583"
       d="m 92.106851,199.298 c -4.24691,-1.08214 -8.04329,-3.78281 -10.40661,-7.40305 -0.70245,-1.07605 -1.27718,-2.04414 -1.27718,-2.15131 0,-0.23117 8.96593,-5.68377 9.0946,-5.53086 0.0486,0.0578 0.50766,0.75991 1.02009,1.56028 1.86795,2.91757 3.55174,3.96875 6.3572,3.96875 2.02047,0 3.750079,-0.77057 4.599049,-2.04894 1.07156,-1.61353 1.15406,-3.28897 1.15406,-23.43888 v -19.22677 h 5.56668 5.56668 l -0.0893,21.10052 c -0.0996,23.51633 -0.008,22.31378 -1.97628,26.06992 -1.77404,3.38615 -5.03143,5.84788 -9.20004,6.95281 -2.533489,0.67152 -8.045879,0.74965 -10.408919,0.14753 z m 43.349539,0.33133 c -6.57391,-1.27015 -11.95224,-4.88244 -14.99182,-10.06908 -0.37559,-0.6409 -0.63866,-1.20159 -0.5846,-1.24599 0.0541,-0.0444 2.06283,-1.22776 4.46392,-2.6297 4.36002,-2.54571 4.36613,-2.54824 4.7625,-1.96801 2.00378,2.93322 4.19299,4.67502 6.98389,5.55657 1.26747,0.40035 2.18451,0.48966 4.2609,0.41494 2.33259,-0.0839 2.81474,-0.18777 4.07252,-0.87701 2.51165,-1.37634 3.50858,-3.85133 2.55601,-6.34559 -0.80305,-2.10276 -2.32852,-3.08722 -9.98896,-6.44634 -8.84198,-3.87724 -12.47979,-7.57541 -13.60795,-13.83372 -1.45497,-8.07131 2.80799,-14.89329 10.75067,-17.2042 2.49977,-0.7273 7.28012,-0.9138 9.78958,-0.38193 4.03907,0.85608 7.7492,3.28252 10.06819,6.58465 1.05937,1.50848 1.25461,1.94513 0.98444,2.20174 -0.18535,0.17605 -1.88481,1.30144 -3.77658,2.50087 -1.89178,1.19943 -3.68717,2.34278 -3.98978,2.54077 -0.51107,0.33439 -0.60926,0.26883 -1.38106,-0.92227 -2.2411,-3.4586 -7.51185,-4.60311 -10.20112,-2.21511 -0.76407,0.67847 -1.4813,2.4322 -1.48786,3.63801 -0.0142,2.60316 1.84883,4.44379 6.55325,6.4746 7.49197,3.23413 10.96556,5.20257 13.38861,7.58716 2.94958,2.90274 4.14664,5.77868 4.33255,10.40894 0.20427,5.08751 -0.87534,8.11229 -4.01932,11.26114 -3.45912,3.46447 -7.43746,4.871 -14.17548,5.01172 -2.25557,0.0471 -4.3987,0.0281 -4.7625,-0.0422 z"
       id="path1755" />
  </g>
</svg>
