<?xml version="1.0" encoding="UTF-8" standalone="no"?>
<svg
   xmlns:dc="http://purl.org/dc/elements/1.1/"
   xmlns:cc="http://creativecommons.org/ns#"
   xmlns:rdf="http://www.w3.org/1999/02/22-rdf-syntax-ns#"
   xmlns:svg="http://www.w3.org/2000/svg"
   xmlns="http://www.w3.org/2000/svg"
   xmlns:sodipodi="http://sodipodi.sourceforge.net/DTD/sodipodi-0.dtd"
   xmlns:inkscape="http://www.inkscape.org/namespaces/inkscape"
   width="131.73404mm"
   height="131.7359mm"
   viewBox="0 0 131.73404 131.73591"
   version="1.1"
   id="svg1646"
   inkscape:version="1.0 (4035a4fb49, 2020-05-01)"
   sodipodi:docname="mat-sqr.svg"
   inkscape:export-filename="C:\Users\Bartek\Desktop\personal\bartlomiejnowak94\pics\mat-sqr.png"
   inkscape:export-xdpi="96"
   inkscape:export-ydpi="96">
  <defs
     id="defs1640">
    <clipPath
       clipPathUnits="userSpaceOnUse"
       id="clipPath1878">
      <path
         style="fill:none;stroke:#000000;stroke-width:0.26206px;stroke-linecap:butt;stroke-linejoin:miter;stroke-opacity:1"
         d="M -28.677941,388.28534 H 136.88302 V 225.74871 Z"
         id="path1880" />
    </clipPath>
    <clipPath
       id="clipPath1878-7"
       clipPathUnits="userSpaceOnUse">
      <path
         id="path1880-7"
         d="M -28.677941,388.28534 H 136.88302 V 225.74871 Z"
         style="fill:none;stroke:#000000;stroke-width:0.26206px;stroke-linecap:butt;stroke-linejoin:miter;stroke-opacity:1" />
    </clipPath>
    <clipPath
       id="clipPath1878-3"
       clipPathUnits="userSpaceOnUse">
      <path
         id="path1880-9"
         d="M -28.677941,388.28534 H 136.88302 V 225.74871 Z"
         style="fill:none;stroke:#000000;stroke-width:0.26206px;stroke-linecap:butt;stroke-linejoin:miter;stroke-opacity:1" />
    </clipPath>
    <clipPath
       clipPathUnits="userSpaceOnUse"
       id="clipPath1878-7-1">
      <path
         style="fill:none;stroke:#000000;stroke-width:0.26206px;stroke-linecap:butt;stroke-linejoin:miter;stroke-opacity:1"
         d="M -28.677941,388.28534 H 136.88302 V 225.74871 Z"
         id="path1880-7-1" />
    </clipPath>
  </defs>
  <sodipodi:namedview
     lock-margins="true"
     id="base"
     pagecolor="#ffffff"
     bordercolor="#666666"
     borderopacity="1.0"
     inkscape:pageopacity="0.0"
     inkscape:pageshadow="2"
     inkscape:zoom="0.49497475"
     inkscape:cx="90.573393"
     inkscape:cy="372.79548"
     inkscape:document-units="mm"
     inkscape:current-layer="layer1"
     inkscape:document-rotation="0"
     showgrid="false"
     fit-margin-top="6"
     fit-margin-left="6"
     fit-margin-right="6"
     fit-margin-bottom="6"
     inkscape:window-width="1920"
     inkscape:window-height="1017"
     inkscape:window-x="-8"
     inkscape:window-y="-8"
     inkscape:window-maximized="1"
     inkscape:snap-global="false" />
  <metadata
     id="metadata1643">
    <rdf:RDF>
      <cc:Work
         rdf:about="">
        <dc:format>image/svg+xml</dc:format>
        <dc:type
           rdf:resource="http://purl.org/dc/dcmitype/StillImage" />
        <dc:title></dc:title>
      </cc:Work>
    </rdf:RDF>
  </metadata>
  <g
     inkscape:label="Warstwa 1"
     inkscape:groupmode="layer"
     id="layer1"
     transform="translate(-39.132982,-82.632044)">
    <g
       transform="translate(53.247291,-162.38205)"
       id="g1905"
       style="fill:#6db1a8;fill-opacity:1">
      <rect
         style="fill:#6db1a8;fill-opacity:1;stroke:none;stroke-width:0.838062;stroke-linejoin:round;stroke-opacity:1"
         id="rect860-4-8"
         width="119.16193"
         height="119.16193"
         x="-8.1143093"
         y="251.58807"
         ry="16.570711"
         clip-path="url(#clipPath1878-3)" />
      <rect
         clip-path="url(#clipPath1878-7-1)"
         ry="16.570711"
         y="251.58807"
         x="-8.1143093"
         height="119.16193"
         width="119.16193"
         id="rect860-4-8-8"
         style="fill:#6db1a8;fill-opacity:1;stroke:none;stroke-width:0.838062;stroke-linejoin:round;stroke-opacity:1"
         transform="rotate(179.67959,51.633248,311.00244)" />
    </g>
    <path
       style="fill:#ffffff;stroke-width:0.170353"
       d="m 96.002897,193.68765 c -0.08845,-0.10908 -0.712004,-1.53985 -1.385667,-3.17948 -0.673657,-1.63965 -1.329786,-3.21115 -1.458062,-3.49223 -0.128271,-0.28109 -0.459241,-1.08792 -0.735477,-1.79297 -0.276242,-0.70505 -0.845889,-2.00826 -1.265885,-2.896 -0.420003,-0.88774 -1.119776,-2.37643 -1.555061,-3.30818 -1.426088,-3.05262 -3.203115,-5.7079 -4.938183,-7.37876 -1.281601,-1.23418 -1.715214,-1.5442 -2.502165,-1.78906 -1.381656,-0.42989 -2.73782,-0.38176 -4.159404,0.1476 -2.378234,0.88559 -2.185428,0.87395 -3.188773,0.19243 -1.045994,-0.71047 -2.663057,-1.86244 -6.273529,-4.46914 -3.533969,-2.55146 -5.272912,-3.79804 -6.933326,-4.97023 -0.772937,-0.54566 -1.617087,-1.14542 -1.875892,-1.33281 -0.2588,-0.18739 -1.159575,-0.83426 -2.00171,-1.43748 -0.842142,-0.60323 -1.707237,-1.23036 -1.922448,-1.39363 l -0.391281,-0.29685 0.561633,-0.25447 c 0.671088,-0.30407 2.781434,-1.19503 3.968693,-1.67553 0.468468,-0.18959 1.005078,-0.41055 1.192464,-0.49101 0.187392,-0.0805 1.41393,-0.56569 2.725645,-1.07828 2.058878,-0.80457 2.898878,-1.15386 4.769869,-1.98343 0.187392,-0.0831 1.183951,-0.48901 2.214583,-0.90206 8.180383,-3.27844 11.516462,-4.69514 11.697013,-4.96723 0.798162,-1.20286 3.453742,-4.25966 5.419352,-6.23815 2.75107,-2.76908 3.828978,-3.48932 6.477472,-4.32818 2.687909,-0.85134 4.580763,-2.11459 7.069632,-4.71811 1.82871,-1.91296 3.25867,-3.64389 4.46125,-5.40021 1.37784,-2.01229 4.0797,-6.21292 4.40546,-6.84925 0.16169,-0.31585 1.02548,-1.68583 1.91953,-3.04439 2.57578,-3.91408 4.18823,-5.28093 6.22978,-5.28093 1.1211,0 1.96318,0.51276 3.53199,2.1507 1.48615,1.55165 2.36025,2.9347 4.18831,6.62703 2.69641,5.44622 4.51951,10.22723 9.18994,24.10032 0.99359,2.95135 1.90579,5.63441 2.02712,5.96234 0.12133,0.32792 0.65368,1.8611 1.18299,3.40705 0.52933,1.54595 1.10345,3.19411 1.27585,3.66258 0.1724,0.46847 0.635,1.73334 1.02801,2.81082 0.73097,2.00399 1.09765,2.92433 1.37353,3.44733 0.0858,0.16269 0.15603,0.37811 0.15603,0.47871 0,0.10059 0.42153,1.17003 0.93673,2.37652 0.51521,1.20649 1.1341,2.75422 1.37532,3.4394 0.24123,0.68517 0.54795,1.48734 0.68162,1.78258 0.13367,0.29524 0.24304,0.58044 0.24304,0.63377 0,0.0533 0.18237,0.5017 0.40528,0.99637 0.22291,0.49467 0.68568,1.62766 1.02838,2.51776 0.34271,0.89009 0.69402,1.77166 0.7807,1.95905 1.85064,4.00068 2.29494,5.09225 2.00381,4.92297 -1.09315,-0.63561 -4.24143,-3.34936 -7.29227,-6.28579 -3.14413,-3.02622 -6.00694,-5.2042 -7.87766,-5.99321 -3.245,-1.36862 -6.23265,-0.99907 -9.47754,1.1723 -2.90938,1.94686 -4.95979,3.92658 -8.97163,8.6623 -2.61753,3.08982 -3.11674,3.65983 -4.90642,5.6023 -0.73927,0.80238 -1.50542,1.67551 -1.70256,1.9403 -0.36436,0.48939 -2.28104,2.19858 -4.71666,4.20605 -1.77043,1.4592 -5.195733,3.25457 -7.266592,3.80877 -1.168638,0.31275 -1.602501,0.36808 -1.722831,0.2197 z"
       id="path2033" />
    <path
       style="fill:none;stroke:#6db1a8;stroke-width:2.07433;stroke-linecap:butt;stroke-linejoin:miter;stroke-miterlimit:4;stroke-dasharray:none;stroke-opacity:1"
       d="m 74.427222,171.75737 c 21.841225,-16.65174 28.824048,-39.366 38.675358,-60.90985"
       id="path2035"
       sodipodi:nodetypes="cc" />
    <path
       style="fill:none;stroke:#6db1a8;stroke-width:2;stroke-linecap:butt;stroke-linejoin:miter;stroke-miterlimit:4;stroke-dasharray:none;stroke-opacity:1"
       d="m 80.297711,142.50658 c 12.828936,9.75533 12.828936,9.75533 12.828936,9.75533"
       id="path2607" />
  </g>
</svg>
