<?xml version="1.0" encoding="UTF-8" standalone="no"?>
<svg
   xmlns:dc="http://purl.org/dc/elements/1.1/"
   xmlns:cc="http://creativecommons.org/ns#"
   xmlns:rdf="http://www.w3.org/1999/02/22-rdf-syntax-ns#"
   xmlns:svg="http://www.w3.org/2000/svg"
   xmlns="http://www.w3.org/2000/svg"
   xmlns:xlink="http://www.w3.org/1999/xlink"
   xmlns:sodipodi="http://sodipodi.sourceforge.net/DTD/sodipodi-0.dtd"
   xmlns:inkscape="http://www.inkscape.org/namespaces/inkscape"
   inkscape:version="1.0 (4035a4fb49, 2020-05-01)"
   sodipodi:docname="PWR logo.svg"
   xml:space="preserve"
   enable-background="new 0 0 267 60"
   viewBox="0 0 267 60"
   height="60px"
   width="267px"
   y="0px"
   x="0px"
   id="Warstwa_1"
   version="1.1"><metadata
   id="metadata27"><rdf:RDF><cc:Work
       rdf:about=""><dc:format>image/svg+xml</dc:format><dc:type
         rdf:resource="http://purl.org/dc/dcmitype/StillImage" /><dc:title></dc:title></cc:Work></rdf:RDF></metadata><defs
   id="defs25" /><sodipodi:namedview
   inkscape:current-layer="Warstwa_1"
   inkscape:window-maximized="1"
   inkscape:window-y="-8"
   inkscape:window-x="1432"
   inkscape:cy="30"
   inkscape:cx="133.5"
   inkscape:zoom="2.6816479"
   showgrid="false"
   id="namedview23"
   inkscape:window-height="1017"
   inkscape:window-width="1920"
   inkscape:pageshadow="2"
   inkscape:pageopacity="0"
   guidetolerance="10"
   gridtolerance="10"
   objecttolerance="10"
   borderopacity="1"
   bordercolor="#666666"
   pagecolor="#ffffff" />
                        <g
   id="g20">
                            <defs
   id="defs11">
                                <rect
   height="57.145"
   width="253"
   y="1.788"
   x="2.333"
   id="SVGID_1_" />
                            </defs>
                            <clipPath
   id="SVGID_2_">
                                <use
   id="use13"
   overflow="visible"
   xlink:href="#SVGID_1_" />
                            </clipPath>
                            <path
   id="path16"
   d="M89.126,24.979c-0.058,0.323-0.088,0.797-0.088,1.42l-0.14,0.093                                   c-0.293-0.163-0.575-0.245-0.844-0.245c-0.656,0-1.129,0.306-1.416,0.918c-0.286,0.609-0.43,1.563-0.43,2.859                                   c0,1.583,0.029,2.84,0.088,3.774c-0.222-0.049-0.475-0.074-0.756-0.074c-0.211,0-0.433,0.02-0.667,0.058                                   c0.059-1.47,0.088-3.502,0.088-6.094c0-1.134-0.029-2.038-0.088-2.709c0.234,0.048,0.487,0.074,0.756,0.074                                   c0.27,0,0.516-0.026,0.738-0.074c-0.07,0.596-0.105,1.284-0.105,2.054c0.633-1.433,1.365-2.149,2.198-2.149                                   C88.588,24.884,88.81,24.916,89.126,24.979 M98.305,29.389c0,1.37-0.395,2.476-1.18,3.319c-0.784,0.841-1.781,1.26-2.988,1.26                                   c-1.219,0-2.217-0.423-2.998-1.27c-0.779-0.848-1.168-1.95-1.168-3.309c0-1.345,0.395-2.444,1.186-3.3                                   c0.792-0.853,1.786-1.277,2.98-1.277c1.231,0,2.231,0.42,3.006,1.27C97.917,26.929,98.305,28.032,98.305,29.389 M96.792,29.5                                   c0-2.753-0.891-4.131-2.673-4.131c-1.757,0-2.637,1.334-2.637,4c0,2.691,0.885,4.038,2.655,4.038                                   C95.907,33.408,96.792,32.106,96.792,29.5 M106.603,25.557c-0.188,0.461-0.347,0.997-0.476,1.609                                   c-0.491-1.173-1.288-1.76-2.391-1.76c-0.926,0-1.647,0.349-2.163,1.04c-0.516,0.691-0.773,1.672-0.773,2.944                                   c0,1.22,0.277,2.184,0.834,2.889c0.557,0.703,1.299,1.054,2.225,1.054c0.938,0,1.823-0.448,2.655-1.344                                   c-0.024,0.347-0.035,0.578-0.035,0.689c0,0.175,0.004,0.3,0.018,0.375c-0.752,0.625-1.754,0.935-3.007,0.935                                   c-1.231,0-2.222-0.418-2.971-1.251c-0.75-0.836-1.125-1.945-1.125-3.329c0-1.395,0.395-2.509,1.187-3.345                                   c0.791-0.835,1.844-1.251,3.155-1.251C104.744,24.811,105.699,25.059,106.603,25.557 M110.804,24.566                                   c-0.294,0.186-0.715,0.474-1.267,0.86c0,4.274,0.03,7.066,0.089,8.373c-0.257-0.035-0.511-0.055-0.756-0.055                                   c-0.235,0-0.469,0.02-0.704,0.055c0.048-1.444,0.073-3.021,0.073-4.728v-2.71c-0.154,0.124-0.559,0.468-1.214,1.027v-0.971                                   c0.398-0.236,0.808-0.517,1.23-0.842v-0.486c0-2.241-0.03-4.01-0.089-5.307c0.305,0.025,0.54,0.036,0.704,0.036                                   c0.176,0,0.426-0.011,0.756-0.036c-0.059,1.333-0.089,2.884-0.089,4.653v0.207c0.457-0.348,0.88-0.705,1.267-1.066V24.566z                                   M118.942,33.501c-0.631,0.198-1.113,0.3-1.441,0.3c-0.539,0-0.861-0.362-0.967-1.084c-0.75,0.835-1.624,1.252-2.619,1.252                                   c-1.619,0-2.427-0.768-2.427-2.299c0-1.309,0.68-2.12,2.039-2.431c0.644-0.137,1.295-0.274,1.952-0.413                                   c0.551-0.122,0.919-0.273,1.107-0.445v-0.394c0-0.835-0.15-1.454-0.448-1.85c-0.299-0.4-0.8-0.599-1.503-0.599                                   c-0.961,0-1.716,0.443-2.267,1.326h-0.142l0.034-0.988c0.787-0.699,1.731-1.048,2.833-1.048c0.983,0,1.692,0.25,2.127,0.757                                   c0.433,0.503,0.649,1.299,0.649,2.383v0.224l-0.068,3.72c0,0.423,0.028,0.711,0.087,0.859c0.105,0.25,0.333,0.375,0.686,0.375                                   c0.128,0,0.229-0.007,0.298-0.021L118.942,33.501z M116.553,31.576v-2.412c-1.385,0.25-2.305,0.5-2.761,0.748                                   c-0.574,0.311-0.862,0.818-0.862,1.514c0,1.184,0.522,1.774,1.565,1.774c0.655,0,1.242-0.273,1.758-0.821                                   C116.454,32.169,116.553,31.9,116.553,31.576 M132.127,24.979c-1.874,4.485-2.987,7.425-3.339,8.82                                   c-0.176-0.035-0.351-0.055-0.527-0.055c-0.165,0-0.333,0.02-0.511,0.055c-0.117-0.771-0.838-3.021-2.162-6.746                                   c-1.078,2.752-1.815,5.002-2.214,6.746c-0.106-0.023-0.27-0.035-0.492-0.035c-0.223,0-0.394,0.012-0.511,0.035                                   c-0.305-1.395-1.324-4.335-3.06-8.82c0.235,0.048,0.493,0.074,0.774,0.074c0.293,0,0.555-0.026,0.79-0.074                                   c0.341,1.457,1.073,3.737,2.201,6.841c0.842-1.995,1.61-4.276,2.302-6.841c0.174,0.036,0.351,0.054,0.527,0.054                                   c0.163,0,0.333-0.018,0.51-0.054c0.773,3.064,1.505,5.34,2.196,6.822c0.62-1.358,1.436-3.634,2.444-6.822                                   c0.259,0.026,0.439,0.036,0.543,0.036C131.718,25.015,131.896,25.005,132.127,24.979 M148.34,21.033                                   c-0.061,1.608-0.09,2.742-0.09,3.402v0.487c0,2.03-0.028,3.438-0.088,4.225c-0.104,1.183-0.315,2.074-0.634,2.673                                   c-0.807,1.481-2.238,2.224-4.289,2.224c-1.748,0-3.017-0.453-3.813-1.355c-0.798-0.901-1.196-2.327-1.196-4.27                                   c0-0.076,0.009-0.543,0.026-1.405c0.018-0.858,0.027-1.674,0.027-2.448c0-1.01-0.02-2.186-0.054-3.533                                   c0.232,0.051,0.487,0.077,0.765,0.077c0.313,0,0.583-0.032,0.818-0.094l-0.071,6.803c0,0.947,0.041,1.664,0.123,2.15                                   c0.116,0.798,0.369,1.445,0.757,1.944c0.657,0.848,1.622,1.271,2.891,1.271c1.28,0,2.251-0.435,2.909-1.31                                   c0.375-0.496,0.62-1.183,0.738-2.054c0.083-0.586,0.124-1.565,0.124-2.936c0-2.105-0.022-4.056-0.07-5.852                                   c0.176,0.051,0.358,0.077,0.543,0.077C147.971,21.109,148.162,21.083,148.34,21.033 M157.764,33.799                                   c-0.271-0.06-0.512-0.091-0.722-0.091c-0.213,0-0.451,0.031-0.722,0.091c0.069-1.306,0.106-3.069,0.106-5.287                                   c0-1.847-0.671-2.768-2.005-2.768c-0.692,0-1.238,0.267-1.635,0.805c-0.4,0.536-0.598,1.507-0.598,2.915v0.842                                   c0,1.693,0.016,2.858,0.052,3.493c-0.271-0.06-0.516-0.091-0.737-0.091c-0.212,0-0.453,0.031-0.722,0.091                                   c0.048-0.696,0.069-1.78,0.069-3.251v-1.327c0-1.944-0.021-3.359-0.069-4.242c0.223,0.048,0.463,0.074,0.722,0.074                                   c0.268,0,0.496-0.026,0.686-0.074c-0.024,0.447-0.036,0.765-0.036,0.951c0,0.075,0.005,0.188,0.018,0.338v0.335                                   c0.665-1.208,1.588-1.812,2.761-1.812c1.875,0,2.812,1.114,2.812,3.346c0,0.31-0.005,0.769-0.017,1.374                                   c-0.011,0.602-0.017,1.048-0.017,1.337C157.71,31.771,157.727,32.757,157.764,33.799 M161.804,21.725                                   c0,0.261-0.088,0.487-0.261,0.673c-0.176,0.187-0.389,0.281-0.634,0.281c-0.246,0-0.458-0.094-0.632-0.281                                   c-0.178-0.186-0.264-0.412-0.264-0.673s0.086-0.483,0.264-0.663c0.174-0.179,0.386-0.271,0.632-0.271                                   c0.245,0,0.458,0.092,0.634,0.271C161.716,21.242,161.804,21.464,161.804,21.725 M161.63,33.799c-0.259-0.06-0.5-0.091-0.721-0.091                                   c-0.212,0-0.451,0.031-0.722,0.091c0.059-1.704,0.09-3.251,0.09-4.634c0-1.271-0.031-2.667-0.09-4.186                                   c0.223,0.048,0.462,0.074,0.722,0.074c0.279,0,0.521-0.026,0.721-0.074c-0.058,1.532-0.087,2.928-0.087,4.186                                   C161.543,30.548,161.572,32.095,161.63,33.799 M170.771,24.979c-1.899,4.473-3.058,7.413-3.481,8.82                                   c-0.128-0.023-0.312-0.035-0.544-0.035c-0.223,0-0.388,0.012-0.493,0.035c-0.48-1.644-1.612-4.585-3.394-8.82                                   c0.234,0.048,0.498,0.074,0.791,0.074c0.305,0,0.58-0.026,0.828-0.074c0.386,1.532,1.246,3.894,2.582,7.083                                   c1.125-2.318,1.995-4.678,2.604-7.083c0.176,0.048,0.363,0.074,0.563,0.074C170.436,25.053,170.618,25.027,170.771,24.979                                   M178.664,28.866v0.206c-0.012,0.087-0.017,0.156-0.017,0.204h-6.05v0.059c0,2.591,0.986,3.886,2.954,3.886                                   c1.01,0,1.909-0.417,2.708-1.253c-0.024,0.324-0.034,0.562-0.034,0.71v0.226c-0.915,0.71-1.911,1.065-2.99,1.065                                   c-1.23,0-2.229-0.424-2.996-1.271c-0.769-0.847-1.152-1.944-1.152-3.29c0-1.396,0.367-2.513,1.107-3.355                                   c0.739-0.842,1.717-1.261,2.936-1.261c1.125,0,1.995,0.351,2.611,1.055C178.357,26.552,178.664,27.557,178.664,28.866                                   M177.259,28.623v-0.32c0-0.927-0.196-1.651-0.591-2.17c-0.391-0.52-0.929-0.779-1.61-0.779c-0.665,0-1.229,0.286-1.687,0.862                                   c-0.455,0.614-0.701,1.417-0.736,2.407H177.259z M184.556,24.979c-0.059,0.323-0.091,0.797-0.091,1.42l-0.14,0.093                                   c-0.292-0.163-0.574-0.245-0.843-0.245c-0.657,0-1.13,0.306-1.416,0.918c-0.289,0.609-0.431,1.563-0.431,2.859                                   c0,1.583,0.029,2.84,0.087,3.774c-0.223-0.049-0.473-0.074-0.754-0.074c-0.213,0-0.436,0.02-0.671,0.058                                   c0.06-1.47,0.089-3.502,0.089-6.094c0-1.134-0.029-2.038-0.089-2.709c0.235,0.048,0.488,0.074,0.758,0.074                                   c0.269,0,0.515-0.026,0.737-0.074c-0.07,0.596-0.105,1.284-0.105,2.054c0.634-1.433,1.366-2.149,2.198-2.149                                   C184.017,24.884,184.234,24.916,184.556,24.979 M190.233,31.035c0,0.847-0.289,1.548-0.862,2.102                                   c-0.574,0.555-1.324,0.831-2.252,0.831c-0.913,0-1.669-0.224-2.266-0.672c0.176-0.473,0.317-0.954,0.421-1.438                                   c0.575,0.935,1.29,1.401,2.145,1.401c0.528,0,0.945-0.152,1.249-0.458c0.305-0.305,0.458-0.716,0.458-1.239                                   c0-0.747-0.464-1.256-1.39-1.53l-0.809-0.243c-0.67-0.198-1.152-0.485-1.45-0.857c-0.3-0.373-0.448-0.888-0.448-1.548                                   c0-0.747,0.245-1.361,0.736-1.847c0.492-0.484,1.146-0.725,1.951-0.725c0.846,0,1.578,0.203,2.198,0.615                                   c-0.173,0.387-0.298,0.779-0.367,1.178c-0.668-0.822-1.352-1.235-2.04-1.235c-0.445,0-0.806,0.147-1.081,0.44                                   s-0.415,0.668-0.415,1.131c0,0.772,0.446,1.297,1.337,1.572l1.195,0.373C189.672,29.233,190.233,29.951,190.233,31.035                                   M193.431,21.725c0,0.261-0.088,0.487-0.262,0.673c-0.176,0.187-0.388,0.281-0.632,0.281c-0.247,0-0.46-0.094-0.636-0.281                                   c-0.175-0.186-0.264-0.412-0.264-0.673s0.089-0.483,0.264-0.663c0.176-0.179,0.389-0.271,0.636-0.271                                   c0.244,0,0.456,0.092,0.632,0.271C193.343,21.242,193.431,21.464,193.431,21.725 M193.257,33.799c-0.26-0.06-0.5-0.091-0.72-0.091                                   c-0.214,0-0.455,0.031-0.724,0.091c0.059-1.704,0.088-3.251,0.088-4.634c0-1.271-0.029-2.667-0.088-4.186                                   c0.224,0.048,0.465,0.074,0.724,0.074c0.28,0,0.52-0.026,0.72-0.074c-0.059,1.532-0.088,2.928-0.088,4.186                                   C193.169,30.548,193.198,32.095,193.257,33.799 M207.284,24.979c-0.352,0.734-0.908,2.018-1.668,3.848l-2.356,5.665                                   c-0.855,2.058-1.29,3.151-1.502,4.035c-0.187-0.035-0.386-0.055-0.595-0.055c-0.201,0-0.406,0.02-0.618,0.055                                   c0.586-1.046,1.132-2.06,1.835-3.791l0.406-0.991l-0.74-2.056c-0.349-0.968-1.256-3.186-2.717-6.652                                   c-0.029,0.172-0.043,0.358-0.043,0.561v0.147c-0.631-0.039-1.17-0.056-1.619-0.056c-0.292,0-0.501,0.007-0.631,0.018L197,26.642                                   c0,0.362-0.012,1.021-0.033,1.981c-0.022,0.96-0.037,1.744-0.037,2.355c0,0.836,0.11,1.437,0.334,1.805                                   c0.224,0.367,0.604,0.551,1.144,0.551c0.305,0,0.715-0.132,1.23-0.391l0.122,0.409c-0.598,0.424-1.236,0.636-1.914,0.636                                   c-0.81,0-1.385-0.202-1.723-0.606c-0.341-0.405-0.51-1.057-0.51-1.954c0-0.188,0.014-0.845,0.043-1.972                                   c0.028-1.127,0.043-2.166,0.043-3.113v-0.636h-0.192c-0.293,0-0.6,0.021-0.915,0.058c0.025-0.224,0.036-0.386,0.036-0.486v-0.151                                   c-0.011-0.074-0.019-0.122-0.019-0.147c0.375,0.036,0.749,0.054,1.125,0.054v-0.616c0-0.398-0.011-0.92-0.035-1.57                                   c0.553-0.099,1.021-0.256,1.409-0.467c-0.038,0.799-0.055,1.29-0.055,1.477v1.232c0.637,0,1.387-0.036,2.251-0.108l-0.002-0.002                                   l0.016,0.002l0.02-0.002v0.005c0.239,0.045,0.514,0.068,0.826,0.068c0.317,0,0.6-0.026,0.846-0.074                                   c0.304,1.134,0.931,2.94,1.88,5.42l0.615,1.605l0.634-1.551c0.891-2.193,1.547-4.018,1.969-5.475                                   c0.176,0.048,0.374,0.074,0.598,0.074C206.917,25.053,207.11,25.027,207.284,24.979 M75.746,49.379                                   c0,1.372-0.392,2.479-1.177,3.318c-0.785,0.841-1.781,1.262-2.988,1.262c-1.219,0-2.219-0.424-2.997-1.271                                   c-0.78-0.848-1.169-1.95-1.169-3.309c0-1.345,0.396-2.446,1.186-3.299c0.791-0.854,1.786-1.28,2.981-1.28                                   c1.231,0,2.231,0.424,3.007,1.272C75.361,46.919,75.746,48.021,75.746,49.379 M74.236,49.492c0-2.754-0.893-4.133-2.674-4.133                                   c-1.757,0-2.636,1.336-2.636,4.001c0,2.69,0.885,4.038,2.655,4.038C73.35,53.398,74.236,52.096,74.236,49.492 M81.32,39.791                                   l-0.177,1.457c-0.292-0.148-0.628-0.225-1.001-0.225c-0.998,0-1.495,0.582-1.495,1.739c0,0.51,0.046,1.29,0.141,2.336h0.387                                   c0.175,0.014,0.304,0.02,0.387,0.02c0.246,0,0.591-0.013,1.037-0.039v0.769c-0.07,0-0.662-0.033-1.775-0.095                                   c0,4.125,0.046,6.804,0.14,8.039c-0.27-0.063-0.526-0.096-0.772-0.096c-0.225,0-0.481,0.033-0.774,0.096                                   c0.08-0.786,0.124-2.681,0.124-5.684v-2.355c-0.271,0-0.663,0.014-1.179,0.038v-0.712c0.352,0.026,0.599,0.039,0.739,0.039                                   c0.058,0,0.141-0.006,0.246-0.02h0.228c0.011-1.67,0.335-2.985,0.968-3.943c0.609-0.923,1.419-1.383,2.426-1.383                                   C81.122,39.772,81.237,39.779,81.32,39.791 M92.921,50.002c0,1.207-0.38,2.183-1.141,2.923c-0.762,0.739-1.775,1.11-3.042,1.11                                   c-1.171,0-2.157-0.332-2.953-0.994c0.21-0.659,0.34-1.318,0.387-1.98c0.549,1.482,1.517,2.226,2.9,2.226                                   c0.75,0,1.356-0.247,1.82-0.738c0.462-0.492,0.694-1.163,0.694-2.01c0-0.598-0.148-1.077-0.44-1.439                                   c-0.257-0.323-0.703-0.629-1.336-0.916l-1.422-0.636c-1.56-0.696-2.339-1.743-2.339-3.14c0-1.059,0.342-1.927,1.029-2.597                                   c0.685-0.675,1.579-1.011,2.681-1.011c0.925,0,1.817,0.23,2.674,0.689c-0.177,0.388-0.341,0.867-0.494,1.441                                   c-0.622-0.946-1.431-1.421-2.427-1.421c-0.645,0-1.158,0.209-1.537,0.627c-0.381,0.415-0.573,0.978-0.573,1.688                                   c0,0.97,0.59,1.729,1.777,2.276l1.425,0.652c0.819,0.374,1.412,0.81,1.774,1.308C92.742,48.559,92.921,49.206,92.921,50.002                                   M101.151,45.549c-0.188,0.46-0.345,0.994-0.473,1.606c-0.495-1.172-1.291-1.758-2.392-1.758c-0.927,0-1.646,0.348-2.163,1.039                                   c-0.517,0.691-0.773,1.671-0.773,2.942c0,1.222,0.278,2.185,0.834,2.888c0.557,0.704,1.298,1.057,2.224,1.057                                   c0.938,0,1.823-0.448,2.654-1.347c-0.023,0.35-0.035,0.579-0.035,0.693c0,0.173,0.007,0.299,0.018,0.372                                   c-0.75,0.623-1.751,0.937-3.005,0.937c-1.23,0-2.221-0.419-2.971-1.254c-0.751-0.834-1.126-1.943-1.126-3.325                                   c0-1.396,0.396-2.512,1.187-3.347s1.844-1.253,3.156-1.253C99.293,44.8,100.248,45.048,101.151,45.549 M104.192,41.717                                   c0,0.26-0.088,0.483-0.263,0.672c-0.175,0.187-0.387,0.28-0.633,0.28c-0.246,0-0.458-0.094-0.633-0.28                                   c-0.175-0.188-0.264-0.412-0.264-0.672c0-0.261,0.089-0.483,0.264-0.666c0.174-0.179,0.387-0.269,0.633-0.269                                   c0.246,0,0.458,0.09,0.633,0.269C104.104,41.233,104.192,41.456,104.192,41.717 M104.016,53.79                                   c-0.258-0.061-0.499-0.094-0.72-0.094c-0.211,0-0.453,0.033-0.722,0.094c0.06-1.705,0.089-3.253,0.089-4.635                                   c0-1.272-0.03-2.667-0.089-4.188c0.223,0.051,0.465,0.075,0.722,0.075c0.281,0,0.521-0.024,0.72-0.075                                   c-0.059,1.533-0.087,2.929-0.087,4.188C103.929,50.537,103.958,52.085,104.016,53.79 M113.351,48.856v0.204                                   c-0.011,0.088-0.017,0.157-0.017,0.208h-6.048v0.055c0,2.593,0.985,3.888,2.953,3.888c1.01,0,1.913-0.416,2.709-1.253                                   c-0.024,0.325-0.037,0.562-0.037,0.712v0.223c-0.914,0.711-1.909,1.066-2.989,1.066c-1.23,0-2.229-0.426-2.997-1.271                                   c-0.769-0.848-1.151-1.944-1.151-3.289c0-1.396,0.369-2.516,1.108-3.356c0.738-0.841,1.717-1.259,2.936-1.259                                   c1.125,0,1.995,0.35,2.61,1.054C113.043,46.541,113.351,47.547,113.351,48.856 M111.945,48.613v-0.32                                   c0-0.927-0.197-1.65-0.588-2.17c-0.393-0.521-0.93-0.782-1.609-0.782c-0.668,0-1.231,0.289-1.688,0.864                                   c-0.456,0.616-0.702,1.418-0.738,2.408H111.945z M121.983,53.79c-0.27-0.061-0.51-0.094-0.72-0.094                                   c-0.213,0-0.453,0.033-0.724,0.094c0.072-1.307,0.108-3.071,0.108-5.289c0-1.844-0.67-2.767-2.004-2.767                                   c-0.692,0-1.239,0.268-1.637,0.804c-0.398,0.536-0.597,1.509-0.597,2.916v0.841c0,1.695,0.018,2.859,0.054,3.495                                   c-0.27-0.061-0.516-0.094-0.741-0.094c-0.209,0-0.45,0.033-0.719,0.094c0.046-0.699,0.07-1.781,0.07-3.253v-1.326                                   c0-1.944-0.024-3.359-0.07-4.243c0.223,0.051,0.463,0.075,0.719,0.075c0.271,0,0.5-0.024,0.687-0.075                                   c-0.023,0.45-0.035,0.767-0.035,0.953c0,0.076,0.005,0.187,0.019,0.336v0.338c0.667-1.209,1.587-1.812,2.76-1.812                                   c1.875,0,2.813,1.113,2.813,3.343c0,0.313-0.007,0.771-0.019,1.376c-0.01,0.602-0.016,1.051-0.016,1.337                                   C121.932,51.761,121.948,52.745,121.983,53.79 M130.772,45.549c-0.188,0.46-0.343,0.994-0.474,1.606                                   c-0.492-1.172-1.289-1.758-2.39-1.758c-0.927,0-1.648,0.348-2.163,1.039c-0.517,0.691-0.773,1.671-0.773,2.942                                   c0,1.222,0.277,2.185,0.835,2.888c0.556,0.704,1.297,1.057,2.224,1.057c0.936,0,1.82-0.448,2.652-1.347                                   c-0.021,0.35-0.034,0.579-0.034,0.693c0,0.173,0.006,0.299,0.018,0.372c-0.751,0.623-1.752,0.937-3.007,0.937                                   c-1.231,0-2.22-0.419-2.971-1.254c-0.751-0.834-1.125-1.943-1.125-3.325c0-1.396,0.396-2.512,1.186-3.347                                   c0.792-0.835,1.844-1.253,3.157-1.253C128.916,44.8,129.87,45.048,130.772,45.549 M138.948,48.856v0.204                                   c-0.013,0.088-0.017,0.157-0.017,0.208h-6.049v0.055c0,2.593,0.985,3.888,2.955,3.888c1.007,0,1.91-0.416,2.708-1.253                                   c-0.025,0.325-0.034,0.562-0.034,0.712v0.223c-0.915,0.711-1.912,1.066-2.99,1.066c-1.231,0-2.231-0.426-2.998-1.271                                   c-0.769-0.848-1.15-1.944-1.15-3.289c0-1.396,0.367-2.516,1.106-3.356c0.737-0.841,1.716-1.259,2.937-1.259                                   c1.123,0,1.995,0.35,2.609,1.054C138.641,46.541,138.948,47.547,138.948,48.856 M137.543,48.613v-0.32                                   c0-0.927-0.198-1.65-0.59-2.17c-0.394-0.521-0.93-0.782-1.61-0.782c-0.665,0-1.229,0.289-1.685,0.864                                   c-0.457,0.616-0.705,1.418-0.739,2.408H137.543z M151.835,53.491c-0.631,0.2-1.114,0.301-1.44,0.301                                   c-0.539,0-0.861-0.362-0.967-1.087c-0.752,0.836-1.624,1.254-2.621,1.254c-1.616,0-2.427-0.767-2.427-2.299                                   c0-1.309,0.679-2.119,2.041-2.431c0.643-0.137,1.295-0.275,1.95-0.411c0.551-0.124,0.92-0.272,1.108-0.448v-0.394                                   c0-0.834-0.149-1.451-0.447-1.85c-0.299-0.4-0.803-0.6-1.504-0.6c-0.96,0-1.718,0.444-2.268,1.328h-0.143l0.036-0.99                                   c0.784-0.698,1.731-1.049,2.832-1.049c0.983,0,1.693,0.255,2.127,0.758c0.432,0.506,0.648,1.301,0.648,2.384v0.226l-0.067,3.721                                   c0,0.422,0.026,0.709,0.088,0.858c0.104,0.249,0.332,0.372,0.683,0.372c0.132,0,0.23-0.005,0.301-0.017L151.835,53.491z                                   M149.444,51.565v-2.41c-1.384,0.248-2.304,0.5-2.76,0.747c-0.574,0.312-0.86,0.816-0.86,1.515c0,1.184,0.521,1.775,1.563,1.775                                   c0.658,0,1.245-0.274,1.759-0.822C149.347,52.159,149.444,51.891,149.444,51.565 M160.186,53.79                                   c-0.269-0.061-0.51-0.094-0.721-0.094c-0.209,0-0.45,0.033-0.721,0.094c0.07-1.307,0.105-3.071,0.105-5.289                                   c0-1.844-0.669-2.767-2.004-2.767c-0.692,0-1.238,0.268-1.635,0.804c-0.399,0.536-0.598,1.509-0.598,2.916v0.841                                   c0,1.695,0.018,2.859,0.052,3.495c-0.269-0.061-0.517-0.094-0.737-0.094c-0.211,0-0.451,0.033-0.721,0.094                                   c0.046-0.699,0.071-1.781,0.071-3.253v-1.326c0-1.944-0.025-3.359-0.071-4.243c0.222,0.051,0.464,0.075,0.721,0.075                                   c0.271,0,0.498-0.024,0.686-0.075c-0.024,0.45-0.034,0.767-0.034,0.953c0,0.076,0.005,0.187,0.017,0.336v0.338                                   c0.669-1.209,1.589-1.812,2.76-1.812c1.873,0,2.813,1.113,2.813,3.343c0,0.313-0.006,0.771-0.021,1.376                                   c-0.011,0.602-0.015,1.051-0.015,1.337C160.134,51.761,160.148,52.745,160.186,53.79 M169.766,53.79                                   c-0.268-0.062-0.514-0.094-0.736-0.094c-0.224,0-0.47,0.032-0.737,0.094c0.022-0.473,0.035-0.84,0.035-1.103                                   c0-0.312-0.007-0.547-0.019-0.711c-0.645,1.321-1.647,1.982-3.005,1.982c-1.059,0-1.91-0.401-2.562-1.205                                   c-0.649-0.802-0.975-1.88-0.975-3.226c0-1.421,0.348-2.564,1.05-3.431c0.694-0.865,1.587-1.298,2.676-1.298                                   c1.209,0,2.136,0.572,2.78,1.72c0-0.623,0.004-1.308,0.019-2.057v-1.307c0-1.172-0.019-2.303-0.055-3.385                                   c0.307,0.086,0.557,0.132,0.755,0.132c0.212,0,0.458-0.046,0.74-0.132c-0.048,1.483-0.07,3.483-0.07,6.001                                   C169.662,48.727,169.698,51.397,169.766,53.79 M168.309,49.118c0-1.16-0.218-2.052-0.651-2.674                                   c-0.433-0.623-1.037-0.934-1.811-0.934c-0.82,0-1.463,0.341-1.923,1.027c-0.465,0.688-0.696,1.665-0.696,2.935                                   c0,1.208,0.214,2.14,0.643,2.794c0.429,0.655,1.023,0.982,1.782,0.982c0.844,0,1.498-0.352,1.962-1.057                                   C168.074,51.488,168.309,50.465,168.309,49.118 M184.359,42.127c-0.036-0.188-0.052-0.374-0.052-0.562                                   c0-0.195,0.016-0.379,0.052-0.542c-1.628,0.037-3.188,0.057-4.677,0.057c-1.464,0-2.866-0.02-4.203-0.057                                   c0.025,0.251,0.038,0.442,0.038,0.58c0,0.126-0.013,0.3-0.038,0.523c0.763-0.15,1.84-0.224,3.236-0.224h0.476v3.12                                   c0,2.418-0.029,5.34-0.088,8.769c0.201-0.025,0.478-0.038,0.844-0.038c0.362,0,0.626,0.013,0.789,0.038                                   c-0.058-2.868-0.087-5.435-0.087-7.702c0-1.758,0.029-3.153,0.087-4.187h0.512C182.537,41.903,183.573,41.977,184.359,42.127                                   M190.531,48.856v0.204c-0.015,0.088-0.019,0.157-0.019,0.208h-6.048v0.055c0,2.593,0.983,3.888,2.952,3.888                                   c1.01,0,1.912-0.416,2.71-1.253c-0.024,0.325-0.035,0.562-0.035,0.712v0.223c-0.914,0.711-1.912,1.066-2.99,1.066                                   c-1.232,0-2.23-0.426-2.997-1.271c-0.771-0.848-1.152-1.944-1.152-3.289c0-1.396,0.37-2.516,1.107-3.356                                   c0.74-0.841,1.718-1.259,2.936-1.259c1.128,0,1.996,0.35,2.613,1.054C190.225,46.541,190.531,47.547,190.531,48.856                                   M189.124,48.613v-0.32c0-0.927-0.196-1.65-0.591-2.17c-0.393-0.521-0.928-0.782-1.605-0.782c-0.67,0-1.231,0.289-1.688,0.864                                   c-0.458,0.616-0.704,1.418-0.74,2.408H189.124z M198.687,45.549c-0.185,0.46-0.346,0.994-0.474,1.606                                   c-0.491-1.172-1.289-1.758-2.392-1.758c-0.925,0-1.645,0.348-2.161,1.039c-0.519,0.691-0.773,1.671-0.773,2.942                                   c0,1.222,0.278,2.185,0.835,2.888c0.557,0.704,1.296,1.057,2.224,1.057c0.938,0,1.821-0.448,2.653-1.347                                   c-0.022,0.35-0.034,0.579-0.034,0.693c0,0.173,0.005,0.299,0.017,0.372c-0.749,0.623-1.75,0.937-3.006,0.937                                   c-1.231,0-2.22-0.419-2.97-1.254c-0.751-0.834-1.125-1.943-1.125-3.325c0-1.396,0.394-2.512,1.186-3.347                                   c0.791-0.835,1.844-1.253,3.155-1.253C196.831,44.8,197.785,45.048,198.687,45.549 M206.95,53.79                                   c-0.259-0.061-0.495-0.094-0.721-0.094c-0.21,0-0.451,0.033-0.72,0.094c0.057-2.28,0.088-3.938,0.088-4.972                                   c0-1.071-0.153-1.854-0.46-2.347c-0.307-0.49-0.823-0.737-1.554-0.737c-0.858,0-1.488,0.41-1.889,1.233                                   c-0.235,0.486-0.353,1.589-0.353,3.309v1.328c0,0.446,0.018,1.177,0.052,2.186c-0.267-0.061-0.51-0.094-0.729-0.094                                   c-0.209,0-0.439,0.033-0.696,0.094c0.059-2.816,0.091-5.152,0.091-7.01c0-2.219-0.032-4.553-0.091-7.009                                   c0.348,0.051,0.591,0.074,0.73,0.074c0.173,0,0.413-0.023,0.712-0.074c-0.046,1.397-0.069,2.784-0.069,4.168                                   c0,0.512,0.011,1.367,0.034,2.562c0.717-1.133,1.628-1.701,2.732-1.701c1.883,0,2.823,1.085,2.823,3.253                                   c0,0.237-0.007,0.675-0.027,1.318c-0.018,0.642-0.025,1.161-0.025,1.561C206.88,51.169,206.905,52.12,206.95,53.79 M216.216,53.79                                   c-0.269-0.061-0.51-0.094-0.72-0.094c-0.212,0-0.452,0.033-0.722,0.094c0.07-1.307,0.104-3.071,0.104-5.289                                   c0-1.844-0.667-2.767-2.004-2.767c-0.689,0-1.235,0.268-1.635,0.804c-0.397,0.536-0.595,1.509-0.595,2.916v0.841                                   c0,1.695,0.015,2.859,0.05,3.495c-0.27-0.061-0.516-0.094-0.737-0.094c-0.213,0-0.454,0.033-0.722,0.094                                   c0.047-0.699,0.071-1.781,0.071-3.253v-1.326c0-1.944-0.024-3.359-0.071-4.243c0.223,0.051,0.462,0.075,0.722,0.075                                   c0.27,0,0.497-0.024,0.688-0.075c-0.022,0.45-0.039,0.767-0.039,0.953c0,0.076,0.007,0.187,0.021,0.336v0.338                                   c0.667-1.209,1.588-1.812,2.758-1.812c1.876,0,2.816,1.113,2.816,3.343c0,0.313-0.009,0.771-0.021,1.376                                   c-0.011,0.602-0.018,1.051-0.018,1.337C216.162,51.761,216.18,52.745,216.216,53.79 M226.148,49.379                                   c0,1.372-0.393,2.479-1.18,3.318c-0.784,0.841-1.779,1.262-2.985,1.262c-1.219,0-2.221-0.424-2.996-1.271                                   c-0.783-0.848-1.171-1.95-1.171-3.309c0-1.345,0.394-2.446,1.187-3.299c0.792-0.854,1.783-1.28,2.98-1.28                                   c1.229,0,2.233,0.424,3.004,1.272C225.761,46.919,226.148,48.021,226.148,49.379 M224.636,49.492c0-2.754-0.892-4.133-2.67-4.133                                   c-1.759,0-2.639,1.336-2.639,4.001c0,2.69,0.885,4.038,2.656,4.038C223.754,53.398,224.636,52.096,224.636,49.492 M229.225,53.79                                   c-0.258-0.036-0.508-0.056-0.756-0.056c-0.232,0-0.467,0.02-0.701,0.056c0.045-0.834,0.069-2.653,0.069-5.457v-4.898                                   c0-1.756-0.024-2.978-0.069-3.663c0.305,0.026,0.537,0.037,0.701,0.037c0.176,0,0.429-0.011,0.756-0.037                                   c-0.058,1.146-0.087,3.064-0.087,5.757C229.138,49.679,229.167,52.433,229.225,53.79 M239.177,49.379                                   c0,1.372-0.394,2.479-1.177,3.318c-0.789,0.841-1.784,1.262-2.987,1.262c-1.223,0-2.222-0.424-3.001-1.271                                   c-0.781-0.848-1.169-1.95-1.169-3.309c0-1.345,0.395-2.446,1.188-3.299c0.789-0.854,1.783-1.28,2.981-1.28                                   c1.227,0,2.229,0.424,3.003,1.272C238.789,46.919,239.177,48.021,239.177,49.379 M237.664,49.492c0-2.754-0.891-4.133-2.675-4.133                                   c-1.757,0-2.636,1.336-2.636,4.001c0,2.69,0.885,4.038,2.659,4.038C236.78,53.398,237.664,52.096,237.664,49.492 M246.402,55.754                                   c0-0.812-0.265-1.354-0.792-1.626c-0.444-0.225-1.29-0.336-2.53-0.336c-0.105,0-0.289,0.011-0.548,0.035                                   c-1.028,0.349-1.547,1.078-1.547,2.187c0,0.7,0.223,1.267,0.672,1.703c0.441,0.436,1.028,0.653,1.755,0.653                                   c0.881,0,1.598-0.245,2.155-0.736C246.122,57.141,246.402,56.514,246.402,55.754 M245.383,47.754c0-1.646-0.607-2.468-1.823-2.468                                   c-0.58,0-1.055,0.227-1.415,0.682c-0.361,0.455-0.541,1.051-0.541,1.786c0,0.783,0.174,1.392,0.522,1.821                                   c0.35,0.43,0.828,0.646,1.434,0.646C244.775,50.221,245.383,49.399,245.383,47.754 M255.333,44.968                                   c-0.352,0.735-0.909,2.02-1.671,3.851l-2.356,5.662c-0.854,2.059-1.387,3.529-1.601,4.412c-0.188-0.036-0.384-0.055-0.595-0.055                                   c-0.199,0-0.406,0.019-0.617,0.055c0.587-1.046,1.228-2.436,1.936-4.169l0.403-0.988l-0.739-2.058                                   c-0.343-0.947-1.223-3.102-2.638-6.459v0.423c-0.384-0.038-0.746-0.058-1.088-0.058h-0.354c0.457,0.65,0.688,1.36,0.688,2.133                                   c0,0.932-0.284,1.664-0.853,2.194c-0.569,0.529-1.346,0.796-2.331,0.796c-0.151,0-0.333-0.012-0.555-0.039                                   c-0.216-0.023-0.354-0.036-0.412-0.036c-0.551,0-0.825,0.292-0.825,0.878c0,0.685,0.454,1.027,1.372,1.027                                   c-0.013,0,0.093-0.005,0.314-0.018h0.669c1.242,0,2.127,0.168,2.654,0.502c0.587,0.39,0.879,1.067,0.879,2.04                                   c0,1.146-0.41,2.079-1.232,2.796c-0.819,0.715-1.904,1.075-3.25,1.075c-0.985,0-1.761-0.247-2.332-0.739                                   c-0.567-0.494-0.852-1.144-0.852-1.954c0-1.22,0.654-2.063,1.952-2.523c-0.89-0.211-1.337-0.736-1.337-1.569                                   c0-0.661,0.465-1.24,1.39-1.739c-1.171-0.397-1.757-1.233-1.757-2.505c0-0.947,0.313-1.707,0.94-2.281                                   c0.626-0.572,1.479-0.859,2.558-0.859c0.317,0,0.7,0.035,1.149,0.103c0.452,0.07,0.755,0.104,0.906,0.104                                   c0.305,0,0.874-0.05,1.705-0.151v0.171c0.224,0.036,0.473,0.055,0.755,0.055c0.32,0,0.603-0.023,0.849-0.074                                   c0.301,1.135,0.929,2.942,1.88,5.419l0.615,1.609l0.632-1.552c0.891-2.193,1.548-4.018,1.969-5.477                                   c0.176,0.051,0.376,0.074,0.597,0.074C254.964,45.042,255.157,45.019,255.333,44.968 M84.187,21.033                                   c-0.75,2.345-2.086,6.598-4.008,12.766c-0.188-0.049-0.394-0.074-0.615-0.074c-0.246,0-0.459,0.032-0.634,0.094                                   c-0.868-3.176-1.945-6.666-3.235-10.466l-3.289,10.446c-0.232-0.06-0.437-0.091-0.614-0.091c-0.176,0-0.381,0.031-0.615,0.091                                   c-0.903-3.175-2.156-7.432-3.762-12.766c0.245,0.051,0.527,0.077,0.843,0.077c0.317,0,0.598-0.026,0.845-0.077                                   c0.961,3.778,1.974,7.44,3.041,10.993c1.22-3.553,2.321-7.215,3.306-10.993c0.176,0.051,0.362,0.077,0.561,0.077                                   c0.212,0,0.406-0.026,0.582-0.077c1.031,3.591,2.157,7.192,3.375,10.806c1.16-3.541,2.18-7.144,3.059-10.806                                   c0.176,0.051,0.364,0.077,0.562,0.077C83.812,21.109,84.012,21.083,84.187,21.033"
   fill="#fff"
   clip-path="url(#SVGID_2_)" />
                            <path
   id="path18"
   d="M15.089,11.127h33.555v-0.156L14.269,7.343v0.065                                   C15.821,8.062,16.271,9.933,15.089,11.127 M15.089,51.776V11.127c-1.304,0.924-2.867,0.515-3.448-1.11h-0.08l3.374,41.759H15.089z                                   M31.479,29.377v1.771l0.001,0.001v-1.771H31.479z M31.482,14.941l0.001,2.37c0.404-0.215,0.734-0.406,1.169-0.53                                   c0.29-0.081,0.604-0.17,0.911-0.14c0.448,0.045,0.615,0.349,0.565,0.66c0.395-0.211,1.142-0.329,1.501,0                                   c0.344,0.314,0.415,0.828,0.299,1.254c-0.4-0.428-0.915-0.535-1.458-0.269c-0.408,0.198-0.748,0.549-0.933,0.959                                   c0.176,0.203,0.742,0.041,0.936-0.061c0.213-0.109,0.401-0.288,0.642-0.549c-0.031,0.388-0.077,0.748-0.217,0.938                                   c-0.267,0.363-0.533,0.436-0.988,0.596c-0.354,0.122-0.711,0.294-1.063,0.649c-0.302,0.405-0.38,1.104-0.288,1.696                                   c0.103,0.654,0.343,1.342,0.546,2.017c0.201,0.678,0.367,1.341,0.319,1.951c1.041,0.167,2.713-0.993,3.3-1.465                                   c0.65-0.525,1.318-1.139,1.641-1.732c0.263-0.482,0.341-1.468-0.155-2.237c-0.933-1.456-0.424-3.803,1.558-4.402                                   c1.215-0.354,2.885-0.016,3.636,1.339c0.73,1.32,0.899,2.807,0.875,4.364c-0.033,2.387-0.128,3.872,0.315,5.653                                   c0.218,0.87,0.625,1.675,1.271,2.414c-0.509,0.601-1.355,0.189-2.007-0.368c-0.965-0.823-1.789-2.684-2.319-5.676l-0.101,0.37                                   c-0.025,1.803,0.209,3.179,0.598,4.788c0.395,1.627,0.967,2.575,2.362,3.64c-0.765,0.691-1.539,0.395-2.215-0.119                                   c-1.34-1.021-1.92-2.184-2.467-4.53l-0.103,0.13c-0.116,1.377,0.028,2.741,0.471,3.979c0.42,1.182,1.239,2.315,2.29,3.179                                   c-0.714,0.644-1.494,0.215-2.142-0.253c-0.917-0.666-2.285-1.949-2.724-4.464l-0.115,0.096c-0.046,1.442,0.088,2.737,0.4,3.851                                   c0.316,1.137,1.28,2.49,2.25,3.141c-0.806,0.681-1.536,0.264-2.124-0.19c-1.57-1.207-2.556-2.912-2.917-5.176l-0.141,0.072                                   c-0.167,2.459-0.157,5.155,2.046,6.73l-0.874,0.553l0.511,0.868c0.225,0.384,2.265-0.662,3.094,0                                   c0.333,0.266,0.55,0.694,0.309,1.236l-0.051-0.02c-0.021-0.384-0.217-0.585-0.469-0.689c-0.369-0.155-0.935-0.116-1.357,0.37                                   c-0.817,0.554-1.397,0.16-1.817,0.714c-0.253,0.326-0.246,0.616-0.141,0.94l-0.042,0.023c-1.127-0.588-0.073-1.68-0.282-2.046                                   l-0.55-0.961l-0.882,0.534c-0.08-0.646-1.085-4.078-1.692-4.31c-0.158,0.227-0.15,0.826-0.174,1.241                                   c-0.031,0.577,0.234,1,0.174,1.809c-0.023,0.35-0.201,0.835-0.481,1.318c0.276,0.182,0.402,0.465,0.396,0.795                                   c-0.008,0.371-0.175,0.8-0.289,1.15c-0.147,0.45-0.277,0.794-0.107,0.794c0.485-0.253,0.936-0.298,1.328-0.185                                   c0.564,0.161,0.923,0.701,1.434,0.965c0.589,0.303,1.091,0.25,1.765,0.506c-0.92,0.352-1.052,1.296-2.301,1.099                                   c-0.754-0.115-1.88-1.536-2.085-1.419c-0.145,0.421-0.052,0.913,0.03,1.575c0.038,0.33,0.077,0.705,0.08,1.134                                   c0.004,0.431-0.027,0.915-0.12,1.469c-0.128,0.737-0.394,1.685-0.824,2.694h0.01c16.876-5.642,17-29.267,17.14-36.835H31.482z                                   M21.023,20.524c-0.347,0-0.63-0.299-0.63-0.668c0-0.366,0.283-0.667,0.63-0.667c0.347,0,0.631,0.301,0.631,0.667                                   C21.654,20.226,21.37,20.524,21.023,20.524 M22.003,19.16c-0.348,0-0.63-0.298-0.63-0.665c0-0.369,0.282-0.668,0.63-0.668                                   c0.347,0,0.63,0.3,0.63,0.668C22.634,18.861,22.35,19.16,22.003,19.16 M22.532,19.665c0-0.366,0.282-0.666,0.629-0.666                                   c0.348,0,0.632,0.3,0.632,0.666c0,0.369-0.284,0.667-0.632,0.667C22.814,20.332,22.532,20.034,22.532,19.665 M30.555,17.974                                   c-0.304-0.092-0.836,0.007-1.001-0.191c-0.112-0.125-0.256-0.247-0.404-0.316c0.026-0.46,1.043-0.236,1.379,0.083                                   c0.154,0.147,0.22,0.336,0.313,0.523C30.828,18.106,30.741,18.03,30.555,17.974 M21.424,24.374l0.105,0.37                                   c0.022,1.803-0.213,3.179-0.602,4.788c-0.394,1.627-0.968,2.575-2.363,3.64c0.767,0.691,1.541,0.395,2.214-0.119                                   c1.344-1.021,1.92-2.184,2.47-4.53l0.1,0.13c0.118,1.377-0.026,2.741-0.467,3.979c-0.424,1.182-1.24,2.315-2.293,3.178                                   c0.714,0.645,1.494,0.216,2.143-0.252c0.917-0.666,2.285-1.949,2.722-4.464l0.116,0.096c0.047,1.441-0.088,2.737-0.398,3.851                                   c-0.317,1.137-1.282,2.49-2.25,3.14c0.806,0.682,1.536,0.265,2.125-0.189c1.568-1.207,2.556-2.912,2.915-5.176l0.141,0.072                                   c0.169,2.459,0.158,5.155-2.047,6.729l0.875,0.554l-0.511,0.868c-0.226,0.384-2.265-0.662-3.093,0                                   c-0.335,0.266-0.549,0.694-0.308,1.236l0.049-0.02c0.021-0.384,0.216-0.585,0.47-0.689c0.369-0.155,0.934-0.116,1.355,0.37                                   c0.82,0.554,1.396,0.16,1.819,0.714c0.25,0.326,0.246,0.616,0.14,0.939l0.042,0.024c1.127-0.588,0.072-1.68,0.281-2.046                                   l0.548-0.961l0.885,0.534c0.079-0.646,1.084-4.078,1.692-4.31c0.158,0.226,0.15,0.826,0.173,1.241c0.032,0.577-0.233,1-0.176,1.808                                   c0.024,0.351,0.202,0.836,0.483,1.319c-0.276,0.182-0.404,0.465-0.397,0.795c0.009,0.371,0.177,0.8,0.29,1.15                                   c0.149,0.45,0.278,0.791,0.107,0.791c-0.483-0.251-0.938-0.295-1.328-0.182c-0.565,0.161-0.923,0.701-1.433,0.965                                   c-0.59,0.302-1.092,0.25-1.767,0.506c0.92,0.352,1.052,1.296,2.302,1.099c0.752-0.115,1.88-1.539,2.086-1.419                                   c0.142,0.421,0.05,0.912-0.03,1.575c-0.04,0.33-0.079,0.705-0.082,1.134c-0.003,0.431,0.027,0.915,0.123,1.469                                   c0.123,0.736,0.383,1.686,0.813,2.694h0.008l0.007-20.629c-6.276-0.398-9.32-5.313-9.445-11.633h0.105                                   c0.464,4.687,4.261,9.698,9.34,9.863l0.005-12.066c-0.407-0.215-0.735-0.406-1.171-0.53c-0.291-0.081-0.604-0.17-0.911-0.141                                   c-0.449,0.046-0.614,0.35-0.566,0.661c-0.396-0.211-1.142-0.33-1.5-0.001c-0.342,0.315-0.413,0.827-0.3,1.255                                   c0.4-0.428,0.916-0.536,1.458-0.27c0.408,0.198,0.747,0.55,0.933,0.96c-0.175,0.202-0.744,0.041-0.936-0.061                                   c-0.214-0.109-0.402-0.288-0.643-0.549c0.031,0.388,0.077,0.748,0.217,0.938c0.268,0.363,0.534,0.436,0.989,0.596                                   c0.353,0.122,0.711,0.294,1.063,0.649c0.304,0.405,0.379,1.104,0.286,1.696c-0.102,0.654-0.341,1.342-0.544,2.017                                   c-0.203,0.677-0.367,1.341-0.319,1.951c-1.039,0.167-2.714-0.994-3.301-1.465c-0.651-0.525-1.317-1.139-1.642-1.732                                   c-0.261-0.482-0.339-1.468,0.155-2.237c0.935-1.456,0.424-3.803-1.555-4.402c-1.216-0.355-2.885-0.016-3.636,1.339                                   c-0.732,1.32-0.9,2.807-0.879,4.364c0.036,2.387,0.131,3.872-0.313,5.653c-0.216,0.869-0.625,1.675-1.271,2.414                                   c0.506,0.601,1.356,0.189,2.007-0.368C20.071,29.227,20.896,27.366,21.424,24.374 M40.961,19.16c0.349,0,0.633-0.298,0.633-0.665                                   c0-0.369-0.285-0.668-0.633-0.668c-0.346,0-0.63,0.3-0.63,0.668C40.331,18.861,40.615,19.16,40.961,19.16 M41.313,19.858                                   c0,0.368,0.281,0.667,0.629,0.667c0.348,0,0.63-0.299,0.63-0.667s-0.282-0.668-0.63-0.668                                   C41.594,19.189,41.313,19.49,41.313,19.858 M40.434,19.665c0-0.365-0.283-0.666-0.629-0.666c-0.349,0-0.631,0.301-0.631,0.666                                   c0,0.369,0.282,0.667,0.631,0.667C40.151,20.333,40.434,20.034,40.434,19.665 M40.932,19.514h-0.104                                   c-0.461,4.687-4.261,9.699-9.342,9.863l0.001,1.771C37.762,30.75,40.807,25.836,40.932,19.514 M32.437,17.549                                   c-0.155,0.147-0.22,0.336-0.312,0.524c0.012,0.033,0.1-0.043,0.284-0.1c0.302-0.092,0.837,0.007,1.002-0.191                                   c0.113-0.125,0.256-0.246,0.404-0.316C33.789,17.006,32.771,17.23,32.437,17.549 M57.872,57.33V2.899L56.76,1.788v54.429H2.333                                   l1.111,1.113H57.872z"
   fill="#fff"
   clip-path="url(#SVGID_2_)" />
                        </g>
                    </svg>
