<?xml version="1.0" encoding="UTF-8" standalone="no"?>
<svg
   xmlns:dc="http://purl.org/dc/elements/1.1/"
   xmlns:cc="http://creativecommons.org/ns#"
   xmlns:rdf="http://www.w3.org/1999/02/22-rdf-syntax-ns#"
   xmlns:svg="http://www.w3.org/2000/svg"
   xmlns="http://www.w3.org/2000/svg"
   xmlns:sodipodi="http://sodipodi.sourceforge.net/DTD/sodipodi-0.dtd"
   xmlns:inkscape="http://www.inkscape.org/namespaces/inkscape"
   width="131.16193mm"
   height="131.16193mm"
   viewBox="0 0 131.16193 131.16193"
   version="1.1"
   id="svg1646"
   inkscape:version="1.0 (4035a4fb49, 2020-05-01)"
   sodipodi:docname="r-sqr.svg"
   inkscape:export-filename="C:\Users\Bartek\Desktop\personal\bartlomiejnowak94\pics\r-sqr.png"
   inkscape:export-xdpi="96"
   inkscape:export-ydpi="96">
  <defs
     id="defs1640" />
  <sodipodi:namedview
     lock-margins="true"
     id="base"
     pagecolor="#ffffff"
     bordercolor="#666666"
     borderopacity="1.0"
     inkscape:pageopacity="0.0"
     inkscape:pageshadow="2"
     inkscape:zoom="0.49497475"
     inkscape:cx="275.69561"
     inkscape:cy="-185.83715"
     inkscape:document-units="mm"
     inkscape:current-layer="layer1"
     inkscape:document-rotation="0"
     showgrid="false"
     fit-margin-top="6"
     fit-margin-left="6"
     fit-margin-right="6"
     fit-margin-bottom="6"
     inkscape:window-width="1920"
     inkscape:window-height="1017"
     inkscape:window-x="-8"
     inkscape:window-y="-8"
     inkscape:window-maximized="1" />
  <metadata
     id="metadata1643">
    <rdf:RDF>
      <cc:Work
         rdf:about="">
        <dc:format>image/svg+xml</dc:format>
        <dc:type
           rdf:resource="http://purl.org/dc/dcmitype/StillImage" />
        <dc:title></dc:title>
      </cc:Work>
    </rdf:RDF>
  </metadata>
  <g
     inkscape:label="Warstwa 1"
     inkscape:groupmode="layer"
     id="layer1"
     transform="translate(-39.419037,-82.919037)">
    <rect
       style="fill:#2268bb;fill-opacity:1;stroke:none;stroke-width:0.838062;stroke-linejoin:round;stroke-opacity:1"
       id="rect860"
       width="119.16193"
       height="119.16193"
       x="45.419037"
       y="88.919037"
       ry="16.570711" />
    <path
       style="fill:#ffffff;stroke-width:0.146699"
       d="M 96.643825,179.88112 V 174.82 h -0.335161 c -1.625736,0 -8.7158,-1.56442 -11.974376,-2.64214 -4.979371,-1.64684 -10.008505,-4.12005 -13.604768,-6.69051 -8.710066,-6.2256 -13.337244,-14.39419 -12.916483,-22.80212 0.877314,-17.53098 22.792963,-31.25321 48.879673,-30.60545 9.92418,0.24642 18.29647,2.19447 26.25916,6.10992 4.48099,2.20342 8.16275,4.75468 11.18951,7.75372 2.58789,2.56421 4.33536,4.95748 5.74937,7.87415 1.55879,3.21533 2.17892,5.64331 2.30428,9.02201 0.16301,4.39338 -0.75694,8.11962 -2.97961,12.06885 -2.13446,3.79252 -6.03767,7.94625 -9.99215,10.6335 -0.66565,0.45233 -1.21028,0.87537 -1.21028,0.9401 0,0.0901 9.10146,15.54785 10.58857,17.98344 l 0.2911,0.47677 h -9.14839 -9.14839 l -3.21177,-6.05134 c -1.76646,-3.32824 -3.23131,-6.07685 -3.25521,-6.10802 -0.0239,-0.0312 -0.82111,0.14673 -1.7716,0.39535 -2.37809,0.62204 -4.86914,1.12883 -7.30274,1.4857 -1.12958,0.16565 -2.10329,0.30154 -2.1638,0.30197 -0.0605,4.4e-4 -0.11003,2.2453 -0.11003,4.98857 v 4.98777 h -8.06845 -8.068455 z M 118.2086,167.47638 c 1.25062,-0.0846 2.38668,-0.18684 2.52458,-0.22725 0.21525,-0.0631 0.17707,-0.17601 -0.26979,-0.79801 -0.63342,-0.88166 -1.72132,-1.86786 -2.3601,-2.13945 -0.33558,-0.14269 -1.17323,-0.20071 -2.89731,-0.20071 h -2.42525 v 1.73593 c 0,0.95478 0.03,1.76591 0.0666,1.80253 0.0927,0.0927 2.65474,0.01 5.36128,-0.17304 z M 96.643825,148.63014 v -16.94781 l 17.273825,0.0441 17.27383,0.0441 1.467,0.38979 c 5.71287,1.51793 9.31844,4.738 10.62338,9.48756 0.87816,3.1962 0.67213,7.41058 -0.50657,10.36223 -1.40143,3.50941 -4.41673,6.40119 -8.19833,7.86248 -1.29984,0.50229 -3.7146,1.15334 -4.32116,1.16503 -0.22275,0.004 0.29449,0.25236 1.22908,0.58945 0.88753,0.32011 2.12966,0.84308 2.76029,1.16215 l 1.14659,0.58014 1.31019,-0.73859 c 5.51073,-3.10651 8.83047,-7.63377 9.7626,-13.31362 0.3622,-2.20702 0.21337,-6.05971 -0.31255,-8.09134 -0.86057,-3.32437 -2.27179,-5.77023 -4.74451,-8.22295 -4.65433,-4.61671 -11.96176,-7.35024 -22.39204,-8.37632 -2.96404,-0.29158 -10.66001,-0.24978 -13.27628,0.0721 -8.861983,1.09035 -16.132132,3.72025 -21.53391,7.78967 -10.127353,7.62942 -10.554723,18.34689 -1.047793,26.27636 2.177267,1.81599 5.332318,3.70069 8.351878,4.98908 0.941565,0.40174 4.811192,1.80038 5.024452,1.81603 0.0605,0.005 0.110028,-7.61844 0.110028,-16.93973 z m 27.609195,3.33536 c 1.08035,-0.39247 1.9031,-1.06235 2.39079,-1.94656 0.41055,-0.74438 0.44009,-0.90157 0.44009,-2.34147 0,-1.36717 -0.0428,-1.62679 -0.37476,-2.27248 -0.2071,-0.40284 -0.65299,-0.94118 -0.99668,-1.20333 -1.14317,-0.87192 -1.54811,-0.92199 -7.45713,-0.92199 h -5.3279 v 4.47433 4.47432 l 5.31785,-0.006 c 4.63816,-0.006 5.40602,-0.0381 6.00774,-0.25672 z"
       id="path1801" />
  </g>
</svg>
