<?xml version="1.0" encoding="UTF-8" standalone="no"?>
<svg
   xmlns:dc="http://purl.org/dc/elements/1.1/"
   xmlns:cc="http://creativecommons.org/ns#"
   xmlns:rdf="http://www.w3.org/1999/02/22-rdf-syntax-ns#"
   xmlns:svg="http://www.w3.org/2000/svg"
   xmlns="http://www.w3.org/2000/svg"
   xmlns:sodipodi="http://sodipodi.sourceforge.net/DTD/sodipodi-0.dtd"
   xmlns:inkscape="http://www.inkscape.org/namespaces/inkscape"
   inkscape:version="1.0 (4035a4fb49, 2020-05-01)"
   inkscape:export-ydpi="96"
   inkscape:export-xdpi="96"
   inkscape:export-filename="C:\Users\Bartek\Desktop\personal\bartlomiejnowak94\pics\todo-sqr.png"
   sodipodi:docname="todo-sqr.svg"
   id="svg8"
   version="1.1"
   viewBox="0 0 131.16201 131.16201"
   height="131.162mm"
   width="131.162mm">
  <defs
     id="defs2" />
  <sodipodi:namedview
     lock-margins="true"
     inkscape:window-maximized="1"
     inkscape:window-y="-8"
     inkscape:window-x="-8"
     inkscape:window-height="1017"
     inkscape:window-width="1920"
     fit-margin-bottom="6"
     fit-margin-right="6"
     fit-margin-left="6"
     fit-margin-top="6"
     showgrid="false"
     inkscape:document-rotation="0"
     inkscape:current-layer="layer1"
     inkscape:document-units="mm"
     inkscape:cy="308.89264"
     inkscape:cx="104.50408"
     inkscape:zoom="0.98994949"
     inkscape:pageshadow="2"
     inkscape:pageopacity="0.0"
     borderopacity="1.0"
     bordercolor="#666666"
     pagecolor="#ffffff"
     id="base" />
  <metadata
     id="metadata5">
    <rdf:RDF>
      <cc:Work
         rdf:about="">
        <dc:format>image/svg+xml</dc:format>
        <dc:type
           rdf:resource="http://purl.org/dc/dcmitype/StillImage" />
        <dc:title></dc:title>
      </cc:Work>
    </rdf:RDF>
  </metadata>
  <g
     transform="translate(-39.419,-82.919)"
     id="layer1"
     inkscape:groupmode="layer"
     inkscape:label="Warstwa 1">
    <g
       id="g32"
       transform="matrix(0.46547656,0,0,0.46547656,45.419,88.919)">
      <path
         id="path9"
         fill="#e44332"
         d="M 224.002,0 H 31.998003 C 14.357938,0.03949644 0.06148094,14.336846 0,32 v 192 c 0,17.6 14.397104,32 31.998003,32 H 224.002 C 241.6029,256 256,241.6 256,224 V 32 C 256,14.4 241.6029,0 224.002,0" />
      <g
         id="g17"
         fill="#ffffff">
        <path
           id="path11"
           d="m 54.132778,120.80249 c 4.463244,-2.60621 100.343292,-58.325039 102.535072,-59.616192 2.19177,-1.275213 2.31132,-5.196492 -0.1594,-6.615166 -2.45479,-1.410704 -7.11729,-4.08865 -8.84679,-5.11679 -2.46942,-1.358571 -5.47049,-1.322268 -7.90632,0.09564 -1.22739,0.717307 -83.151837,48.29868 -85.885575,49.860815 -3.291642,1.880943 -7.332473,1.912823 -10.600205,0 L 0,74.018126 V 95.6011 c 10.520505,6.20072 36.718155,21.59892 43.062338,25.2253 3.785788,2.15192 7.412174,2.1041 11.07841,-0.0239" />
        <path
           id="path13"
           d="m 54.132778,161.6093 c 4.463244,-2.60622 100.343292,-58.32504 102.535072,-59.6162 2.19177,-1.27521 2.31132,-5.196488 -0.1594,-6.615162 -2.45479,-1.410704 -7.11729,-4.088651 -8.84679,-5.116791 -2.46942,-1.358571 -5.47049,-1.322267 -7.90632,0.09564 -1.22739,0.717307 -83.151837,48.298683 -85.885575,49.860813 -3.291642,1.88094 -7.332473,1.91282 -10.600205,0 L 0,114.82493 v 21.58298 c 10.520505,6.20072 36.718155,21.59891 43.062338,25.2253 3.785788,2.15192 7.412174,2.1041 11.07841,-0.0239" />
        <path
           id="path15"
           d="m 54.132778,204.96653 c 4.463244,-2.60622 100.343292,-58.32504 102.535072,-59.61619 2.19177,-1.27522 2.31132,-5.1965 -0.1594,-6.61517 -2.45479,-1.4107 -7.11729,-4.08865 -8.84679,-5.11679 -2.46942,-1.35857 -5.47049,-1.32227 -7.90632,0.0956 -1.22739,0.71731 -83.151837,48.29868 -85.885575,49.86082 -3.291642,1.88093 -7.332473,1.91281 -10.600205,0 L 0,158.18216 v 21.58298 c 10.520505,6.20072 36.718155,21.59891 43.062338,25.2253 3.785788,2.15192 7.412174,2.1041 11.07841,-0.0239" />
      </g>
    </g>
  </g>
</svg>
